<?xml version="1.0" standalone="no"?>
<!DOCTYPE svg PUBLIC "-//W3C//DTD SVG 20010904//EN"
 "http://www.w3.org/TR/2001/REC-SVG-20010904/DTD/svg10.dtd">
<svg version="1.0" xmlns="http://www.w3.org/2000/svg"
 width="156.000000pt" height="156.000000pt" viewBox="0 0 156.000000 156.000000"
 preserveAspectRatio="xMidYMid meet">
<g transform="translate(0.000000,156.000000) scale(0.100000,-0.100000)"
fill="#000000" stroke="none">
<path d="M670 1553 c-115 -19 -246 -72 -339 -136 -140 -96 -261 -271 -308
-447 -26 -97 -23 -291 5 -393 76 -269 279 -472 548 -548 112 -32 296 -32 407
-1 272 77 472 278 549 549 31 111 31 296 0 406 -40 140 -107 254 -207 351
-150 146 -312 214 -520 220 -60 2 -121 1 -135 -1z"/>
</g>
</svg>
