<?xml version="1.0" encoding="UTF-8" standalone="no"?>
<svg
   viewBox="0 0 39.109238 39.114128"
   version="1.1"
   id="svg26"
   sodipodi:docname="bitcoin-icon.svg"
   width="39.109238"
   height="39.114128"
   inkscape:version="1.2 (dc2aedaf03, 2022-05-15)"
   xmlns:inkscape="http://www.inkscape.org/namespaces/inkscape"
   xmlns:sodipodi="http://sodipodi.sourceforge.net/DTD/sodipodi-0.dtd"
   xmlns="http://www.w3.org/2000/svg"
   xmlns:svg="http://www.w3.org/2000/svg">
  <defs
     id="defs30" />
  <sodipodi:namedview
     id="namedview28"
     pagecolor="#ffffff"
     bordercolor="#666666"
     borderopacity="1.0"
     inkscape:showpageshadow="2"
     inkscape:pageopacity="0.0"
     inkscape:pagecheckerboard="0"
     inkscape:deskcolor="#d1d1d1"
     showgrid="false"
     inkscape:zoom="7.3789474"
     inkscape:cx="22.022111"
     inkscape:cy="8.4022825"
     inkscape:window-width="1918"
     inkscape:window-height="1057"
     inkscape:window-x="1920"
     inkscape:window-y="21"
     inkscape:window-maximized="1"
     inkscape:current-layer="g22" />
  <g
     transform="translate(-290.50536,-341.97896)"
     id="g24">
    <g
       transform="matrix(0.61129216,0,0,0.61129216,170.80346,315.53734)"
       id="g22">
      <path
         d="m 259.79084,75.808435 c -0.30811,17.665068 -14.87919,31.736505 -32.54646,31.427855 -17.66015,-0.30927 -31.73182,-14.881299 -31.42153,-32.545842 0.30574,-17.666566 14.87658,-31.738968 32.53872,-31.430172 17.66605,0.307894 31.73718,14.882117 31.42927,32.548159 z"
         fill="#f7931a"
         id="path2" />
      <path
         d="m 240.52299,67.63323 c -0.33713,-4.292166 -4.01099,-5.793204 -8.67388,-6.283858 l 0.10363,-5.943646 -3.61784,-0.06277 -0.10079,5.786993 c -0.95111,-0.01647 -1.92361,-0.01466 -2.88983,-0.01224 l 0.10222,-5.825296 -3.61591,-0.06322 -0.10505,5.941921 c -0.78356,0.0023 -1.55301,0.0034 -2.30309,-0.0091 l 0.004,-0.01891 -4.98987,-0.0888 -0.0665,3.863988 c 0,0 2.67251,-0.0043 2.62724,0.04413 1.46543,0.02602 1.92752,0.885089 2.05344,1.621643 l -0.11787,6.771055 c 0.10102,0.0022 0.23296,0.0088 0.38196,0.0319 -0.12052,-0.0019 -0.2495,-0.0049 -0.38216,-0.0062 l -0.1665,9.485565 c -0.0723,0.460065 -0.3563,1.190666 -1.38016,1.174574 0.0457,0.04181 -2.62989,-0.0466 -2.62989,-0.0466 l -0.79424,4.308083 4.70811,0.08201 c 0.87614,0.01633 1.73794,0.04624 2.58417,0.06639 l -0.10338,6.01133 3.61395,0.06367 0.10367,-5.947766 c 0.99194,0.03783 1.95211,0.06248 2.88962,0.07798 l -0.1049,5.920336 3.61783,0.06277 0.10588,-6.000611 c 6.08843,-0.242821 10.37224,-1.700837 11.00056,-7.403336 0.50707,-4.591753 -1.62058,-6.681697 -5.05878,-7.571067 2.1162,-1.031479 3.46047,-2.890521 3.2085,-6.031335 z m -5.28591,12.765242 c -0.0764,4.492328 -7.75949,3.847106 -10.21143,3.806637 l 0.13994,-7.964614 c 2.45262,0.04339 10.15356,-0.52762 10.07149,4.157977 z m -1.48645,-11.266376 c -0.0725,4.087057 -6.47914,3.498151 -8.52147,3.462665 l 0.12628,-7.223547 c 2.04233,0.03548 8.46915,-0.50201 8.39519,3.760882 z"
         fill="#ffffff"
         id="path4" />
    </g>
  </g>
</svg>
