<?xml version="1.0" encoding="UTF-8" standalone="no"?>
<!-- Created with Inkscape (http://www.inkscape.org/) -->

<svg
   width="73.416557mm"
   height="22.825144mm"
   viewBox="0 0 73.416557 22.825144"
   version="1.1"
   id="svg5"
   inkscape:version="1.2 (dc2aedaf03, 2022-05-15)"
   sodipodi:docname="boltz-btc-logo.svg"
   inkscape:export-filename="boltz-lnbits-thumbnail.png"
   inkscape:export-xdpi="72"
   inkscape:export-ydpi="72"
   xml:space="preserve"
   xmlns:inkscape="http://www.inkscape.org/namespaces/inkscape"
   xmlns:sodipodi="http://sodipodi.sourceforge.net/DTD/sodipodi-0.dtd"
   xmlns="http://www.w3.org/2000/svg"
   xmlns:svg="http://www.w3.org/2000/svg"><sodipodi:namedview
     id="namedview7"
     pagecolor="#ffffff"
     bordercolor="#666666"
     borderopacity="1.0"
     inkscape:showpageshadow="2"
     inkscape:pageopacity="0.0"
     inkscape:pagecheckerboard="0"
     inkscape:deskcolor="#d1d1d1"
     inkscape:document-units="mm"
     showgrid="false"
     inkscape:zoom="1.1300912"
     inkscape:cx="255.28914"
     inkscape:cy="-162.81872"
     inkscape:window-width="1918"
     inkscape:window-height="1057"
     inkscape:window-x="1920"
     inkscape:window-y="21"
     inkscape:window-maximized="1"
     inkscape:current-layer="layer1" /><defs
     id="defs2"><rect
       x="237.0775"
       y="174.43381"
       width="115.13759"
       height="63.376629"
       id="rect567" /><linearGradient
       id="paint0_linear"
       x1="-3"
       y1="-11"
       x2="-3"
       y2="56"
       gradientUnits="userSpaceOnUse"
       gradientTransform="matrix(0.39669636,0,0,0.39669636,42.718491,9.9894497)"><stop
         stop-color="#FFE96D"
         id="stop149" /><stop
         offset="1"
         stop-color="#E1C218"
         id="stop151" /></linearGradient><linearGradient
       id="paint0_linear-3"
       x1="0"
       y1="0"
       x2="0"
       y2="49"
       gradientUnits="userSpaceOnUse"
       gradientTransform="matrix(0.43002177,0,0,0.43002177,20.98559,8.3052771)"><stop
         stop-color="#FFE96D"
         id="stop136" /><stop
         offset="1"
         stop-color="#E1C218"
         id="stop138" /></linearGradient></defs><g
     inkscape:label="Ebene 1"
     inkscape:groupmode="layer"
     id="layer1"
     transform="translate(-20.985597,-7.49921)"><path
       d="m 62.677438,26.850639 c 3.776551,0 5.798115,-2.53251 5.798115,-5.99805 0,-3.487755 -2.065995,-6.020265 -5.798115,-6.020265 -3.732119,0 -5.798114,2.53251 -5.798114,6.020265 0,3.487755 2.021566,5.99805 5.798114,5.99805 z m 0,-2.999025 c -1.399544,0 -2.310359,-0.8886 -2.310359,-2.999025 0,-2.08821 0.888601,-3.02124 2.310359,-3.02124 1.421761,0 2.310361,0.910816 2.310361,3.02124 0,2.110425 -0.8886,2.999025 -2.310361,2.999025 z m 7.470152,2.799089 h 3.421108 V 10.211601 H 70.14759 Z m 10.533007,0.199936 c 1.088535,0 1.999513,-0.199936 2.354956,-0.333225 v -2.84352 h -0.222147 c -0.355443,0.133291 -0.73326,0.199936 -1.110918,0.199936 -1.021891,0 -1.488408,-0.466515 -1.488408,-1.555051 v -4.376354 h 2.777043 V 15.032258 H 80.21408 v -3.043455 h -0.222152 l -3.043455,0.622021 v 2.421434 h -2.04378 v 2.910167 h 1.888275 v 5.198309 c 0,2.110425 1.19961,3.709905 3.887629,3.709905 z m 4.124628,-0.199936 h 9.596928 v -2.910164 h -5.376051 v -0.08886 L 94.357713,17.92021 V 15.032259 H 84.82744 v 2.910166 h 5.331632 v 0.08886 l -5.353847,5.753685 z"
       fill="url(#paint0_linear)"
       id="path147"
       style="fill:url(#paint0_linear);stroke-width:0.396696"
       sodipodi:nodetypes="sssssssssscccccscccsscccccccccccssccccccccccccc" /><path
       fill-rule="evenodd"
       clip-rule="evenodd"
       d="m 27.204482,20.67628 -0.0015,0.0032 h -5.49856 c -0.205379,0 -0.376525,-0.06308 -0.513446,-0.189255 -0.136913,-0.12617 -0.205379,-0.28463 -0.205379,-0.475387 0,-0.2031 0.08714,-0.412348 0.261392,-0.627746 l 8.747274,-10.68062 c 0.161814,-0.2092416 0.34075,-0.3354038 0.536754,-0.3784822 0.196046,-0.04309 0.371884,-0.024618 0.527464,0.055392 0.155588,0.08 0.264507,0.2107808 0.326731,0.3923304 0.06226,0.1815474 0.0467,0.3984854 -0.04666,0.6508076 l -2.856636,7.5789322 h 0.475476 l 0.0015,-0.0032 h 5.498559 c 0.205379,0 0.376528,0.06308 0.513448,0.189254 0.136912,0.12617 0.205378,0.28463 0.205378,0.475389 0,0.203098 -0.08712,0.412348 -0.261411,0.627745 l -8.747255,10.680632 c -0.161813,0.209206 -0.340749,0.335375 -0.536753,0.378463 -0.196048,0.04309 -0.371878,0.02464 -0.527471,-0.0554 -0.155586,-0.07998 -0.264499,-0.210797 -0.326737,-0.39231 -0.06223,-0.181555 -0.04668,-0.3985 0.04667,-0.650835 l 2.856629,-7.57892 z"
       fill="url(#paint0_linear)"
       id="path134"
       style="fill:url(#paint0_linear-3);stroke-width:0.430021" /><g
       transform="matrix(0.16173772,0,0,0.16173772,25.981168,55.541323)"
       id="g928"><path
         d="m 176.4516,-253.50896 c -1.45439,-15.40859 -14.74405,-20.59647 -31.53183,-22.09676 l 0.0371,-21.36946 -13.0075,-0.0216 -0.036,20.80628 c -3.41952,-0.006 -6.91488,0.0561 -10.38773,0.11896 l 0.0388,-20.94402 -13.00044,-0.0216 -0.0421,21.36328 c -2.81627,0.0524 -5.58201,0.10035 -8.27865,0.0971 l -0.003,-0.0665 -17.940394,-0.0374 -0.02159,13.89235 c 0,0 9.605783,-0.16608 9.445772,0.0109 5.268764,0.0109 6.978154,3.07252 7.472384,5.71287 l -0.0413,24.34427 c 0.36398,0.003 0.8378,0.0179 1.374718,0.0931 -0.43329,-1.7e-4 -0.897138,-0.004 -1.374038,-6.1e-4 l -0.0626,34.10392 c -0.23473,1.65768 -1.21336,4.29987 -4.894428,4.29979 0.16643,0.14775 -9.455421,-0.0179 -9.455421,-0.0179 l -2.611367,15.52968 16.927166,0.0288 c 3.150078,0.006 6.249498,0.0679 9.292278,0.0927 l -0.0323,21.61272 12.99339,0.0251 0.0366,-21.38428 c 3.56757,0.0802 7.02016,0.11435 10.39075,0.1172 l -0.0423,21.28574 13.00735,0.0216 0.0417,-21.57437 c 21.87029,-1.21656 37.1855,-6.6991 39.12199,-27.23141 1.56329,-16.53305 -6.2022,-23.92491 -18.6106,-26.9275 7.54819,-3.827 12.27496,-10.58499 11.19196,-21.85998 z m -18.27879,46.18137 c -0.0216,16.15134 -27.67311,14.26597 -36.48853,14.25897 l 0.0533,-28.63558 c 8.81812,0.0179 36.46581,-2.46963 36.43525,14.37661 z m -5.97902,-40.41153 c -0.0288,14.69446 -23.09092,12.93947 -30.43374,12.92725 l 0.0457,-25.97124 c 7.34282,0.0109 30.41278,-2.28256 30.38772,13.04404 z"
         fill="#ffffff"
         id="path910"
         style="fill:#ecd138;fill-opacity:1;stroke-width:3.5948" /></g></g></svg>
