<svg width="40" height="40" viewBox="0 0 40 40" fill="none" xmlns="http://www.w3.org/2000/svg">
<path fill-rule="evenodd" clip-rule="evenodd" d="M2.66667 0H37.3333C38.8061 0 40 1.19391 40 2.66667V37.3333C40 38.8061 38.8061 40 37.3333 40H2.66667C1.19391 40 0 38.8061 0 37.3333V2.66667C0 1.19391 1.19391 0 2.66667 0ZM31.0853 11.5333L33.2307 9.47733L33.2293 9.02667H25.804L20.5093 22.2267L14.488 9.02667H6.69733V9.47733L9.20933 12.5C9.45524 12.7209 9.58146 13.0456 9.54933 13.3747V25.2493C9.62143 25.6777 9.48641 26.1149 9.18533 26.428L6.36267 29.8507V30.3027H14.3627V29.8507L11.54 26.428C11.2366 26.1154 11.0932 25.6811 11.1507 25.2493V14.9827L18.1813 30.316H18.996L25.0307 14.9827V27.1973C25.0307 27.524 25.0307 27.5867 24.816 27.8L22.6467 29.9093V30.36H33.18V29.9093L31.0853 27.852C30.8997 27.7112 30.8078 27.479 30.8467 27.2493V12.136C30.8081 11.9064 30.9 11.6743 31.0853 11.5333Z" fill="#22374F"/>
</svg>