<svg xmlns="http://www.w3.org/2000/svg" width="1094" height="525" fill="none" viewBox="0 0 1094 525"><path fill="#fff" d="m172.452 437.295-9.886-13.277v16.635c3.762.128 7.416-1.525 9.886-3.358"/><path fill="#fff" fill-rule="evenodd" d="M63.777 157.807c-15.16 19.793-25.838 44.042-30.572 70.471a49.2 49.2 0 0 0-.74 10.501 56 56 0 0 0-2.693 2.438c-11.574 11.176-17.794 26.794-17.794 44.488 0 19.309 5.043 52.536 15.49 81.301 5.228 14.396 12.25 28.932 21.622 40.197 9.388 11.288 22.854 21.201 40.506 21.201 18.143 0 28.065-13.507 33.255-24.804 2.706 3.066 5.479 6.659 8.594 10.76l.418.55c5.429 7.152 12.054 15.881 20.818 22.386 2.469 1.833 5.832 3.357 9.885 3.357v-16.635l9.886 13.277c8.757-6.5 15.38-15.223 20.808-22.372l.427-.562c3.963-5.218 7.372-9.612 10.793-13.148 4.855 11.681 14.857 27.191 34.299 27.191 17.651 0 31.118-9.913 40.506-21.201 9.371-11.265 16.394-25.801 21.622-40.197 10.447-28.765 15.491-61.992 15.491-81.301 0-17.694-6.221-33.312-17.795-44.488a56 56 0 0 0-7.143-5.843 49 49 0 0 0-.711-6.601c-4.685-26.608-15.393-51.025-30.636-70.937l-.157-.204a146 146 0 0 0-4.289-5.324l1.064-1.063-8.557-8.545.002-.001 6.593-6.583-1.537-2.46.842-1.505-2.736-1.525-1.662-2.66-1.468.915-2.122-1.183-6.469 6.459-.208.207-3.468 2.162 1.684-2.047a131 131 0 0 0-8.808-6.626 128 128 0 0 0-5.045-3.297c-18.263-11.324-39.276-17.872-61.838-17.872-23.275 0-44.9 6.968-63.557 18.957q-2.045 1.314-4.04 2.707a131 131 0 0 0-8.822 6.732l.948 1.136-3.464-2.102-8.557 8.545-.104-.103v-.001l8.532-8.519.127.078-.102-.103-6.552-6.542-2.21 1.268-1.477-.896-1.63 2.678-2.717 1.559.86 1.495-1.446 2.377 6.615 6.606 1.063 1.846a143 143 0 0 0-7.752 8.563 147 147 0 0 0-3.872 4.842m29.183 3.233 3.884-3.927 4.166-3.467c17.369-14.453 38.304-22.795 60.924-22.795 22.363 0 43.077 8.154 60.327 22.302l4.193 3.439 3.907 3.899c18.226 18.187 31.462 43.568 36.552 72.467.453 2.575.494 5.112.175 7.56l-1.109 8.52 7.695 3.844a32.5 32.5 0 0 1 8.102 5.705c6.34 6.122 10.418 15.213 10.418 27.118 0 16.396-4.516 46.84-14.039 73.063-4.761 13.107-10.626 24.745-17.489 32.995-6.863 8.252-14.146 12.475-21.887 12.475-2.364 0-4.283-.844-6.326-2.958-2.293-2.372-4.435-6.105-6.252-10.931-1.238-3.286-2.343-7.088-3.315-11.348l-3.601-15.776-14.127 7.927a95 95 0 0 1-2.542 1.375c-12.497 6.514-20.966 17.677-27.599 26.42l-.615.811c-4.294 5.652-7.958 10.405-11.836 14.215-3.878-3.81-7.543-8.563-11.836-14.215l-.614-.808c-6.631-8.743-15.097-19.904-27.591-26.417l-13.74-7.165-3.627 15.047c-.891 3.697-1.887 7.021-2.984 9.934-1.817 4.826-3.96 8.559-6.252 10.931-2.043 2.114-3.962 2.958-6.326 2.958-7.741 0-15.024-4.223-21.887-12.475-6.863-8.25-12.728-19.888-17.488-32.995-9.524-26.223-14.04-56.667-14.04-73.063 0-11.905 4.079-20.996 10.417-27.118a32.2 32.2 0 0 1 5.155-4.044l7.05-4.457-1.667-8.164a24.9 24.9 0 0 1-.105-9.389c5.091-28.431 18.074-53.436 35.929-71.493" clip-rule="evenodd"/><circle cx="61.882" cy="120.27" r="34.934" fill="#fff"/><circle cx="259.506" cy="120.27" r="34.934" fill="#fff"/><ellipse cx="162.231" cy="480.452" fill="#fff" opacity=".3" rx="78.984" ry="14.582"/><path fill="#fff" stroke="#000" stroke-width="12.151" d="M238.43 409.465c40.895 0 59.509-90.536 59.509-124.864 0-26.756-18.466-42.972-42.743-42.972-24.125 0-43.71 10.372-43.953 23.216-.001 33.897-5.968 144.62 27.187 144.62Zm-149.159 0c-40.895 0-59.51-90.536-59.51-124.864 0-26.756 18.467-42.972 42.743-42.972 24.125 0 43.711 10.372 43.954 23.216.001 33.897 5.968 144.62-27.187 144.62Z"/><path fill="#ffdf6f" stroke="#000" stroke-width="12.09" d="M55.476 273.994v-.002c-.044-.418.041-.66.128-.818.102-.187.297-.409.624-.595.676-.384 1.624-.454 2.506.063 30.307 17.764 65.264 27.948 103.269 27.948 38.012 0 73.617-10.382 104.119-28.457.876-.519 1.821-.455 2.5-.073.328.185.524.407.628.594.088.159.174.402.132.821-4.719 46.758-30.081 85.415-64.171 103.209-11.26 5.878-19.002 16.089-25.802 25.058l-.364.48-.001.002c-5.527 7.291-10.529 13.82-16.642 18.631-6.113-4.811-11.115-11.34-16.642-18.631l-.001-.002-.365-.481c-6.8-8.968-14.542-19.179-25.801-25.057h-.001c-33.96-17.725-59.257-56.158-64.116-102.69Z"/><ellipse cx="162.635" cy="273.069" fill="#000" stroke="#000" stroke-width="12.151" rx="106.932" ry="35.644"/><path stroke="#000" stroke-linecap="round" stroke-width="12.151" d="M76.765 333.016s52.744 17.822 86.68 17.822 86.68-17.822 86.68-17.822"/><circle cx="24.179" cy="24.179" r="24.179" fill="#000" transform="matrix(-1 0 0 1 86.24 96.469)"/><path stroke="#000" stroke-width="12.09" d="m58.03 117.021 45.136 45.135"/><circle cx="259.525" cy="120.648" r="24.179" fill="#000"/><path stroke="#000" stroke-width="12.09" d="m263.958 117.021-45.135 45.135"/><path fill="#ffdf6f" fill-rule="evenodd" d="M68.924 264.933c-13.032-6.204-20.616-20.136-18.076-34.343 10.904-60.981 56.347-106.718 110.751-106.718 54.535 0 100.066 45.959 110.829 107.161 2.503 14.234-5.143 28.159-18.219 34.313-27.981 13.167-59.235 20.528-92.207 20.528-33.315 0-64.876-7.515-93.078-20.941" clip-rule="evenodd"/><path fill="#000" d="m272.428 231.033 5.954-1.047zm-203.504 33.9-2.599 5.458zm-12.125-33.279c10.536-58.924 54.09-101.737 104.8-101.737v-12.09c-58.097 0-105.43 48.661-116.701 111.699zm104.8-101.737c50.832 0 94.475 43.022 104.876 102.163l11.907-2.094c-11.126-63.263-58.545-112.159-116.783-112.159zm90.036 129.959c-27.193 12.797-57.569 19.953-89.633 19.953v12.089c33.881 0 66.011-7.564 94.781-21.103zm-89.633 19.953c-32.398 0-63.072-7.306-90.48-20.354l-5.196 10.916c28.997 13.805 61.443 21.527 95.676 21.527zm104.473-47.749c2.006 11.412-4.104 22.744-14.84 27.796l5.148 10.939c15.416-7.255 24.598-23.773 21.599-40.829zm-221.577-2.554c-3.045 17.025 6.064 33.551 21.428 40.865l5.196-10.916c-10.7-5.094-16.76-16.431-14.723-27.821z"/><path fill="#000" fill-rule="evenodd" d="M92.176 249.773c-10.49-4.273-16.713-15.434-13.078-26.161 11.21-33.083 43.909-57.023 82.501-57.023s71.291 23.94 82.5 57.023c3.635 10.728-2.587 21.889-13.077 26.161-21.425 8.725-44.863 13.533-69.423 13.533s-47.998-4.808-69.423-13.533" clip-rule="evenodd"/><ellipse cx="189.405" cy="218.171" fill="#fff" rx="20.149" ry="16.12"/><ellipse cx="131.723" cy="218.181" fill="#fff" rx="20.149" ry="16.12"/><path fill="#fff" d="M557.242 263.387h-42.547l20.794-59.181zm-49.904-128.92L425.763 352h57.902l15.035-42.867h75.177l15.675 46.066 57.263-5.758-81.255-214.974zM721.012 352V126.15l-58.222 3.519V352zm61.343 0 28.791-29.111V126.15l-58.222 3.519V352zm9.917-94.691q9.277-9.597 17.275-15.355 7.996-5.758 15.675-5.758 9.276 0 15.355 4.159 6.398 4.158 9.597 12.476 3.519 7.997 3.519 19.834 0 11.835-3.519 20.473t-9.277 13.116q-5.759 4.479-13.116 4.479-8.317 0-17.275-4.479-8.956-4.798-18.234-13.436l-16.315 34.23q8.957 10.236 17.914 16.635 9.277 6.077 18.555 8.957 9.597 2.879 19.194 2.879 24.632 0 42.866-9.277 18.555-9.277 28.792-27.832 10.556-18.553 10.556-46.065 0-27.832-10.556-45.746-10.237-17.915-28.152-26.552t-40.947-8.637q-11.837 0-23.033 4.158t-20.474 10.877q-8.957 6.398-14.715 13.436zm179.147 95.331q-1.6 4.479-8.317 8.957t-15.356 8.317a462 462 0 0 1-15.995 7.038l19.514 45.106q15.356-3.519 29.751-10.876 14.395-7.358 25.274-17.915c7.25-7.038 12.47-14.715 15.67-23.033l68.14-173.386h-57.9l-29.75 87.653-31.671-93.411-53.743 15.355 55.663 142.676z"/></svg>