<svg xmlns="http://www.w3.org/2000/svg" width="112" height="22" fill="none" viewBox="0 0 112 22"><path fill="#00c7f9" fill-rule="evenodd" d="M.002 14.955 12.599.656l12.598 14.299-7.686 6.389H7.696L0 14.954zm12.6 3.856h.136c2.526-.07 4.712-1.994 4.707-4.454 0-.821-.39-1.964-.786-2.628q-.327-.621-3.949-6.936c-.036-.101-.187-.101-.221 0 0 0-3.535 6.151-3.949 6.941-.395.664-.786 1.807-.786 2.628 0 2.455 2.186 4.38 4.715 4.45z" clip-rule="evenodd"/><path fill="#00c7f9" d="M51.576 19.333h-3.628l-5.18-9.963-5.18 9.963h-3.633l8.814-16.701 8.808 16.7zM69.1 16.927q.795-.764 1.371-1.739 1.14-1.926 1.139-4.296t-1.15-4.308a8.3 8.3 0 0 0-3.135-3.055q-1.986-1.115-4.448-1.115c-1.64 0-3.104.37-4.436 1.115a8.27 8.27 0 0 0-3.147 3.055q-1.15 1.94-1.15 4.308 0 2.369 1.15 4.296a8.2 8.2 0 0 0 3.147 3.03q1.964 1.084 4.379 1.102l10.041.012v-2.406zm-1.585-3.414a5 5 0 0 1-1.925 1.854q-1.2.664-2.679.673h-.07q-1.476-.01-2.679-.675a5.02 5.02 0 0 1-2.628-4.482 5.08 5.08 0 0 1 2.628-4.505q1.223-.682 2.713-.681 1.493 0 2.714.681a5.08 5.08 0 0 1 2.628 4.505q-.001 1.451-.704 2.628zm24.033-10.85v9.76q0 2.104-.91 3.736a6.35 6.35 0 0 1-2.564 2.529q-1.655.899-3.758.898c-1.402 0-2.675-.299-3.769-.898a6.3 6.3 0 0 1-2.552-2.541q-.91-1.642-.91-3.722v-9.76h3.45v9.76q0 1.182.474 2.093a3.4 3.4 0 0 0 1.323 1.406q.85.495 1.986.496c.757 0 1.398-.166 1.974-.496q.863-.498 1.335-1.406.474-.91.473-2.093v-9.76h3.451zm20.45 16.67h-3.628l-5.18-9.963-5.18 9.963h-3.633l8.815-16.701 8.808 16.7z"/></svg>