<svg xmlns="http://www.w3.org/2000/svg" id="Layer_1" viewBox="0 0 741.07 788.07"><defs><clipPath id="clippath"><path d="M185.04 185.04h370.07v417.47H185.04z" style="fill:none"/></clipPath><style>.st3{fill:#05163d}</style></defs><g style="clip-path:url(#clippath)"><path d="M199.08 311.99v163.76c0 10.39 5.54 20.09 14.64 25.23l141.7 81.83c9.01 5.24 20.19 5.24 29.19 0l141.79-81.83c9.01-5.24 14.64-14.84 14.64-25.23V311.99c0-10.39-5.54-20.09-14.64-25.33l-141.79-81.83c-9-5.24-20.18-5.24-29.19 0l-141.79 81.83c-8.91 5.24-14.55 14.84-14.55 25.33" class="st3"/><path d="m401.04 425.58-20.29 55.41c-.59 1.48-.59 3.26 0 4.75l34.73 95.39 40.27-23.25-48.29-132.39c-1.09-2.97-5.34-2.97-6.43.1Zm40.47-93.31c-1.09-3.07-5.34-3.07-6.53 0l-20.28 55.41c-.59 1.58-.59 3.26 0 4.75l57 156.24 40.27-23.25-70.45-193.15Z" style="fill:#12aaff"/><path d="M370.07 210.86c.99 0 1.98.3 2.87.79l153.37 88.56c1.78.99 2.87 2.87 2.87 4.95v177.12c0 2.08-1.09 3.96-2.87 4.95l-153.37 88.66c-.89.49-1.88.79-2.87.79s-1.98-.3-2.87-.79l-153.37-88.56c-1.78-.99-2.87-2.87-2.87-4.95V305.16c0-2.08 1.09-3.96 2.87-4.95l153.37-88.56c.89-.49 1.88-.79 2.87-.79m0-25.82c-5.44 0-10.98 1.48-15.83 4.25l-153.37 88.56c-9.7 5.64-15.83 16.03-15.83 27.31v177.12c0 11.28 6.04 21.77 15.83 27.41l153.37 88.56c4.85 2.87 10.29 4.25 15.83 4.25s10.98-1.48 15.83-4.25l153.37-88.56c9.8-5.64 15.83-16.03 15.83-27.41V305.16c0-11.28-6.04-21.77-15.83-27.41L385.9 189.29c-4.95-2.77-10.39-4.25-15.83-4.25" style="fill:#9dcced"/><path d="m268.64 548.87 14.15-38.59 28.3 23.55-26.42 24.24z" class="st3"/><path d="M357.11 292.59h-38.89c-2.87 0-5.54 1.78-6.53 4.55l-83.32 228.57 40.27 23.25 91.83-251.73c.79-2.28-.89-4.65-3.37-4.65Zm68.07 0h-38.89c-2.87 0-5.54 1.78-6.53 4.55l-95.09 260.93 40.27 23.25 103.5-284.08c.89-2.28-.89-4.65-3.27-4.65Z" style="fill:#fff"/></g></svg>