<?xml version="1.0" encoding="UTF-8"?>
<svg id="Layer_1" xmlns="http://www.w3.org/2000/svg" xmlns:xlink="http://www.w3.org/1999/xlink" version="1.1" viewBox="0 0 741.07 788.07">
  <!-- Generator: Adobe Illustrator 30.0.0, SVG Export Plug-In . SVG Version: 2.1.1 Build 123)  -->
  <defs>
    <style>
      .st0 {
        fill: none;
      }

      .st1 {
        fill: #12aaff;
      }

      .st2 {
        fill: #fff;
      }

      .st3 {
        fill: #05163d;
      }

      .st4 {
        fill: #9dcced;
      }

      .st5 {
        clip-path: url(#clippath);
      }
    </style>
    <clipPath id="clippath">
      <rect class="st0" x="185.04" y="185.04" width="370.07" height="417.47"/>
    </clipPath>
  </defs>
  <g class="st5">
    <g>
      <path class="st3" d="M199.08,311.99v163.76c0,10.39,5.54,20.09,14.64,25.23l141.7,81.83c9.01,5.24,20.19,5.24,29.19,0l141.79-81.83c9.01-5.24,14.64-14.84,14.64-25.23v-163.76c0-10.39-5.54-20.09-14.64-25.33l-141.79-81.83c-9-5.24-20.18-5.24-29.19,0l-141.79,81.83c-8.91,5.24-14.55,14.84-14.55,25.33Z"/>
      <path class="st1" d="M401.04,425.58l-20.29,55.41c-.59,1.48-.59,3.26,0,4.75l34.73,95.39,40.27-23.25-48.29-132.39c-1.09-2.97-5.34-2.97-6.43.1Z"/>
      <path class="st1" d="M441.51,332.27c-1.09-3.07-5.34-3.07-6.53,0l-20.28,55.41c-.59,1.58-.59,3.26,0,4.75l57,156.24,40.27-23.25-70.45-193.15Z"/>
      <path class="st4" d="M370.07,210.86c.99,0,1.98.3,2.87.79l153.37,88.56c1.78.99,2.87,2.87,2.87,4.95v177.12c0,2.08-1.09,3.96-2.87,4.95l-153.37,88.66c-.89.49-1.88.79-2.87.79s-1.98-.3-2.87-.79l-153.37-88.56c-1.78-.99-2.87-2.87-2.87-4.95v-177.22c0-2.08,1.09-3.96,2.87-4.95l153.37-88.56c.89-.49,1.88-.79,2.87-.79ZM370.07,185.04c-5.44,0-10.98,1.48-15.83,4.25l-153.37,88.56c-9.7,5.64-15.83,16.03-15.83,27.31v177.12c0,11.28,6.04,21.77,15.83,27.41l153.37,88.56c4.85,2.87,10.29,4.25,15.83,4.25s10.98-1.48,15.83-4.25l153.37-88.56c9.8-5.64,15.83-16.03,15.83-27.41v-177.12c0-11.28-6.04-21.77-15.83-27.41l-153.37-88.46c-4.95-2.77-10.39-4.25-15.83-4.25Z"/>
      <path class="st3" d="M268.64,548.87l14.15-38.59,28.3,23.55-26.42,24.24-16.03-9.2Z"/>
      <path class="st2" d="M357.11,292.59h-38.89c-2.87,0-5.54,1.78-6.53,4.55l-83.32,228.57,40.27,23.25,91.83-251.73c.79-2.28-.89-4.65-3.37-4.65Z"/>
      <path class="st2" d="M425.18,292.59h-38.89c-2.87,0-5.54,1.78-6.53,4.55l-95.09,260.93,40.27,23.25,103.5-284.08c.89-2.28-.89-4.65-3.27-4.65Z"/>
    </g>
  </g>
</svg>