<svg xmlns="http://www.w3.org/2000/svg" width="500" height="280" fill="none" viewBox="0 0 500 280"><path fill="url(#a)" fill-rule="evenodd" d="m152.155 149.497-16.626-41.287H93.964L107.444 75h48.98l37.746 93.57h-13.48c-12.807 0-23.816-7.18-28.535-19.073m43.813 23.561 12.859 31.863H93.963l6.741-16.605c3.819-9.424 12.582-15.258 22.693-15.258zm-79.312-53.853c2.921 4.263 3.37 9.2 1.573 13.912l-29.02 71.804H55l37.166-92.448h11.908c5.168 0 9.661 2.468 12.582 6.732" clip-rule="evenodd"/><path fill="#fbfbfb" d="M350.05 76.09h14.077v23.73l18.985-23.73h16.008l-20.433 25.339 21.72 31.775H384.72l-15.284-22.524-5.309 6.435v16.089H350.05zm-29.702 0c11.744 0 20.915 5.952 20.915 17.134 0 7.4-4.022 12.147-10.538 13.916 6.274.644 9.17 3.54 9.653 9.814l1.368 16.25h-14.078l-1.046-13.756c-.321-4.827-2.735-6.435-8.768-6.435h-9.573v20.191h-14.077V76.089zm-12.067 25.419h9.734c5.792 0 8.849-2.413 8.849-6.918s-3.057-6.998-8.849-6.998h-9.734zm-77.628 31.695 20.593-57.115h16.249l20.594 57.115h-14.4l-3.7-10.78h-21.317l-3.701 10.78zm21.88-21.961h13.675l-6.837-20.03zm159.186 72.468c1.045 5.551 4.907 9.171 11.503 9.171 4.827 0 8.044-1.931 7.964-5.551-.081-3.7-3.137-5.631-11.262-7.561-13.354-3.138-21.157-8.366-21.157-17.537 0-10.618 9.01-17.295 22.685-17.295 12.952 0 21.8 7.883 23.168 19.708l-13.917.644c-.563-5.631-4.183-9.01-9.653-9.01-4.907 0-8.286 2.414-7.964 6.195.161 4.102 5.068 5.631 10.78 6.918 13.434 2.735 21.558 8.366 21.558 17.617 0 10.94-9.572 17.295-22.524 17.295-14.399 0-24.374-7.723-25.178-19.95zm-68.775 19.631v-57.114h21.237c16.249 0 24.293 4.827 24.293 15.847 0 6.838-4.344 10.94-12.066 11.745h-.081c9.573.804 14.561 5.309 14.561 13.353 0 10.619-7.964 16.169-23.49 16.169zm14.077-11.02h10.86c5.148 0 8.929-2.092 8.929-6.516 0-4.505-3.7-6.677-8.929-6.677h-10.86zm0-22.846h8.527c5.229 0 8.849-1.931 8.849-6.033 0-4.264-3.459-6.194-8.849-6.194h-8.527zm-77.66 33.866 20.594-57.114h16.249l20.593 57.114h-14.399l-3.7-10.779h-21.317l-3.701 10.779zm21.881-21.96h13.675l-6.838-20.031zm-67.193 21.96v-57.114h14.078v45.611h25.5v11.503z"/><defs><radialGradient id="a" cx="0" cy="0" r="1" gradientTransform="rotate(.781 -12434.963 11512.579)scale(114.341 135.38)" gradientUnits="userSpaceOnUse"><stop stop-color="#fc8d4e"/><stop offset="1" stop-color="#ffaf82"/></radialGradient></defs></svg>