<svg xmlns="http://www.w3.org/2000/svg" width="174" height="36" fill="none" viewBox="0 0 174 36"><path d="m24.484 18.137-.172-.146.172-.132c.122-.088.235-.19.323-.286a6.7 6.7 0 0 0 1.997-4.799C26.804 9.04 23.762 6 20.029 6H8.856l2.12 3.092h9.054a3.685 3.685 0 0 1 3.681 3.682 3.63 3.63 0 0 1-1.085 2.596 3.66 3.66 0 0 1-2.596 1.093h-4.95l3.749-5.366h-3.77l-2.946 4.21-6.01-8.606L3.4 8.26l5.739 8.202H0v3.094h9.139L3.4 27.759l2.702 1.56 6.01-8.606 2.946 4.21h3.77l-3.748-5.366h4.95a3.68 3.68 0 0 1 3.68 3.673c0 .98-.387 1.908-1.08 2.61a3.7 3.7 0 0 1-2.6 1.072h-9.06l.007.018L8.87 30h11.16c1.81 0 3.508-.697 4.777-1.967a6.72 6.72 0 0 0 1.997-4.803c0-1.95-.848-3.81-2.32-5.093m13.223-8.959h8.479q1.128 0 2.021.34a4.4 4.4 0 0 1 1.549.946q.63.603.945 1.496.34.866.341 1.916 0 1.05-.289 1.785-.263.71-.735 1.182a2.9 2.9 0 0 1-1.05.708 3.6 3.6 0 0 1-1.207.263v.157q.603 0 1.286.236a3.6 3.6 0 0 1 1.286.762q.604.498.998 1.312.393.787.394 1.969a5.8 5.8 0 0 1-.368 2.074 5 5 0 0 1-.971 1.653q-.63.71-1.496 1.13A4.5 4.5 0 0 1 47 27.5h-9.293zm3.465 15.382h4.83q.997 0 1.549-.499.55-.525.551-1.496v-.893q0-.97-.551-1.496-.552-.525-1.549-.525h-4.83zm0-7.744h4.279q.945 0 1.47-.498.525-.526.525-1.444v-.814q0-.919-.525-1.418-.525-.524-1.47-.524h-4.279zM64.983 27.5q-1.102 0-1.759-.63-.63-.656-.787-1.733h-.158q-.34 1.34-1.39 2.022-1.05.656-2.6.656-2.1 0-3.228-1.103-1.13-1.102-1.13-2.94 0-2.126 1.523-3.15 1.523-1.05 4.332-1.05h2.336v-.997q0-1.155-.604-1.785-.603-.63-1.942-.63-1.182 0-1.917.525a5 5 0 0 0-1.207 1.207l-1.995-1.784a5.7 5.7 0 0 1 2.021-1.89q1.26-.735 3.334-.735 2.783 0 4.226 1.26t1.444 3.622v6.458h1.365V27.5zm-5.565-2.126q1.129 0 1.916-.499.788-.499.788-1.47v-1.811h-2.153q-2.625 0-2.625 1.68v.446q0 .84.525 1.26.552.393 1.55.394M69.566 27.5V13.798h3.36v2.283h.131a4.34 4.34 0 0 1 1.313-1.837q.918-.761 2.52-.761 2.126 0 3.255 1.39 1.128 1.393 1.129 3.964V27.5h-3.36v-8.321q0-1.47-.525-2.205t-1.733-.735q-.525 0-1.024.157a2.7 2.7 0 0 0-.866.42 2.1 2.1 0 0 0-.604.683q-.236.393-.236.945V27.5zm20.84.315q-1.522 0-2.704-.499a5.3 5.3 0 0 1-1.995-1.444q-.787-.945-1.207-2.257-.42-1.338-.42-2.992 0-1.655.42-2.967t1.207-2.231a5.3 5.3 0 0 1 1.995-1.444q1.182-.498 2.704-.498 2.073 0 3.412.918 1.365.92 1.969 2.547l-2.756 1.233a2.75 2.75 0 0 0-.893-1.417q-.63-.578-1.732-.578-1.417 0-2.127.893-.681.893-.682 2.336v2.494q0 1.443.683 2.336.708.866 2.126.866 1.208 0 1.863-.604.658-.63 1.024-1.548l2.573 1.233q-.683 1.812-2.074 2.73-1.39.893-3.386.893m13.356 0q-1.47 0-2.651-.499a5.6 5.6 0 0 1-1.995-1.444q-.814-.945-1.26-2.257-.447-1.338-.446-2.992 0-1.655.446-2.967.445-1.312 1.26-2.231a5.6 5.6 0 0 1 1.995-1.444q1.18-.498 2.651-.498t2.651.498a5.3 5.3 0 0 1 1.995 1.444q.84.919 1.287 2.231.446 1.313.446 2.967 0 1.653-.446 2.992-.447 1.313-1.287 2.258a5.3 5.3 0 0 1-1.995 1.443q-1.18.5-2.651.499m0-2.704q1.34 0 2.1-.814.761-.813.761-2.388v-2.546q0-1.549-.761-2.363-.76-.814-2.1-.814-1.312 0-2.074.814-.76.814-.761 2.363v2.546q0 1.575.761 2.389.762.813 2.074.813m9.568 2.389V9.178h3.465v15.25h7.218V27.5zm15.159-15.697q-1.05 0-1.523-.473-.446-.472-.446-1.207v-.525q0-.735.446-1.208.473-.473 1.523-.473 1.023 0 1.496.473.472.472.472 1.207v.526q0 .735-.472 1.207-.473.473-1.496.473m-1.68 1.994h3.36V27.5h-3.36zm7.254-5.722h3.36v7.98h.105a3.4 3.4 0 0 1 1.391-1.864q1.024-.708 2.389-.709 2.625 0 3.99 1.864 1.392 1.838 1.391 5.276 0 3.465-1.391 5.33-1.365 1.863-3.99 1.863-1.365 0-2.389-.709a3.7 3.7 0 0 1-1.391-1.89h-.105V27.5h-3.36zm6.169 16.958q1.313 0 2.126-.867.814-.866.814-2.336v-2.362q0-1.47-.814-2.337-.813-.892-2.126-.892-1.208 0-2.021.604-.788.604-.788 1.6v4.358q0 1.077.788 1.654.813.578 2.021.578m9.571 2.467V13.798h3.36v2.835h.131a4.5 4.5 0 0 1 .394-1.05 3.38 3.38 0 0 1 1.785-1.55q.63-.236 1.444-.236h.735v3.177h-1.05q-1.707 0-2.573.498-.866.499-.866 1.628v8.4zm15.716.315q-1.523 0-2.73-.499a6 6 0 0 1-2.022-1.444q-.813-.945-1.26-2.257-.446-1.338-.446-2.992 0-1.628.42-2.94.447-1.313 1.26-2.232a5.3 5.3 0 0 1 1.995-1.444q1.182-.524 2.678-.524 1.601 0 2.782.55a5.36 5.36 0 0 1 1.943 1.497q.76.945 1.128 2.205.394 1.234.394 2.651v1.103h-9.109v.341q0 1.497.84 2.415.84.892 2.494.892 1.26 0 2.048-.524a5.8 5.8 0 0 0 1.443-1.34l1.812 2.022q-.84 1.181-2.31 1.864-1.444.656-3.36.656m-.053-11.812q-1.338 0-2.126.892-.788.893-.788 2.31v.21h5.618v-.236q0-1.417-.709-2.284-.683-.892-1.995-.892" style="fill:#fff"/></svg>