<svg xmlns="http://www.w3.org/2000/svg" width="967.6" height="345" viewBox="0 0 967.6 345"><path fill="#fff" d="M39.64 141.14c-12.65 46.68 2.8 98.47 43.28 130.15 32.02 25.06 72.48 31.9 108.93 22.05z"/><path fill="#fdbe10" d="M235.81 75.98C181.88 33.76 103.93 43.25 61.7 97.18c-3.62 4.62-6.84 9.44-9.71 14.39l25.52 25.52a89.5 89.5 0 0 1 11.27-18.7c30.51-38.98 86.84-45.84 125.82-15.33s45.84 86.84 15.33 125.82c-9.34 11.93-21.09 20.83-34.03 26.58l25.53 25.53c13.36-7.71 25.49-18.03 35.58-30.92 42.22-53.94 32.73-131.88-21.2-174.11Z"/><path fill="#fff" d="M509.3 144.67c15.95 17.31 23.75 38.35 23.75 63.46s-7.8 46.49-23.75 63.8-34.95 25.79-57.35 25.79-38.69-6.79-50.56-20.7v15.95h-50.9V55.43h50.9v83.82c11.88-13.91 28.84-20.7 50.56-20.7s41.4 8.82 57.35 26.13Zm-67.53 104.86c11.88 0 21.38-3.73 28.84-11.2 7.8-7.47 11.54-17.65 11.54-30.2s-3.73-22.74-11.54-30.2c-7.47-7.47-16.97-11.2-28.84-11.2s-21.38 3.73-29.18 11.2c-7.47 7.47-11.2 17.65-11.2 30.2s3.73 22.74 11.2 30.2c7.8 7.47 17.31 11.2 29.18 11.2M555.44 99.54c-11.88-12.22-11.88-31.22 0-43.1 12.22-12.22 31.22-12.22 43.1 0 12.21 11.88 12.21 30.88 0 43.1-11.88 11.88-30.88 11.88-43.1 0m-3.73 193.42V123.3h50.9v169.67h-50.9Zm155.61-120.8h-34.95v60.06c0 13.57 10.18 15.95 34.95 14.59v46.15c-32.24 3.39-54.63.34-67.19-9.16-12.56-9.84-18.66-26.81-18.66-51.58V91.06l50.9-15.27v47.51h34.95zm104.5 0h-34.95v60.06c0 13.57 10.18 15.95 34.95 14.59v46.15c-32.24 3.39-54.63.34-67.19-9.16-12.56-9.84-18.66-26.81-18.66-51.58V91.06l50.9-15.27v47.51h34.95zm69.54-18.66c6.45-21.72 27.83-33.59 50.9-33.59v57.69c-12.56-2.04-24.09 0-34.95 6.45-10.52 6.11-15.95 16.97-15.95 32.24v76.69h-50.9V123.3h50.9z"/></svg>