<svg xmlns="http://www.w3.org/2000/svg" width="3584" height="404" style="shape-rendering:geometricPrecision;text-rendering:geometricPrecision;image-rendering:optimizeQuality;fill-rule:evenodd;clip-rule:evenodd"><path fill="#0374f6" d="M48.5-.5h253q89.65 13.16 93 104 .34 35.219-19.5 64-12.718 14.722-30.5 22.5 41.928 16.932 54.5 60.5 8.942 37.983 0 76-17.853 54.353-72.5 71.5a277 277 0 0 1-27 5.5h-168a46758 46758 0 0 1 177.5-188q8.223-9.614 1-20-4.06-3.654-9.5-4.5a4145 4145 0 0 1-91-1.5 7099 7099 0 0 1 56.5-98 47.3 47.3 0 0 0 5.5-13.5q-.982-8.976-9-13a687 687 0 0 0-51-1.5l-46 .5q-6.066.41-10.5 4.5a27963 27963 0 0 0-107 197q-6.53 15.692 9.5 21.5l68 1q-20.244 49.725-40.5 99.5-4.067 11.814-15.5 16h-21q-39.66-10.159-49-50v-304q9.34-39.84 49-50" style="opacity:.99"/><path fill="#0374f6" d="M421.5-.5h90q26.43 7.69 31.5 35 1 167 0 334-5.07 27.31-31.5 35h-90z" style="opacity:.993"/><path fill="#0374f6" d="M594.5-.5h59q39.233 14.96 28.5 56-8.864 19.366-29.5 24.5-44.997.75-90 .5-.25-22.005.5-44 3.867-28.794 31.5-37" style="opacity:.982"/><path fill="#0374f6" d="M1347.5-.5h140c14.75 4.246 24.92 13.58 30.5 28a70850 70850 0 0 0 75 255 45960 45960 0 0 0 86.5-283h159c13.97 3.79 23.8 12.457 29.5 26 26.33 85.667 52.67 171.333 79 257 27.95-94.337 55.78-188.67 83.5-283h115c23.3 7.907 33.47 24.24 30.5 49a43948 43948 0 0 1-116.5 355h-224a30051 30051 0 0 0-65.5-230 30051 30051 0 0 0-65.5 230h-224c-44.33-134.667-88.67-269.333-133-404m1230 0h90c15.55 4.386 25.72 14.386 30.5 30q1.725 85.96 1.5 172 .225 86.04-1.5 172c-4.78 15.614-14.95 25.614-30.5 30h-90z" style="opacity:.993"/><path fill="#0374f6" d="M2725.5-.5h91c16.02 4.52 26.19 14.854 30.5 31a7496 7496 0 0 1 1.5 171q.225 85.536-1.5 171c-4.31 16.146-14.48 26.48-30.5 31h-91z" style="opacity:.985"/><path fill="#0374f6" d="M1005.5 403.5h-131q-32.927-2.34-64-14.5-44.398-20.52-47.5-69.5-.75-59.999-.5-120h-60v-101h60v-50a6453 6453 0 0 0 77-18.5q31.907-3.678 42.5 26.5a340 340 0 0 1 1.5 42q44.003-.25 88 .5 28.416 3.42 33.5 31.5c.5 22.998.67 45.998.5 69h-122q-.25 36.003.5 72 2.096 24.087 25.5 29.5a152.7 152.7 0 0 0 28.5 2.5 375 375 0 0 1 37.5-.5q25.103 6.1 29.5 31.5c.5 22.998.67 45.998.5 69" style="opacity:.99"/><path fill="#0374f6" d="M3583.5 127.5v72h-122c-.17 21.669 0 43.336.5 65-.42 21.233 9.74 33.733 30.5 37.5q11.955 1.392 24 1.5a384 384 0 0 1 37-.5q23.43 4.69 30 27.5v73h-131c-23.52-1.476-46.19-6.976-68-16.5-25.2-13.219-39.36-34.052-42.5-62.5-.5-41.665-.67-83.332-.5-125-11.39.383-22.72-.117-34-1.5-15.56-5.258-24.39-16.091-26.5-32.5-.5-22.331-.67-44.664-.5-67h61v-50l76-18.5c20.58-2.713 34.75 5.453 42.5 24.5a347 347 0 0 1 1.5 44c31.7-.447 63.37.053 95 1.5q20.94 6.681 27 27.5" style="opacity:.991"/><path fill="#0374f6" d="M2550.5 403.5h-89c-19.11-6.526-29.94-19.859-32.5-40q-41.34 28.79-91.5 36.5c-9.81 1.268-19.47 2.435-29 3.5h-51c-27.54-1.79-52.87-10.29-76-25.5-26.16-22.811-35.32-51.311-27.5-85.5 5.08-17.746 14.92-32.246 29.5-43.5 24.36-15.788 51.02-25.454 80-29 43.73-6.301 87.4-5.967 131 1 11.6 2.233 22.93 5.4 34 9.5 1.32-11.528-3.02-20.361-13-26.5-8.81-4.431-18.15-7.097-28-8q-70.965-4.534-141 8c-17.88 2.159-32.04-4.008-42.5-18.5a852 852 0 0 1-27.5-62c58.73-18.482 118.89-28.482 180.5-30a409 409 0 0 1 81.5 8.5c71.81 17.08 108.97 62.58 111.5 136.5.5 54.999.67 109.999.5 165m-228-122c35.97-1.723 71.64.611 107 7 .3 4.267-.04 8.434-1 12.5-46.74 19.05-95.07 25.383-145 19-11.25-5.082-14.08-13.248-8.5-24.5q6.75-7.255 16.5-9.5a286 286 0 0 1 31-4.5" style="opacity:.989"/><path fill="#0374f6" d="M3105.5 403.5h-60q-55.47-2.745-105-28.5c-35.99-21.782-57.16-53.615-63.5-95.5-3.83-28.001-2.17-55.668 5-83 14.87-43.208 44.04-72.041 87.5-86.5 35.42-11.304 71.76-16.804 109-16.5q48.9-.388 96 12.5 87.165 26.673 103.5 116.5c2.44 15.573 3.6 31.24 3.5 47-94.34-.333-188.67 0-283 1 8.61 19.095 23.27 30.595 44 34.5 27.39 4.72 54.72 4.387 82-1 12.47-3.903 23.81-9.903 34-18 39.33-.5 78.67-.667 118-.5-7.95 46.08-33.29 78.58-76 97.5-30.67 11.995-62.34 18.829-95 20.5m-43-224c19.55-.953 38.88.547 58 4.5 14.14 3.488 24.81 11.488 32 24-49.34.833-98.67.667-148-.5q13.395-21.723 39-25.5c6.5-.691 12.83-1.524 19-2.5" style="opacity:.987"/><path fill="#0374f6" d="M653.5 403.5h-91v-303q45.502-.25 91 .5 21.65 6.434 29.5 27.5a7444 7444 0 0 1 1 243q-6.363 24.61-30.5 32m718 0h-347c-.17-27.669 0-55.335.5-83 2.15-12.142 8.32-21.642 18.5-28.5l150-87-133-1q-26.445-4.083-34.5-29.5a885 885 0 0 1-1.5-71q154.5-.25 309 .5 30.75 4.256 37.5 34.5 1.005 24.5 0 49c-3.29 15.957-12.45 27.124-27.5 33.5a14845 14845 0 0 0-141 82l136 1c18.39 4.392 29.23 15.892 32.5 34.5.5 21.664.67 43.331.5 65" style="opacity:.991"/></svg>