<svg xmlns="http://www.w3.org/2000/svg" xml:space="preserve" width="176.224" height="49.002" viewBox="0 0 46.626 12.965"><defs><linearGradient id="a" x2="0" y2="49" gradientUnits="userSpaceOnUse"><stop offset="0" stop-color="#ffe96d"/><stop offset="1" stop-color="#e1c218"/></linearGradient><linearGradient id="b" x1="-3" x2="-3" y1="-11" y2="56" gradientUnits="userSpaceOnUse"><stop offset="0" stop-color="#ffe96d"/><stop offset="1" stop-color="#e1c218"/></linearGradient></defs><g style="fill:none"><path fill="url(#a)" fill-rule="evenodd" d="m14.462 28.768-.003.007H1.67q-.715 0-1.194-.44C-.002 27.895 0 27.673 0 27.23q0-.71.608-1.46L20.95.933q.564-.73 1.248-.88t1.227.128q.542.28.76.913.216.633-.11 1.513l-6.642 17.625h1.106l.003-.007H31.33q.717 0 1.194.44c.477.44.478.662.478 1.106q0 .707-.608 1.46L12.05 48.066q-.566.73-1.248.88-.684.15-1.227-.128-.543-.279-.76-.913-.217-.633.109-1.513l6.643-17.624z" clip-rule="evenodd" style="fill:url(#a)" transform="scale(.26458)"/></g><g style="fill:none"><path fill="url(#a)" d="M.92 42h19.488c7.672 0 12.488-4.144 12.488-11.312 0-5.152-2.072-7.952-5.264-9.464V21c1.96-1.4 3.808-3.752 3.808-8.008 0-6.44-4.76-10.192-11.76-10.192H.92zm8.736-24.08v-7.392h8.736c2.968 0 4.144 1.568 4.144 3.696s-1.176 3.696-4.144 3.696zm0 16.296v-8.68h9.296c3.808 0 4.984 2.352 4.984 4.312 0 2.352-1.232 4.368-4.984 4.368zm40.657 8.288c9.52 0 14.616-6.384 14.616-15.12 0-8.792-5.208-15.176-14.616-15.176s-14.616 6.384-14.616 15.176 5.096 15.12 14.616 15.12m0-7.56c-3.528 0-5.824-2.24-5.824-7.56 0-5.264 2.24-7.616 5.824-7.616s5.824 2.296 5.824 7.616-2.24 7.56-5.824 7.56M69.144 42h8.624V.56h-8.624zm26.552.504c2.744 0 5.04-.504 5.936-.84v-7.168h-.56a8 8 0 0 1-2.8.504c-2.576 0-3.752-1.176-3.752-3.92V20.048h7v-7.336h-7V5.04h-.56l-7.672 1.568v6.104h-5.152v7.336h4.76v13.104c0 5.32 3.024 9.352 9.8 9.352M106.093 42h24.192v-7.336h-13.552v-.224l13.44-14.448v-7.28h-24.024v7.336h13.44v.224l-13.496 14.504z" style="fill:url(#b)" transform="translate(12.155 .785)scale(.26458)"/></g></svg>