<svg xmlns="http://www.w3.org/2000/svg" xml:space="preserve" width="277.48" height="86.268" viewBox="0 0 73.417 22.825"><defs><linearGradient id="a" x1="-3" x2="-3" y1="-11" y2="56" gradientTransform="translate(42.718 9.99)scale(.3967)" gradientUnits="userSpaceOnUse"><stop stop-color="#ffe96d"/><stop offset="1" stop-color="#e1c218"/></linearGradient><linearGradient id="b" x1="0" x2="0" y1="0" y2="49" gradientTransform="translate(20.986 8.305)scale(.43002)" gradientUnits="userSpaceOnUse"><stop stop-color="#ffe96d"/><stop offset="1" stop-color="#e1c218"/></linearGradient></defs><path fill="url(#a)" d="M62.677 26.85c3.777 0 5.799-2.532 5.799-5.997 0-3.488-2.066-6.02-5.799-6.02-3.732 0-5.798 2.532-5.798 6.02s2.022 5.998 5.798 5.998m0-2.998c-1.4 0-2.31-.889-2.31-3 0-2.088.889-3.02 2.31-3.02s2.31.91 2.31 3.02c0 2.111-.888 3-2.31 3m7.47 2.799h3.422V10.21h-3.421Zm10.534.2c1.088 0 2-.2 2.355-.334v-2.843h-.223c-.355.133-.733.2-1.11.2-1.022 0-1.489-.467-1.489-1.555v-4.377h2.777v-2.91h-2.777V11.99h-.222l-3.044.622v2.421h-2.043v2.91h1.888v5.199c0 2.11 1.2 3.71 3.888 3.71m4.124-.2h9.597v-2.91h-5.376v-.09l5.332-5.73v-2.889h-9.53v2.91h5.331v.09l-5.354 5.753z" style="fill:url(#a);stroke-width:.396696" transform="translate(-20.986 -7.5)"/><path fill="url(#a)" fill-rule="evenodd" d="m27.204 20.676-.001.003h-5.499a.73.73 0 0 1-.513-.189.62.62 0 0 1-.205-.475q0-.305.261-.628l8.747-10.68q.243-.315.537-.379a.76.76 0 0 1 .527.055.66.66 0 0 1 .327.393q.093.272-.046.65l-2.857 7.58h.475l.002-.004h5.498q.309 0 .514.19a.62.62 0 0 1 .205.475q0 .304-.261.628l-8.747 10.68q-.243.315-.537.379a.76.76 0 0 1-.528-.056.66.66 0 0 1-.326-.392q-.094-.273.046-.65l2.857-7.58z" clip-rule="evenodd" style="fill:url(#b);stroke-width:.430021" transform="translate(-20.986 -7.5)"/><path fill="#fff" d="M176.452-253.509c-1.455-15.409-14.744-20.596-31.532-22.097l.037-21.37-13.008-.02-.036 20.805c-3.42-.006-6.915.057-10.387.12l.038-20.945-13-.021-.042 21.363c-2.816.053-5.582.1-8.279.097l-.003-.066-17.94-.038-.022 13.893s9.606-.166 9.446.01c5.269.011 6.978 3.073 7.472 5.713l-.04 24.345a10 10 0 0 1 1.374.093c-.433 0-.897-.004-1.374 0l-.063 34.103c-.235 1.658-1.213 4.3-4.894 4.3.166.148-9.456-.018-9.456-.018l-2.611 15.53 16.927.028c3.15.006 6.25.068 9.292.093l-.032 21.613 12.994.025.036-21.384c3.568.08 7.02.114 10.39.117l-.041 21.286 13.007.021.042-21.574c21.87-1.217 37.185-6.7 39.122-27.232 1.563-16.533-6.203-23.924-18.611-26.927 7.548-3.827 12.275-10.585 11.192-21.86zm-18.28 46.181c-.02 16.152-27.672 14.266-36.488 14.26l.054-28.636c8.818.018 36.465-2.47 36.435 14.376m-5.978-40.411c-.029 14.694-23.091 12.94-30.434 12.927l.046-25.971c7.343.01 30.413-2.283 30.387 13.044z" style="fill:#ecd138;fill-opacity:1;stroke-width:3.5948" transform="translate(4.996 48.042)scale(.16174)"/></svg>