<?xml version="1.0" encoding="UTF-8" standalone="no"?>
<svg
   width="40"
   height="40"
   viewBox="0 0 40 40"
   fill="none"
   version="1.1"
   id="svg304"
   sodipodi:docname="boltobserver.svg"
   inkscape:version="1.2.2 (b0a8486541, 2022-12-01)"
   xmlns:inkscape="http://www.inkscape.org/namespaces/inkscape"
   xmlns:sodipodi="http://sodipodi.sourceforge.net/DTD/sodipodi-0.dtd"
   xmlns="http://www.w3.org/2000/svg"
   xmlns:svg="http://www.w3.org/2000/svg">
  <defs
     id="defs308" />
  <sodipodi:namedview
     id="namedview306"
     pagecolor="#ffffff"
     bordercolor="#666666"
     borderopacity="1.0"
     inkscape:showpageshadow="2"
     inkscape:pageopacity="0.0"
     inkscape:pagecheckerboard="0"
     inkscape:deskcolor="#d1d1d1"
     showgrid="false"
     inkscape:zoom="21.8"
     inkscape:cx="20"
     inkscape:cy="20.229358"
     inkscape:window-width="1916"
     inkscape:window-height="1055"
     inkscape:window-x="1920"
     inkscape:window-y="21"
     inkscape:window-maximized="1"
     inkscape:current-layer="svg304" />
  <path
     id="path282"
     d="M 20 0 C 8.954321 0 0 8.954311 0 20 C 0 31.045689 8.954321 40 20 40 C 31.045689 40 40 31.045689 40 20 C 40 8.954311 31.045689 0 20 0 z M 20.087891 7.3105469 C 20.096901 7.3103051 20.093459 7.3075669 20.162109 7.3105469 C 20.166709 7.3107469 20.174594 7.3117735 20.183594 7.3125 C 20.209288 7.3125595 20.229511 7.3141174 20.253906 7.3144531 A 1 1 0 0 1 20.287109 7.3144531 C 20.336006 7.3153049 20.387953 7.3156431 20.431641 7.3164062 L 20.447266 7.3164062 L 20.453125 7.3164062 C 22.821947 7.3657123 25.040565 8.0297321 26.958984 9.1542969 L 27.591797 8.4238281 C 27.88736 8.0802866 28.349908 7.8745094 28.78125 7.8808594 C 29.212592 7.8872052 29.601575 8.0710561 29.892578 8.3476562 L 31.470703 9.8476562 C 32.091045 10.437678 32.13825 11.436103 31.574219 12.082031 L 31.576172 12.082031 L 30.982422 12.763672 C 32.376721 14.641017 33.294842 16.89213 33.554688 19.339844 A 1 1 0 0 1 33.556641 19.367188 C 33.597486 19.748436 33.620334 20.134434 33.626953 20.521484 C 33.629951 20.615975 33.630859 20.701751 33.630859 20.775391 C 33.630859 21.519063 33.622482 22.234984 33.582031 22.96875 C 34.046704 23.260245 34.361328 23.7764 34.361328 24.355469 L 34.361328 27.046875 L 35.015625 27.046875 A 1 1 0 0 1 36.015625 28.046875 A 1 1 0 0 1 35.015625 29.046875 L 34.361328 29.046875 L 18.056641 29.046875 A 1 1 0 0 1 17.056641 28.046875 A 1 1 0 0 1 18.056641 27.046875 L 32.361328 27.046875 L 32.361328 24.71875 L 8.0585938 24.71875 A 1 1 0 0 0 8.0566406 24.71875 L 7.921875 24.71875 L 7.921875 24.888672 L 7.921875 27.490234 C 7.921875 28.338221 7.2150579 29.046875 6.3671875 29.046875 L 6.109375 29.046875 L 4.9414062 29.046875 A 1 1 0 0 1 3.9414062 28.046875 A 1 1 0 0 1 4.9414062 27.046875 L 5.921875 27.046875 L 5.921875 24.888672 L 5.921875 24.275391 C 5.921875 23.695783 6.2540453 23.181682 6.734375 22.914062 C 6.7012316 22.105908 6.6937175 21.530043 6.7050781 20.775391 L 6.7050781 20.767578 C 6.7051077 20.765578 6.7050483 20.763719 6.7050781 20.761719 C 6.7050681 20.690066 6.7073575 20.607732 6.7109375 20.513672 C 6.7689157 17.444967 7.8582972 14.616186 9.6445312 12.378906 C 9.9474132 11.998519 10.27176 11.636183 10.613281 11.292969 L 10.613281 11.291016 A 1 1 0 0 1 10.623047 11.283203 C 12.989376 8.9011735 16.251017 7.397649 19.853516 7.3164062 L 20.037109 7.3125 C 20.060829 7.31165 20.069881 7.3110304 20.087891 7.3105469 z M 20.160156 9.3730469 C 16.302268 11.226267 13.474609 15.173188 13.474609 19.707031 C 13.474609 19.89568 13.462978 20.657597 13.455078 21.453125 C 13.451078 21.85089 13.448466 22.248291 13.447266 22.560547 C 13.446946 22.651201 13.446551 22.637968 13.447266 22.71875 L 26.869141 22.71875 C 26.869208 22.671759 26.869442 22.683093 26.869141 22.634766 C 26.867121 22.314455 26.862522 21.906599 26.857422 21.498047 C 26.847302 20.680941 26.835938 19.906217 26.835938 19.707031 C 26.835938 15.173929 24.014845 11.229981 20.160156 9.3730469 z M 28.806641 10.074219 L 28.611328 10.298828 C 28.977098 10.593997 29.327301 10.905147 29.660156 11.236328 L 29.826172 11.044922 L 28.806641 10.074219 z M 24.896484 10.332031 C 27.301436 12.753137 28.835938 16.054313 28.835938 19.707031 C 28.835937 19.786246 28.847252 20.651693 28.857422 21.472656 C 28.862542 21.883139 28.867041 22.294824 28.869141 22.623047 C 28.869384 22.66305 28.868785 22.68344 28.869141 22.71875 L 31.591797 22.71875 C 31.623016 22.087404 31.630859 21.454678 31.630859 20.775391 C 31.630859 20.696091 31.628953 20.631262 31.626953 20.576172 L 31.626953 20.566406 L 31.626953 20.556641 C 31.621153 20.217453 31.600313 19.881507 31.564453 19.554688 A 1 1 0 0 1 31.564453 19.550781 C 31.127433 15.432974 28.51604 11.971161 24.896484 10.332031 z M 15.396484 10.351562 C 14.136132 10.929753 12.998013 11.727972 12.033203 12.701172 A 1 1 0 0 0 12.03125 12.703125 C 11.740537 12.995217 11.46541 13.302956 11.208984 13.625 C 9.6845816 15.533564 8.7569379 17.93366 8.7089844 20.556641 L 8.7089844 20.570312 L 8.7089844 20.582031 C 8.7067944 20.632923 8.7050781 20.696091 8.7050781 20.775391 L 8.7050781 20.783203 L 8.7050781 20.791016 C 8.6944077 21.489053 8.7003045 22.00315 8.7285156 22.71875 L 11.447266 22.71875 C 11.4477 22.662664 11.447007 22.621797 11.447266 22.552734 C 11.448466 22.232602 11.451078 21.833339 11.455078 21.433594 C 11.463048 20.634102 11.474609 19.796781 11.474609 19.707031 C 11.474609 16.064204 13.001083 12.770036 15.396484 10.351562 z M 10.644531 27.046875 L 15.820312 27.046875 A 1 1 0 0 1 16.820312 28.046875 A 1 1 0 0 1 15.820312 29.046875 L 10.644531 29.046875 A 1 1 0 0 1 9.6445312 28.046875 A 1 1 0 0 1 10.644531 27.046875 z "
     style="fill:#ffd300;fill-opacity:1" />
</svg>
