<svg xmlns="http://www.w3.org/2000/svg" id="レイヤー_1" data-name="レイヤー 1" viewBox="0 0 236.18 102.3"><defs><style>.cls-1{fill:#cedc21}.cls-4{fill:#fff}</style></defs><title>btcpay3</title><path d="M6 102.3a6 6 0 0 1-6-6V6.01a6 6 0 0 1 12 0V96.3a6 6 0 0 1-6 6" class="cls-1"/><path d="M38.56 201.73A6 6 0 0 1 36 190.31l36.18-17.17L35 145.76a6 6 0 1 1 7.11-9.66l45.24 33.33a6 6 0 0 1-1 10.25l-45.22 21.47a5.9 5.9 0 0 1-2.57.58" style="fill:#51b13e" transform="translate(-32.55 -99.43)"/><path d="M6.01 66.81a6 6 0 0 1-3.56-10.83l37.16-27.41L3.45 11.43A6.005 6.005 0 1 1 8.58.57l45.24 21.47a6 6 0 0 1 1 10.25L9.56 65.64a6 6 0 0 1-3.55 1.17" class="cls-1"/><path d="M12 38.46v25.38l17.21-12.68z" style="fill:#1e7a44"/><path d="M0 27.82h12v29.25H0z" class="cls-4"/><path d="M12 6.01a6 6 0 0 0-12 0v75.56h12Z" class="cls-1"/><path d="M91.37 50.43c3.84 1.09 6 4.57 6 8.93 0 6.81-4.15 10-9.82 10H74.59V32.97h11.43c5.56 0 9.87 2.65 9.87 9.56 0 3.48-1.44 6.7-4.52 7.9m-5.3-.89c4.1 0 7.43-1.45 7.43-7.06s-3.43-7.17-7.59-7.17h-8.88v14.26Zm1.3 17.41c4.15 0 7.48-2.18 7.48-7.59 0-5.82-3.79-7.58-8.52-7.58h-9.3v15.17Zm34.29-33.98v2.23h-10v34.14h-2.44V35.2h-10v-2.23Zm17.09-.52c6.19 0 11.8 3.12 13.57 10.55h-2.34c-1.66-6.08-6.55-8.32-11.28-8.32-8.57 0-13.09 7-13.09 16.47 0 10 4.52 16.37 13.14 16.37 5.1 0 9.67-2.29 11.44-9h2.33a13.6 13.6 0 0 1-13.77 11.33c-9.71 0-15.53-7.17-15.53-18.71 0-11.05 6.13-18.69 15.53-18.69m32.06.52c6.29 0 10.86 4.1 10.86 12 0 7.48-4.57 12-10.86 12h-9.56v12.32h-2.39V32.97Zm0 21.66c4.63 0 8.42-3 8.42-9.66s-3.64-9.71-8.42-9.71h-9.56v19.37Zm11.28 14.71v-.31l14.49-36.16h1.1l14.34 36.16v.31h-2.57l-4.1-10.5h-16.56l-4.1 10.5Zm15-32.16-7.47 19.39h14.91Zm36.49-4.21h2.6v.36l-11.33 20.89v15.12h-2.49V54.22l-11.38-20.94v-.31h2.65l4.93 9.25 5 9.61 5-9.61Z" class="cls-4"/></svg>