<svg xmlns="http://www.w3.org/2000/svg" width="517.59mm" height="427.691" viewBox="0 0 517.59 113.16"><path d="M-485.84 39.114c-.437-.27-3.473-2.074-6.747-4.01s-6.339-3.81-6.81-4.165c-.953-.717-.944-.69-2.19-6.574l-.848-4.003-2.33-2.876c-1.28-1.582-3.814-4.706-5.63-6.943-2.442-3.01-3.34-4.316-3.458-5.027-.268-1.619-.19-8.5.096-8.5.143 0 3.03 1.413 6.416 3.14 3.385 1.728 9.748 4.968 14.14 7.2l7.985 4.058.102 3.715c.125 4.547.239 24.486.14 24.48-.04-.003-.43-.225-.866-.495m2.79-12.914c.017-7.393.09-13.744.162-14.115.112-.573.98-1.108 5.866-3.61 12.355-6.33 21.903-11.133 22.51-11.323l.636-.199-.302 9.352-2.725 3.359a2034 2034 0 0 1-5.72 7.009l-2.994 3.65-.89 4.155c-1.458 6.815-.931 5.95-5.102 8.388a867 867 0 0 0-7.074 4.19 291 291 0 0 1-3.925 2.33c-.45.243-.47-.367-.442-13.187zm117.83-17.901c-2.612-.664-4.962-2.533-6.176-4.913-1.298-2.545-1.325-3.036-1.33-24.163l-.003-19.778h7.408v19.267c0 21.423.008 21.539 1.62 22.519 1.379.838 2.79.914 4.155.226 2.299-1.158 2.162.242 2.162-22.23v-19.782h7.436l-.085 20.174c-.084 19.754-.097 20.209-.647 21.828-1.109 3.262-3.024 5.383-5.91 6.546-1.54.621-6.674.803-8.63.306m142.04-.036c-2.602-.73-4.205-1.895-5.57-4.045-1.734-2.73-1.725-2.64-1.836-18.964-.105-15.488.003-17.671 1.003-20.346 1.693-4.525 7.172-7.065 12.763-5.918 3.63.745 5.736 2.235 7.264 5.14 1.028 1.952 1.396 4.162 1.396 8.366v3.352h-7.143v-3.638c0-2.94-.09-3.812-.464-4.545-.714-1.402-1.721-2.003-3.352-2.003-1.8 0-2.665.482-3.332 1.86-.524 1.083-.536 1.489-.465 16.605.071 15.245.081 15.507.625 16.242 1.679 2.267 5.57 1.91 6.62-.607.264-.628.368-2.121.368-5.252v-4.374h7.144l-.004 4.432c-.003 3.023-.132 4.972-.405 6.133-.8 3.394-2.999 6.072-5.903 7.19-1.954.753-6.638.952-8.709.371zm26.775-.088c-2.067-.612-3.27-1.367-4.636-2.908-2.74-3.093-2.92-4.55-2.811-22.671.078-12.893.14-14.733.55-16.14 1.189-4.086 3.844-6.528 8.073-7.424 2.226-.472 3.675-.47 5.938.01 4.16.881 6.436 2.902 7.903 7.017l.613 1.72V-.206l-.605 1.674c-1.168 3.232-3.094 5.368-5.766 6.398-2.177.84-6.933.998-9.26.309zm6.486-6.915c1.633-1.162 1.604-.845 1.603-17.514 0-13.923-.038-15.248-.463-16.081-.733-1.439-1.7-1.994-3.47-1.994-1.882 0-2.802.543-3.491 2.062-.473 1.04-.502 1.952-.507 15.98-.006 16.29.004 16.412 1.549 17.512 1.247.888 3.557.905 4.78.034zm77.274 7.047c-3.904-1.12-6.311-3.711-7.136-7.684-.199-.958-.267-6.605-.216-17.785l.076-16.382.83-1.752c1.102-2.325 2.444-3.757 4.448-4.743 4.535-2.233 11.249-1.305 14.049 1.942 2.152 2.496 2.766 4.732 2.766 10.081v3.865h-7.144v-3.73c0-5.325-.639-6.43-3.725-6.448-1.76-.01-2.668.51-3.464 1.984-.47.871-.491 1.697-.423 16.396l.071 15.478.592.83c1.324 1.855 4.325 2.048 5.99.384l.827-.826.165-9.78h7.11v4.706c0 5.538-.296 7.026-1.875 9.415-1.24 1.875-2.731 3.09-4.607 3.754-1.704.604-6.648.779-8.334.295m26.987-.032a22 22 0 0 1-2.127-.734c-1.232-.524-3.493-2.745-4.196-4.123-1.283-2.515-1.342-3.378-1.346-19.77-.003-14.072.037-15.497.48-17.098 1.192-4.296 3.77-6.666 8.205-7.539 4.476-.881 9.35.463 11.608 3.202 1.139 1.382 1.897 3.035 2.331 5.087.551 2.6.56 30.333.01 32.926-.912 4.306-3.393 6.974-7.471 8.036-1.823.475-5.828.482-7.493.013zm6.086-7.012c.363-.257.9-.87 1.19-1.365.513-.87.53-1.374.53-16.112s-.017-15.242-.53-16.112c-.876-1.487-1.808-2.013-3.55-2.003-1.763.01-2.688.495-3.39 1.78-.433.792-.468 2.018-.468 16.203 0 14.084.038 15.422.463 16.274.254.51.73 1.096 1.058 1.302 1.391.873 3.484.887 4.697.032zm-321.2-17.45v-24.368l6.548.002c9.406.003 11.406.445 13.783 3.045 1.615 1.767 2.36 3.92 2.584 7.472.375 5.936-1.247 10.38-4.294 11.77-.855.389-.795.564.338.973 1.38.5 3.128 2.415 3.83 4.196.53 1.343.61 2.096.704 6.673.114 5.465-.087 7.18-1.071 9.129-1.143 2.265-2.893 3.74-5.543 4.673-1.536.54-2.26.594-9.272.695l-7.607.11zM-386.323.655c1.352-.722 1.558-1.626 1.558-6.815 0-4.154-.054-4.722-.529-5.528-1.002-1.701-1.684-1.993-4.91-2.104l-2.895-.099V1.306l2.976-.106c2.102-.074 3.219-.235 3.8-.545m-1.057-22.044c1.655-1.237 1.814-1.7 1.908-5.564.077-3.16.026-3.686-.457-4.684-.816-1.686-1.618-2.039-4.631-2.039h-2.54v13.016l2.496-.092c2.013-.074 2.635-.197 3.224-.637m42.964 5.176v-24.342h7.409V1.249h12.7v6.879h-20.108zm23.812 0v-24.342h7.68l-.07 20.902-.069 20.902h12.568v6.879h-20.108zm24.077.027v-24.37l6.681.005c8.838.006 10.912.443 13.261 2.793 1.525 1.525 2.245 3.338 2.605 6.56.694 6.208-.604 10.657-3.676 12.605l-1.157.734 1.441.813c2.03 1.145 3.3 2.944 3.867 5.476.374 1.668.382 10.225.012 11.85-.591 2.588-2.057 4.785-3.986 5.972-2.501 1.54-3.4 1.68-11.573 1.81l-7.475.12zM-282.764.82c1.804-.722 1.98-1.33 1.98-6.847 0-4.286-.053-4.852-.53-5.66-1.001-1.702-1.683-1.994-4.908-2.104l-2.896-.1V1.25h2.64c1.82 0 2.975-.133 3.714-.429zm-.594-22.197c1.488-.882 1.913-2.192 1.913-5.895 0-5.457-.758-6.404-5.125-6.404h-2.548v13.028l2.447-.108c1.801-.08 2.676-.244 3.313-.62zm14.877 5.164v-24.342h7.408V8.128h-7.408zm19.315 3.44v-20.903h-7.938v-6.879h23.548v6.88h-8.202V8.127h-7.408zm73.819-3.44v-24.342h7.408V8.128h-7.408zm13.229 0v-24.342h9.487l.397 1.389c.218.764 1.771 6.806 3.451 13.428 1.68 6.621 3.225 12.574 3.433 13.229.338 1.064.38-.362.404-13.428l.026-14.618h6.615V8.128h-3.806c-3.724 0-3.809-.013-3.963-.595-.086-.328-2.154-8.335-4.595-17.793l-4.437-17.198-.136 35.586h-6.876zm29.898 20.638V.72h7.144v7.408h-7.144zm67.204-20.638v-24.342h5.424c2.983 0 5.424.03 5.424.066 0 .321 1.404 10.656 1.698 12.502.21 1.31 1.005 6.883 1.769 12.386.763 5.503 1.47 9.848 1.57 9.657.1-.19.328-1.478.507-2.86.179-1.383.783-5.788 1.344-9.79.56-4.002 1.27-9.122 1.577-11.377s.765-5.53 1.015-7.276l.456-3.175 10.966-.143V8.129h-7.144v-18.39c0-10.113-.095-18.388-.21-18.388-.117 0-.532 2.173-.922 4.828-1.385 9.405-2.535 17.03-2.925 19.381-.218 1.31-.724 4.674-1.125 7.475l-.73 5.093h-3.124c-3.027 0-3.128-.018-3.247-.595-.138-.665-1.407-9.011-3.191-20.968a1267 1267 0 0 0-1.785-11.642l-.6-3.704-.136 36.909h-6.611zM-486.366 1.84c-.94-.199-10.106-2.421-18.37-4.454-4.426-1.09-8.538-2.047-9.137-2.13-.781-.106-2.099.12-4.674.803l-3.587.952-5.664-1.463-7.781-2.012c-1.164-.302-2.277-.636-2.472-.742-.372-.2 1.855-2.087 7.367-6.24a239 239 0 0 0 3.175-2.418c.218-.178 1.324-1.06 2.458-1.957s2.027-1.728 1.985-1.844c-.07-.19-4.292-3.357-12.33-9.248-4.478-3.283-14.976-11.142-15.326-11.474-.361-.343-.314-.418 4.34-6.914 7.35-10.258 10.442-14.563 12.507-17.406 1.245-1.716 2.443-3.387 2.661-3.715 1.061-1.593 3.788-5.21 3.868-5.13.111.111-3.826 15.315-5.462 21.092-1.085 3.832-1.6 6.171-1.398 6.354.406.368 24.863 8.632 25.975 8.778.656.085.559.201 4.13-4.945 3.515-5.066 4.21-6.01 4.511-6.125.292-.112 3.182 1.021 10.18 3.99 1.237.526 2.487 1.07 2.778 1.209.291.14.867.375 1.279.525l.749.272-.147 3.107c-.08 1.709-.21 8.941-.29 16.072-.176 16.119-.393 24.825-.621 25.024-.097.084-.414.102-.705.04zm3.795-1.3a73 73 0 0 0-.096-2.333c-.068-.982-.506-32.588-.516-37.28l-.008-3.414 2.778-1.144c1.528-.629 3.016-1.264 3.307-1.411.6-.304 5.761-2.463 7.492-3.134 1.367-.53.769-1.15 5.615 5.823 1.891 2.721 3.529 5.004 3.639 5.072.3.185 26.078-8.357 26.578-8.808.108-.097-.032-1.005-.311-2.018a733 733 0 0 1-1.622-6.073c-.612-2.329-1.507-5.722-1.988-7.541-1.903-7.192-3.017-11.52-3.02-11.728-.004-.313.948.882 3.194 4.007l4.211 5.855c8.326 11.573 13.642 19.012 15.34 21.463l1.02 1.474-.838.664c-1.813 1.437-13.026 9.805-14.199 10.595-.719.484-8.349 6.125-8.996 6.65-.218.178-1.2.896-2.18 1.595-.981.7-1.842 1.366-1.912 1.48-.125.202 1.034 1.122 9.12 7.243 5.559 4.208 6.462 4.99 6.036 5.228-.287.161-3.221.97-5.243 1.445-.218.051-2.736.687-5.595 1.412l-5.199 1.32-3.4-.923c-2.424-.657-3.743-.886-4.591-.795-.655.07-4.13.847-7.724 1.726a947 947 0 0 1-7.144 1.73c-.336.071-1.087.251-1.669.399s-3.32.816-6.085 1.484a535 535 0 0 0-5.49 1.346c-.4.113-.469-.08-.505-1.409z" style="fill:#fff;stroke-width:.26458" transform="translate(550.86 73.554)"/></svg>