<svg width="517.59mm" height="113.16mm" version="1.1" viewBox="0 0 517.59 113.16" xmlns="http://www.w3.org/2000/svg">
 <g transform="translate(550.86 73.554)">
  <path d="m-485.84 39.114c-.43657-.26973-3.4727-2.074-6.7469-4.0094-3.2742-1.9354-6.3391-3.8097-6.8108-4.1651-.95207-.71716-.94302-.69002-2.1895-6.5745l-.84803-4.0035-2.3295-2.8757c-1.2812-1.5816-3.8146-4.7058-5.6297-6.9426-2.4423-3.0097-3.3415-4.3165-3.459-5.0271-.26777-1.619-.18993-8.5008.0962-8.5008.14343 0 3.0307 1.4135 6.4162 3.1412 3.3854 1.7277 9.7484 4.9673 14.14 7.1993l7.9846 4.0581.10235 3.7148c.12529 4.5476.23903 24.486.13964 24.48-.0394-.0024-.42882-.22515-.86538-.49488zm2.7905-12.914c.0163-7.3928.0889-13.744.16135-14.115.11219-.57335.98079-1.108 5.866-3.6108 12.355-6.3297 21.903-11.132 22.51-11.322l.63634-.19874-.30218 9.3519-2.725 3.3585c-1.4988 1.8472-4.0725 5.0011-5.7195 7.0087l-2.9944 3.6502-.88922 4.1551c-1.4586 6.8154-.93191 5.9497-5.1028 8.3884-1.991 1.1642-5.1741 3.0496-7.0736 4.1898-1.8994 1.1402-3.6658 2.1883-3.9252 2.329-.44985.24411-.4703-.36588-.44201-13.186zm117.83-17.901c-2.6126-.6639-4.9622-2.533-6.1766-4.9134-1.2982-2.5446-1.3252-3.0353-1.3293-24.163l-.004-19.778h7.4083v19.267c0 21.423.008 21.539 1.621 22.519 1.3779.83793 2.7882.91469 4.1545.22612 2.2982-1.1582 2.1621.24204 2.1621-22.23v-19.782h7.4357l-.0854 20.174c-.0837 19.754-.0972 20.209-.64724 21.828-1.1085 3.262-3.0237 5.3837-5.9093 6.5466-1.5402.62069-6.6746.80261-8.6298.30577zm142.04-.036306c-2.6023-.73018-4.2055-1.8942-5.5709-4.0447-1.7338-2.7308-1.725-2.6396-1.8356-18.964-.10496-15.488.003-17.671 1.0033-20.346 1.6931-4.5253 7.1713-7.0652 12.763-5.9178 3.6298.74478 5.7361 2.2349 7.2641 5.1391 1.0272 1.9523 1.3959 4.1625 1.3959 8.3671v3.3518h-7.1438v-3.638c0-2.9407-.0891-3.8119-.46303-4.5453-.71464-1.4015-1.7216-2.0032-3.3524-2.0032-1.8004 0-2.665.48258-3.3316 1.8595-.5249 1.0843-.53625 1.4897-.46566 16.606.0712 15.245.0813 15.507.62537 16.242 1.6785 2.267 5.5689 1.9104 6.6207-.60693.26265-.62862.36692-2.1214.36692-5.2523v-4.3741h7.1438l-.004 4.4318c-.003 3.0231-.13142 4.9727-.40505 6.1337-.79997 3.394-2.9983 6.072-5.9021 7.1902-1.9541.75244-6.6385.95192-8.7093.37087zm26.774-.088035c-2.0661-.61172-3.2691-1.3665-4.6352-2.9079-2.7404-3.0923-2.9212-4.5502-2.8113-22.671.0782-12.893.14089-14.733.55007-16.14 1.1887-4.0859 3.844-6.5278 8.0726-7.4241 2.2262-.47186 3.6754-.46942 5.938.01 4.1601.88148 6.436 2.9022 7.9033 7.0173l.6132 1.7198v32.015l-.60513 1.6745c-1.1678 3.2314-3.0936 5.3682-5.7664 6.3982-2.1765.83877-6.9328.99722-9.2592.30845zm6.4867-6.9147c1.6324-1.1623 1.6033-.84498 1.6029-17.514 0-13.923-.0385-15.248-.46302-16.081-.73353-1.4385-1.7009-1.9944-3.471-1.9944-1.8808 0-2.8006.54348-3.4902 2.0623-.4726 1.0409-.50152 1.9526-.50699 15.981-.006 16.29.004 16.411 1.5491 17.511 1.2471.88803 3.5572.90468 4.7793.034441zm77.274 7.0472c-3.9046-1.1196-6.3116-3.7114-7.1363-7.6841-.19881-.95768-.26723-6.6046-.2155-17.785l.0758-16.382.83031-1.7524c1.1016-2.3251 2.4437-3.7563 4.4472-4.7426 4.5356-2.2329 11.249-1.3049 14.049 1.9421 2.1527 2.496 2.7661 4.7316 2.7661 10.081v3.8644h-7.1438v-3.7303c0-5.3244-.63891-6.4302-3.7254-6.4476-1.7592-.0099-2.6676.51063-3.4632 1.9843-.47038.87134-.49173 1.6967-.42371 16.396l.0716 15.478.5919.8298c1.3235 1.8555 4.3246 2.048 5.9896.38437l.82682-.82617.165-9.7807h7.111v4.7069c0 5.5374-.29668 7.0263-1.8759 9.4146-1.2397 1.8748-2.7308 3.0901-4.6064 3.7544-1.704.60353-6.6481.77856-8.3344.29504zm26.987-.032605c-.65484-.18434-1.6123-.51443-2.1276-.73354-1.2319-.52376-3.4927-2.7454-4.1954-4.1228-1.283-2.5149-1.3418-3.3783-1.346-19.77-.0037-14.072.03643-15.497.4804-17.098 1.1914-4.2966 3.7697-6.666 8.2039-7.5391 4.4768-.8815 9.3498.46267 11.608 3.2018 1.1395 1.3824 1.8971 3.0351 2.3318 5.0867.551 2.6005.55941 30.333.01005 32.926-.91276 4.3062-3.3931 6.974-7.4717 8.0364-1.823.47482-5.8281.48184-7.4931.01315zm6.0854-7.0116c.3638-.25655.89958-.87072 1.1906-1.3648.51263-.87029.52917-1.3742.52917-16.112 0-14.738-.0164-15.242-.52917-16.112-.8759-1.487-1.8085-2.0132-3.5507-2.0035-1.763.0099-2.6871.49523-3.3891 1.7799-.43307.79252-.46852 2.0186-.46852 16.203 0 14.084.03807 15.422.46294 16.274.25464.51067.73088 1.0967 1.0583 1.3023 1.3909.87316 3.4837.88762 4.6964.032457zm-321.2-17.45v-24.368l6.5484.0021c9.4064.0029 11.406.44462 13.783 3.0453 1.6145 1.7665 2.3591 3.92 2.5836 7.4718.37512 5.9361-1.2464 10.38-4.2941 11.769-.85494.38954-.79416.5647.33804.97411 1.3796.49887 3.1285 2.4144 3.8309 4.1961.52952 1.343.60888 2.0953.7039 6.6731.11344 5.4648-.0877 7.1787-1.0713 9.1281-1.1433 2.2658-2.8933 3.7412-5.5434 4.6734-1.5352.54-2.2589.59424-9.272.69495l-7.6068.10923zm14.449 16.842c1.3519-.72237 1.5586-1.6263 1.5586-6.8145 0-4.1544-.0544-4.7225-.52917-5.5286-1.002-1.7012-1.6837-1.9933-4.9092-2.1037l-2.896-.09912v15.197l2.9766-.10568c2.1013-.074607 3.2184-.23493 3.7992-.54525zm-1.0562-22.044c1.6548-1.2365 1.8136-1.6998 1.9078-5.5644.077-3.1597.0256-3.686-.4574-4.6838-.81601-1.6856-1.6178-2.0386-4.6311-2.0386h-2.5389v13.016l2.4948-.09169c2.013-.07398 2.6357-.19703 3.2248-.6372zm42.964 5.1757v-24.342h7.4083v41.804h12.7v6.8792h-20.108zm23.812 0v-24.342h7.6792l-.0693 20.902-.0693 20.902 12.568-5.56e-5v6.8792h-20.108zm24.077.02712v-24.369l6.6807.0046c8.8376.0061 10.912.44282 13.261 2.7925 1.5248 1.5248 2.2448 3.3382 2.6049 6.5606.69368 6.2075-.60389 10.657-3.676 12.605l-1.1566.73346 1.441.81321c2.0292 1.1452 3.299 2.9436 3.8666 5.4763.37367 1.6674.38216 10.225.0116 11.849-.59071 2.589-2.0566 4.7857-3.9857 5.9727-2.5013 1.5391-3.3993 1.6796-11.573 1.8105l-7.4745.11972zm13.763 17.006c1.8039-.72177 1.9796-1.3294 1.9796-6.8464 0-4.2866-.0529-4.8523-.52917-5.6609-1.002-1.7012-1.6837-1.9933-4.9092-2.1037l-2.896-.09912v15.14h2.6405c1.8194 0 2.9744-.1336 3.7143-.42967zm-.59449-22.197c1.4876-.88148 1.9126-2.1913 1.9126-5.8943 0-5.4574-.7575-6.4041-5.1244-6.4041h-2.5485v13.028l2.4474-.10822c1.8011-.07964 2.676-.24367 3.3129-.62109zm14.877 5.1641v-24.342h7.4083v48.683h-7.4083zm19.315 3.4396v-20.902h-7.9375v-6.8792h23.548v6.8792h-8.2021v41.804h-7.4083zm73.819-3.4396v-24.342h7.4083v48.683h-7.4083zm13.229 0v-24.342h9.4875l.39637 1.3891c.21799.76398 1.7712 6.8064 3.4515 13.428 1.6803 6.6212 3.225 12.574 3.4327 13.229.33753 1.0642.38039-.36149.40378-13.428l.0262-14.618h6.6146v48.683h-3.8056c-3.7236 0-3.809-.012832-3.9626-.59531-.0864-.32742-2.154-8.3344-4.5949-17.793l-4.4379-17.198-.136 35.586h-6.8754zm29.898 20.638v-3.7042h7.1438v7.4083h-7.1438zm67.204-20.638v-24.342h5.424c2.9832 0 5.424.02977 5.424.06615 2.6e-5.32117 1.4042 10.656 1.6985 12.502.20889 1.3097 1.0046 6.8834 1.7682 12.386.76361 5.5026 1.4701 9.8484 1.57 9.6573.09988-.19106.32808-1.4785.5071-2.8609.17904-1.3824.78378-5.7878 1.3439-9.7896.56012-4.0018 1.27-9.1215 1.5776-11.377s.76433-5.5298 1.015-7.276l.45574-3.175 10.966-.14302v48.694h-7.1438v-18.389c0-10.114-.09491-18.389-.21093-18.389-.11599 0-.53073 2.1729-.92162 4.8286-1.3842 9.4046-2.5351 17.03-2.925 19.381-.21728 1.3097-.7235 4.6732-1.125 7.4745l-.72996 5.0932h-3.1241c-3.027 0-3.1279-.018494-3.2469-.59531-.13721-.66528-1.4071-9.0111-3.1906-20.968-.65117-4.3656-1.4542-9.6044-1.7846-11.642l-.60066-3.7042-.1359 36.909h-6.611zm-421.35 18.053c-.93993-.1989-10.106-2.4213-18.369-4.4539-4.4274-1.0891-8.5394-2.0472-9.1378-2.1292-.7813-.10709-2.0991.11914-4.6746.80249l-3.5865.95161-5.6642-1.4629c-3.1153-.80461-6.6167-1.71-7.7809-2.0121-1.1642-.30202-2.2766-.63571-2.472-.74153-.3716-.20121 1.855-2.0871 7.3668-6.2396 1.528-1.1511 2.9567-2.2394 3.175-2.4183.21828-.1789 1.3246-1.0598 2.4586-1.9575s2.0269-1.7277 1.9844-1.8444c-.0689-.18924-4.2913-3.3563-12.329-9.2475-4.4792-3.2831-14.977-11.142-15.327-11.474-.3612-.34293-.31402-.41809 4.3402-6.9143 7.3496-10.258 10.442-14.563 12.507-17.406 1.2455-1.7153 2.4431-3.3869 2.6614-3.7147 1.061-1.5931 3.7877-5.2099 3.8675-5.13.11127.11127-3.826 15.315-5.462 21.092-1.0852 3.8317-1.5996 6.1711-1.3974 6.3543.4057.36754 24.863 8.6319 25.975 8.7774.65527.08567.55842.20164 4.1296-4.9452 3.5147-5.0655 4.2094-6.0086 4.5112-6.1244.29157-.11189 3.182 1.0211 10.18 3.9906 1.2369.52485 2.4871 1.0684 2.7781 1.2079.29104.13949.86621.37585 1.2782.52525l.749.27163-.14651 3.1073c-.0806 1.709-.21067 8.9413-.28909 16.072-.17728 16.119-.39379 24.825-.62231 25.024-.0965.084013-.41363.10236-.70467.040772zm3.795-1.3002c-.0228-.84655-.0662-1.8964-.0964-2.3329-.068-.98156-.50549-32.588-.51597-37.28l-.008-3.4136 2.7781-1.144c1.528-.62921 3.0162-1.2644 3.3073-1.4116.59999-.30337 5.7614-2.4622 7.4916-3.1334 1.3678-.53065.76945-1.151 5.6157 5.8228 1.8912 2.7215 3.5285 5.0038 3.6384 5.0717.30038.18565 26.078-8.3564 26.578-8.8073.1082-.09755-.0318-1.0056-.31104-2.0179-.27927-1.0123-1.0088-3.7456-1.6212-6.0739-.61237-2.3283-1.5071-5.7216-1.9884-7.5406-1.9028-7.1923-3.017-11.52-3.02-11.728-.004-.31335.94824.88153 3.1944 4.0067 1.079 1.5013 2.9739 4.1364 4.2108 5.8558 8.3259 11.573 13.642 19.012 15.339 21.463l1.02 1.4733-.83714.66388c-1.8129 1.4376-13.026 9.805-14.199 10.595-.7188.48434-8.3487 6.1256-8.9958 6.6512-.21828.17728-1.1995.89482-2.1806 1.5945-.98102.6997-1.8415 1.3657-1.9121 1.48-.12461.20162 1.0344 1.122 9.1198 7.2422 5.5593 4.2081 6.4626 4.9904 6.037 5.2286-.28757.16093-3.2214.96945-5.2433 1.445-.21828.051337-2.7362.68687-5.5954 1.4123l-5.1986 1.319-3.4004-.92227c-2.424-.65743-3.7423-.8857-4.591-.79493-.65484.070035-4.1304.84659-7.7236 1.7257-3.5931.87909-6.8078 1.6572-7.1438 1.7292-.33594.071985-1.087.2518-1.6691.39958-.58209.14778-3.3205.8159-6.0854 1.4847-2.7649.66881-5.2354 1.2745-5.4901 1.346-.39971.11223-.46869-.080457-.50444-1.4092z" style="fill:#fff;stroke-width:.26458"/>
 </g>
</svg>
