<svg class="css-14hp6o2" aria-hidden="true" version="1.1" viewBox="0 0 160 32" xmlns="http://www.w3.org/2000/svg">
 <g clip-path="url(#clip0_295_441)" fill="#E21924" style="fill:#fff">
  <path d="m52.86 18.75v-.16c.8057-.1138 1.5427-.5161 2.0742-1.1322s.8214-1.4041.8158-2.2178c0-2.34-1.8-3.92-5.28-3.92h-6.47v15.49h7c3.43 0 5.4-1.84 5.4-4.34.0174-.4781-.061-.9548-.2305-1.4022s-.4267-.8564-.7565-1.2029c-.3298-.3466-.7255-.6237-1.1639-.8152-.4385-.1914-.9107-.2933-1.3891-.2997zm-5.1-4.46h2.13c1.25 0 2 .65 2 1.67s-.87 1.73-2.1 1.73h-2.07l.04-3.4zm2.31 9.5h-2.31v-3.69h2.38c1.43 0 2.31.75 2.31 1.94s-.76 1.75-2.38 1.75z" clip-rule="evenodd" fill-rule="evenodd" style="fill:#fff"/>
  <path d="m65.65 21.79c.0276.2745-.0043.5517-.0935.8128s-.2336.4999-.4234.7001c-.1898.2003-.4205.3573-.6764.4603-.256.103-.5311.1497-.8067.1368-.2575.0073-.5136-.0407-.751-.1409-.2374-.1001-.4505-.2501-.6249-.4397s-.3061-.4144-.3862-.6593-.1066-.5041-.0779-.7601v-6.71h-3.7v7.4c0 2.63 1.61 4.37 4 4.37.762.0436 1.5179-.1582 2.1568-.5757.6389-.4176 1.1272-1.0289 1.3932-1.7443h.12v2.17h3.52v-11.62h-3.69l.04 6.6z" clip-rule="evenodd" fill-rule="evenodd" style="fill:#fff"/>
  <path d="m75.39 11.32h-3.7v15.49h3.7v-15.49z" style="fill:#fff"/>
  <path d="m81.43 11.32h-3.7v15.49h3.7v-15.49z" style="fill:#fff"/>
  <path d="m97.19 18.75v-.16c.8066-.1136 1.5448-.5155 2.0779-1.1314.5332-.6159.8251-1.404.8221-2.2186 0-2.34-1.8-3.92-5.28-3.92h-6.46v15.49h6.95c3.43 0 5.39-1.84 5.39-4.34.017-.4748-.06-.9483-.227-1.3931s-.42-.852-.746-1.198c-.3256-.346-.7166-.624-1.1503-.8178-.4338-.1937-.9018-.2995-1.3767-.3111zm-5.1-4.46h2.14c1.24 0 2 .65 2 1.67s-.88 1.73-2.1 1.73h-2.08l.04-3.4zm2.32 9.5h-2.32v-3.69h2.39c1.43 0 2.3.75 2.3 1.94s-.78 1.75-2.37 1.75z" clip-rule="evenodd" fill-rule="evenodd" style="fill:#fff"/>
  <path d="m106.19 15.19h-3.7v11.61h3.7v-11.61z" style="fill:#fff"/>
  <g clip-rule="evenodd" fill-rule="evenodd" style="fill:#fff">
   <path d="m104.34 10.31c-.344.0253-.673.1505-.946.3602-.274.2096-.481.4946-.595.82-.113.3254-.13.677-.047 1.0116s.262.6376.515.8719.569.3896.909.4469.689.014 1.005-.1244c.316-.1385.584-.3661.772-.655s.288-.6265.287-.9712c-.009-.2404-.065-.4766-.166-.6952-.1-.2186-.243-.4153-.419-.5787-.177-.1635-.384-.2906-.609-.374-.226-.0834-.466-.1215-.706-.1121z" style="fill:#fff"/>
   <path d="m113.93 24.08c-.6 0-.94-.24-.94-.93v-5.24h2.1v-2.72h-2.09v-2.78h-3.7v2.78h-1.53v2.72h1.53v5.65c0 2.35 1.51 3.53 4.12 3.41.642-.0274 1.277-.1384 1.89-.33l-.57-2.64c-.267.0541-.538.0809-.81.08z" style="fill:#fff"/>
   <path d="m122.32 17.85c.25 0 .497.0495.728.1457.231.0963.44.2373.616.4149.175.1776.314.3883.408.62.094.2316.141.4795.138.7294h3.46c-.08-2.86-2.17-4.72-5.4-4.72-3.65 0-5.86 2.44-5.86 6s2.19 6 5.87 6c3.26 0 5.29-1.9 5.39-4.78h-3.46c.004.2502-.042.4987-.135.731-.094.2322-.232.4435-.408.6213-.176.1779-.386.3189-.617.4147-.232.0957-.48.1443-.73.143-1.3 0-2.14-1.1-2.14-3.16s.82-3.16 2.14-3.16z" style="fill:#fff"/>
   <path d="m135 15c-3.65 0-5.87 2.41-5.87 6s2.22 6 5.87 6 5.86-2.42 5.86-6-2.22-6-5.86-6zm0 9.2c-1.37 0-2.12-1.31-2.12-3.23s.75-3.23 2.12-3.23 2.08 1.31 2.08 3.23-.75 3.27-2.08 3.27v-.04z" style="fill:#fff"/>
   <path d="m144.61 10.31c-.344.0234-.674.147-.949.3556-.276.2086-.484.4931-.599.8184-.115.3254-.133.6774-.051 1.0127s.26.6393.513.8745c.252.2353.568.3916.909.4496.34.058.69.0152 1.006-.1231s.585-.3661.774-.6553c.188-.2892.288-.6272.287-.9724-.018-.4837-.227-.9404-.582-1.2703-.354-.3298-.824-.5059-1.308-.4897z" style="fill:#fff"/>
  </g>
  <path d="m146.45 15.19h-3.7v11.61h3.7v-11.61z" style="fill:#fff"/>
  <g clip-rule="evenodd" fill-rule="evenodd" style="fill:#fff">
   <path d="m156 15c-.755-.0468-1.505.1493-2.14.5596s-1.122 1.0132-1.39 1.7204h-.13v-2.09h-3.52v11.62h3.7v-6.63c-.03-.2708-.002-.545.083-.8039s.225-.4965.41-.6966c.185-.2002.411-.3582.662-.4633.252-.1052.523-.155.795-.1462.265-.0116.529.0354.774.1377.244.1024.463.2575.641.4543s.31.4305.387.6842c.077.2538.097.5215.058.7838v6.68h3.67v-7.41c0-2.61-1.59-4.4-4-4.4z" style="fill:#fff"/>
   <path d="m21.92 14.59c0-.313-.1243-.6131-.3456-.8344s-.5215-.3456-.8344-.3456h-1.82v2.36h1.82c.3129 0 .6131-.1243.8344-.3456s.3456-.5215.3456-.8344z" style="fill:#fff"/>
   <path d="m21 17.07h-2v2.45h2c.1702.0154.3417-.0048.5036-.0594s.3107-.1423.4368-.2575c.1262-.1153.2269-.2555.2959-.4119.0689-.1563.1045-.3253.1045-.4962s-.0356-.3399-.1045-.4962c-.069-.1563-.1697-.2966-.2959-.4119-.1261-.1152-.2749-.2029-.4368-.2575s-.3334-.0748-.5036-.0594z" style="fill:#fff"/>
   <path d="m36.43 0-1.43 5.59-8 2.64-2.43-3.61-4.74 2.05-4.74-2.05-2.43 3.61-8-2.64-1.45-5.59-3.21 7.86 7.89 5.86-5.56 4 5.56 1.12 2.69-.49v3.17l3.59 4.38.68 3.19 5 2.87 5-2.87.68-3.19 3.59-4.38v-3.17l2.7.49 5.56-1.12-5.56-4 7.89-5.86-3.28-7.86zm-11.74 18.45c0 .663-.2634 1.2989-.7322 1.7678-.4689.4688-1.1048.7322-1.7678.7322h-1.11v1.56h-1.26v-1.51h-.9v1.56h-1.27v-1.56h-2.35v-1.42h.64c.2387 0 .4676-.0948.6364-.2636s.2636-.3977.2636-.6364v-4.38c.0013-.119-.021-.2371-.0656-.3475-.0447-.1103-.1107-.2107-.1944-.2954-.0837-.0846-.1834-.1518-.2933-.1976-.1098-.0459-.2277-.0695-.3467-.0695h-.64v-1.39h2.35v-1.5h1.27v1.5h.9v-1.5h1.26v1.5h.68c.299.0039.5942.0668.8688.1852.2746.1183.523.2897.7312.5044.2081.2146.3718.4682.4816.7463.1099.2781.1637.5752.1584.8741 8e-4.3544-.0821.7039-.242 1.0202-.1598.3163-.3922.5903-.678.7998.4637.1864.8616.5065 1.1429.9197.2814.4131.4335.9005.4371 1.4003h.03z" style="fill:#fff"/>
  </g>
 </g>
 <defs>
  <clipPath id="clip0_295_441">
   <rect width="160" height="32" fill="#fff"/>
  </clipPath>
 </defs>
</svg>
