<svg xmlns="http://www.w3.org/2000/svg" width="162.24" height="40" fill="none" viewBox="0 0 1000 300"><path fill="var(--color-darkfondant)" d="m955.135 191.317 26.442-70.777h18.18l-41.4 102.78q-4.14 10.44-10.62 16.02-6.3 5.58-18.54 5.58h-11.16V229.8h10.62q6.12 0 9.36-2.7t5.04-8.1l3.24-8.64-36.18-89.82h18.9zM380 78.42q14.94 0 27.18 6.3 12.42 6.3 20.88 18l-12.6 12.6q-6.3-9.9-15.48-15.12-9-5.22-20.16-5.22-12.6 0-22.5 6.66-9.72 6.48-15.3 17.82t-5.58 26.28q0 14.58 5.58 26.1 5.58 11.34 15.3 18 9.9 6.48 22.5 6.48 11.16 0 20.34-5.22 9.18-5.4 15.3-15.121l12.6 12.601q-8.1 11.34-21.24 17.82-12.96 6.48-27.18 6.48-13.5 0-25.02-5.04-11.34-5.04-19.8-14.04-8.46-9.18-13.14-21.42T317 145.74q0-14.58 4.68-26.82 4.86-12.24 13.32-21.24 8.46-9.18 19.98-14.22T380 78.42m92.467 39.24q11.88 0 20.519 4.5 8.82 4.5 13.681 12.779 4.86 8.1 4.859 19.261V210h-16.38v-11.688q-4.316 6.06-10.979 9.888-8.28 4.68-19.261 4.68-9.54 0-16.92-3.6-7.2-3.78-11.34-10.26t-4.139-14.76q0-13.86 10.62-21.6 10.8-7.92 28.979-7.92h22.5q0-10.44-6.299-16.38-6.3-6.12-17.281-6.12-14.4 0-25.2 11.88l-10.439-11.16q15.66-15.3 37.08-15.3m177.172 0q12.24 0 21.599 6.12 9.36 5.94 14.58 16.56 5.4 10.62 5.401 24.3v6.48h-66.963q.746 6.159 3.062 11.16 3.6 7.2 10.08 11.52 6.66 4.14 15.84 4.139 8.1 0 14.58-3.599t11.521-10.62l10.62 11.34q-7.02 9-16.74 13.5-9.54 4.32-20.88 4.32-14.04 0-24.66-6.12-10.44-6.12-16.38-16.92t-5.941-24.48q0-13.68 5.761-24.48 5.94-10.8 15.84-16.92 10.08-6.3 22.68-6.3m218.3 0q11.88 0 20.52 4.5 8.82 4.5 13.681 12.779 4.86 8.1 4.859 19.261V210h-16.38v-11.688q-4.318 6.06-10.979 9.888-8.28 4.68-19.261 4.68-9.54 0-16.92-3.6-7.2-3.78-11.34-10.26t-4.14-14.76q.001-13.86 10.621-21.6 10.8-7.92 28.979-7.92h22.5q0-10.44-6.3-16.38-6.3-6.12-17.28-6.12-14.4 0-25.2 11.88l-10.44-11.16q15.66-15.3 37.08-15.3m-322.251 42.983 39.599-40.103h22.5l-43.598 43.079L612.827 210h-24.12l-43.019-41.884V210h-18V80.4h18zM785.131 81.3q12.42 0 21.78 4.68t14.58 13.14 5.22 19.62q0 11.34-5.22 19.8-5.22 8.28-14.58 13.14-9.36 4.68-21.78 4.68H755.61V210h-18.539V81.3zm-311.404 86.22q-10.8 0-16.92 4.32-5.94 4.14-5.941 11.7 0 6.84 4.681 11.16 4.86 4.14 12.96 4.14 7.74 0 13.859-3.42 6.12-3.42 9.901-9.36a27 27 0 0 0 2.339-4.613V167.52zm395.472 0q-10.8 0-16.92 4.32-5.94 4.14-5.94 11.7 0 6.84 4.681 11.16 4.86 4.14 12.959 4.14 7.74 0 13.86-3.42t9.9-9.36a26.7 26.7 0 0 0 2.34-4.613V167.52zm-219.74-34.92q-7.56 0-13.32 3.96t-9 11.34q-2.047 4.664-2.8 10.26h48.775q-1.07-10.408-6.195-17.1-6.3-8.46-17.46-8.46m106.151 7.74h29.521q10.62 0 16.74-5.76t6.12-15.84-6.12-15.66q-6.12-5.76-16.74-5.76H755.61z" style="fill:#fff"/><g clip-path="url(#a)"><g filter="url(#b)"><path fill="url(#c)" d="M81.53 253v4.91c0 10.97-13.26 16.45-20.95 8.68L9.67 215.68a32.78 32.78 0 0 1-9.59-23.17C.08 158.95 0 117.2 0 87.24c0-10.89 13.26-16.37 20.95-8.59l1.15 1.15v96.92c0 10.89 4.26 21.2 11.95 28.9l22.51 22.51 24.97 24.88z"/></g><g filter="url(#d)"><path fill="url(#e)" d="m218.8 17.91-89.96 95.85c-5.73 6.06-8.84 14.08-8.84 22.43v105.92c0 10.97 13.26 16.45 20.96 8.68l89.47-89.47a32.78 32.78 0 0 0 9.58-23.17V26.26c0-11.13-13.59-16.45-21.2-8.35z"/></g><path fill="url(#f)" d="m156.02 147-19.81 21.12c-1.23 1.31-1.96 3.11-1.96 4.91v23.33c0 2.37 2.95 3.6 4.58 1.88l19.73-19.73c1.39-1.39 2.13-3.19 2.13-5.08v-24.64c0-2.46-3.03-3.6-4.66-1.8z"/><path fill="#fb600d" d="M102.15 113.77 62.37 73.99 51.16 62.77c-7.61-7.78-20.87-2.29-20.87 8.68v105.27c0 8.68 3.44 17.03 9.58 23.16l11.3 11.3 11.21 11.21 28.4 28.41c7.69 7.7 20.96 2.29 20.96-8.68V136.85c0-8.68-3.44-16.95-9.58-23.08z"/><path fill="url(#g)" d="M102.15 113.77 62.37 73.99 51.16 62.77c-7.61-7.78-20.87-2.29-20.87 8.68v105.27c0 8.68 3.44 17.03 9.58 23.16l11.3 11.3 11.21 11.21 28.4 28.41c7.69 7.7 20.96 2.29 20.96-8.68V136.85c0-8.68-3.44-16.95-9.58-23.08z"/><path fill="url(#h)" d="M51.15 62.77v148.4l11.21 11.21V73.98z"/><g filter="url(#i)"><path fill="url(#j)" fill-opacity=".01" d="M102.15 113.77 62.37 73.99 51.16 62.77c-7.61-7.78-20.87-2.29-20.87 8.68v105.27c0 8.68 3.44 17.03 9.58 23.16l11.3 11.3 11.21 11.21 28.4 28.41c7.69 7.7 20.96 2.29 20.96-8.68V136.85c0-8.68-3.44-16.95-9.58-23.08z"/></g></g><defs><linearGradient id="c" x1="-9.004" x2="39.694" y1="142.084" y2="189.387" gradientUnits="userSpaceOnUse"><stop stop-color="#ffc414"/><stop offset="1" stop-color="#ffb247"/></linearGradient><linearGradient id="e" x1="178.05" x2="182.88" y1="14.03" y2="311.87" gradientUnits="userSpaceOnUse"><stop stop-color="#61c5ff"/><stop offset=".92" stop-color="#2a92fa"/></linearGradient><linearGradient id="f" x1="165.41" x2="139.21" y1="153.32" y2="182.38" gradientUnits="userSpaceOnUse"><stop stop-color="#c9ebff"/><stop offset="1" stop-color="#a3ddff"/></linearGradient><linearGradient id="g" x1="-.785" x2="104.864" y1="67.19" y2="241.047" gradientUnits="userSpaceOnUse"><stop stop-color="#ff7d38"/><stop offset=".613" stop-color="#fe6412"/><stop offset="1" stop-color="#f25400"/></linearGradient><linearGradient id="h" x1="55.81" x2="57.44" y1="41.81" y2="214.52" gradientUnits="userSpaceOnUse"><stop stop-color="#ff8847" stop-opacity="0"/><stop offset="1" stop-color="#ffa06d"/></linearGradient><linearGradient id="j" x1="-.785" x2="104.864" y1="67.19" y2="241.047" gradientUnits="userSpaceOnUse"><stop stop-color="#ff7d38"/><stop offset=".613" stop-color="#fe6412"/><stop offset="1" stop-color="#f25400"/></linearGradient><filter id="b" width="81.53" height="195.237" x="0" y="74.997" color-interpolation-filters="sRGB" filterUnits="userSpaceOnUse"><feFlood flood-opacity="0" result="BackgroundImageFix"/><feBlend in="SourceGraphic" in2="BackgroundImageFix" result="shape"/><feColorMatrix in="SourceAlpha" result="hardAlpha" values="0 0 0 0 0 0 0 0 0 0 0 0 0 0 0 0 0 0 127 0"/><feOffset dy="-4"/><feComposite in2="hardAlpha" k2="-1" k3="1" operator="arithmetic"/><feColorMatrix values="0 0 0 0 0.894231 0 0 0 0 0.520015 0 0 0 0 0 0 0 0 1 0"/><feBlend in2="shape" result="effect1_innerShadow_2122_420"/><feColorMatrix in="SourceAlpha" result="hardAlpha" values="0 0 0 0 0 0 0 0 0 0 0 0 0 0 0 0 0 0 127 0"/><feOffset dy="4"/><feComposite in2="hardAlpha" k2="-1" k3="1" operator="arithmetic"/><feColorMatrix values="0 0 0 0 1 0 0 0 0 0.845086 0 0 0 0 0.375 0 0 0 1 0"/><feBlend in2="effect1_innerShadow_2122_420" result="effect2_innerShadow_2122_420"/></filter><filter id="d" width="120.01" height="240.432" x="120" y="14.002" color-interpolation-filters="sRGB" filterUnits="userSpaceOnUse"><feFlood flood-opacity="0" result="BackgroundImageFix"/><feBlend in="SourceGraphic" in2="BackgroundImageFix" result="shape"/><feColorMatrix in="SourceAlpha" result="hardAlpha" values="0 0 0 0 0 0 0 0 0 0 0 0 0 0 0 0 0 0 127 0"/><feOffset dx="-2.456" dy="-2.456"/><feComposite in2="hardAlpha" k2="-1" k3="1" operator="arithmetic"/><feColorMatrix values="0 0 0 0 0.105972 0 0 0 0 0.521264 0 0 0 0 0.908333 0 0 0 1 0"/><feBlend in2="shape" result="effect1_innerShadow_2122_420"/><feColorMatrix in="SourceAlpha" result="hardAlpha" values="0 0 0 0 0 0 0 0 0 0 0 0 0 0 0 0 0 0 127 0"/><feOffset dx="2.456" dy="2.456"/><feComposite in2="hardAlpha" k2="-1" k3="1" operator="arithmetic"/><feColorMatrix values="0 0 0 0 0.441667 0 0 0 0 0.771442 0 0 0 0 1 0 0 0 1 0"/><feBlend in2="effect1_innerShadow_2122_420" result="effect2_innerShadow_2122_420"/></filter><filter id="i" width="81.45" height="195.29" x="30.29" y="59.122" color-interpolation-filters="sRGB" filterUnits="userSpaceOnUse"><feFlood flood-opacity="0" result="BackgroundImageFix"/><feBlend in="SourceGraphic" in2="BackgroundImageFix" result="shape"/><feColorMatrix in="SourceAlpha" result="hardAlpha" values="0 0 0 0 0 0 0 0 0 0 0 0 0 0 0 0 0 0 127 0"/><feOffset dy="-4"/><feComposite in2="hardAlpha" k2="-1" k3="1" operator="arithmetic"/><feColorMatrix values="0 0 0 0 0.75 0 0 0 0 0.261411 0 0 0 0 0 0 0 0 1 0"/><feBlend in2="shape" result="effect1_innerShadow_2122_420"/><feColorMatrix in="SourceAlpha" result="hardAlpha" values="0 0 0 0 0 0 0 0 0 0 0 0 0 0 0 0 0 0 127 0"/><feOffset dy="4"/><feComposite in2="hardAlpha" k2="-1" k3="1" operator="arithmetic"/><feColorMatrix values="0 0 0 0 1 0 0 0 0 0.609109 0 0 0 0 0.399038 0 0 0 1 0"/><feBlend in2="effect1_innerShadow_2122_420" result="effect2_innerShadow_2122_420"/></filter><clipPath id="a"><path fill="#fff" d="M0 14h240v256.23H0z"/></clipPath></defs></svg>