<?xml version="1.0" encoding="UTF-8" standalone="no"?>
<!DOCTYPE svg PUBLIC "-//W3C//DTD SVG 1.1//EN" "http://www.w3.org/Graphics/SVG/1.1/DTD/svg11.dtd">
<svg width="100%" height="100%" viewBox="0 0 1200 300" version="1.1" xmlns="http://www.w3.org/2000/svg" xmlns:xlink="http://www.w3.org/1999/xlink" xml:space="preserve" xmlns:serif="http://www.serif.com/" style="fill-rule:evenodd;clip-rule:evenodd;stroke-linejoin:round;stroke-miterlimit:2;">
    <g transform="matrix(1.26673,0,0,1.26673,-110.574,159.024)">
        <g transform="matrix(144.071,0,0,144.071,308.537,38.8674)">
            <path d="M0.607,-0.189L0.677,-0.119C0.647,-0.077 0.608,-0.044 0.56,-0.02C0.511,0.004 0.461,0.016 0.408,0.016C0.358,0.016 0.312,0.007 0.27,-0.012C0.227,-0.03 0.191,-0.057 0.159,-0.09C0.128,-0.124 0.103,-0.164 0.086,-0.209C0.069,-0.255 0.06,-0.304 0.06,-0.357C0.06,-0.411 0.069,-0.461 0.087,-0.506C0.104,-0.551 0.129,-0.591 0.16,-0.625C0.191,-0.658 0.228,-0.685 0.271,-0.703C0.314,-0.722 0.36,-0.731 0.41,-0.731C0.465,-0.731 0.516,-0.719 0.561,-0.696C0.607,-0.673 0.645,-0.639 0.677,-0.596L0.607,-0.526C0.584,-0.563 0.555,-0.591 0.522,-0.61C0.488,-0.629 0.451,-0.639 0.409,-0.639C0.363,-0.639 0.321,-0.627 0.285,-0.602C0.248,-0.578 0.22,-0.545 0.199,-0.503C0.178,-0.461 0.168,-0.412 0.168,-0.357C0.168,-0.303 0.178,-0.255 0.199,-0.213C0.22,-0.17 0.248,-0.137 0.285,-0.113C0.321,-0.088 0.362,-0.076 0.409,-0.076C0.45,-0.076 0.488,-0.086 0.522,-0.105C0.556,-0.125 0.584,-0.153 0.607,-0.189Z" style="fill:rgb(239,239,248);fill-rule:nonzero;"/>
        </g>
        <g transform="matrix(144.071,0,0,144.071,403.539,38.8674)">
            <path d="M0.48,-0L0.389,-0L0.389,-0.098L0.386,-0.121L0.386,-0.307C0.386,-0.345 0.374,-0.376 0.351,-0.398C0.328,-0.42 0.296,-0.432 0.255,-0.432C0.202,-0.432 0.155,-0.41 0.115,-0.366L0.057,-0.428C0.115,-0.485 0.184,-0.513 0.263,-0.513C0.307,-0.513 0.345,-0.504 0.377,-0.488C0.41,-0.471 0.435,-0.448 0.453,-0.417C0.471,-0.387 0.48,-0.351 0.48,-0.31L0.48,-0ZM0.221,0.016C0.186,0.016 0.154,0.009 0.127,-0.004C0.1,-0.018 0.079,-0.037 0.064,-0.061C0.049,-0.085 0.041,-0.112 0.041,-0.143C0.041,-0.194 0.061,-0.234 0.1,-0.263C0.14,-0.293 0.194,-0.307 0.261,-0.307L0.395,-0.307L0.395,-0.236L0.27,-0.236C0.23,-0.236 0.199,-0.228 0.176,-0.213C0.154,-0.197 0.143,-0.175 0.143,-0.147C0.143,-0.122 0.152,-0.101 0.17,-0.086C0.187,-0.07 0.211,-0.062 0.241,-0.062C0.269,-0.062 0.295,-0.068 0.318,-0.081C0.341,-0.093 0.359,-0.111 0.373,-0.133C0.387,-0.155 0.395,-0.181 0.397,-0.209L0.428,-0.192C0.428,-0.151 0.419,-0.116 0.401,-0.084C0.384,-0.053 0.36,-0.029 0.329,-0.011C0.298,0.007 0.262,0.016 0.221,0.016Z" style="fill:rgb(239,239,248);fill-rule:nonzero;"/>
        </g>
        <g transform="matrix(144.071,0,0,144.071,474.032,38.8674)">
            <path d="M0.179,-0L0.079,-0L0.079,-0.72L0.179,-0.72L0.179,-0ZM0.552,-0L0.418,-0L0.153,-0.258L0.163,-0.258L0.399,-0.497L0.524,-0.497L0.272,-0.248L0.272,-0.267L0.552,-0Z" style="fill:rgb(239,239,248);fill-rule:nonzero;"/>
        </g>
        <g transform="matrix(144.071,0,0,144.071,540.112,38.8674)">
            <path d="M0.461,-0.146L0.52,-0.083C0.494,-0.05 0.463,-0.025 0.428,-0.009C0.392,0.008 0.353,0.016 0.311,0.016C0.259,0.016 0.214,0.005 0.175,-0.018C0.136,-0.041 0.105,-0.072 0.083,-0.112C0.061,-0.152 0.05,-0.197 0.05,-0.248C0.05,-0.299 0.061,-0.344 0.082,-0.384C0.104,-0.424 0.133,-0.455 0.17,-0.478C0.208,-0.501 0.25,-0.513 0.296,-0.513C0.341,-0.513 0.381,-0.502 0.416,-0.479C0.451,-0.457 0.478,-0.426 0.498,-0.387C0.518,-0.348 0.527,-0.303 0.527,-0.252L0.527,-0.246L0.428,-0.246L0.428,-0.256C0.428,-0.309 0.416,-0.352 0.392,-0.383C0.369,-0.415 0.336,-0.43 0.295,-0.43C0.267,-0.43 0.243,-0.423 0.221,-0.408C0.199,-0.393 0.183,-0.372 0.171,-0.345C0.159,-0.318 0.153,-0.286 0.153,-0.25C0.153,-0.214 0.159,-0.182 0.172,-0.154C0.185,-0.127 0.204,-0.106 0.229,-0.09C0.253,-0.075 0.282,-0.067 0.316,-0.067C0.346,-0.067 0.373,-0.074 0.397,-0.087C0.421,-0.1 0.442,-0.12 0.461,-0.146ZM0.527,-0.216L0.121,-0.216L0.121,-0.288L0.512,-0.288L0.527,-0.252L0.527,-0.216Z" style="fill:rgb(239,239,248);fill-rule:nonzero;"/>
        </g>
        <g transform="matrix(144.071,0,0,144.071,614.511,38.8674)">
        </g>
        <g transform="matrix(144.071,0,0,144.071,637.995,38.8674)">
            <path d="M0.77,-0L0.654,-0L0.499,-0.589L0.511,-0.589L0.356,-0L0.241,-0L0.043,-0.715L0.153,-0.715L0.317,-0.075L0.287,-0.075L0.456,-0.715L0.556,-0.715L0.725,-0.075L0.698,-0.075L0.861,-0.715L0.967,-0.715L0.77,-0Z" style="fill:rgb(239,239,248);fill-rule:nonzero;"/>
        </g>
        <g transform="matrix(144.071,0,0,144.071,766.673,38.8674)">
            <path d="M0.48,-0L0.389,-0L0.389,-0.098L0.386,-0.121L0.386,-0.307C0.386,-0.345 0.374,-0.376 0.351,-0.398C0.328,-0.42 0.296,-0.432 0.255,-0.432C0.202,-0.432 0.155,-0.41 0.115,-0.366L0.057,-0.428C0.115,-0.485 0.184,-0.513 0.263,-0.513C0.307,-0.513 0.345,-0.504 0.377,-0.488C0.41,-0.471 0.435,-0.448 0.453,-0.417C0.471,-0.387 0.48,-0.351 0.48,-0.31L0.48,-0ZM0.221,0.016C0.186,0.016 0.154,0.009 0.127,-0.004C0.1,-0.018 0.079,-0.037 0.064,-0.061C0.049,-0.085 0.041,-0.112 0.041,-0.143C0.041,-0.194 0.061,-0.234 0.1,-0.263C0.14,-0.293 0.194,-0.307 0.261,-0.307L0.395,-0.307L0.395,-0.236L0.27,-0.236C0.23,-0.236 0.199,-0.228 0.176,-0.213C0.154,-0.197 0.143,-0.175 0.143,-0.147C0.143,-0.122 0.152,-0.101 0.17,-0.086C0.187,-0.07 0.211,-0.062 0.241,-0.062C0.269,-0.062 0.295,-0.068 0.318,-0.081C0.341,-0.093 0.359,-0.111 0.373,-0.133C0.387,-0.155 0.395,-0.181 0.397,-0.209L0.428,-0.192C0.428,-0.151 0.419,-0.116 0.401,-0.084C0.384,-0.053 0.36,-0.029 0.329,-0.011C0.298,0.007 0.262,0.016 0.221,0.016Z" style="fill:rgb(239,239,248);fill-rule:nonzero;"/>
        </g>
        <g transform="matrix(144.071,0,0,144.071,837.165,38.8674)">
            <rect x="0.079" y="-0.72" width="0.1" height="0.72" style="fill:rgb(239,239,248);fill-rule:nonzero;"/>
        </g>
        <g transform="matrix(144.071,0,0,144.071,865.437,38.8674)">
            <rect x="0.079" y="-0.72" width="0.1" height="0.72" style="fill:rgb(239,239,248);fill-rule:nonzero;"/>
        </g>
        <g transform="matrix(144.071,0,0,144.071,893.709,38.8674)">
            <path d="M0.461,-0.146L0.52,-0.083C0.494,-0.05 0.463,-0.025 0.428,-0.009C0.392,0.008 0.353,0.016 0.311,0.016C0.259,0.016 0.214,0.005 0.175,-0.018C0.136,-0.041 0.105,-0.072 0.083,-0.112C0.061,-0.152 0.05,-0.197 0.05,-0.248C0.05,-0.299 0.061,-0.344 0.082,-0.384C0.104,-0.424 0.133,-0.455 0.17,-0.478C0.208,-0.501 0.25,-0.513 0.296,-0.513C0.341,-0.513 0.381,-0.502 0.416,-0.479C0.451,-0.457 0.478,-0.426 0.498,-0.387C0.518,-0.348 0.527,-0.303 0.527,-0.252L0.527,-0.246L0.428,-0.246L0.428,-0.256C0.428,-0.309 0.416,-0.352 0.392,-0.383C0.369,-0.415 0.336,-0.43 0.295,-0.43C0.267,-0.43 0.243,-0.423 0.221,-0.408C0.199,-0.393 0.183,-0.372 0.171,-0.345C0.159,-0.318 0.153,-0.286 0.153,-0.25C0.153,-0.214 0.159,-0.182 0.172,-0.154C0.185,-0.127 0.204,-0.106 0.229,-0.09C0.253,-0.075 0.282,-0.067 0.316,-0.067C0.346,-0.067 0.373,-0.074 0.397,-0.087C0.421,-0.1 0.442,-0.12 0.461,-0.146ZM0.527,-0.216L0.121,-0.216L0.121,-0.288L0.512,-0.288L0.527,-0.252L0.527,-0.216Z" style="fill:rgb(239,239,248);fill-rule:nonzero;"/>
        </g>
        <g transform="matrix(144.071,0,0,144.071,965.227,38.8674)">
            <path d="M0.351,-0L0.238,-0C0.199,-0 0.169,-0.01 0.15,-0.031C0.13,-0.052 0.12,-0.082 0.12,-0.122L0.12,-0.636L0.22,-0.636L0.22,-0.135C0.22,-0.119 0.224,-0.106 0.232,-0.097C0.24,-0.089 0.252,-0.084 0.268,-0.084L0.351,-0.084L0.351,-0ZM0.345,-0.413L0.032,-0.413L0.032,-0.497L0.345,-0.497L0.345,-0.413Z" style="fill:rgb(239,239,248);fill-rule:nonzero;"/>
        </g>
        <g transform="matrix(144.071,0,0,144.071,1021.29,38.8674)">
        </g>
    </g>
    <g transform="matrix(0.119205,0,0,0.119205,112.252,150)">
        <g transform="matrix(1,0,0,1,-941.667,-1258.33)">
            <clipPath id="_clip1">
                <rect x="0" y="0" width="1883.33" height="2516.67"/>
            </clipPath>
            <g clip-path="url(#_clip1)">
                <g transform="matrix(8.33333,0,0,8.33333,0,0)">
                    <clipPath id="_clip2">
                        <rect x="0" y="0" width="226" height="302"/>
                    </clipPath>
                    <g clip-path="url(#_clip2)">
                        <path d="M203.647,133.765C200.469,136.937 197.816,140.202 196.025,144.991C194.235,149.78 193.352,154.987 192.075,163.228C190.253,174.96 186.685,179.574 183.868,182.48C178.108,188.424 169.932,188.089 159.967,186.118C153.702,184.88 152.075,186.374 144.628,192.811L105.372,231.718L105.355,290.784C105.355,291.846 106.641,292.381 107.393,291.628L223.343,175.776C224.906,174.211 225.79,172.094 225.794,169.88L225.941,111.34L203.651,133.765L203.647,133.765Z" style="fill:url(#_Linear3);fill-rule:nonzero;"/>
                        <path d="M156.864,170.72C164.419,170.938 169.685,176.404 175.903,172.488C182.125,168.566 181.949,164.195 183.156,156.974C184.365,149.752 186.76,141.348 188.896,136.276C191.036,131.201 195.818,124.715 200.683,119.986L225.745,93.89L225.908,67.599C225.917,65.987 223.971,65.175 222.833,66.314L108.859,180.369C106.62,182.611 105.363,185.649 105.363,188.813L105.363,214.698L143.859,176.026C143.859,176.026 149.302,170.504 156.856,170.72L156.864,170.72Z" style="fill:url(#_Linear4);fill-rule:nonzero;"/>
                        <path d="M225.936,46.046L105.363,167.033L105.363,141.2C105.363,138.031 106.62,134.993 108.859,132.757L222.861,18.668C223.995,17.534 225.936,18.338 225.936,19.942L225.936,46.046Z" style="fill:url(#_Linear5);fill-rule:nonzero;"/>
                        <path d="M216.665,0.073L12.523,44.581C5.215,46.173 0,52.65 0,60.139L0,209.308C0,211.525 0.879,213.651 2.447,215.22L88.342,301.178C90.097,302.934 93.096,301.691 93.096,299.207L93.108,139.345C93.108,134.071 95.201,129.01 98.928,125.28L219.227,4.763C221.192,2.796 219.378,-0.52 216.665,0.069L216.665,0.073Z" style="fill:url(#_Linear6);fill-rule:nonzero;"/>
                    </g>
                </g>
            </g>
        </g>
    </g>
    <defs>
        <linearGradient id="_Linear3" x1="0" y1="0" x2="1" y2="0" gradientUnits="userSpaceOnUse" gradientTransform="matrix(-157.223,180.416,-180.416,-157.223,248.464,111.404)"><stop offset="0" style="stop-color:rgb(255,123,52);stop-opacity:1"/><stop offset="0.58" style="stop-color:rgb(255,99,15);stop-opacity:1"/><stop offset="1" style="stop-color:rgb(255,59,15);stop-opacity:1"/></linearGradient>
        <linearGradient id="_Linear4" x1="0" y1="0" x2="1" y2="0" gradientUnits="userSpaceOnUse" gradientTransform="matrix(-115.398,126.541,-126.541,-115.398,218.119,83.5533)"><stop offset="0" style="stop-color:rgb(97,197,255);stop-opacity:1"/><stop offset="1" style="stop-color:rgb(54,154,255);stop-opacity:1"/></linearGradient>
        <linearGradient id="_Linear5" x1="0" y1="0" x2="1" y2="0" gradientUnits="userSpaceOnUse" gradientTransform="matrix(-112.285,121.282,-121.282,-112.285,225.936,37.0816)"><stop offset="0" style="stop-color:rgb(255,196,20);stop-opacity:1"/><stop offset="0.32" style="stop-color:rgb(255,196,20);stop-opacity:1"/><stop offset="1" style="stop-color:rgb(255,155,84);stop-opacity:1"/></linearGradient>
        <linearGradient id="_Linear6" x1="0" y1="0" x2="1" y2="0" gradientUnits="userSpaceOnUse" gradientTransform="matrix(-276.317,431.828,-431.828,-276.317,270.093,-155.027)"><stop offset="0" style="stop-color:rgb(249,249,249);stop-opacity:1"/><stop offset="0.29" style="stop-color:rgb(249,249,249);stop-opacity:1"/><stop offset="0.62" style="stop-color:rgb(235,235,240);stop-opacity:1"/><stop offset="0.96" style="stop-color:rgb(181,174,187);stop-opacity:1"/><stop offset="1" style="stop-color:rgb(181,174,187);stop-opacity:1"/></linearGradient>
    </defs>
</svg>
