<svg version="1.1" id="Layer_1" xmlns="http://www.w3.org/2000/svg" x="0" y="0" viewBox="0 0 1438.5 550.7" xml:space="preserve"><style>.st0{fill:#fff}.st1{fill:#f0d003}</style><path class="st0" d="M381.1 425.2V313.8h-25.2v132.3H428l10.4-20.9zM479.9 313.8H505v132.3h-25.1zM792.2 446.1V313.8H767v53.4h-48.7v-53.4h-25.1v132.3h25.1V388H767v58.1zM926.8 313.8h-87.3l-10.6 21h36.4v111.3h25.1V334.8h25.8zM1062.9 446.1V313.8h-23.7v87.1l-54.3-87.1h-21v132.3h23.8v-85.9l54.1 85.9zM1113.6 313.8h25.1v132.3h-25.1zM1288.1 446.1V313.8h-23.8v87.1l-54.3-87.1h-20.9v132.3h23.7v-85.9l54.1 85.9zM1370.9 446.7c1.7.4 3.4.7 5.1 1l.4.1c2.7.4 5.1.5 7.4.5 1.9 0 3.9-.1 6.1-.3h.4c.1 0 .2 0 .3-.1.1 0 .3-.1.5-.1 13.9-1.1 25.6-6.4 34.7-15.5 9.2-9.2 12.7-20.6 12.7-40.7v-19.2h-38.6l-11.3 21h24.8v5.6c0 7.9-2.1 14.1-6.2 18.3-5.2 5.4-11.4 6.9-16.2 7.6-1.9.3-3.9.5-5.7.5-16.6 0-33.4-14-33.4-45.2 0-22.6 10-45.4 32.4-45.4 1.6 0 3.2.1 4.9.3 9.1 1.5 19.8 7.5 23.2 17.7l21.3-12.5c-2.5-4.9-14.2-24.8-43.2-27.8h-.5c-2.2-.2-4.3-.3-6.2-.3-4.3 0-8.7.5-12.9 1.5l-.6.1-.3.1c-.8.2-1.6.4-2.5.7-26 7.4-41.8 32.6-41.2 65.8 0 33.6 16.2 58.8 42.2 65.8v.3h.1l.1-.2c.8.1 1.5.3 2.2.4zM587.2 446.7c1.7.4 3.4.7 5.1 1l.4.1c2.7.4 5.1.5 7.4.5 1.9 0 3.9-.1 6.1-.3h.4c.1 0 .2 0 .3-.1.1 0 .3-.1.5-.1 13.9-1.1 25.6-6.4 34.7-15.5 9.2-9.2 12.7-20.6 12.7-40.7v-19.2h-38.6l-11.3 21h24.8v5.6c0 7.9-2.1 14.1-6.2 18.3-5.2 5.4-11.4 6.9-16.2 7.6-1.9.3-3.9.5-5.7.5-16.6 0-33.4-14-33.4-45.2 0-22.6 10-45.4 32.4-45.4 1.6 0 3.2.1 4.9.3 9.1 1.5 19.8 7.5 23.2 17.7l21.3-12.5c-2.5-4.9-14.2-24.8-43.2-27.8h-.5c-2.2-.2-4.3-.3-6.2-.3-4.3 0-8.7.5-12.9 1.5l-.6.1-.3.1c-.8.2-1.6.4-2.5.7-26 7.4-41.8 32.6-41.2 65.8 0 33.6 16.2 58.8 42.2 65.8v.3h.1l.1-.2c.7.1 1.4.3 2.2.4z"/><g><path class="st1" d="M683.3 184.9l23.9 52.2h27.6l-27.6-56.8 1.1-.4c14.8-6.1 22.3-17.9 22.3-35.1 0-25.8-17.5-40-49.2-40h-47.1v132.3h25.1v-52.8H683l.3.6zm-23.9-21.4v-37.6h19.4c13.2 0 26.6 2.3 26.6 19 0 16.4-12.8 18.6-26.6 18.6h-19.4zM856.5 125.8v-21h-81.6v132.3h81.6v-20.8H800V179h50.7v-20.8H800v-32.4zM405.7 217.4c-1.7.2-3.4.4-5 .4-23 0-33.3-23.3-33.3-46.4 0-23.1 10.3-46.4 33.3-46.4 1.6 0 3.3.1 5 .4 9.1 1.5 19.9 7.5 23.7 17.6l20.3-12c-3.3-6.3-15.1-24.3-42.8-27.2l-1-.1c-2.1-.2-3.9-.3-5.7-.3-4.3 0-8.6.5-12.8 1.5l-.9.2c-.8.2-1.6.4-2.4.7-25.9 7.4-41.6 32.4-41.2 65.3v.6c-.4 32.9 15.3 57.9 41.2 65.3.8.3 1.6.5 2.4.7l.9.2c4.2 1 8.5 1.5 12.8 1.5 1.8 0 3.6-.1 5.7-.3l1-.1c27.7-2.8 39.5-20.9 42.8-27.2l-20.3-12c-3.8 10.1-14.6 16.1-23.7 17.6zM597 170.8v-.1c.2-15.6-3.3-29.4-9.6-40.5-1.8-3.4-6.1-10.2-13.9-16.2-.3-.2-.5-.4-.8-.6-.6-.5-1.3-.9-2-1.4-4.6-3.1-9.7-5.6-15.2-7.2-.8-.3-1.6-.5-2.4-.7l-.9-.2c-4.2-1-8.6-1.5-12.9-1.5h-1.8c-4.4 0-8.7.5-12.9 1.5l-.9.2c-.8.2-1.6.4-2.4.7-5.6 1.6-10.6 4-15.2 7.2-.7.4-1.3.9-2 1.4-.3.2-.5.4-.8.6-7.8 6-12.1 12.8-13.9 16.2-6.4 11.1-9.8 24.9-9.6 40.5v.6c-.2 15.6 3.3 29.4 9.6 40.5 1.8 3.4 6.1 10.2 13.9 16.2.3.2.5.4.8.6.6.5 1.3.9 2 1.4 4.6 3.1 9.7 5.6 15.2 7.2.8.3 1.6.5 2.4.7l.9.2c4.2 1 8.6 1.5 12.9 1.5h1.8c4.4 0 8.7-.5 12.9-1.5l.9-.2c.8-.2 1.6-.4 2.4-.7 5.6-1.6 10.6-4 15.2-7.2.7-.4 1.3-.9 2-1.4.3-.2.5-.4.8-.6 7.8-6 12.1-12.8 13.9-16.2 6.4-11.1 9.8-24.9 9.6-40.5v-.1-.2-.2zm-43.1 42.8c-3.6 1.9-7.4 3.2-10.9 3.8-1.6.2-3.1.3-4.7.3-1.5 0-3.1-.1-4.7-.3-3.6-.6-7.4-1.9-10.9-3.8-12.6-7.8-18.3-25.2-18.3-42.6 0-17.4 5.8-34.8 18.3-42.6 3.6-1.9 7.4-3.2 10.9-3.8 1.6-.2 3.1-.3 4.7-.3 1.5 0 3.1.1 4.7.3 3.6.6 7.4 1.9 10.9 3.8 12.6 7.8 18.3 25.2 18.3 42.6.1 17.4-5.7 34.8-18.3 42.6z"/></g><g><path class="st1" d="M214.6 0L2.2 285.8l244.2-63.5-146.3.1z"/><path fill="#fffae6" d="M31.8 550.7l212.3-285.8L0 328.4l146.3-.1z"/></g></svg>