<svg xmlns="http://www.w3.org/2000/svg" width="278" height="48" fill="none" viewBox="0 0 278 48"><path fill="#fff" d="M86.018 16.365a9.3 9.3 0 0 0-3.494-1.765 17 17 0 0 0-4.531-.564q-1.176 0-2.821.101a26 26 0 0 0-3.158.362v18.944q1.531.31 3.089.405 1.57.098 2.749.098c1.574.02 3.143-.188 4.658-.615a9.6 9.6 0 0 0 3.522-1.852 8.2 8.2 0 0 0 2.232-3.117c.552-1.402.818-2.9.785-4.405a11.7 11.7 0 0 0-.785-4.518 7.9 7.9 0 0 0-2.246-3.074m-3.089 12.181q-1.583 1.653-4.868 1.657h-.965c-.268 0-.51-.026-.724-.044V17.845q.447-.06.897-.073h.926q3.285 0 4.8 1.574 1.515 1.572 1.515 4.629.02 2.91-1.58 4.571m13.667-9.598h-4.181v14.759h4.18zm-.351-6.076a2.665 2.665 0 0 0-3.508 0 2.58 2.58 0 0 0 0 3.616 2.654 2.654 0 0 0 3.508 0 2.57 2.57 0 0 0 0-3.616m14.651 7.313a4.8 4.8 0 0 0-1.982-1.208 9.6 9.6 0 0 0-3.085-.42q-.731 0-1.447.069-.715.069-1.359.17a17 17 0 0 0-1.194.224c-.365.087-.669.163-.911.239l.535 3.367a9 9 0 0 1 1.808-.438 14.5 14.5 0 0 1 2.105-.152q1.6 0 2.246.644a2.32 2.32 0 0 1 .644 1.714v.39a7 7 0 0 0-1.024-.18q-.72-.076-1.446-.072a11.2 11.2 0 0 0-2.329.238 6.2 6.2 0 0 0-1.99.774 4 4 0 0 0-1.392 1.447 4.34 4.34 0 0 0-.517 2.192 5.2 5.2 0 0 0 .448 2.271c.29.606.736 1.124 1.291 1.5a5.6 5.6 0 0 0 1.993.804 12 12 0 0 0 2.593.253 24 24 0 0 0 3.874-.268 55 55 0 0 0 2.499-.463v-8.69a9.4 9.4 0 0 0-.311-2.5 4.4 4.4 0 0 0-1.049-1.905m-2.655 10.488a8 8 0 0 1-.897.083c-.361 0-.766.029-1.179.029a3.6 3.6 0 0 1-1.808-.362 1.45 1.45 0 0 1-.662-1.36 1.5 1.5 0 0 1 .225-.842c.157-.229.37-.413.618-.536.287-.137.595-.226.911-.264a8 8 0 0 1 2.037-.014q.38.034.755.112zm27.024-10.181a4.34 4.34 0 0 0-1.809-1.389 7.3 7.3 0 0 0-2.893-.492 7.3 7.3 0 0 0-2.148.362 7.2 7.2 0 0 0-2.062 1.009 5.9 5.9 0 0 0-1.642-.966 7 7 0 0 0-2.596-.408 22.4 22.4 0 0 0-3.295.268 29 29 0 0 0-2.767.574v14.257h4.181V22.314q.397-.054.814-.097.405-.04.814-.04 1.265 0 1.783.84c.361.563.52 1.515.52 2.864v7.83h4.181v-8.055q.001-.813-.058-1.53a6.2 6.2 0 0 0-.253-1.363 4.6 4.6 0 0 1 1.939-.586q1.261 0 1.783.84.516.843.517 2.864v7.83h4.181v-8.319a13.6 13.6 0 0 0-.254-2.748 5.2 5.2 0 0 0-.936-2.152m16.741.195a6.6 6.6 0 0 0-2.289-1.57 7.88 7.88 0 0 0-5.837 0 6.8 6.8 0 0 0-2.3 1.57 7.3 7.3 0 0 0-1.516 2.441 8.8 8.8 0 0 0-.546 3.172 9.2 9.2 0 0 0 .532 3.186 7.3 7.3 0 0 0 1.486 2.47 6.5 6.5 0 0 0 2.29 1.585 7.6 7.6 0 0 0 2.972.578 7.7 7.7 0 0 0 2.991-.56 6.55 6.55 0 0 0 2.286-1.584 6.9 6.9 0 0 0 1.447-2.47 9.6 9.6 0 0 0 .502-3.187 9 9 0 0 0-.531-3.172 7.2 7.2 0 0 0-1.487-2.459m-3.016 8.68a2.53 2.53 0 0 1-2.206 1.136 2.53 2.53 0 0 1-2.217-1.136 5.36 5.36 0 0 1-.785-3.074q.002-1.935.785-3.045a2.56 2.56 0 0 1 2.217-1.107 2.53 2.53 0 0 1 2.206 1.107c.514.723.77 1.754.77 3.045s-.242 2.322-.755 3.081zm19.671-8.875a4.7 4.7 0 0 0-1.978-1.389 8.6 8.6 0 0 0-3.129-.492 23 23 0 0 0-3.537.268q-1.392.204-2.748.575V33.71h4.18V22.315q.392-.055.897-.098.505-.042.955-.04 1.458 0 1.993.84c.358.56.531 1.515.531 2.864v7.83h4.181v-8.319a11.3 11.3 0 0 0-.307-2.748 5.45 5.45 0 0 0-1.038-2.152m13.975-1.201a9 9 0 0 0-1.389-.477 6.6 6.6 0 0 0-1.559-.167 6.9 6.9 0 0 0-2.792.532 5.55 5.55 0 0 0-2.061 1.544 7 7 0 0 0-1.292 2.456 10.9 10.9 0 0 0-.448 3.255 9.2 9.2 0 0 0 .517 3.186c.32.903.832 1.726 1.501 2.412a6.5 6.5 0 0 0 2.416 1.53 9.3 9.3 0 0 0 3.255.535q.754 0 1.584-.072a34 34 0 0 0 1.628-.18 21 21 0 0 0 1.529-.268c.489-.102.915-.21 1.291-.322V11.953l-4.18.676zm0 11.085q-.39.07-.785.098-.477.043-1.042.043a3 3 0 0 1-2.578-1.179 5.1 5.1 0 0 1-.872-3.114q0-4.04 2.976-4.04c.431 0 .861.056 1.277.167.36.088.705.23 1.024.42zm26.857-8.676h-7.353v-7.44h-4.38v19.447h4.38v-8.25h7.353v8.25h4.376V14.261h-4.376zm18.954-1.515a4.8 4.8 0 0 0-1.981-1.208 9.6 9.6 0 0 0-3.085-.42q-.733 0-1.447.069t-1.36.17c-.43.069-.828.137-1.193.224s-.669.163-.912.239l.532 3.367a9 9 0 0 1 1.808-.438 14.5 14.5 0 0 1 2.105-.152q1.602 0 2.246.644a2.32 2.32 0 0 1 .644 1.714v.39a7 7 0 0 0-1.024-.18q-.72-.076-1.446-.072a11.2 11.2 0 0 0-2.33.238 6.3 6.3 0 0 0-1.992.774 4 4 0 0 0-1.389 1.447 4.33 4.33 0 0 0-.517 2.174 5.2 5.2 0 0 0 .448 2.27c.29.607.736 1.125 1.291 1.502a5.6 5.6 0 0 0 2.008.828c.852.177 1.722.262 2.593.253a24 24 0 0 0 3.873-.267 56 56 0 0 0 2.499-.463V24.59a9.4 9.4 0 0 0-.311-2.5 4.4 4.4 0 0 0-1.06-1.905m-2.654 10.488a8 8 0 0 1-.897.083c-.362 0-.767.029-1.179.029a3.6 3.6 0 0 1-1.808-.362 1.45 1.45 0 0 1-.662-1.36 1.5 1.5 0 0 1 .224-.842c.157-.229.37-.413.618-.536a3 3 0 0 1 .912-.264 8 8 0 0 1 2.036-.014q.381.034.756.112zm19.193-10.181a4.64 4.64 0 0 0-1.978-1.389 8.6 8.6 0 0 0-3.128-.492 22.6 22.6 0 0 0-3.534.268q-1.393.204-2.752.575v14.257h4.181V22.315q.397-.055.9-.098.506-.042.952-.04 1.446 0 1.992.84c.362.564.536 1.515.536 2.864v7.83h4.18v-8.318a11.5 11.5 0 0 0-.307-2.75 5.4 5.4 0 0 0-1.042-2.151m13.979-1.201a9 9 0 0 0-1.393-.477 6.6 6.6 0 0 0-1.555-.167 6.9 6.9 0 0 0-2.792.532 5.6 5.6 0 0 0-2.065 1.544 7 7 0 0 0-1.288 2.456 10.9 10.9 0 0 0-.452 3.255 9.2 9.2 0 0 0 .521 3.186c.32.903.832 1.726 1.501 2.412a6.5 6.5 0 0 0 2.412 1.53 9.3 9.3 0 0 0 3.255.535q.76 0 1.588-.072a34 34 0 0 0 1.627-.18 21 21 0 0 0 1.53-.268c.488-.102.915-.21 1.291-.322V11.953l-4.18.676zm0 11.085q-.392.07-.789.098-.476.043-1.038.043a3.02 3.02 0 0 1-2.582-1.179 5.12 5.12 0 0 1-.868-3.114q0-4.04 2.973-4.04c.431 0 .86.056 1.276.167.362.087.708.229 1.028.42zm18.394-2.322a3.35 3.35 0 0 0-.723-1.273 5.4 5.4 0 0 0-1.418-1.085 17 17 0 0 0-2.275-1.005 12 12 0 0 1-1.107-.467 4.5 4.5 0 0 1-.687-.394.9.9 0 0 1-.336-.38 1.1 1.1 0 0 1-.087-.448q0-1.085 1.967-1.085a8.7 8.7 0 0 1 1.921.195q.806.183 1.588.449l.723-3.256q-.96-.34-1.964-.517a13.6 13.6 0 0 0-2.582-.238q-2.691 0-4.235 1.204a3.94 3.94 0 0 0-1.545 3.284 4.8 4.8 0 0 0 .308 1.808c.193.495.489.944.868 1.317.4.384.859.701 1.36.94q.872.426 1.783.76c.65.228 1.28.514 1.88.853a1.09 1.09 0 0 1 .615.886.86.86 0 0 1-.477.868 4.1 4.1 0 0 1-1.628.224 10.7 10.7 0 0 1-2.217-.238 13.3 13.3 0 0 1-2.17-.659l-.701 3.396c1.612.63 3.333.935 5.063.897q3.001 0 4.644-1.117a3.76 3.76 0 0 0 1.642-3.306 5.8 5.8 0 0 0-.21-1.613"/><path fill="#000" d="m13.248 32.496 4.875 4.918L28.702 48l29.197-29.154L39.056 0H19.06L0 18.843l8.745 9.1zM38.408 1.57l17.277 17.28-26.763 26.763-3.616-3.617 10.792-10.795-1.252-1.244-10.994 10.976-3.617-3.617 10.998-10.998-1.2-1.19-10.966 10.973-3.52-3.493L26.51 21.635l-1.085-1.161-10.97 10.947-3.497-3.479L23.23 15.617l6.227 6.227 1.809-3.8 4.285 2.95.044.037 7.982 5.132h.145L29.063 5.186 27.382 8.71l-7.143-7.14zM26.68 10.188l1.222 1.223.67-1.523.748-1.7 6.21 8.658 1.736 2.42 1.555 2.17-2.206-1.523-6.036-4.166-1.577 3.472-.033.076-4.824-4.923-.857-.867-.586.578L9.873 26.828l-7.685-7.956 13.11-13.11.966-.96 1.682-1.68.846-.829z"/><path fill="#6300ff" d="m37.266 19.277-1.736-2.42L29.32 8.2l-.749 1.7-.669 1.512-1.222-1.223-7.888-7.88-.846.813-1.682 1.682-.966.959L2.195 18.865l7.69 7.963 12.82-12.737.583-.579.86.86 4.821 4.934.036-.08 1.574-3.468 6.04 4.166 2.202 1.523z"/><path fill="#f79413" d="M38.412 1.566H20.24l7.146 7.146 1.678-3.522 14.659 20.965h-.141l-7.986-5.128-.043-.036-.004.003-4.268-2.95-1.826 3.8-6.228-6.231L10.96 27.938l3.5 3.483 10.948-10.947 1.117 1.157-10.976 10.977 3.519 3.493 10.977-10.976 1.2 1.19-10.998 10.994 3.606 3.62L34.85 29.931l1.251 1.248L25.31 41.975l3.62 3.627 26.76-26.756z"/></svg>