<svg width="40" height="46" viewBox="0 0 40 46" fill="none" xmlns="http://www.w3.org/2000/svg">
<path fill-rule="evenodd" clip-rule="evenodd" d="M35.3143 0H4.68571C2.10286 0 0 2.10286 0 4.70857V35.6114C0 38.2171 2.10286 40.32 4.68571 40.32H30.6057L29.3943 36.0914L32.32 38.8114L35.0857 41.3714L40 45.7143V4.70857C40 2.10286 37.8971 0 35.3143 0ZM26.4914 29.8514C26.4914 29.8514 25.6686 28.8686 24.9829 28C27.9771 27.1543 29.12 25.28 29.12 25.28C28.1829 25.8971 27.2914 26.3314 26.4914 26.6286C25.3486 27.1086 24.2514 27.4286 23.1771 27.6114C20.9829 28.0229 18.9714 27.9086 17.2571 27.5886C15.9543 27.3371 14.8343 26.9714 13.8971 26.6057C13.3714 26.4 12.8 26.1486 12.2286 25.8286C12.1943 25.8057 12.16 25.7886 12.1257 25.7714C12.0914 25.7543 12.0571 25.7371 12.0229 25.7143C11.9771 25.6914 11.9543 25.6686 11.9314 25.6457C11.52 25.4171 11.2914 25.2571 11.2914 25.2571C11.2914 25.2571 12.3886 27.0857 15.2914 27.9543C14.6057 28.8229 13.76 29.8514 13.76 29.8514C8.70857 29.6914 6.78857 26.3771 6.78857 26.3771C6.78857 19.0171 10.08 13.0514 10.08 13.0514C13.3714 10.5829 16.5029 10.6514 16.5029 10.6514L16.7314 10.9257C12.6171 12.1143 10.72 13.92 10.72 13.92C10.72 13.92 11.2229 13.6457 12.0686 13.2571C14.5143 12.1829 16.4571 11.8857 17.2571 11.8171L17.3084 11.8085C17.4237 11.7888 17.526 11.7714 17.6457 11.7714C19.04 11.5886 20.6171 11.5429 22.2629 11.7257C24.4343 11.9771 26.7657 12.6171 29.1429 13.92C29.1429 13.92 27.3371 12.2057 23.4514 11.0171L23.7714 10.6514C23.7714 10.6514 26.9029 10.5829 30.1943 13.0514C30.1943 13.0514 33.4857 19.0171 33.4857 26.3771C33.4857 26.3771 31.5429 29.6914 26.4914 29.8514ZM16.2189 19.5918C14.9105 19.5918 13.8776 20.695 13.8776 22.0408C13.8776 23.3867 14.9335 24.4898 16.2189 24.4898C17.5273 24.4898 18.5603 23.3867 18.5603 22.0408C18.5833 20.695 17.5273 19.5918 16.2189 19.5918ZM24.5974 19.5918C23.289 19.5918 22.256 20.695 22.256 22.0408C22.256 23.3867 23.3119 24.4898 24.5974 24.4898C25.9058 24.4898 26.9388 23.3867 26.9388 22.0408C26.9388 20.695 25.9058 19.5918 24.5974 19.5918Z" fill="#22374F"/>
</svg>