<svg xmlns="http://www.w3.org/2000/svg" width="138" height="39" fill="none" viewBox="0 0 138 39"><g clip-path="url(#a)"><path fill="#82c70c" d="m12.185 8.583 3.81-.03c3.854-.03 7.424 2.017 9.378 5.374a11 11 0 0 1 1.49 5.526c0 1.907-.469 3.709-1.404 5.378-1.898 3.383-5.441 5.495-9.288 5.525l-3.653.03H4.027l-.614 5.658L5.142 39l4.285-.038 6.81-.057c6.872-.056 13.192-3.822 16.58-9.862a19.64 19.64 0 0 0-.162-19.45 19.27 19.27 0 0 0-7.032-7.023A18.8 18.8 0 0 0 21.511.795 19 19 0 0 0 16.084 0h-.16l-11.1.095-1.999 5.351 2.729 3.141h4.21l.01.02 2.377-.02h.034z"/><path fill="url(#b)" d="M11.16 11a17.16 17.16 0 0 1 .138 16.988l-1.355 2.419-4.809 8.59h-.007l-4.951-8.51h.007l4.81-8.584a4.75 4.75 0 0 0-.042-4.708L.007 8.683H0L4.816.093l4.951 8.51z"/><path fill="#82c70c" d="m91.336.755 14.157 37.493h-9.854l-5.572-15.33-3.806-10.56-3.802 10.56-2.916 8.053h-.04l-2.594 7.277h-9.617L81.449.755zm31.948 0q6.134 0 9.804 3.395l.004.007c2.452 2.267 3.675 5.476 3.675 9.548q0 6.11-3.675 9.5c-2.447 2.251-5.718 3.38-9.804 3.38h-6.639v11.663h-9.618V.755zM66.049.751V.99L50.238 29.745H65.87v8.5H35.313v-.239L51.386 9.164H36.05V.751zm50.6 8.236v9.396h5.602v-.004c3.383 0 5.075-1.536 5.075-4.681s-1.693-4.711-5.075-4.711z"/></g><defs><linearGradient id="b" x1="6.739" x2="6.739" y1=".092" y2="38.998" gradientUnits="userSpaceOnUse"><stop stop-color="#82c70c"/><stop offset="1" stop-color="#6dae00"/></linearGradient><clipPath id="a"><path fill="#fff" d="M0 0h137.076v39H0z"/></clipPath></defs></svg>