<svg width="800px" height="800px" enable-background="new 796 796 200 200"  fill="#22374F" version="1.1" viewBox="796 796 200 200" xml:space="preserve" xmlns="http://www.w3.org/2000/svg">

	<path d="m796 834.5v122.96l70.218-61.455-69.987-61.253c-.087-.076-.15-.168-.231-.247z"/>
	<path d="m916.7 903.95-6.547 5.729c-4.035 3.53-9.097 5.297-14.156 5.297-5.061 0-10.121-1.767-14.155-5.297l-6.544-5.728-71.712 62.763h184.83l-71.712-62.764z"/>
	<path d="m988.53 825.29h-185.06c.216.144.438.278.639.454l85.614 74.932c3.578 3.131 8.977 3.132 12.555-.002l85.613-74.93c.202-.176.422-.31.639-.454z"/>
	<path d="m995.77 834.75-69.987 61.254 70.217 61.455v-122.96c-.08.079-.145.171-.23.246z"/>

</svg>
