<svg version="1.1" viewBox="0 0 981 910" xmlns="http://www.w3.org/2000/svg">
 <path d="m128 909.34c-34.077-3.4357-62.573-16.86-86.588-40.792-20.174-20.104-32.372-42.412-38.601-70.593l-2.3111-10.457v-595l2.2564-10.188c6.3247-28.559 18.394-50.905 38.306-70.927 19.442-19.549 41.883-31.87 70.437-38.674l9-2.1444 195.89-0.30487c215.49-0.33536 200.93-0.72451 214.17 5.7265 3.3349 1.6247 8.3384 5.1352 11.119 7.8011 29.93 28.697 18.73 75.93-21.182 89.326-3.2633 1.0953-36.692 1.4386-181.5 1.8641l-177.5 0.52155-7.778 2.6527c-24.449 8.3383-42.037 27.977-47.304 52.821-1.1569 5.4568-1.3864 47.824-1.4009 258.59-0.0122 176.73 0.30643 253.84 1.066 258 3.8388 21.025 18.564 40.291 38.077 49.818 16.894 8.2484-6.0066 7.6161 275.84 7.6161 225.35 0 251.87-0.16257 258.79-1.5863 27.673-5.6953 48.943-26.809 54.79-54.388 1.126-5.311 1.3868-25.625 1.4009-109.12 0.0168-99.033 0.0862-102.86 2.0027-110.35 2.5523-9.9795 6.8519-17.412 14.243-24.622 6.5659-6.4049 17.077-12.095 25.571-13.844 28.35-5.8366 56.837 13.134 62.18 41.409 0.81918 4.335 1.0365 40.687 0.78321 131l-0.35061 125-2.2709 9.9667c-6.3755 27.981-18.497 50.004-38.581 70.099-20.749 20.761-44.111 33.235-73.282 39.13-8.2788 1.6731-25.422 1.7804-301.28 1.8861-160.88 0.0616-294.08-0.0467-296-0.2408zm311.37-317.26c-24.129-6.5188-43.453-25.897-49.938-50.078-2.1429-7.9904-2.4154-25.242-0.52133-33 1.8257-7.4778 5.5726-16.274 9.7749-22.948 2.3314-3.7027 60.826-62.915 175.64-177.8l172.15-172.24-10.488-10.752c-5.7682-5.9138-30.351-30.779-54.629-55.256-28.475-28.709-44.89-45.997-46.25-48.713-1.1599-2.3156-2.1089-6.0731-2.1089-8.35 0-5.7368 4.5061-10.239 11.816-11.807 6.4204-1.3769 284.84-1.5635 295.43-0.19798 17.104 2.2054 31.381 14.274 37.046 31.317 2.0568 6.1875 2.0809 7.6669 2.4842 152.41 0.31071 111.5 0.12148 147.54-0.79803 151.97-2.3326 11.236-10.229 15.249-20.264 10.297-2.8718-1.417-21.511-19.557-58.637-57.066l-54.427-54.989-173.07 172.93c-133.61 133.5-174.44 173.74-179.08 176.49-10.855 6.4388-20.277 9.0017-34.49 9.3815-9.9814 0.26674-13.936-0.0539-19.627-1.5915z" style="fill:#fff"/>
</svg>
