<svg xmlns="http://www.w3.org/2000/svg" width="1993" height="532" fill="none" viewBox="0 0 1993 532"><path fill="#fff" fill-rule="evenodd" d="M1937.4 110.432c15.47 0 28.3-5.248 39.25-16.066S1993 70.337 1993 54.94s-5.31-28.402-16.35-39.105C1965.7 5.133 1952.87 0 1937.4 0s-29.86 5.363-40.69 15.835c-10.84 10.703-16.26 23.477-16.26 39.105s5.52 28.724 16.35 39.426c10.83 10.588 24.43 16.066 40.58 16.066zM746.365 522.283H643.874V8.516h325.92v92.755H746.365v125.185h188.28v89.901h-188.28zM0 8.746h341.061v101.916H103.05v411.184H0zm342.505 256.608c0 45.111-37.153 81.822-82.808 81.822-45.771 0-82.924-36.596-82.924-81.822s37.269-81.938 82.924-81.938 82.808 36.826 82.808 81.938m73.63 154.668H178.217v101.824h341.061V8.746H416.135zm1281.785-196.19-9.95-13.004c-9.85-12.889-24.31-23.476-42.9-31.233-18.89-7.963-39.69-12.014-61.92-12.014-34.61 0-65.12 7.871-90.86 23.384-25.44 15.398-45.33 37.24-59.26 64.768-13.93 27.757-21.01 60.187-21.01 96.576s6.96 68.381 20.57 95.264c13.72 26.652 32.93 47.528 57.16 61.936 24.43 14.523 53.74 21.958 87 21.958 24.88 0 47.54-5.018 67.55-15.076 19.8-9.828 34.61-22.717 44.23-38.345l8.3-13.533 1.88 15.72 5.2 42.05h90.77V8.516h-96.74v215.316zm-12.83 174.785c-8.18 14.846-19.57 26.538-33.73 34.409-14.38 8.079-30.73 12.13-48.76 12.13s-35.05-4.143-49.07-12.452c-14.17-8.401-25.09-19.978-32.73-34.524-7.53-14.431-11.39-31.233-11.39-50.037s3.86-35.077 11.39-49.37c7.64-14.753 18.68-26.33 32.73-34.524 13.81-8.309 30.3-12.452 49.07-12.452 18.78 0 34.62 4.051 48.76 12.13 14.16 7.963 25.55 19.333 33.73 33.971 8.06 14.524 12.15 31.464 12.15 50.245s-4.09 35.606-12.15 50.474m204.65-219.689h96.74V522.26h-96.74zm-717.29-11.347c36.82 0 68.64 7.526 94.66 22.279 26.09 14.984 46.52 36.021 60.66 62.812 14.41 27.067 21.66 59.658 21.66 96.829v28.149h-261.84l.21 1.565c2.82 21.059 9.57 37.884 20.08 50.129 14.93 17.538 38.2 26.423 68.92 26.423 22.39 0 41.3-3.936 56.16-11.601 10.72-5.662 18.85-12.958 24.27-21.911h89.87c-8.06 31.072-25.51 55.929-53.27 75.47-31.59 22.326-71.75 33.719-119.29 33.719-34.15 0-65.22-7.872-92.33-23.339-26.95-15.536-48.48-37.171-63.99-64.376-15.44-27.09-23.409-58.806-23.409-94.251s7.619-67.115 22.689-94.321c15.07-27.205 36.08-48.84 62.61-64.238 26.6-15.467 57.77-23.338 92.34-23.338m-77.62 123.896c-2.16 5.593-3.91 11.83-5.42 18.988l.02-.023h163.94c-.45-20.116-7.83-36.365-21.97-48.472-14.28-12.383-33.94-18.689-58.28-18.689-19.59 0-36.1 3.936-49.15 11.669-13.34 8.102-23.06 20.416-29.14 36.527" clip-rule="evenodd"/><path fill="url(#a)" fill-opacity=".13" fill-rule="evenodd" d="M1937.4 110.432c15.47 0 28.3-5.248 39.25-16.066S1993 70.337 1993 54.94s-5.31-28.402-16.35-39.105C1965.7 5.133 1952.87 0 1937.4 0s-29.86 5.363-40.69 15.835c-10.84 10.703-16.26 23.477-16.26 39.105s5.52 28.724 16.35 39.426c10.83 10.588 24.43 16.066 40.58 16.066zM746.365 522.283H643.874V8.516h325.92v92.755H746.365v125.185h188.28v89.901h-188.28zM0 8.746h341.061v101.916H103.05v411.184H0zm342.505 256.608c0 45.111-37.153 81.822-82.808 81.822-45.771 0-82.924-36.596-82.924-81.822s37.269-81.938 82.924-81.938 82.808 36.826 82.808 81.938m73.63 154.668H178.217v101.824h341.061V8.746H416.135zm1281.785-196.19-9.95-13.004c-9.85-12.889-24.31-23.476-42.9-31.233-18.89-7.963-39.69-12.014-61.92-12.014-34.61 0-65.12 7.871-90.86 23.384-25.44 15.398-45.33 37.24-59.26 64.768-13.93 27.757-21.01 60.187-21.01 96.576s6.96 68.381 20.57 95.264c13.72 26.652 32.93 47.528 57.16 61.936 24.43 14.523 53.74 21.958 87 21.958 24.88 0 47.54-5.018 67.55-15.076 19.8-9.828 34.61-22.717 44.23-38.345l8.3-13.533 1.88 15.72 5.2 42.05h90.77V8.516h-96.74v215.316zm-12.83 174.785c-8.18 14.846-19.57 26.538-33.73 34.409-14.38 8.079-30.73 12.13-48.76 12.13s-35.05-4.143-49.07-12.452c-14.17-8.401-25.09-19.978-32.73-34.524-7.53-14.431-11.39-31.233-11.39-50.037s3.86-35.077 11.39-49.37c7.64-14.753 18.68-26.33 32.73-34.524 13.81-8.309 30.3-12.452 49.07-12.452 18.78 0 34.62 4.051 48.76 12.13 14.16 7.963 25.55 19.333 33.73 33.971 8.06 14.524 12.15 31.464 12.15 50.245s-4.09 35.606-12.15 50.474m204.65-219.689h96.74V522.26h-96.74zm-717.29-11.347c36.82 0 68.64 7.526 94.66 22.279 26.09 14.984 46.52 36.021 60.66 62.812 14.41 27.067 21.66 59.658 21.66 96.829v28.149h-261.84l.21 1.565c2.82 21.059 9.57 37.884 20.08 50.129 14.93 17.538 38.2 26.423 68.92 26.423 22.39 0 41.3-3.936 56.16-11.601 10.72-5.662 18.85-12.958 24.27-21.911h89.87c-8.06 31.072-25.51 55.929-53.27 75.47-31.59 22.326-71.75 33.719-119.29 33.719-34.15 0-65.22-7.872-92.33-23.339-26.95-15.536-48.48-37.171-63.99-64.376-15.44-27.09-23.409-58.806-23.409-94.251s7.619-67.115 22.689-94.321c15.07-27.205 36.08-48.84 62.61-64.238 26.6-15.467 57.77-23.338 92.34-23.338m-77.62 123.896c-2.16 5.593-3.91 11.83-5.42 18.988l.02-.023h163.94c-.45-20.116-7.83-36.365-21.97-48.472-14.28-12.383-33.94-18.689-58.28-18.689-19.59 0-36.1 3.936-49.15 11.669-13.34 8.102-23.06 20.416-29.14 36.527" clip-rule="evenodd"/><defs><radialGradient id="a" cx="0" cy="0" r="1" gradientTransform="rotate(11.767 -550.447 776.108)scale(1830.08 1442.23)" gradientUnits="userSpaceOnUse"><stop offset=".026" stop-color="#e02020" stop-opacity=".3"/><stop offset=".197" stop-color="#f7b500" stop-opacity=".3"/><stop offset=".338" stop-color="#6dd400" stop-opacity=".3"/><stop offset=".471" stop-color="#0091ff" stop-opacity=".3"/><stop offset=".591" stop-color="#fa6400" stop-opacity=".3"/><stop offset=".736" stop-color="#fff" stop-opacity=".1"/><stop offset=".84" stop-color="#6236ff" stop-opacity=".3"/><stop offset="1" stop-color="#b620e0" stop-opacity=".3"/></radialGradient></defs></svg>