<svg xmlns="http://www.w3.org/2000/svg" width="410" height="70" viewBox="0 0 410 70"><defs><clipPath id="a"><path d="M0 0h410v70H0z"/></clipPath></defs><g clip-path="url(#a)"><path fill="#d74e0c" fill-rule="evenodd" d="M61.295 27.012c-1.474 4.633-3.159 8.062-5.024 10.228-5.565 6.528-12.213 8.483-16.7 8.483s-8.694-.241-12.3.3-5.174 3.279-6.076 5.024c-2.316 4.392-1.8 7.28-4.512 10.92-3.76 5.024-9.115 7.28-16.124 6.8 2.378-12.125 4.574-20.668 6.65-25.631 3.098-7.46 12.363-16.184 23.133-16.184h30.983Z"/><path fill="#fe6a11" fill-rule="evenodd" d="M61.416 27.012c-1.474 4.632-3.159 8.06-5.021 10.228-5.568 6.532-12.216 8.482-16.7 8.482s-8.694-.241-12.3.3c-.3.03-.572.09-.872.12h-.211a.3.3 0 0 1-.12.03h-.211c-3.068.361-6.107.541-12.815 4.151C5.434 54.446 1.644 63.711 2.155 61.425c1.8-8.272 3.52-14.379 5.144-18.259 3.096-7.431 12.364-16.184 23.163-16.184h30.984Zm22.17-25.84a33.6 33.6 0 0 1-1.9 5.655c-4.933 9.867-14.8 13.025-18.951 13.025H31.966q-13.266 0-23.614 15.041 3.655-16.515 7.941-22.29C20.565 6.827 28.537 1.202 36.719 1.202h46.867Z"/><path fill="#fff" d="M117.789 18.458v6.018h-11.8q-4.425 0-6.372 2.891-.826 1.239-.826 4.661v5.192h17.228v5.9H98.791V62H92.95V30.317a11.43 11.43 0 0 1 3.334-8.673 12.15 12.15 0 0 1 8.761-3.186Zm22.125 10.856h2.065V36.1h-2.773a7.54 7.54 0 0 0-5.576 2.095 6.3 6.3 0 0 0-2.095 4.514V62h-6.666V42.176q0-6.667 4.307-9.765a17.9 17.9 0 0 1 10.738-3.097m30.326 13.452a7.65 7.65 0 0 0-2.655-5.959 9.24 9.24 0 0 0-6.254-2.242 8.88 8.88 0 0 0-6.136 2.212 9.25 9.25 0 0 0-2.95 5.988Zm6.785 5.428h-24.839a9.02 9.02 0 0 0 2.891 6.254 9.13 9.13 0 0 0 6.372 2.36q5.428 0 7.67-4.543l6.49 1.947a16.25 16.25 0 0 1-5.015 5.723 14.07 14.07 0 0 1-8.614 2.537 17.7 17.7 0 0 1-8.88-2.094 14.9 14.9 0 0 1-5.782-5.9 18 18 0 0 1-2.095-8.821 18.4 18.4 0 0 1 2.035-8.82 14.3 14.3 0 0 1 5.723-5.871 16.85 16.85 0 0 1 8.38-2.066 16.74 16.74 0 0 1 8.289 2.006 14.2 14.2 0 0 1 5.605 5.635 16.97 16.97 0 0 1 2.006 8.349 21 21 0 0 1-.236 3.304m29.618-5.428a7.65 7.65 0 0 0-2.655-5.959 9.24 9.24 0 0 0-6.254-2.242 8.88 8.88 0 0 0-6.136 2.212 9.25 9.25 0 0 0-2.95 5.988Zm6.785 5.428h-24.839a9.02 9.02 0 0 0 2.891 6.254 9.13 9.13 0 0 0 6.372 2.36q5.428 0 7.67-4.543l6.49 1.947A16.25 16.25 0 0 1 207 59.935a14.07 14.07 0 0 1-8.617 2.537 17.7 17.7 0 0 1-8.883-2.094 14.9 14.9 0 0 1-5.782-5.9 18 18 0 0 1-2.094-8.821 18.4 18.4 0 0 1 2.035-8.82 14.3 14.3 0 0 1 5.723-5.871 16.85 16.85 0 0 1 8.378-2.065 16.74 16.74 0 0 1 8.289 2.006 14.2 14.2 0 0 1 5.605 5.635 16.97 16.97 0 0 1 2.006 8.349 21 21 0 0 1-.232 3.303m4.6-2.6a18 18 0 0 1 2.036-8.673 14.9 14.9 0 0 1 5.546-5.871 14.97 14.97 0 0 1 7.818-2.094 15.25 15.25 0 0 1 6.283 1.387 12.86 12.86 0 0 1 4.927 3.688V18.34h6.785V62h-6.785v-4.9a12.6 12.6 0 0 1-4.572 3.9 14.2 14.2 0 0 1-6.7 1.534 14.55 14.55 0 0 1-7.758-2.153 15.2 15.2 0 0 1-5.546-6.018 18.5 18.5 0 0 1-2.032-8.763Zm26.609.118a11.8 11.8 0 0 0-1.387-5.841 9.73 9.73 0 0 0-3.629-3.776 9.5 9.5 0 0 0-4.838-1.3 9.66 9.66 0 0 0-4.838 1.268 9.57 9.57 0 0 0-3.628 3.717 11.6 11.6 0 0 0-1.387 5.812 12.1 12.1 0 0 0 1.387 5.9 9.8 9.8 0 0 0 3.658 3.865 9.4 9.4 0 0 0 4.809 1.327 9.5 9.5 0 0 0 4.838-1.3 9.7 9.7 0 0 0 3.629-3.805 11.94 11.94 0 0 0 1.388-5.863Zm29.738 16.819a16.65 16.65 0 0 1-8.319-2.094 15.05 15.05 0 0 1-5.841-5.9 17.8 17.8 0 0 1-2.124-8.821 17.46 17.46 0 0 1 2.183-8.791 15.1 15.1 0 0 1 5.959-5.9 17.3 17.3 0 0 1 8.437-2.065 17.3 17.3 0 0 1 8.437 2.065 15.1 15.1 0 0 1 5.959 5.9 17.46 17.46 0 0 1 2.183 8.791 17.1 17.1 0 0 1-2.242 8.791 15.5 15.5 0 0 1-6.106 5.93 17.6 17.6 0 0 1-8.526 2.094m0-5.841a10 10 0 0 0 4.867-1.239 9.44 9.44 0 0 0 3.688-3.717 11.95 11.95 0 0 0 1.416-6.018 12.2 12.2 0 0 0-1.357-5.988 9.16 9.16 0 0 0-3.6-3.687 9.84 9.84 0 0 0-4.838-1.239 9.7 9.7 0 0 0-4.809 1.239 8.84 8.84 0 0 0-3.51 3.688 12.65 12.65 0 0 0-1.3 5.988q0 5.251 2.684 8.113a8.87 8.87 0 0 0 6.759 2.86m62.894-27.73a14.6 14.6 0 0 1 6.874 1.593 11.5 11.5 0 0 1 4.779 4.72 15.3 15.3 0 0 1 1.74 7.552V62h-6.667V43.828q0-4.366-2.183-6.7a7.77 7.77 0 0 0-5.959-2.33 7.87 7.87 0 0 0-5.988 2.33q-2.213 2.331-2.213 6.7V62h-6.667V43.828q0-4.366-2.183-6.7a7.77 7.77 0 0 0-5.959-2.33 7.87 7.87 0 0 0-5.989 2.33q-2.212 2.331-2.212 6.7V62h-6.726V41.881a12.22 12.22 0 0 1 3.009-8.26q4.012-4.661 11.564-4.661a14.45 14.45 0 0 1 6.962 1.652 11.3 11.3 0 0 1 4.72 4.779 10.4 10.4 0 0 1 5.487-4.69 19.15 19.15 0 0 1 7.611-1.741m25.37-3.776a4.17 4.17 0 0 1-3.068-1.239 4.17 4.17 0 0 1-1.239-3.068 4.17 4.17 0 0 1 1.239-3.068 4.17 4.17 0 0 1 3.068-1.239 4.1 4.1 0 0 1 3.009 1.239 4.17 4.17 0 0 1 1.239 3.068 4.17 4.17 0 0 1-1.239 3.068 4.1 4.1 0 0 1-3.009 1.239m3.3 4.307V62h-6.726V29.491Zm27.911 25.547a9.3 9.3 0 0 0 3.658-3.54 12.7 12.7 0 0 0 1.475-6.254 12.16 12.16 0 0 0-1.416-6.018 9.2 9.2 0 0 0-3.6-3.658 9.9 9.9 0 0 0-4.779-1.18 9.55 9.55 0 0 0-4.72 1.18 8.8 8.8 0 0 0-3.54 3.658 12.86 12.86 0 0 0-1.357 6.136 11.48 11.48 0 0 0 2.832 8.2 8.56 8.56 0 0 0 6.549 2.714 9.96 9.96 0 0 0 4.898-1.238m3.658 4.956a17.46 17.46 0 0 1-8.5 2.124 16.47 16.47 0 0 1-8.319-2.124 14.6 14.6 0 0 1-5.782-5.782 17.8 17.8 0 0 1-2.183-8.85 17.53 17.53 0 0 1 2.242-8.909 14.8 14.8 0 0 1 5.9-5.841 17.3 17.3 0 0 1 8.437-2.065 17.3 17.3 0 0 1 8.437 2.065 14.8 14.8 0 0 1 5.9 5.841 17.4 17.4 0 0 1 2.242 8.85L405.945 62h-6.785v-2.832Z"/></g></svg>