<svg xmlns="http://www.w3.org/2000/svg" class="chakra-icon css-h15c97" style="fill:#20ecc7" viewBox="0 0 1148 365"><path d="M346.396 125.679c-.203-1.22-.41-2.439-.641-3.651l-.738-3.905c-1.037-4.228-5.713-7.687-10.389-7.688l-113.363-.01c-4.678-.001-9.684 3.64-11.125 8.089l-24.086 74.359c-.711 2.196-1.646 4.901-.613 6.363 1.061 1.499 4.129 1.727 6.498 1.727h46.154s2.156-.018 2.443 1.479c.307 1.589-1.346 3.301-1.346 3.301l-81.357 85.507c-2.846 2.992-7.816 8.21-11.041 11.595l-20.869 21.897s-.426.479-.924.938q-.431.397-.826.703c-2.895 2.249-4.264.991-3.063-3.123l10.619-36.39c1.311-4.489 3.453-11.837 4.764-16.326l6.082-20.842c1.02-3.496 2.178-7.46 2.906-9.959.207-.71.689-2.899-.039-4.006-.691-1.051-1.855-1.25-3.162-1.25H93.484c-4.678 0-6.248-2.368-3.49-5.262l10.881-11.418 34.176-35.858c3.227-3.386 8.195-8.604 11.043-11.597s7.816-8.213 11.039-11.602l5.771-6.066 11.723-12.322 11.844-12.446 11.25-11.827c2.965-3.115 6.168-6.481 7.117-7.48l7.588-7.976 65.891-69.252c3.225-3.389 2.594-8.153-1.398-10.588 0 0-9.32-5.68-18.164-9.374C235.769 1.82 210.816-1.597 185.61.68a175 175 0 0 0-21.289 3.263c-19.084 4.134-37.775 11.412-55.367 21.5-10.984 6.295-21.494 13.67-31.371 22.014-23.264 19.65-42.787 44.486-56.658 73.245-6.891 14.286-11.973 28.718-15.41 43.002-7.205 29.942-7.146 59.342-1.015 85.795 4.076 17.603 10.859 34.017 20.059 48.593.56.89 1.135 1.775 1.715 2.651A143 143 0 0 0 43.1 321.638a140.5 140.5 0 0 0 33.107 25.173 144 144 0 0 0 19.166 8.764 145 145 0 0 0 11.232 3.665 150 150 0 0 0 19.732 4.138c57.996 8.169 125.443-17.346 172.045-73.3a225 225 0 0 0 23.289-33.795c8.67-15.438 15.322-31.626 19.873-48.129 3.795-13.762 6.121-27.723 6.939-41.613.815-13.813.134-27.527-2.087-40.862m.945 176.965 35.986-185.027q.597-2.699 1.199-3.898.598-1.197 2.699-2.249 2.095-1.05 5.996-1.05h106.76c5.197 0 7.393 2.398 6.598 7.197l-6.598 34.485q-.001 6.6-8.695 6.599h-58.479l-4.498 23.991h53.68q7.492 0 5.996 5.997l-6.598 34.486q0 7.498-8.695 7.498h-53.68l-5.996 30.887h65.973c4.396 0 6.299 2.201 5.699 6.598l-6.896 34.486q-.302 2.404-.752 3.599c-.299.802-1.102 1.603-2.398 2.399q-1.954 1.2-5.848 1.199H354.539q-5.099 0-6.447-1.649c-.901-1.097-1.155-2.947-.751-5.548m244.702-112.457h2.4q14.688-28.488 18.891-35.086l19.494-34.188q3.892-6.592 7.197-8.696c2.197-1.396 5.697-2.098 10.494-2.098h40.484c2.998 0 5.047.802 6.148 2.397 1.096 1.604.945 3.3-.449 5.1l-85.168 126.25-11.096 58.777q-.902 7.197-9.596 7.197h-40.786q-8.7 0-7.197-7.197l11.396-58.777h.301l-32.689-124.751q-.898-3.896 1.352-6.447c1.5-1.696 3.945-2.549 7.346-2.549h36.586q6.896.002 9.297 1.649 2.396 1.65 3.898 7.047l6.898 36.286c2.596 15.397 4.199 27.092 4.799 35.086m181.727-81.868q30.882.001 48.58 8.996 13.493 6.6 8.396 15.594l-7.496 21.893q-2.703 6.599-6.148 8.096c-2.301 1.004-5.75.9-10.346-.3q-19.496-3.895-36.287-3.897-8.7.002-12.596 2.548c-2.6 1.702-3.896 5.053-3.896 10.046q-.001 5.703 6.896 9.597l6.898 3q1.194.3 5.396 1.648c2.797.899 5.396 1.753 7.797 2.549q3.597 1.2 5.697 2.1c11.396 4.4 20.043 10.195 25.941 17.394q8.844 10.794 8.846 29.688c0 27.992-9.697 47.981-29.088 59.976q-25.493 15.294-62.074 15.294c-21.594 0-38.986-3.194-52.182-9.596-8.799-4.198-11.494-9.395-8.098-15.593l7.797-21.593c1.801-4.798 3.797-7.647 5.998-8.548q3.297-1.345 11.996.751c18.391 2.803 33.287 4.199 44.682 4.199q19.493.002 19.494-14.995c0-3.396-1.051-5.998-3.15-7.796q-3.152-2.7-11.545-5.399-20.995-6.593-35.686-16.794-17.093-12.889-17.094-37.784-.002-19.49 6.598-33.737 6.593-14.24 18.143-22.041 11.54-7.793 25.641-11.545 14.09-3.75 30.89-3.751m55.274 194.325 35.984-185.027q.597-2.699 1.199-3.898.598-1.197 2.701-2.249 2.094-1.05 5.996-1.05h106.758q7.794 0 6.6 7.197l-6.6 34.485q-.001 6.6-8.695 6.599h-58.478l-4.498 23.991h53.68q7.493 0 5.998 5.997l-6.598 34.486q0 7.498-8.697 7.498h-53.68l-5.996 30.887h65.975c4.395 0 6.297 2.201 5.697 6.598l-6.896 34.486q-.303 2.404-.752 3.599-.45 1.204-2.398 2.399-1.953 1.2-5.848 1.199H836.239q-5.098 0-6.447-1.649c-.898-1.097-1.152-2.947-.748-5.548m197.916-192.225h68.97c15.4 0 27.79 4.348 37.19 13.045 9.39 8.696 14.09 21.141 14.09 37.335 0 29.192-12.19 51.181-36.58 65.974l15.29 74.372q.9 3.9-1.65 6.297c-1.7 1.604-4.05 2.399-7.04 2.399h-37.49c-8.6 0-13.19-2.597-13.79-7.797l-7.8-64.475h-7.2l-12.59 65.074q-.9 7.197-9.6 7.197h-40.484q-5.102 0-6.598-1.649-1.504-1.645-.898-5.548l35.99-185.027c.6-2.597 1.59-4.447 2.99-5.548 1.4-1.096 3.8-1.649 7.2-1.649m51.28 48.281h-12l-5.99 32.087h11.39q6.3.001 10.95-5.248c3.1-3.494 4.64-9.043 4.64-16.644 0-6.793-2.99-10.195-8.99-10.195"/></svg>