<?xml version="1.0" encoding="UTF-8" standalone="no"?>
<svg
   style="enable-background:new 0 0 512 512"
   version="1.1"
   viewBox="0 0 512 512"
   xml:space="preserve"
   id="svg231"
   sodipodi:docname="globe.svg"
   inkscape:version="1.2.2 (b0a8486541, 2022-12-01)"
   xmlns:inkscape="http://www.inkscape.org/namespaces/inkscape"
   xmlns:sodipodi="http://sodipodi.sourceforge.net/DTD/sodipodi-0.dtd"
   xmlns="http://www.w3.org/2000/svg"
   xmlns:svg="http://www.w3.org/2000/svg"><defs
   id="defs235" /><sodipodi:namedview
   id="namedview233"
   pagecolor="#ffffff"
   bordercolor="#666666"
   borderopacity="1.0"
   inkscape:showpageshadow="2"
   inkscape:pageopacity="0.0"
   inkscape:pagecheckerboard="0"
   inkscape:deskcolor="#d1d1d1"
   showgrid="false"
   inkscape:zoom="1.703125"
   inkscape:cx="256"
   inkscape:cy="256"
   inkscape:window-width="1916"
   inkscape:window-height="1055"
   inkscape:window-x="1920"
   inkscape:window-y="21"
   inkscape:window-maximized="1"
   inkscape:current-layer="svg231" />
<g
   id="XMLID_1_"
   style="fill:#ffffff">
	<path
   id="XMLID_20_"
   d="m256 0c-68.9 0-133.1 27-181.5 75.4s-74.5 112.6-74.5 180.6 27 132.2 74.5 180.6c48.4 48.4 112.6 75.4 180.6 75.4h0.9c141.5 0 256-114.5 256-256s-114.5-256-256-256zm221.6 238.3h-95c-0.9-32.6-5.6-64.2-12.1-94 21.4-6.5 41.9-15.8 61.4-26.1 26.1 35.4 42.9 76.4 45.7 120.1zm-239.3 0h-75.4c0.9-29.8 4.7-58.6 11.2-84.7 21.4 4.7 42.8 7.4 65.2 8.4v76.3h-1zm0 35.4v75.4c-22.3 0.9-43.8 3.7-65.2 8.4-6.5-26.1-10.2-54.9-11.2-84.7h76.3v0.9zm34.5 0h75.4c-0.9 29.8-4.7 58.6-11.2 84.7-21.4-4.7-42.8-7.4-64.2-8.4v-76.3zm0-35.4v-75.4c22.3-0.9 43.8-3.7 64.2-8.4 6.5 26.1 10.2 54.9 11.2 84.7h-75.4v-0.9zm134.9-144.3c-14.9 7.4-30.7 14-46.5 18.6-8.4-26.1-19.5-49.3-32.6-67 29.8 10.3 55.9 27 79.1 48.4zm-79.1 27.9c-17.7 3.7-36.3 6.5-54.9 7.4v-90.2c20.5 11.2 40.9 41 54.9 82.8zm-90.3-83.7v90.3c-18.6-0.9-37.2-3.7-55.9-7.4 15-41 35.4-71.8 55.9-82.9zm-55.8 7.4c-13 17.7-23.3 40-32.6 67-15.8-5.6-31.7-11.2-46.5-18.6 23.2-21.4 50.2-38.1 79.1-48.4zm-101.5 73.6c19.5 10.2 40 18.6 60.5 26.1-7.4 29.8-11.2 60.5-12.1 94h-95c2.8-43.8 18.7-85.7 46.6-120.1zm-46.6 154.5h95c0.9 32.6 5.6 64.2 12.1 94-20.5 6.5-41 15.8-60.5 25.1-27.9-34.4-43.8-76.3-46.6-119.1zm69.9 144.3c14.9-7.4 30.7-14 46.5-18.6 8.4 26.1 19.5 48.4 32.6 67-29.8-10.3-56.8-27-79.1-48.4zm78.2-27c18.6-3.7 37.2-6.5 55.9-7.4v91.2c-20.6-12.1-41-42.9-55.9-83.8zm90.3 81.9v-90.3c18.6 0.9 37.2 3.7 54.9 7.4-13.1 41.9-33.5 71.7-54.9 82.9zm55.8-6.5c13-17.7 24.2-41 32.6-67 15.8 5.6 31.7 12.1 46.5 19.5-22.3 20.5-49.3 37.2-79.1 47.5zm102.4-73.6c-19.5-10.2-40-18.6-61.4-26.1 6.5-29.8 11.2-60.5 12.1-94h95.9c-2.8 43.8-18.7 85.7-46.6 120.1z"
   style="fill:#ffffff" />
</g>
</svg>
