<svg xmlns="http://www.w3.org/2000/svg" width="112" height="22" fill="none"><path fill="#146ec4" d="M16.329.292A1 1 0 0 0 15.625 0h-8.85a1 1 0 0 0-.704.292L.291 6.07A1 1 0 0 0 0 6.775v8.452a1 1 0 0 0 .297.71l5.775 5.69a1 1 0 0 0 .699.286h8.854a1 1 0 0 0 .704-.292l5.78-5.779a1 1 0 0 0 .291-.704V6.775a1 1 0 0 0-.292-.704z"/><path fill="#fff" d="M17.66 11.824a.35.35 0 0 1 .32.202l.51 1.075a.15.15 0 0 1-.137.216h-2.215v2.426a.2.2 0 0 1-.202.202h-2.05a.2.2 0 0 1-.202-.202v-3.65H8.716v3.65a.2.2 0 0 1-.201.202H6.464a.2.2 0 0 1-.202-.202v-2.426H4.047a.15.15 0 0 1-.137-.216l.51-1.075a.35.35 0 0 1 .32-.202h1.522V10.09H4.739a.35.35 0 0 1-.319-.202l-.51-1.075a.15.15 0 0 1 .137-.216h2.215V6.17a.2.2 0 0 1 .202-.202h2.05a.2.2 0 0 1 .202.202v3.65h4.968V6.17a.2.2 0 0 1 .201-.202h2.051a.2.2 0 0 1 .202.202v2.426h2.215a.15.15 0 0 1 .137.216l-.51 1.075a.35.35 0 0 1-.32.202h-1.522v1.735z"/><path fill="#146ec4" d="M111.804 13.606h-5.119V6.284a.197.197 0 0 0-.197-.197h-2.002a.197.197 0 0 0-.197.197v7.838c0 .117.047.23.13.313l1.261 1.262a.45.45 0 0 0 .314.13h5.81a.197.197 0 0 0 .197-.198v-1.826a.197.197 0 0 0-.197-.197M81.048 6.087h-2.002a.197.197 0 0 0-.197.197v3.563h-5.347V6.284a.197.197 0 0 0-.197-.197h-2.002a.197.197 0 0 0-.197.197v9.345a.197.197 0 0 0 .197.197h2.002a.197.197 0 0 0 .197-.197v-3.563h5.347v3.563c0 .109.088.197.197.197h2.002a.197.197 0 0 0 .197-.197V6.284a.197.197 0 0 0-.197-.197m9.338.13a.44.44 0 0 0-.313-.13h-5.332a.44.44 0 0 0-.313.13l-1.96 1.96a.44.44 0 0 0-.13.313v4.933c0 .117.047.23.13.313l1.96 1.96a.44.44 0 0 0 .313.13h5.332a.44.44 0 0 0 .313-.13l1.96-1.96a.44.44 0 0 0 .13-.313V8.49a.44.44 0 0 0-.13-.313zm-.305 7.39h-5.347v-5.3h5.347zm8.444-7.52h-4.759a.197.197 0 0 0-.197.197v9.345c0 .109.088.197.197.197h4.759a4.87 4.87 0 0 0 0-9.74Zm-.176 7.52h-2.384v-5.3h2.384a2.65 2.65 0 0 1 0 5.3m-28.434 0h-5.119V6.283a.197.197 0 0 0-.197-.197h-2.002a.197.197 0 0 0-.197.197v7.838a.44.44 0 0 0 .13.313l1.262 1.262a.44.44 0 0 0 .313.13h5.81a.197.197 0 0 0 .197-.198v-1.826a.197.197 0 0 0-.197-.197M39.16 6.086h-2.002a.197.197 0 0 0-.196.197v3.563h-5.348V6.284a.197.197 0 0 0-.196-.197h-2.002a.197.197 0 0 0-.197.197v9.345c0 .109.088.197.197.197h2.002a.197.197 0 0 0 .196-.197v-3.563h5.347v3.563c0 .109.089.197.197.197h2.002a.197.197 0 0 0 .197-.197V6.284a.197.197 0 0 0-.197-.197m9.35.13a.44.44 0 0 0-.313-.13h-5.332a.44.44 0 0 0-.313.13l-1.96 1.96a.44.44 0 0 0-.13.313v4.933c0 .117.047.23.13.313l1.96 1.96a.44.44 0 0 0 .313.13h5.332a.44.44 0 0 0 .313-.13l1.96-1.96a.44.44 0 0 0 .13-.313V8.49a.44.44 0 0 0-.13-.313zm-.305 7.39h-5.347v-5.3h5.347zm8.444-7.52H51.89a.197.197 0 0 0-.197.197v9.345c0 .109.088.197.197.197h4.759a4.87 4.87 0 0 0 0-9.74Zm-.176 7.52h-2.384v-5.3h2.384a2.65 2.65 0 1 1 0 5.3"/></svg>