<svg xmlns="http://www.w3.org/2000/svg" width="39.109" height="39.114" viewBox="0 0 39.109 39.114"><path fill="url(#paint0_linear)" fill-rule="evenodd" d="m225.037 81.118-.005.01h-15.594q-.874 0-1.456-.538a1.76 1.76 0 0 1-.582-1.348q0-.864.74-1.78l24.808-30.29q.69-.891 1.523-1.074.834-.183 1.495.157t.927 1.113-.132 1.845l-8.102 21.494h1.349l.005-.009h15.594q.874 0 1.456.537t.582 1.348q0 .864-.74 1.78l-24.808 30.291q-.69.89-1.523 1.073-.834.184-1.496-.157-.661-.34-.926-1.112-.266-.772.132-1.846l8.102-21.494z" clip-rule="evenodd" style="fill:#ffd42a;stroke-width:1.21956" transform="translate(-119.702 -26.442)scale(.6113)"/></svg>