<?xml version="1.0" encoding="UTF-8" standalone="no"?>
<svg
   viewBox="0 0 39.109238 39.114128"
   version="1.1"
   id="svg26"
   sodipodi:docname="lightning-icon.svg"
   width="39.109238"
   height="39.114128"
   inkscape:version="1.2 (dc2aedaf03, 2022-05-15)"
   xmlns:inkscape="http://www.inkscape.org/namespaces/inkscape"
   xmlns:sodipodi="http://sodipodi.sourceforge.net/DTD/sodipodi-0.dtd"
   xmlns="http://www.w3.org/2000/svg"
   xmlns:svg="http://www.w3.org/2000/svg">
  <defs
     id="defs30">
    <linearGradient
       id="paint0_linear-3"
       x1="0"
       y1="0"
       x2="0"
       y2="49"
       gradientUnits="userSpaceOnUse"
       gradientTransform="matrix(2.65876,0,0,2.65876,153.27853,12.921518)">
      <stop
         stop-color="#FFE96D"
         id="stop136" />
      <stop
         offset="1"
         stop-color="#E1C218"
         id="stop138" />
    </linearGradient>
  </defs>
  <sodipodi:namedview
     id="namedview28"
     pagecolor="#ffffff"
     bordercolor="#666666"
     borderopacity="1.0"
     inkscape:showpageshadow="2"
     inkscape:pageopacity="0.0"
     inkscape:pagecheckerboard="0"
     inkscape:deskcolor="#d1d1d1"
     showgrid="false"
     inkscape:zoom="7.3789474"
     inkscape:cx="21.81883"
     inkscape:cy="8.5378031"
     inkscape:window-width="1918"
     inkscape:window-height="1057"
     inkscape:window-x="1920"
     inkscape:window-y="21"
     inkscape:window-maximized="1"
     inkscape:current-layer="g22" />
  <g
     transform="translate(-290.50536,-341.97896)"
     id="g24">
    <g
       transform="matrix(0.61129216,0,0,0.61129216,170.80346,315.53734)"
       id="g22">
      <path
         fill-rule="evenodd"
         clip-rule="evenodd"
         d="m 225.03706,81.117856 -0.005,0.0092 h -15.59391 c -0.58246,0 -1.06784,-0.178896 -1.45615,-0.536733 -0.38828,-0.357823 -0.58246,-0.807222 -0.58246,-1.348215 0,-0.576 0.24714,-1.169434 0.74132,-1.78031 l 24.80745,-30.290617 c 0.45891,-0.593416 0.96638,-0.951217 1.52225,-1.073389 0.55599,-0.122206 1.05467,-0.06981 1.49591,0.157092 0.44125,0.226884 0.75015,0.597784 0.92662,1.112664 0.17658,0.514875 0.13245,1.130119 -0.13233,1.845714 l -8.10151,21.494123 h 1.34846 l 0.005,-0.0092 h 15.5941 c 0.58246,0 1.06785,0.178898 1.45616,0.536731 0.38828,0.357824 0.58246,0.807221 0.58246,1.34822 0,0.575994 -0.24706,1.169434 -0.74136,1.780308 L 222.09654,104.6541 c -0.4589,0.59332 -0.96637,0.95113 -1.52224,1.07333 -0.55601,0.1222 -1.05467,0.0698 -1.49592,-0.15712 -0.44125,-0.22682 -0.75014,-0.59782 -0.92664,-1.1126 -0.1765,-0.5149 -0.1324,-1.13017 0.13234,-1.8458 l 8.10151,-21.494078 z"
         fill="url(#paint0_linear)"
         id="path134"
         style="fill:#ffd42a;stroke-width:1.21956" />
    </g>
  </g>
</svg>
