<?xml version="1.0" encoding="UTF-8" standalone="no"?>
<svg
   width="36"
   height="36"
   viewBox="0 0 36 36"
   version="1.1"
   id="svg224"
   sodipodi:docname="liquid-icon.svg"
   inkscape:version="1.2.2 (b0a8486541, 2022-12-01)"
   xmlns:inkscape="http://www.inkscape.org/namespaces/inkscape"
   xmlns:sodipodi="http://sodipodi.sourceforge.net/DTD/sodipodi-0.dtd"
   xmlns="http://www.w3.org/2000/svg"
   xmlns:svg="http://www.w3.org/2000/svg"
   xmlns:rdf="http://www.w3.org/1999/02/22-rdf-syntax-ns#"
   xmlns:cc="http://creativecommons.org/ns#"
   xmlns:dc="http://purl.org/dc/elements/1.1/">
  <defs
     id="defs228" />
  <sodipodi:namedview
     id="namedview226"
     pagecolor="#ffffff"
     bordercolor="#666666"
     borderopacity="1.0"
     inkscape:showpageshadow="2"
     inkscape:pageopacity="0.0"
     inkscape:pagecheckerboard="0"
     inkscape:deskcolor="#d1d1d1"
     showgrid="false"
     inkscape:zoom="14.533333"
     inkscape:cx="29.552752"
     inkscape:cy="22.637615"
     inkscape:window-width="1916"
     inkscape:window-height="1055"
     inkscape:window-x="1920"
     inkscape:window-y="21"
     inkscape:window-maximized="1"
     inkscape:current-layer="svg224" />
  <title
     id="title214">lbtc_main</title>
  <g
     id="lbtc_main"
     stroke="none"
     stroke-width="1"
     fill="none"
     fill-rule="evenodd"
     transform="matrix(0.7022412,0,0,0.7022412,-3.467141,-4.2683954)">
    <g
       id="g221">
      <polygon
         id="Path"
         fill-opacity="0"
         fill="#d8d8d8"
         points="0,0 60,0 60,60 0,60 " />
      <g
         id="Group"
         transform="translate(12.067598,7.070479)"
         fill-rule="nonzero">
        <path
           d="M 16.778875,44.131534 C 9.5083689,43.822537 2.8558563,38.824065 0.80193843,32.026142 -0.78848468,26.764113 0.06579973,21.747464 2.6650055,16.912578 4.6471701,13.524711 7.1357924,10.459905 10.044569,7.8244462 12.498364,5.4251793 15.070306,3.1258819 17.315074,0.55394056 17.6786,0.14497461 17.978508,-0.35487265 18.569237,0.36308978 21.42291,3.7256986 24.840048,6.5430196 27.884572,9.7238658 c 2.915272,2.8392942 5.224722,6.2400912 6.788835,9.9969452 3.271727,8.697342 0.508935,18.103559 -8.479228,22.665801 -2.889353,1.496324 -6.149002,2.127427 -9.38804,1.817627 z"
           id="path217"
           fill="#46beae" />
        <path
           d="m 25.594363,23.846823 c 0.272644,-1.872155 -1.036047,-3.853368 -3.580724,-4.716741 l 0.645257,-2.653734 -2.008477,-0.490759 -0.645258,2.571941 -1.617687,-0.372613 0.636169,-2.590118 -2.017565,-0.499847 -0.663434,2.653734 -3.635253,-0.908813 -0.508935,2.181152 c 0,0 1.490454,0.345349 1.463189,0.363525 0.562732,0.07999 0.963051,0.588398 0.908814,1.154193 l -2.253857,8.942722 c -0.1257,0.377027 -0.527974,0.586209 -0.908813,0.472583 0,0 -1.4631897,-0.363526 -1.4631897,-0.363526 l -0.9996946,2.272033 3.6352533,0.908814 -0.727051,2.899114 2.008477,0.490759 0.717963,-2.862762 1.608599,0.408966 -0.717962,2.844586 2.008477,0.499847 0.72705,-2.890026 c 3.435314,0.636169 6.052696,-0.236292 6.688865,-2.780969 0.518024,-2.081182 0.05453,-3.635252 -1.445013,-4.71674 1.173955,-0.453287 1.992841,-1.528734 2.117535,-2.780969 z m -4.126012,6.216282 c -0.617993,2.471972 -4.825798,1.136017 -6.189018,0.808844 l 1.090576,-4.38048 c 1.363219,0.336261 5.743699,0.999695 5.098442,3.571636 z m 0.617993,-6.361692 c -0.572553,2.244769 -4.071484,1.108752 -5.216588,0.82702 l 0.999694,-3.962426 c 1.154193,0.272644 4.789446,0.754315 4.216894,3.099053 z"
           id="Shape"
           fill="#ffffff" />
      </g>
    </g>
  </g>
  <metadata
     id="metadata230">
    <rdf:RDF>
      <cc:Work
         rdf:about="">
        <dc:title>lbtc_main</dc:title>
      </cc:Work>
    </rdf:RDF>
  </metadata>
</svg>
