<svg xmlns="http://www.w3.org/2000/svg" width="671" height="507" fill="none" viewBox="0 0 671 507"><g clip-path="url(#a)"><g stroke-width="2" opacity=".8"><path stroke="url(#b)" d="M246.5 186.007h-29.916l-28.223-28.222V23.955M263.014 168V-60.713L-47.435-368.43M319.458 332v86.161l-46.431 47.341v10.014M86.395-365.699l263.104 255.733.913 243.17M42.695-367.52 319.458-95.716V133M-.784-365.913l291.33 288.49V151m116.389 16.969 13.743-12.335h57.721l16.492-13.157h55.888M424 186.771h170.104l27.312-28.222 76.474-76.474m-1.521.146 1.821-1.82V68.564l33.685-33.685M424 215.14h186.789L728.232 97.698M424 244.273h202.266l56.446-57.355.91-.911h15.477l14.566-15.476M424 273.406h215.922l58.266-58.266h345.042M348.593 333.5v100.138l-28.223 29.133.911 71.922M377.725 316v121.279l29.133 29.133v81.027M261.193 296v79.372l-60.997 60.997M290.327 314.5v88.675l-56.445 57.775-1.821 1.821v58.266l42.79 42.789v194.827M246.627 215.14h-43.7l-57.355-56.445v-45.52m101.054 131.098H188.36l-86.489-86.488-.91-87.4 42.789-43.699V-88.935L-46.525-279.21M246 274.317h-75.848l-99.234-99.234V54.909l44.61-43.7V-76.19L-73.837-263.733h-73.743l-15.477-18.208M400.5 302.539h351.402l16.387-13.656h249.451M383.189 153v-331.155l56.445-57.356v-33.685m140.2 411.504c0 8.045-6.521 14.566-14.566 14.566s-14.567-6.521-14.567-14.566 6.522-14.567 14.567-14.567 14.566 6.522 14.566 14.567ZM756.453 25.776c0 8.045-6.522 14.566-14.567 14.566s-14.566-6.521-14.566-14.566 6.522-14.567 14.566-14.567 14.567 6.522 14.567 14.567ZM161.049 98.608c0 8.045-6.522 14.567-14.566 14.567s-14.567-6.522-14.567-14.567 6.522-14.566 14.567-14.566 14.566 6.522 14.566 14.566Zm41.879-86.488c0 7.542-6.114 13.656-13.656 13.656s-13.656-6.114-13.656-13.656 6.114-13.656 13.656-13.656 13.656 6.114 13.656 13.656Zm1.821 433.353c0 7.542-6.114 13.656-13.656 13.656s-13.656-6.114-13.656-13.656 6.114-13.656 13.656-13.656 13.656 6.114 13.656 13.656Zm81.936 43.7c0 7.542-6.114 13.656-13.656 13.656s-13.656-6.114-13.656-13.656 6.114-13.656 13.656-13.656 13.656 6.114 13.656 13.656Zm49.163 58.266c0 7.542-6.114 13.656-13.656 13.656s-13.656-6.114-13.656-13.656 6.114-13.656 13.656-13.656 13.656 6.114 13.656 13.656Zm85.578 12.745c0 7.542-6.114 13.656-13.656 13.656s-13.656-6.114-13.656-13.656 6.114-13.656 13.656-13.656 13.656 6.114 13.656 13.656Zm331.387-472.5c0 8.044-6.522 14.566-14.566 14.566s-14.567-6.522-14.567-14.567 6.522-14.566 14.567-14.566 14.566 6.522 14.566 14.566Zm-16.389 72.832c0 8.045-6.521 14.567-14.566 14.567s-14.567-6.522-14.567-14.567 6.522-14.566 14.567-14.566 14.566 6.521 14.566 14.566Zm336.856 53.714c0 8.547-6.93 15.477-15.48 15.477s-15.48-6.93-15.48-15.477 6.93-15.477 15.48-15.477 15.48 6.929 15.48 15.477Zm-23.67 74.653c0 8.548-6.93 15.477-15.48 15.477s-15.48-6.929-15.48-15.477 6.93-15.477 15.48-15.477 15.48 6.93 15.48 15.477ZM454.2-284.673c0 8.548-6.929 15.477-15.477 15.477s-15.477-6.929-15.477-15.477 6.929-15.477 15.477-15.477 15.477 6.929 15.477 15.477Z"/><path stroke="url(#c)" stroke-opacity=".3" d="M-304.057 447.637v-10.696m0-96.267v-10.696M565.267-121.71v-17.298m-17.296 32.775h-15.477m64.639-14.566v-23.999a8 8 0 0 1 2.343-5.657l42.655-42.655a8 8 0 0 1 5.657-2.343h38.565M547.971-77.1h-15.477m15.477 29.133h-15.477m32.775 21.85v14.566m77.384-92.861h9.332c2.18 0 4.267-.891 5.776-2.465l18.577-19.385M643.563-77.1h27.312m-28.222 30.954h8.521a8 8 0 0 1 5.657 2.343l18.596 18.596m-50.072-.91v16.715a8 8 0 0 0 2.343 5.657l19.507 19.506M623.534-121.71v-17.298m-29.133 111.98v78.295m191.185 276.764c0 8.045 6.114 14.566 13.656 14.566s13.656-6.521 13.656-14.566-6.114-14.567-13.656-14.567-13.656 6.522-13.656 14.567Zm0 0H549.462a8 8 0 0 0-5.657 2.343l-24.446 24.447a8 8 0 0 1-5.657 2.343H481.51m12.747-335.94c-8.044 0-14.566 6.522-14.566 14.566s6.522 14.567 14.566 14.567 14.567-6.522 14.567-14.567-6.522-14.566-14.567-14.566Zm0 0V11.006a8 8 0 0 0-2.443-5.754l-24.248-23.417a8 8 0 0 1-2.442-5.754v-108.043c0-2.142.858-4.194 2.384-5.697l115.405-113.756a8 8 0 0 0 2.384-5.697v-11.173M-8.963 599.274l-58.69-58.689a8 8 0 0 1-2.343-5.657v-31.292M186.54 347.149c0 8.045 6.521 14.567 14.566 14.567s14.567-6.522 14.567-14.567-6.522-14.566-14.567-14.566-14.566 6.522-14.566 14.566Zm0 0H-40.585a8 8 0 0 0-5.527 2.216l-36.33 34.716a8 8 0 0 1-5.527 2.216H-238.62m107.592-39.96v-14.933a8 8 0 0 0-2.343-5.657l-6.639-6.639a8 8 0 0 1-2.343-5.657v-55.034c0-2.122.843-4.156 2.343-5.657l67.042-67.042a8 8 0 0 0 2.343-5.657V-13.973a8 8 0 0 0-2.406-5.719l-26.537-25.96M541.598 69.476V15.433a8 8 0 0 0-2.343-5.657l-39.014-39.013a8 8 0 0 1-2.343-5.657v-83.453c0-2.151.867-4.212 2.404-5.717l127.784-125.104M451.468 99.519v-87.43a8 8 0 0 0-2.707-6l-10.063-8.878a8 8 0 0 1-2.707-6v-135.989a8 8 0 0 1 2.368-5.681l101.782-100.913a8 8 0 0 0 2.368-5.681v-50.38M87.304 282.159v-11.142a8 8 0 0 0-2.09-5.392l-70.066-76.806a8 8 0 0 1-2.09-5.392V-79m-39.555 366.063v-27.002a8 8 0 0 1 2.021-5.315l10.525-11.841a8 8 0 0 0 2.02-5.315V-57.554a8 8 0 0 0-3.287-6.465l-104.14-75.899m822.097 515.29h123.195a8 8 0 0 0 5.702-2.388l52.654-53.49a8 8 0 0 1 5.701-2.388h170.979c2.05 0 4.03.792 5.52 2.21l135.15 128.888m-546.241-29.133h170.574a8 8 0 0 0 5.657-2.343l67.236-67.236a8 8 0 0 1 5.656-2.343h141.618c2.21 0 4.32.916 5.84 2.53l133.28 142.225M714.574-195.453c0 8.045-6.522 14.567-14.567 14.567s-14.566-6.522-14.566-14.567 6.521-14.566 14.566-14.566 14.567 6.521 14.567 14.566Zm-14.565 58.266c0 8.045-6.522 14.567-14.567 14.567s-14.566-6.522-14.566-14.567 6.521-14.566 14.566-14.566 14.567 6.521 14.567 14.566ZM698.188-77.1c0 8.045-6.522 14.567-14.567 14.567s-14.567-6.522-14.567-14.567 6.522-14.566 14.567-14.566 14.567 6.521 14.567 14.566Zm1.821 61.908c0 8.045-6.522 14.566-14.567 14.566s-14.566-6.521-14.566-14.566 6.521-14.567 14.566-14.567 14.567 6.522 14.567 14.567Zm-27.311 40.058c0 8.044-6.522 14.566-14.567 14.566s-14.566-6.522-14.566-14.567S650.086 10.3 658.131 10.3s14.567 6.522 14.567 14.567Zm-63.731 40.057c0 8.045-6.522 14.567-14.567 14.567s-14.566-6.522-14.566-14.567 6.522-14.566 14.566-14.566 14.567 6.522 14.567 14.566Zm-52.803 18.209c0 8.044-6.522 14.566-14.567 14.566s-14.566-6.522-14.566-14.566 6.521-14.567 14.566-14.567 14.567 6.522 14.567 14.567Zm-74.653 274.942c0 8.045-6.114 14.567-13.656 14.567s-13.656-6.522-13.656-14.567 6.114-14.566 13.656-14.566 13.656 6.522 13.656 14.566ZM1007.72 94.967c0 8.045-6.52 14.566-14.562 14.566-8.044 0-14.566-6.521-14.566-14.566S985.114 80.4 993.158 80.4c8.042 0 14.562 6.522 14.562 14.567Zm67.38-40.058c0 8.045-6.53 14.566-14.57 14.566-8.05 0-14.57-6.521-14.57-14.566s6.52-14.566 14.57-14.566c8.04 0 14.57 6.521 14.57 14.566Zm0 85.578c0 8.045-6.53 14.567-14.57 14.567-8.05 0-14.57-6.522-14.57-14.567s6.52-14.566 14.57-14.566c8.04 0 14.57 6.521 14.57 14.566ZM703.649 375.372c0 8.045-6.114 14.567-13.656 14.567s-13.656-6.522-13.656-14.567 6.114-14.566 13.656-14.566 13.656 6.521 13.656 14.566Zm-47.34 43.699c0 8.045-6.114 14.567-13.656 14.567s-13.656-6.522-13.656-14.567 6.114-14.566 13.656-14.566 13.656 6.522 13.656 14.566ZM102.781 296.167c0 8.045-6.522 14.566-14.567 14.566s-14.566-6.521-14.566-14.566S80.17 281.6 88.214 281.6s14.567 6.522 14.567 14.567Zm69.025 89.904c0 8.045-6.522 14.567-14.567 14.567s-14.566-6.522-14.566-14.567 6.521-14.566 14.566-14.566 14.567 6.521 14.567 14.566Zm-411.495 105.705c0 8.045-6.521 14.567-14.566 14.567s-14.567-6.522-14.567-14.567 6.522-14.566 14.567-14.566 14.566 6.521 14.566 14.566Zm444.213 28.943c0 8.045-6.522 14.567-14.567 14.567s-14.566-6.522-14.566-14.567 6.522-14.566 14.566-14.566 14.567 6.521 14.567 14.566ZM-11.92 448.991c0 8.045-6.521 14.566-14.566 14.566s-14.567-6.521-14.567-14.566 6.522-14.567 14.567-14.567 14.566 6.522 14.566 14.567Zm-44.043 40.268c0 8.045-6.522 14.567-14.567 14.567s-14.566-6.522-14.566-14.567 6.521-14.566 14.566-14.566 14.567 6.522 14.567 14.566Zm44.043-187.5c0 8.045-6.521 14.566-14.566 14.566s-14.567-6.521-14.567-14.566 6.522-14.567 14.567-14.567 14.566 6.522 14.566 14.567Zm-70.47-18.876c0 8.045-6.521 14.567-14.566 14.567s-14.567-6.522-14.567-14.567 6.522-14.566 14.567-14.566 14.566 6.521 14.566 14.566Zm55.37-241.611c0 8.044-6.522 14.566-14.567 14.566s-14.566-6.522-14.566-14.566 6.521-14.567 14.566-14.567 14.567 6.522 14.567 14.567ZM27.09-93.376c0 8.044-6.521 14.566-14.566 14.566S-2.042-85.332-2.042-93.376s6.521-14.567 14.566-14.567 14.567 6.522 14.567 14.567ZM-94.972-53.108c0 8.045-6.522 14.567-14.567 14.567s-14.566-6.522-14.566-14.567 6.521-14.566 14.566-14.566 14.567 6.521 14.567 14.566Zm-36.494 76.762c0 8.045-6.522 14.567-14.566 14.567S-160.6 31.699-160.6 23.654s6.522-14.566 14.567-14.566 14.566 6.521 14.566 14.566Zm0 56.628c0 8.045-6.522 14.566-14.566 14.566S-160.6 88.327-160.6 80.282s6.522-14.567 14.567-14.567 14.566 6.522 14.566 14.567Zm0 59.144c0 8.045-6.522 14.567-14.566 14.567s-14.567-6.522-14.567-14.567 6.522-14.566 14.567-14.566 14.566 6.521 14.566 14.566Zm15.101 221.477c0 8.045-6.522 14.567-14.567 14.567s-14.566-6.522-14.566-14.567 6.521-14.566 14.566-14.566 14.567 6.521 14.567 14.566Zm237.357 120.076c0 20.112-16.304 36.416-36.417 36.416-20.112 0-36.416-16.304-36.416-36.416s16.304-36.416 36.416-36.416c20.113 0 36.417 16.304 36.417 36.416Zm27.311 0c0 35.196-28.533 63.729-63.729 63.729s-63.728-28.533-63.728-63.729 28.532-63.728 63.728-63.728 63.729 28.532 63.729 63.728Zm318.644-366.894c0 8.045-6.522 14.567-14.567 14.567s-14.567-6.522-14.567-14.567 6.522-14.566 14.567-14.566 14.567 6.522 14.567 14.566Zm335.744 59.177h49.549a8 8 0 0 0 8-8v-49.549a8 8 0 0 0-8-8h-49.55a8 8 0 0 0-8 8v49.549a8 8 0 0 0 8 8Zm87.399 0h49.549a8 8 0 0 0 8-8v-49.549a8 8 0 0 0-8-8H890.09a8 8 0 0 0-8 8v49.549a8 8 0 0 0 8 8Zm0-85.578h49.549a8 8 0 0 0 8-8v-51.37a8 8 0 0 0-8-8H890.09a8 8 0 0 0-8 8v51.37a8 8 0 0 0 8 8Zm-87.399 0h49.549a8 8 0 0 0 8-8v-51.37a8 8 0 0 0-8-8h-49.55a8 8 0 0 0-8 8v51.37a8 8 0 0 0 8 8Zm0-87.4h49.549a8 8 0 0 0 8-8v-51.37a8 8 0 0 0-8-8h-49.55a8 8 0 0 0-8 8v51.37a8 8 0 0 0 8 8ZM-275.922-.304h49.549a8 8 0 0 0 8-8v-51.37a8 8 0 0 0-8-8h-49.549a8 8 0 0 0-8 8v51.37a8 8 0 0 0 8 8Zm0 100.671h49.549a8 8 0 0 0 8-8v-51.37a8 8 0 0 0-8-8h-49.549a8 8 0 0 0-8 8v51.37a8 8 0 0 0 8 8Zm0 100.672h49.549a8 8 0 0 0 8-8v-51.371a8 8 0 0 0-8-8h-49.549a8 8 0 0 0-8 8v51.371a8 8 0 0 0 8 8Zm776.357 310.894h82.324a8 8 0 0 0 8-8v-82.324a8 8 0 0 0-8-8h-82.324a8 8 0 0 0-8 8v82.324a8 8 0 0 0 8 8Z"/></g><path stroke="url(#d)" stroke-width="2" d="m336.194 124.796 88.305 54.624v109.249l-88.305 54.624-88.305-54.624V179.42z"/><path stroke="url(#e)" stroke-width="2" d="m335.243 123.601 88.305 54.625v109.248l-88.305 54.625-88.305-54.625V178.226z"/><path fill="url(#f)" fill-rule="evenodd" d="m329.462 243.531-.01.021h-32.82q-1.84 0-3.064-1.132a3.7 3.7 0 0 1-1.225-2.836q0-1.818 1.557-3.746l52.212-63.741q1.453-1.875 3.205-2.261 1.756-.384 3.147.331t1.951 2.342q.56 1.626-.278 3.883l-17.052 45.231h2.839l.011-.019h32.82q1.839 0 3.064 1.13t1.225 2.837q0 1.818-1.557 3.745l-52.212 63.744q-1.452 1.872-3.206 2.258-1.755.387-3.148-.33-1.392-.715-1.949-2.341-.56-1.624.278-3.884l17.051-45.232z" clip-rule="evenodd"/><path fill="gold" fill-rule="evenodd" d="m329.462 243.531-.01.021h-32.82q-1.84 0-3.064-1.132a3.7 3.7 0 0 1-1.225-2.836q0-1.818 1.557-3.746l52.212-63.741q1.453-1.875 3.205-2.261 1.756-.384 3.147.331t1.951 2.342q.56 1.626-.278 3.883l-17.052 45.231h2.839l.011-.019h32.82q1.839 0 3.064 1.13t1.225 2.837q0 1.818-1.557 3.745l-52.212 63.744q-1.452 1.872-3.206 2.258-1.755.387-3.148-.33-1.392-.715-1.949-2.341-.56-1.624.278-3.884l17.051-45.232z" clip-rule="evenodd" filter="url(#g)"><animate attributeName="opacity" dur="5s" repeatCount="indefinite" values="0.1;0.5;0.1"/></path><circle r="1.9" fill="#0ff" opacity=".5"><animateMotion begin="2.5s" dur="5s" repeatCount="indefinite"><mpath href="#h"/></animateMotion><animate attributeName="opacity" begin="2.5s" dur="5s" repeatCount="indefinite" values="0.5;1;0"/></circle><circle r="1.9" fill="#0ff" opacity=".5"><animateMotion begin="2.5s" dur="5s" repeatCount="indefinite"><mpath href="#i"/></animateMotion><animate attributeName="opacity" begin="2.5s" dur="5s" repeatCount="indefinite" values="0.5;1;0"/></circle><circle r="1.9" fill="#0ff" opacity=".5"><animateMotion begin="2.5s" dur="4.5s" repeatCount="indefinite"><mpath href="#j"/></animateMotion><animate attributeName="opacity" begin="2.5s" dur="4.5s" repeatCount="indefinite" values="0.5;1;0"/></circle><circle r="1.9" fill="#0ff" opacity=".5"><animateMotion dur="4.5s" repeatCount="indefinite"><mpath href="#k"/></animateMotion><animate attributeName="opacity" dur="4.5s" repeatCount="indefinite" values="0;0.8;0.15"/></circle><circle r="1.9" fill="#0ff" opacity=".5"><animateMotion dur="4.5s" repeatCount="indefinite"><mpath href="#l"/></animateMotion><animate attributeName="opacity" dur="4.5s" repeatCount="indefinite" values="0;0.8;0.15"/></circle></g><defs><path id="h" fill="none" stroke="none" d="M245.717 186.007h-29.133l-28.223-28.222V23.955"/><path id="i" fill="none" stroke="none" d="M319.458 330.762v87.399l-46.431 47.341"/><path id="j" fill="none" stroke="none" d="M422.037 186.771h172.067l27.312-28.222 76.474-76.474"/><path id="k" fill="none" stroke="none" d="m100.961 70.386.91 87.399 86.489 86.488h58.266"/><path id="l" fill="none" stroke="none" d="M728.232 97.698 610.789 215.14H421.425"/><radialGradient id="b" cx="0" cy="0" r="1" gradientTransform="matrix(0 210.304 -28.2226 0 411.41 -58.892)" gradientUnits="userSpaceOnUse"><stop stop-color="#3378d4"/><stop offset=".519" stop-color="#3e8be6"/><stop offset="1" stop-color="#1e5fab"/></radialGradient><radialGradient id="c" cx="0" cy="0" r="1" gradientTransform="matrix(49.1619 0 0 49.162 541.596 462.771)" gradientUnits="userSpaceOnUse"><stop stop-color="#124581"/><stop offset="1" stop-color="#3378d4"/></radialGradient><radialGradient id="d" cx="0" cy="0" r="1" gradientTransform="matrix(0 109.249 -101.966 0 336.194 234.044)" gradientUnits="userSpaceOnUse"><stop stop-color="#041935"/><stop offset=".519" stop-color="#010a15"/><stop offset=".988" stop-color="#01142b"/></radialGradient><radialGradient id="e" cx="0" cy="0" r="1" gradientTransform="matrix(0 109.249 -101.966 0 335.243 232.85)" gradientUnits="userSpaceOnUse"><stop stop-color="#3378d4"/><stop offset=".519" stop-color="#3e8be6"/><stop offset="1" stop-color="#1e5fab"/></radialGradient><linearGradient id="f" x1="334.693" x2="334.693" y1="169.702" y2="295.454" gradientUnits="userSpaceOnUse"><stop stop-color="#fbdd69"/><stop offset=".995" stop-color="#e6ba0a"/></linearGradient><clipPath id="a"><path fill="#fff" d="M0 0h671v507H0z"/></clipPath><filter id="g" width="200%" height="200%" x="-50%" y="-50%"><feGaussianBlur result="coloredBlur" stdDeviation="25"/><feMerge><feMergeNode in="coloredBlur"/><feMergeNode in="SourceGraphic"/></feMerge></filter></defs></svg>