<svg width="671" height="507" viewBox="0 0 671 507" fill="none" xmlns="http://www.w3.org/2000/svg">
    <g clip-path="url(#clip0_392_2082)">
        <g opacity="0.8">
            <path
                d="M246.5 186.007H216.584L188.361 157.785V23.9549M263.014 168V-60.7128L-47.435 -368.43M319.458 332V418.161L273.027 465.502V475.516M86.3945 -365.699L349.499 -109.966L350.412 133.204M42.6949 -367.52L319.458 -95.7162V133M-0.783569 -365.913L290.546 -77.4236V151M406.935 167.969L420.678 155.634H478.399L494.891 142.477H550.779M424 186.771H594.104L621.416 158.549L697.89 82.0745M696.369 82.2209L698.19 80.4001V68.5648L731.875 34.8798M424 215.14H610.789L728.232 97.698M424 244.273H626.266L682.712 186.918L683.622 186.007H699.099L713.665 170.531M424 273.406H639.922L698.188 215.14H1043.23M348.593 333.5V433.638L320.37 462.771L321.281 534.693M377.725 316V437.279L406.858 466.412V547.439M261.193 296V375.372L200.196 436.369M290.327 314.5V403.175L233.882 460.95L232.061 462.771V521.037L274.851 563.826V758.653M246.627 215.14H202.927L145.572 158.695V113.175M246.626 244.273H188.36L101.871 157.785L100.961 70.3858L143.75 26.6863V-88.9353L-46.5251 -279.21M246 274.317H170.152L70.9178 175.083V54.9089L115.528 11.2094V-76.1896L-73.8368 -263.733H-147.58L-163.057 -281.941M400.5 302.539H751.902L768.289 288.883H1017.74M383.189 153V-178.155L439.634 -235.511V-269.196M579.834 142.308C579.834 150.353 573.313 156.874 565.268 156.874C557.223 156.874 550.701 150.353 550.701 142.308C550.701 134.263 557.223 127.741 565.268 127.741C573.313 127.741 579.834 134.263 579.834 142.308ZM756.453 25.7759C756.453 33.8208 749.931 40.3424 741.886 40.3424C733.842 40.3424 727.32 33.8208 727.32 25.7759C727.32 17.7311 733.842 11.2094 741.886 11.2094C749.931 11.2094 756.453 17.7311 756.453 25.7759ZM161.049 98.6084C161.049 106.653 154.527 113.175 146.483 113.175C138.438 113.175 131.916 106.653 131.916 98.6084C131.916 90.5635 138.438 84.0419 146.483 84.0419C154.527 84.0419 161.049 90.5635 161.049 98.6084ZM202.928 12.1196C202.928 19.6617 196.814 25.7757 189.272 25.7757C181.73 25.7757 175.616 19.6617 175.616 12.1196C175.616 4.57754 181.73 -1.53647 189.272 -1.53647C196.814 -1.53647 202.928 4.57754 202.928 12.1196ZM204.749 445.473C204.749 453.015 198.635 459.129 191.093 459.129C183.551 459.129 177.437 453.015 177.437 445.473C177.437 437.931 183.551 431.817 191.093 431.817C198.635 431.817 204.749 437.931 204.749 445.473ZM286.685 489.173C286.685 496.715 280.571 502.829 273.029 502.829C265.487 502.829 259.373 496.715 259.373 489.173C259.373 481.631 265.487 475.517 273.029 475.517C280.571 475.517 286.685 481.631 286.685 489.173ZM335.848 547.439C335.848 554.981 329.734 561.095 322.192 561.095C314.65 561.095 308.536 554.981 308.536 547.439C308.536 539.897 314.65 533.783 322.192 533.783C329.734 533.783 335.848 539.897 335.848 547.439ZM421.426 560.184C421.426 567.726 415.312 573.84 407.77 573.84C400.228 573.84 394.114 567.726 394.114 560.184C394.114 552.642 400.228 546.528 407.77 546.528C415.312 546.528 421.426 552.642 421.426 560.184ZM752.813 87.6835C752.813 95.7284 746.291 102.25 738.247 102.25C730.202 102.25 723.68 95.7284 723.68 87.6835C723.68 79.6386 730.202 73.117 738.247 73.117C746.291 73.117 752.813 79.6386 752.813 87.6835ZM736.424 160.516C736.424 168.561 729.903 175.083 721.858 175.083C713.813 175.083 707.291 168.561 707.291 160.516C707.291 152.471 713.813 145.95 721.858 145.95C729.903 145.95 736.424 152.471 736.424 160.516ZM1073.28 214.23C1073.28 222.777 1066.35 229.707 1057.8 229.707C1049.25 229.707 1042.32 222.777 1042.32 214.23C1042.32 205.682 1049.25 198.753 1057.8 198.753C1066.35 198.753 1073.28 205.682 1073.28 214.23ZM1049.61 288.883C1049.61 297.431 1042.68 304.36 1034.13 304.36C1025.58 304.36 1018.65 297.431 1018.65 288.883C1018.65 280.336 1025.58 273.406 1034.13 273.406C1042.68 273.406 1049.61 280.336 1049.61 288.883ZM454.2 -284.673C454.2 -276.125 447.271 -269.196 438.723 -269.196C430.175 -269.196 423.246 -276.125 423.246 -284.673C423.246 -293.221 430.175 -300.15 438.723 -300.15C447.271 -300.15 454.2 -293.221 454.2 -284.673Z"
                stroke="url(#paint0_radial_392_2082)" stroke-width="2" />
            <path
                d="M-304.057 447.637V436.941M-304.057 340.674V329.978M565.267 -121.71V-139.008M547.971 -106.233H532.494M597.133 -120.799V-144.798C597.133 -146.92 597.976 -148.955 599.476 -150.455L642.131 -193.11C643.631 -194.61 645.666 -195.453 647.788 -195.453H686.353M547.971 -77.1H532.494M547.971 -47.967H532.494M565.269 -26.1172V-11.5507M642.653 -104.412H651.985C654.165 -104.412 656.252 -105.303 657.761 -106.877L676.338 -126.262M643.563 -77.1002H670.875M642.653 -46.1462H651.174C653.296 -46.1462 655.331 -45.3033 656.831 -43.803L675.427 -25.2068M625.355 -26.1173V-9.40204C625.355 -7.28031 626.198 -5.24547 627.698 -3.74518L647.205 15.7614M623.534 -121.71V-139.008M594.401 -27.0276V51.2674M785.586 328.031C785.586 336.076 791.7 342.597 799.242 342.597C806.784 342.597 812.898 336.076 812.898 328.031C812.898 319.986 806.784 313.464 799.242 313.464C791.7 313.464 785.586 319.986 785.586 328.031ZM785.586 328.031H549.462C547.341 328.031 545.306 328.874 543.805 330.374L519.359 354.821C517.858 356.321 515.824 357.164 513.702 357.164H481.51M494.257 21.2239C486.213 21.2239 479.691 27.7455 479.691 35.7904C479.691 43.8353 486.213 50.3569 494.257 50.3569C502.302 50.3569 508.824 43.8353 508.824 35.7904C508.824 27.7455 502.302 21.2239 494.257 21.2239ZM494.257 21.2239L494.257 11.0063C494.257 8.83621 493.375 6.75922 491.814 5.25171L467.566 -18.1646C466.005 -19.6721 465.124 -21.7491 465.124 -23.9193V-131.962C465.124 -134.104 465.982 -136.156 467.508 -137.659L582.913 -251.415C584.439 -252.918 585.297 -254.97 585.297 -257.112V-268.285M-8.96356 599.274L-67.6525 540.585C-69.1528 539.085 -69.9956 537.05 -69.9956 534.928V503.636M186.54 347.149C186.54 355.194 193.061 361.716 201.106 361.716C209.151 361.716 215.673 355.194 215.673 347.149C215.673 339.105 209.151 332.583 201.106 332.583C193.061 332.583 186.54 339.105 186.54 347.149ZM186.54 347.149L-40.5855 347.149C-42.6443 347.149 -44.6239 347.943 -46.1124 349.365L-82.4424 384.081C-83.9309 385.503 -85.9104 386.297 -87.9693 386.297H-238.62M-131.028 346.337V331.404C-131.028 329.282 -131.871 327.247 -133.371 325.747L-140.01 319.108C-141.51 317.607 -142.353 315.573 -142.353 313.451V258.417C-142.353 256.295 -141.51 254.261 -140.01 252.76L-72.968 185.718C-71.4677 184.218 -70.6248 182.183 -70.6248 180.061V-13.9733C-70.6248 -16.1255 -71.492 -18.187 -73.0305 -19.692L-99.5678 -45.6525M541.598 69.4755V15.4336C541.598 13.3119 540.755 11.277 539.255 9.77673L500.241 -29.2365C498.741 -30.7368 497.898 -32.7716 497.898 -34.8933V-118.346C497.898 -120.497 498.765 -122.558 500.302 -124.063L628.086 -249.167M451.468 99.5188V12.0883C451.468 9.79303 450.482 7.60828 448.761 6.08963L438.698 -2.78937C436.977 -4.30798 435.991 -6.49274 435.991 -8.78806V-144.778C435.991 -146.912 436.844 -148.957 438.359 -150.459L540.141 -251.372C541.657 -252.874 542.509 -254.919 542.509 -257.053V-307.433M87.3035 282.159V271.017C87.3035 269.022 86.5582 267.099 85.2137 265.625L15.1481 188.819C13.8036 187.345 13.0583 185.422 13.0583 183.427V-78.9999M-26.4966 287.063V260.061C-26.4966 258.102 -25.7775 256.21 -24.4758 254.746L-13.9508 242.905C-12.6491 241.441 -11.9301 239.55 -11.9301 237.59V-57.5542C-11.9301 -60.1109 -13.152 -62.5136 -15.2182 -64.0194L-119.358 -139.918M702.739 375.372H825.934C828.078 375.372 830.132 374.512 831.636 372.984L884.29 319.494C885.794 317.966 887.848 317.106 889.991 317.106H1060.97C1063.02 317.106 1065 317.898 1066.49 319.316L1201.64 448.204M655.399 419.071H825.973C828.095 419.071 830.129 418.228 831.63 416.728L898.866 349.492C900.366 347.992 902.401 347.149 904.522 347.149H1046.14C1048.35 347.149 1050.46 348.065 1051.98 349.679L1185.26 491.904M714.574 -195.453C714.574 -187.408 708.052 -180.886 700.007 -180.886C691.962 -180.886 685.441 -187.408 685.441 -195.453C685.441 -203.498 691.962 -210.019 700.007 -210.019C708.052 -210.019 714.574 -203.498 714.574 -195.453ZM700.009 -137.187C700.009 -129.142 693.487 -122.62 685.442 -122.62C677.397 -122.62 670.876 -129.142 670.876 -137.187C670.876 -145.232 677.397 -151.753 685.442 -151.753C693.487 -151.753 700.009 -145.232 700.009 -137.187ZM698.188 -77.0999C698.188 -69.0551 691.666 -62.5334 683.621 -62.5334C675.576 -62.5334 669.054 -69.0551 669.054 -77.0999C669.054 -85.1448 675.576 -91.6664 683.621 -91.6664C691.666 -91.6664 698.188 -85.1448 698.188 -77.0999ZM700.009 -15.1923C700.009 -7.14746 693.487 -0.625793 685.442 -0.625793C677.397 -0.625793 670.876 -7.14746 670.876 -15.1923C670.876 -23.2372 677.397 -29.7588 685.442 -29.7588C693.487 -29.7588 700.009 -23.2372 700.009 -15.1923ZM672.698 24.8655C672.698 32.9104 666.176 39.432 658.131 39.432C650.086 39.432 643.565 32.9104 643.565 24.8655C643.565 16.8207 650.086 10.299 658.131 10.299C666.176 10.299 672.698 16.8207 672.698 24.8655ZM608.967 64.9233C608.967 72.9682 602.445 79.4898 594.4 79.4898C586.356 79.4898 579.834 72.9682 579.834 64.9233C579.834 56.8785 586.356 50.3568 594.4 50.3568C602.445 50.3568 608.967 56.8785 608.967 64.9233ZM556.164 83.1316C556.164 91.1764 549.642 97.6981 541.597 97.6981C533.552 97.6981 527.031 91.1764 527.031 83.1316C527.031 75.0867 533.552 68.5651 541.597 68.5651C549.642 68.5651 556.164 75.0867 556.164 83.1316ZM481.511 358.074C481.511 366.119 475.397 372.641 467.855 372.641C460.313 372.641 454.199 366.119 454.199 358.074C454.199 350.03 460.313 343.508 467.855 343.508C475.397 343.508 481.511 350.03 481.511 358.074ZM1007.72 94.9668C1007.72 103.012 1001.2 109.533 993.158 109.533C985.114 109.533 978.592 103.012 978.592 94.9668C978.592 86.922 985.114 80.4003 993.158 80.4003C1001.2 80.4003 1007.72 86.922 1007.72 94.9668ZM1075.1 54.909C1075.1 62.9539 1068.57 69.4755 1060.53 69.4755C1052.48 69.4755 1045.96 62.9539 1045.96 54.909C1045.96 46.8641 1052.48 40.3425 1060.53 40.3425C1068.57 40.3425 1075.1 46.8641 1075.1 54.909ZM1075.1 140.487C1075.1 148.532 1068.57 155.054 1060.53 155.054C1052.48 155.054 1045.96 148.532 1045.96 140.487C1045.96 132.442 1052.48 125.921 1060.53 125.921C1068.57 125.921 1075.1 132.442 1075.1 140.487ZM703.649 375.372C703.649 383.417 697.535 389.939 689.993 389.939C682.451 389.939 676.337 383.417 676.337 375.372C676.337 367.327 682.451 360.806 689.993 360.806C697.535 360.806 703.649 367.327 703.649 375.372ZM656.309 419.071C656.309 427.116 650.195 433.638 642.653 433.638C635.111 433.638 628.997 427.116 628.997 419.071C628.997 411.027 635.111 404.505 642.653 404.505C650.195 404.505 656.309 411.027 656.309 419.071ZM102.781 296.167C102.781 304.212 96.2593 310.733 88.2144 310.733C80.1696 310.733 73.6479 304.212 73.6479 296.167C73.6479 288.122 80.1696 281.6 88.2144 281.6C96.2593 281.6 102.781 288.122 102.781 296.167ZM171.806 386.071C171.806 394.116 165.284 400.638 157.239 400.638C149.194 400.638 142.673 394.116 142.673 386.071C142.673 378.026 149.194 371.505 157.239 371.505C165.284 371.505 171.806 378.026 171.806 386.071ZM-239.689 491.776C-239.689 499.821 -246.21 506.343 -254.255 506.343C-262.3 506.343 -268.822 499.821 -268.822 491.776C-268.822 483.731 -262.3 477.21 -254.255 477.21C-246.21 477.21 -239.689 483.731 -239.689 491.776ZM204.524 520.719C204.524 528.764 198.002 535.286 189.957 535.286C181.913 535.286 175.391 528.764 175.391 520.719C175.391 512.674 181.913 506.153 189.957 506.153C198.002 506.153 204.524 512.674 204.524 520.719ZM-11.9196 448.991C-11.9196 457.036 -18.4412 463.557 -26.4861 463.557C-34.5309 463.557 -41.0526 457.036 -41.0526 448.991C-41.0526 440.946 -34.5309 434.424 -26.4861 434.424C-18.4412 434.424 -11.9196 440.946 -11.9196 448.991ZM-55.9633 489.259C-55.9633 497.304 -62.485 503.826 -70.5298 503.826C-78.5747 503.826 -85.0963 497.304 -85.0963 489.259C-85.0963 481.215 -78.5747 474.693 -70.5298 474.693C-62.485 474.693 -55.9633 481.215 -55.9633 489.259ZM-11.9196 301.759C-11.9196 309.804 -18.4412 316.325 -26.4861 316.325C-34.5309 316.325 -41.0526 309.804 -41.0526 301.759C-41.0526 293.714 -34.5309 287.192 -26.4861 287.192C-18.4412 287.192 -11.9196 293.714 -11.9196 301.759ZM-82.3896 282.883C-82.3896 290.928 -88.9112 297.45 -96.9561 297.45C-105.001 297.45 -111.523 290.928 -111.523 282.883C-111.523 274.838 -105.001 268.317 -96.9561 268.317C-88.9112 268.317 -82.3896 274.838 -82.3896 282.883ZM-27.0203 41.2716C-27.0203 49.3165 -33.5419 55.8381 -41.5868 55.8381C-49.6316 55.8381 -56.1533 49.3165 -56.1533 41.2716C-56.1533 33.2267 -49.6316 26.7051 -41.5868 26.7051C-33.5419 26.7051 -27.0203 33.2267 -27.0203 41.2716ZM27.0906 -93.3764C27.0906 -85.3315 20.569 -78.8099 12.5241 -78.8099C4.47925 -78.8099 -2.04239 -85.3315 -2.04239 -93.3764C-2.04239 -101.421 4.47925 -107.943 12.5241 -107.943C20.569 -107.943 27.0906 -101.421 27.0906 -93.3764ZM-94.9735 -53.1078C-94.9735 -45.063 -101.495 -38.5413 -109.54 -38.5413C-117.585 -38.5413 -124.106 -45.063 -124.106 -53.1078C-124.106 -61.1527 -117.585 -67.6743 -109.54 -67.6743C-101.495 -67.6743 -94.9735 -61.1527 -94.9735 -53.1078ZM-131.467 23.6541C-131.467 31.699 -137.989 38.2206 -146.033 38.2206C-154.078 38.2206 -160.6 31.699 -160.6 23.6541C-160.6 15.6093 -154.078 9.08762 -146.033 9.08762C-137.989 9.08762 -131.467 15.6093 -131.467 23.6541ZM-131.467 80.2818C-131.467 88.3266 -137.989 94.8483 -146.033 94.8483C-154.078 94.8483 -160.6 88.3266 -160.6 80.2818C-160.6 72.2369 -154.078 65.7153 -146.033 65.7153C-137.989 65.7153 -131.467 72.2369 -131.467 80.2818ZM-131.467 139.426C-131.467 147.471 -137.989 153.993 -146.033 153.993C-154.078 153.993 -160.6 147.471 -160.6 139.426C-160.6 131.381 -154.078 124.86 -146.033 124.86C-137.989 124.86 -131.467 131.381 -131.467 139.426ZM-116.366 360.903C-116.366 368.948 -122.888 375.47 -130.933 375.47C-138.978 375.47 -145.499 368.948 -145.499 360.903C-145.499 352.858 -138.978 346.337 -130.933 346.337C-122.888 346.337 -116.366 352.858 -116.366 360.903ZM120.991 480.979C120.991 501.091 104.687 517.395 84.5744 517.395C64.4623 517.395 48.1581 501.091 48.1581 480.979C48.1581 460.867 64.4623 444.563 84.5744 444.563C104.687 444.563 120.991 460.867 120.991 480.979ZM148.302 480.979C148.302 516.175 119.769 544.708 84.5731 544.708C49.3768 544.708 20.8446 516.175 20.8446 480.979C20.8446 445.783 49.3768 417.251 84.5731 417.251C119.769 417.251 148.302 445.783 148.302 480.979ZM466.946 114.085C466.946 122.13 460.424 128.652 452.379 128.652C444.334 128.652 437.812 122.13 437.812 114.085C437.812 106.041 444.334 99.5189 452.379 99.5189C460.424 99.5189 466.946 106.041 466.946 114.085ZM802.69 173.262H852.239C856.657 173.262 860.239 169.68 860.239 165.262V115.713C860.239 111.294 856.657 107.713 852.239 107.713H802.69C798.272 107.713 794.69 111.294 794.69 115.713V165.262C794.69 169.68 798.272 173.262 802.69 173.262ZM890.089 173.262H939.638C944.057 173.262 947.638 169.68 947.638 165.262V115.713C947.638 111.294 944.057 107.713 939.638 107.713H890.089C885.671 107.713 882.089 111.294 882.089 115.713V165.262C882.089 169.68 885.671 173.262 890.089 173.262ZM890.089 87.6837H939.638C944.057 87.6837 947.638 84.102 947.638 79.6837V28.3136C947.638 23.8953 944.057 20.3136 939.638 20.3136H890.089C885.671 20.3136 882.089 23.8953 882.089 28.3136V79.6837C882.089 84.102 885.671 87.6837 890.089 87.6837ZM802.69 87.6837H852.239C856.657 87.6837 860.239 84.102 860.239 79.6837V28.3136C860.239 23.8953 856.657 20.3136 852.239 20.3136H802.69C798.272 20.3136 794.69 23.8953 794.69 28.3136V79.6837C794.69 84.102 798.272 87.6837 802.69 87.6837ZM802.69 0.284363H852.239C856.657 0.284363 860.239 -3.29733 860.239 -7.71561V-59.0857C860.239 -63.504 856.657 -67.0857 852.239 -67.0857H802.69C798.272 -67.0857 794.69 -63.504 794.69 -59.0857V-7.71564C794.69 -3.29736 798.272 0.284363 802.69 0.284363ZM-275.922 -0.30426H-226.373C-221.955 -0.30426 -218.373 -3.88598 -218.373 -8.30426V-59.6743C-218.373 -64.0926 -221.955 -67.6743 -226.373 -67.6743H-275.922C-280.341 -67.6743 -283.922 -64.0926 -283.922 -59.6743V-8.30426C-283.922 -3.88598 -280.341 -0.30426 -275.922 -0.30426ZM-275.922 100.367H-226.373C-221.955 100.367 -218.373 96.7854 -218.373 92.3672V40.9971C-218.373 36.5788 -221.955 32.9971 -226.373 32.9971H-275.922C-280.341 32.9971 -283.922 36.5788 -283.922 40.9971V92.3672C-283.922 96.7854 -280.341 100.367 -275.922 100.367ZM-275.922 201.039H-226.373C-221.955 201.039 -218.373 197.457 -218.373 193.039V141.668C-218.373 137.25 -221.955 133.668 -226.373 133.668H-275.922C-280.341 133.668 -283.922 137.25 -283.922 141.668V193.039C-283.922 197.457 -280.341 201.039 -275.922 201.039ZM500.435 511.933H582.759C587.177 511.933 590.759 508.351 590.759 503.933V421.609C590.759 417.191 587.177 413.609 582.759 413.609H500.435C496.016 413.609 492.435 417.191 492.435 421.609V503.933C492.435 508.351 496.016 511.933 500.435 511.933Z"
                stroke="url(#paint1_radial_392_2082)" stroke-opacity="0.3" stroke-width="2" />
        </g>
        <path
            d="M336.194 124.796L424.499 179.42V288.669L336.194 343.293L247.889 288.669V179.42L336.194 124.796Z"
            stroke="url(#paint2_radial_392_2082)" stroke-width="2" />
        <path
            d="M335.243 123.601L423.548 178.226V287.474L335.243 342.099L246.938 287.474V178.226L335.243 123.601Z"
            stroke="url(#paint3_radial_392_2082)" stroke-width="2" />
        <path fill-rule="evenodd" clip-rule="evenodd"
            d="M329.462 243.531L329.452 243.552H296.632C295.406 243.552 294.384 243.175 293.568 242.42C293.171 242.064 292.857 241.625 292.645 241.136C292.434 240.646 292.331 240.117 292.343 239.584C292.343 238.372 292.862 237.123 293.9 235.838L346.112 172.097C347.08 170.847 348.149 170.093 349.317 169.836C350.488 169.58 351.536 169.69 352.464 170.167C353.391 170.644 354.042 171.425 354.415 172.509C354.788 173.593 354.696 174.888 354.137 176.392L337.085 221.623H339.924L339.935 221.604H372.755C373.981 221.604 375.002 221.981 375.819 222.734C376.636 223.487 377.044 224.433 377.044 225.571C377.044 226.783 376.525 228.031 375.487 229.316L323.275 293.06C322.307 294.308 321.238 295.061 320.069 295.318C318.899 295.576 317.85 295.466 316.921 294.988C315.993 294.511 315.344 293.731 314.972 292.647C314.599 291.564 314.691 290.27 315.25 288.763L332.301 243.531H329.462Z"
            fill="url(#paint4_linear_392_2082)" />

        <!-- Yellow glow -->
        <path fill-rule="evenodd"
            clip-rule="evenodd"
            d="M329.462 243.531L329.452 243.552H296.632C295.406 243.552 294.384 243.175 293.568 242.42C293.171 242.064 292.857 241.625 292.645 241.136C292.434 240.646 292.331 240.117 292.343 239.584C292.343 238.372 292.862 237.123 293.9 235.838L346.112 172.097C347.08 170.847 348.149 170.093 349.317 169.836C350.488 169.58 351.536 169.69 352.464 170.167C353.391 170.644 354.042 171.425 354.415 172.509C354.788 173.593 354.696 174.888 354.137 176.392L337.085 221.623H339.924L339.935 221.604H372.755C373.981 221.604 375.002 221.981 375.819 222.734C376.636 223.487 377.044 224.433 377.044 225.571C377.044 226.783 376.525 228.031 375.487 229.316L323.275 293.06C322.307 294.308 321.238 295.061 320.069 295.318C318.899 295.576 317.85 295.466 316.921 294.988C315.993 294.511 315.344 293.731 314.972 292.647C314.599 291.564 314.691 290.27 315.25 288.763L332.301 243.531H329.462Z"
            fill="#FFD700" filter="url(#yellowGlow)">
            <animate attributeName="opacity"
                values="0.1;0.5;0.1"
                dur="5s"
                repeatCount="indefinite" />
        </path>

        <!-- Electric current animations -->
        <circle r="1.9" fill="#00FFFF"
            opacity="0.5">
            <animateMotion dur="5s" repeatCount="indefinite" begin="2.5s">
                <mpath href="#currentTopLeft" />
            </animateMotion>
            <animate attributeName="opacity" values="0.5;1;0" dur="5s" repeatCount="indefinite"
                begin="2.5s" />
        </circle>
        <circle
            r="1.9" fill="#00FFFF" opacity="0.5">
            <animateMotion dur="5s" repeatCount="indefinite" begin="2.5s">
                <mpath href="#currentRight" />
            </animateMotion>
            <animate attributeName="opacity" values="0.5;1;0" dur="5s" repeatCount="indefinite"
                begin="2.5s"
            />
        </circle>
        <circle
            r="1.9" fill="#00FFFF" opacity="0.5">
            <animateMotion dur="4.5s" repeatCount="indefinite" begin="2.5s">
                <mpath href="#currentDown" />
            </animateMotion>
            <animate attributeName="opacity" values="0.5;1;0" dur="4.5s" repeatCount="indefinite"
                begin="2.5s"
            />
        </circle>

        <!-- Reverse currents animation -->
        <circle r="1.9" fill="#00FFFF" opacity="0.5">
            <animateMotion dur="4.5s" repeatCount="indefinite">
                <mpath href="#reverseBottomLeft" />
            </animateMotion>
            <animate attributeName="opacity" values="0;0.8;0.15" dur="4.5s"
                repeatCount="indefinite"
            />
        </circle>
        <circle r="1.9" fill="#00FFFF" opacity="0.5">
            <animateMotion dur="4.5s" repeatCount="indefinite">
                <mpath href="#reverseTopRight" />
            </animateMotion>
            <animate attributeName="opacity" values="0;0.8;0.15" dur="4.5s"
                repeatCount="indefinite"
            />
        </circle>
    </g>
    <defs>
        <!-- Electric current paths -->
        <path id="currentTopLeft"
            d="M245.717 186.007H216.584L188.361 157.785V23.9549"
            fill="none" stroke="none" />
        <path id="currentRight"
            d="M319.458 330.762V418.161L273.027 465.502"
            fill="none" stroke="none" />
        <path id="currentDown"
            d="M422.037 186.771H594.104L621.416 158.549L697.89 82.0745"
            fill="none" stroke="none" />
        <path id="reverseBottomLeft"
            d="M100.961 70.3858L101.871 157.785L188.36 244.273H246.626"
            fill="none" stroke="none" />
        <path id="reverseTopRight"
            d="M728.232 97.698L610.789 215.14H421.425"
            fill="none" stroke="none" />

        <filter id="yellowGlow" x="-50%" y="-50%" width="200%" height="200%">
            <feGaussianBlur stdDeviation="25" result="coloredBlur" />
            <feMerge>
                <feMergeNode in="coloredBlur" />
                <feMergeNode in="SourceGraphic" />
            </feMerge>
        </filter>

        <radialGradient id="paint0_radial_392_2082" cx="0" cy="0" r="1"
            gradientUnits="userSpaceOnUse"
            gradientTransform="translate(411.41 -58.8922) rotate(90) scale(210.304 28.2226)">
            <stop stop-color="#3378D4" />
            <stop offset="0.519231" stop-color="#3E8BE6" />
            <stop offset="1" stop-color="#1E5FAB" />
        </radialGradient>
        <radialGradient id="paint1_radial_392_2082" cx="0" cy="0" r="1"
            gradientUnits="userSpaceOnUse"
            gradientTransform="translate(541.596 462.771) scale(49.1619 49.162)">
            <stop stop-color="#124581" />
            <stop offset="1" stop-color="#3378D4" />
        </radialGradient>
        <radialGradient id="paint2_radial_392_2082" cx="0" cy="0" r="1"
            gradientUnits="userSpaceOnUse"
            gradientTransform="translate(336.194 234.044) rotate(90) scale(109.249 101.966)">
            <stop stop-color="#041935" />
            <stop offset="0.519231" stop-color="#010A15" />
            <stop offset="0.988481" stop-color="#01142B" />
        </radialGradient>
        <radialGradient id="paint3_radial_392_2082" cx="0" cy="0" r="1"
            gradientUnits="userSpaceOnUse"
            gradientTransform="translate(335.243 232.85) rotate(90) scale(109.249 101.966)">
            <stop stop-color="#3378D4" />
            <stop offset="0.519231" stop-color="#3E8BE6" />
            <stop offset="1" stop-color="#1E5FAB" />
        </radialGradient>
        <linearGradient id="paint4_linear_392_2082" x1="334.693" y1="169.702" x2="334.693"
            y2="295.454" gradientUnits="userSpaceOnUse">
            <stop stop-color="#FBDD69" />
            <stop offset="0.995192" stop-color="#E6BA0A" />
        </linearGradient>
        <clipPath id="clip0_392_2082">
            <rect width="671" height="507" fill="white" />
        </clipPath>
    </defs>
</svg>