<svg xmlns="http://www.w3.org/2000/svg" width="496" height="148" viewBox="0 0 496 148"><title>Group 6</title><g fill="none"><path fill="#fff" d="M169 119V99.05h-51.3v-83.1H95.65V119zm31.5 0V52.4l49.8 66.6h22.05V15.95H250.3v66.6l-49.8-66.6h-22.05V119zm121.4 1.8q10.05 0 18.225-5.175t12.825-14.475 4.65-21-4.65-20.925-12.825-14.4T321.9 39.65q-9.15 0-16.425 4.275T293.7 56V14.15h-11.25V119h11.25v-14.55q4.5 7.8 11.775 12.075T321.9 120.8m-2.1-10.05q-7.5 0-13.5-3.9T297 95.975t-3.3-15.825T297 64.4t9.3-10.8 13.5-3.9 13.425 3.9 9.225 10.8 3.3 15.75-3.3 15.825-9.225 10.875-13.425 3.9m49.45-83.4q3 0 5.175-2.25t2.175-5.25-2.175-5.175-5.175-2.175q-3.15 0-5.325 2.175t-2.175 5.175 2.175 5.25 5.325 2.25M374.8 119V41.45h-11.25V119zm41.1 1.8q8.1 0 14.4-4.95l-5.55-8.25q-1.35 1.35-3.45 2.25t-4.65.9q-3.45 0-5.925-2.775T408.25 101V51.5h19.05V41.45h-19.05v-21.3H397v21.3h-12.15V51.5H397V101q0 8.7 5.325 14.25t13.575 5.55m51.2 0q12.3 0 20.325-6.45t8.025-16.95q0-6.9-3.45-11.175t-8.55-6.675-13.35-4.95q-8.4-2.7-12.3-4.35t-5.85-3.75-1.95-5.4q0-5.4 4.5-8.4t11.4-3q10.8 0 22.35 7.35l5.4-8.7q-6.3-4.05-13.5-6.375T465.9 39.65q-11.85 0-19.5 6.225t-7.65 16.575q0 8.25 5.85 13.125t20.1 8.925q6.75 1.95 10.575 3.45t6.375 4.125 2.55 6.525q0 5.55-4.725 8.85t-12.375 3.3q-12.9 0-26.25-9.75l-5.85 8.25q6.9 5.55 15.375 8.55t16.725 3"/><path fill="#ff1ee6" d="M32.168 0 7.513 78.859h19.871L.405 148l74.84-90.648H44.34L84.71 0z"/></g></svg>