<svg xmlns="http://www.w3.org/2000/svg" width="100" height="38" fill="none" viewBox="0 0 100 38"><path fill="#fff" d="M20.896 24.926a2.04 2.04 0 0 0-2.032-2.047H6.083a2.04 2.04 0 0 0-2.032 2.047 2.04 2.04 0 0 0 2.032 2.048h12.78a2.05 2.05 0 0 0 2.032-2.048m77.224 5.124h-6.946a.338.338 0 0 1-.286-.513l8.096-13.167c.058-.09.095-.186.139-.283 0-.007.007-.015.007-.022a1.3 1.3 0 0 0 .066-.223c.014-.06.036-.119.044-.178.007-.023.007-.053.007-.075.015-.089.03-.178.03-.275 0-1.055-.85-1.917-1.89-1.917h-9.99c-.988 0-1.867.736-1.962 1.732a1.903 1.903 0 0 0 1.881 2.103h6.076c.263 0 .417.29.285.512l-8.044 13.079c-.051.089-.088.178-.132.267-.132.26-.212.55-.212.862 0 1.056.842 1.918 1.888 1.918h10.936c1.039 0 1.888-.862 1.888-1.918a1.894 1.894 0 0 0-1.881-1.902M47.825 13.236c-.007 0-.015 0-.015-.007-.022 0-.036-.007-.058-.015-.015 0-.037 0-.052-.007h-.037c-.449-.038-1.487-.038-2.032.03v.007c-1.023.112-2.142.463-2.922 1.06a7.3 7.3 0 0 0-.928.85c-.03-1.052-.869-1.895-1.914-1.895-1.06 0-1.914.873-1.914 1.94V32.13q0 .403.155.761a1.93 1.93 0 0 0 1.774 1.194c1.06 0 1.921-.873 1.921-1.948V22.9c0-1.717.457-3.134 1.362-4.209.744-.88 1.568-1.388 2.503-1.537.464-.06.935-.045.935-.045h.942c1.06 0 1.922-.873 1.922-1.947a1.944 1.944 0 0 0-1.642-1.926"/><path fill="#fff" d="M29.3 16.53a8.07 8.07 0 0 0 1.5-4.7c0-4.448-3.551-8.052-7.933-8.052h-1.088v-.873c0-1.112-.89-2.007-1.978-2.007-1.095 0-1.977.903-1.977 2.007v.873h-2.015v.008h-1.271c-1.06 0-1.912.873-1.912 1.94 0 1.074.86 1.94 1.912 1.94h1.271v.007h7.029c2.198 0 3.977 1.806 3.977 4.037v.007c0 2.172-1.691 3.985-3.816 4.03-.39.007-1.566 0-1.566 0h-.044a2.05 2.05 0 0 0-1.977 2.276c.11 1.067 1.051 1.85 2.11 1.85h4.014c.411 0 .83.03 1.227.134 2.154.575 3.75 2.56 3.75 4.932 0 2.814-2.25 5.097-5.021 5.097H11.096c-1.072 0-2.028.798-2.131 1.88-.118 1.239.845 2.284 2.044 2.284h6.815v.895c0 1.112.89 2.007 1.977 2.007 1.096 0 1.978-.903 1.978-2.007V34.2h3.889c5.021 0 9.087-4.134 9.087-9.223A9.2 9.2 0 0 0 29.3 16.53"/><path fill="#fff" d="M13.22 17.815a2.045 2.045 0 0 0-2.043-2.047H2.043A2.045 2.045 0 0 0 0 17.815c0 1.127.911 2.047 2.043 2.047h9.134c1.131 0 2.043-.92 2.043-2.047m-3.928-3.987h9.134a2.045 2.045 0 0 0 2.043-2.047 2.045 2.045 0 0 0-2.043-2.047H9.292A2.045 2.045 0 0 0 7.25 11.78c0 1.127.912 2.047 2.043 2.047"/><path fill="#fff" fill-rule="evenodd" d="M63.618 15.466c1.307 1.317 2.052 2.932 2.23 4.822v.015c.088.863-.008 2.433-.008 2.433a2.3 2.3 0 0 1-2.288 2.307h-9.055a.33.33 0 0 0-.332.335v.558c0 1.444.45 2.568 1.387 3.423.937.856 2.17 1.288 3.668 1.288.398 0 .827-.045 1.218-.12.7-.163 1.505-.528 2.066-.96l.096-.066.096-.067.022-.015q.011-.009.022-.015a3 3 0 0 1 .236-.141l.2-.09q.022-.002.044-.015a1.2 1.2 0 0 1 .255-.07l.025-.004a1.2 1.2 0 0 1 .236-.022h.03a1.76 1.76 0 0 1 1.683 1.257c.007.038.014.067.022.097a1 1 0 0 1 .03.104c.021.097.029.201.029.298v.067c0 .067-.008.141-.015.208-.007.015-.007.023-.007.037a2 2 0 0 1-.06.239l-.01.03q-.006.013-.011.03a.7.7 0 0 1-.075.186.3.3 0 0 0-.022.044q-.056.11-.125.208c-.288.461-.82.908-1.638 1.384-1.196.7-2.694 1.05-4.45 1.05-2.569 0-4.694-.79-6.325-2.337-1.638-1.548-2.472-3.617-2.472-6.132v-4.39c0-2.233.782-4.183 2.324-5.805 1.543-1.63 3.425-2.456 5.594-2.456 2.06 0 3.875.767 5.38 2.285m-2.17 6.28a.737.737 0 0 0 .739-.736v-.26c0-1.184-.384-1.958-1.166-2.85-.775-.879-1.698-1.303-2.82-1.303-1.107 0-2.029.395-2.833 1.213s-1.196 1.801-1.196 3v.185c0 .41.332.744.738.744zm20.082-6.28c1.305 1.317 2.05 2.932 2.228 4.822v.015c.088.863-.007 2.433-.007 2.433a2.3 2.3 0 0 1-2.288 2.307h-9.056a.33.33 0 0 0-.332.335v.558c0 1.444.45 2.568 1.388 3.423.937.856 2.17 1.288 3.668 1.288.398 0 .826-.045 1.217-.12.701-.163 1.506-.528 2.067-.96l.096-.066q.046-.034.096-.067l.022-.015q.01-.009.022-.015a3 3 0 0 1 .236-.141l.2-.09q.021-.002.043-.015a1.2 1.2 0 0 1 .255-.07l.026-.004a1.2 1.2 0 0 1 .236-.022h.03a1.76 1.76 0 0 1 1.682 1.257l.022.097a1 1 0 0 1 .03.104c.022.097.03.201.03.298v.067c0 .067-.008.141-.015.208-.008.015-.008.023-.008.037a2 2 0 0 1-.07.268l-.01.03a.7.7 0 0 1-.076.187 2 2 0 0 1-.147.253c-.287.46-.818.907-1.638 1.383-1.195.7-2.693 1.05-4.45 1.05-2.568 0-4.693-.79-6.324-2.337-1.639-1.548-2.473-3.617-2.473-6.132v-4.39c0-2.233.783-4.183 2.325-5.805 1.542-1.63 3.424-2.456 5.594-2.456 2.06 0 3.875.767 5.38 2.285m-2.17 6.28a.737.737 0 0 0 .737-.736v-.26c0-1.184-.383-1.958-1.166-2.85-.775-.879-1.697-1.303-2.819-1.303-1.107 0-2.03.395-2.834 1.213s-1.195 1.801-1.195 3v.185c0 .41.332.744.738.744z" clip-rule="evenodd"/></svg>