<?xml version="1.0" encoding="UTF-8" standalone="no"?><!DOCTYPE svg PUBLIC "-//W3C//DTD SVG 1.1//EN" "http://www.w3.org/Graphics/SVG/1.1/DTD/svg11.dtd"><svg width="100%" height="100%" viewBox="0 0 446 430" version="1.1" xmlns="http://www.w3.org/2000/svg" xmlns:xlink="http://www.w3.org/1999/xlink" xml:space="preserve" xmlns:serif="http://www.serif.com/" style="fill-rule:evenodd;clip-rule:evenodd;stroke-linejoin:round;stroke-miterlimit:2;"><g id="marina_logo_verde"><path d="M325.772,170.948c-7.875,3.447 -17.733,7.966 -21.653,10.618c-6.967,4.712 -26.951,14.666 -40.555,20.83c0,0 -17.683,6.412 -25.838,9.398c-8.156,2.987 -27.43,8.62 -34.824,10.205c-7.394,1.585 -14.374,2.723 -19.463,2.154c-5.089,-0.57 -13.145,1.22 -17.606,-5.694c5.856,-0.533 2.986,0.325 9.943,-2.324c6.957,-2.649 8.436,-3.986 16.944,-8.193c8.507,-4.206 14.991,-8.758 20.691,-12.481c5.7,-3.722 9.482,-7.081 13.799,-10.551c4.318,-3.47 8.379,-6.938 9.037,-9.471c-4.432,0.313 -3.422,-1.106 -6.949,1.1c-3.528,2.206 -4.091,3.087 -11.192,3.344c-7.1,0.257 -9.955,-1.142 -16.563,-1.086c-6.608,0.055 -9.127,0.112 -14.163,1.46c-5.036,1.348 -6.004,0.904 -10.41,3.07c3.883,-6.438 3.384,-6.912 8.038,-10.767c4.654,-3.855 13.681,-9.7 19.69,-13.166c6.01,-3.465 10.075,-6.373 16.732,-9.064c6.657,-2.692 9.164,-4.644 14.309,-6.289c5.146,-1.646 13.721,-6.447 16.237,-8.822c-4.297,-0.549 -2.609,-0.621 -5.693,-0.129c-3.083,0.492 -11.004,0.051 -17.639,-0.705c-6.635,-0.756 -9.375,-1.692 -17.09,-3.442c-7.715,-1.75 -6.029,-3.193 -12.993,-2.649c-6.964,0.544 -12.571,-0.483 -19.746,-0.689c0,0 3.941,-5.162 9.795,-7.208c5.854,-2.047 11.615,-3.166 17.861,-3.741c6.245,-0.575 12.189,-1.486 17.728,-1.988c5.54,-0.502 12.15,-2.818 17.265,-4.855c5.116,-2.038 9.241,-4.544 12.815,-7.644c3.574,-3.099 8.443,-7.601 9.212,-9.317c0.769,-1.716 0.286,-3.507 -2.905,-2.367c-3.19,1.141 -5.184,1.997 -9.512,3.708c-4.328,1.712 -6.986,1.626 -10.964,1.296c-3.978,-0.33 -5.866,-0.617 -10.515,-1.635c-4.65,-1.018 -4.835,-1.634 -6.704,-3.76c5.424,-0.731 5.036,-0.573 10.894,-2.536c5.858,-1.963 10.593,-4.178 15.95,-8.424c5.357,-4.246 14.611,-12.333 19.361,-16.94c4.75,-4.608 13.266,-17.47 17.391,-23.269c4.126,-5.799 9.3,-10.285 14.058,-15.766c4.759,-5.481 11.72,-10.61 18.895,-14.496c7.175,-3.886 15.667,-7.409 20.644,-7.817c4.977,-0.407 10.598,-0.756 14.24,0.314c3.643,1.07 9.224,1.43 15.196,4.924c5.972,3.494 5.002,1.075 10.139,6.703c3.623,3.969 4.832,5.117 6.313,7.654l0.003,0.006c0.618,1.059 1.284,2.36 2.192,4.208l-0.082,0.022c2.369,5.015 5.556,12.263 6.357,14.236c1.092,2.693 1.557,4.706 1.529,8.372c-0.028,3.667 -0.389,4.131 -0.469,9.121c2.298,2.815 5.541,5.795 7.454,7.901c1.913,2.107 4.177,4.111 4.64,5.192c0.463,1.081 1.738,3.174 -0.644,4.946c-2.382,1.773 -0.984,0.4 -2.394,2.483c-0.886,1.309 -0.621,2.687 0.361,4.619c0.982,1.933 1.849,2.881 2.677,4.285c0.828,1.405 0.458,1.609 -0.632,2.548c-1.312,1.129 -2.527,1.05 -1.923,2.582c0.92,2.335 2.664,2.078 2.922,3.27c0.258,1.193 -0.323,1.171 -2.254,2.561c-1.93,1.389 -1.426,2.295 -0.81,4.421c0.616,2.127 1.383,3.178 1.159,5.955c-0.225,2.777 -0.96,3.54 -3.848,5.206c-2.889,1.666 -4.942,0.967 -7.49,1.526c-2.299,0.504 -3.911,0.751 -5.128,2.865c-2.153,3.739 -1.365,4.873 -1.425,8.439c-0.06,3.535 0.542,16.468 0.552,16.69c0.298,2.403 0.653,4.878 1.232,7.559c1.307,6.04 4.119,9.939 6.318,14.496c2.199,4.557 6.581,9.992 9.521,14.576c2.94,4.584 9.263,12.547 11.886,16.124c2.623,3.576 8.127,9.529 10.736,12.177c0,0 4.607,3.973 6.285,5.822c1.678,1.849 6.26,4.436 6.887,6.217c0.704,1.997 -0.804,7.037 -1.546,9.109c-0.742,2.072 -0.832,2.212 -4.706,8.719c-3.313,5.566 -7.028,6.98 -8.699,8.49c-1.67,1.51 -6.128,1.848 -8.241,3.754c-1.152,6.694 -1.21,7.717 -2.227,12.98c-1.017,5.263 -2.998,12.051 -4.003,15.71c-1.004,3.659 -4.953,15.476 -6.691,19.758c-1.738,4.282 -6.127,14.786 -7.395,17.644c-1.268,2.859 -9.462,16.49 -11.267,19.478c-1.804,2.988 -11.27,17.08 -14.154,20.331c-2.884,3.251 -13.065,14.585 -15.073,16.53c-1.588,1.54 -13.964,11.605 -20.842,16.813l0.075,0.365c0,0 -1.621,1.008 -4.057,2.488l-0.013,0.008c-5.284,3.211 -14.382,8.635 -19.058,10.818c-6.837,3.19 -22.477,11.025 -31.855,13.858c-9.377,2.834 -26.276,6.895 -38.325,8.639c-12.049,1.744 -21.625,2.607 -30.047,2.308c-8.421,-0.299 -18.051,-0.123 -26.105,-0.954c-8.055,-0.831 -28.676,-5.413 -34.097,-7.114c-5.422,-1.701 -21.335,-6.317 -29.895,-10.267c-8.56,-3.951 -24.387,-12.97 -31.573,-17.657c-7.187,-4.687 -19.635,-13.816 -31.866,-25.729c-12.23,-11.914 -14.87,-15.234 -22.158,-26.831c-7.288,-11.597 -14.376,-19.972 -23.904,-43.211c-9.528,-23.238 -8.547,-33.636 -11.022,-46.501c-2.474,-12.866 -1.305,-22.914 -1.754,-36.62c-0.45,-13.707 3.957,-34.071 3.957,-34.071c2.017,-10.534 5.86,-18.443 7.385,-27.023c1.526,-8.58 2.614,-16.812 5.955,-27.653c3.341,-10.842 6.613,-15.08 11.095,-26.727c4.481,-11.647 18.276,-28.545 24.64,-37.951c6.364,-9.405 17.386,-18.465 22.5,-22.466c4.306,-3.37 20.808,-14.22 22.608,-15.814c4.592,-2.075 17.861,-8.193 24.771,-9.991c9.5,-2.473 11.534,-2.006 22.407,-4.525c-5.456,7.58 -8.498,15.395 -11.257,22.577c-2.759,7.182 -2.421,10.817 -4.269,19.555c-1.849,8.738 -2.479,13.664 -7.329,22.281c-4.851,8.618 -8.878,15.636 -17.365,23.312c-8.487,7.675 -12.726,11.017 -21.002,16.342c-8.276,5.325 -11.866,8.521 -19.218,13.38c4.864,-2.377 18.408,-4.775 25.429,-5.318c7.021,-0.543 16.672,-0.506 21.321,-0.238c4.649,0.269 11.498,0.708 21.075,5.288c9.577,4.579 12.401,5.632 19.623,11.333c7.223,5.701 13.713,8.215 21.257,11.908c7.545,3.693 6.802,1.885 15.226,2.262c-4.067,4.888 -16.908,12.887 -25.166,16.947c-8.258,4.06 -15.681,6.293 -22.985,8.882c-7.303,2.588 -16.215,3.329 -22.801,3.001c-6.585,-0.328 -20.06,-0.844 -28.921,-3.437c-8.861,-2.593 -17.016,-5.836 -22.305,-8.428c-5.288,-2.592 -7.915,-2.457 -15.335,-2.055c-7.419,0.403 -9.738,2.736 -15.518,10.998c-5.78,8.263 -5.877,17.585 -5.046,28.245c0.83,10.659 2.216,17.304 6.71,33.402c4.494,16.098 5.664,16.737 12.888,32.343c7.223,15.606 15.804,23.822 25.607,35.45c9.803,11.629 27.3,19.862 34.89,24.456c7.59,4.593 20.291,7.18 31.064,8.812c10.774,1.631 30.267,2.791 30.267,2.791c7.732,-0.288 17.238,-3.25 22.346,-4.757c5.108,-1.507 11.897,-6.62 17.038,-10.328c5.14,-3.707 17.398,-13.498 21.678,-16.161c4.279,-2.662 14.376,-7.15 19.121,-8.926c4.744,-1.776 19.447,-3.533 25.06,-3.812c5.613,-0.278 13.325,0.664 20.021,0.826c6.697,0.162 18.599,-3.234 18.599,-3.234l0.266,-0.103c5.501,-2.1 5.996,-0.5 12.543,-6.54c6.651,-6.136 8.653,-6.788 12.168,-14.019c3.515,-7.231 4.387,-8.309 6.241,-18.892c1.855,-10.583 0.936,-12.088 1.222,-21.608c0,0 -0.368,-5.247 -0.464,-11.749c-0.095,-6.502 -0.09,-9.148 -0.828,-12.838c-0.084,-0.422 -0.343,-1.171 -0.74,-2.178c-2.64,-3.125 -3.291,-3.568 -6.729,-2.935c-3.439,0.633 -15.141,8.625 -19.801,11.448c-4.661,2.822 -26.051,15.385 -31.509,18.261c-5.457,2.876 -25.798,12.541 -30.654,14.44c-4.855,1.899 -24.006,8.926 -30.74,11.496c-6.735,2.569 -26.029,9.914 -32.284,12.821c-6.255,2.907 -15.809,6.159 -20.532,8.537c-4.723,2.378 -8.283,4.104 -14.288,6.974c-6.006,2.871 -5.912,1.946 -10.003,3.297c0,0 -5.753,1.432 -8.674,1.797c-2.922,0.365 -8.304,1.253 -10.198,0.966c-1.893,-0.287 -6.559,0.103 -7.636,-1.16c-1.078,-1.263 -2.265,-0.955 -0.949,-2.503c1.316,-1.548 2.696,-2.077 4.851,-2.28c2.155,-0.202 4.197,-0.772 6.343,-1.872c2.146,-1.1 2.671,-2.758 2.4,-4.556c-0.271,-1.798 -0.61,-2.152 -2.756,-2.867c-2.145,-0.714 -3.949,-1.249 -6.218,-1.617c-2.27,-0.367 -7.404,-0.452 -10.198,-0.276c-2.794,0.175 -6.767,0.565 -9.226,1.319c-2.458,0.754 -5.846,1.441 -7.77,2.482c-1.924,1.041 -6.83,2.874 -8.704,3.188c-1.875,0.314 -5.125,-0.669 -4.005,-2.986c1.119,-2.316 1.979,-3.925 5.217,-5.62c3.237,-1.695 6.624,-3.743 9.805,-5.047c3.182,-1.304 8.562,-2.825 11.3,-3.377c2.738,-0.551 6.645,-0.786 9.555,-0.193c2.911,0.593 8.713,1.759 11.418,2.877c2.704,1.118 6.497,2.297 9.832,3.554c3.334,1.257 5.265,1.293 8.105,1.381c2.839,0.087 7.368,-0.931 10.391,-1.914c3.024,-0.983 10.665,-5.026 13.889,-6.686c3.224,-1.659 20.961,-13.646 24.976,-15.68c4.015,-2.034 15.571,-10.273 18.736,-12.211c3.166,-1.938 15.91,-9.532 19.225,-11.601c3.314,-2.068 14.01,-8.198 18.744,-10.78c4.734,-2.583 12.541,-7.705 16.648,-10.411c4.106,-2.706 10.794,-6.642 15.404,-9.284c4.609,-2.642 12.699,-7.28 16.057,-9.479c3.358,-2.199 5.123,-3.037 8.844,-6.229c3.494,-2.996 5.932,-5.522 9.391,-7.657Zm-226.546,-150.871c-1.721,0.778 -2.223,0.988 -0.715,0.19c0.874,-0.463 1.053,-0.489 0.715,-0.19Z" style="fill:url(#_Linear1);"/></g><defs><linearGradient id="_Linear1" x1="0" y1="0" x2="1" y2="0" gradientUnits="userSpaceOnUse" gradientTransform="matrix(-484.495,227.751,-227.751,-484.495,441.766,113.766)"><stop offset="0" style="stop-color:#83d7bc;stop-opacity:1"/><stop offset="1" style="stop-color:#37ab86;stop-opacity:1"/></linearGradient></defs></svg>
