<svg xmlns="http://www.w3.org/2000/svg" width="25" height="28"><path fill="#22374f" d="M20.78.67c-.28.12-.56.46-.67.8a3.7 3.7 0 0 0-.04 1.7c.21.7.73 1.33 1.69 2.06.92.7 1.2 1.12 1.24 1.84.06.98-.3 1.64-1.1 2.03-.43.21-.74.25-1.4.16-.44-.06-.54-.06-.8.02-.16.05-.35.09-.42.09s-.5-.23-.95-.5a5.34 5.34 0 0 0-3.57-1c-1.32 0-1.66.06-2.75.43-.7.24-.93.33-2.62 1.16-.59.29-1.24.58-1.44.63-.57.19-1.28.27-2.2.27-.96 0-1.06.03-.96.3.03.08.08.18.12.22.15.18.15.2-.06.15a.8.8 0 0 1-.27-.12c-.23-.2-1.08-.23-1.71-.08a3.7 3.7 0 0 0-2.44 2.29c-.12.35-.13.64-.01.68.05.02.24-.04.46-.15.2-.1.45-.2.54-.22.21-.05.22-.02.04.52-.16.5-.17.85-.02 1.04.06.07.14.14.18.14s.3-.22.58-.47c.35-.33.55-.48.63-.48s.12.03.1.07c-.2.49-.25 1.2-.08 1.31.1.06.14.04.8-.35a5.6 5.6 0 0 1 2.22-.64c.27-.03.3-.01.6.2.18.11.52.3.76.42.5.24 1.79.67 2.5.83.3.07.55.13.57.16.06.05-.38.6-.86 1.08a7.5 7.5 0 0 1-1.77 1.37c-.55.21-.83.54-.97 1.13-.05.2-.2.47-.63 1.08l-1.12 1.6c-1.37 1.95-1.31 1.9-1.86 2.01-.35.08-.72.28-.91.5-.2.21-.3.52-.22.66.06.11.14.12.34.05.19-.08.21-.04.08.14-.18.26-.47.9-.53 1.2-.04.2-.04.35 0 .56.06.29.21.5.31.43.03-.02.15-.23.27-.46.24-.5.41-.71 1.05-1.38.25-.26.58-.67.73-.91.47-.76 1.14-1.7 2.25-3.12 1.02-1.32 1.2-1.53 1.43-1.62.45-.18.8-.55.9-.94.05-.22.12-.27 1.25-1.13l1.2-.9.65-.23c.36-.13.68-.23.7-.23.06 0-.1.37-.18.44a4 4 0 0 0-.34.75c-.3.76-.33 1.08-.18 1.4.04.1.16.23.25.29.27.16.53.13.93-.1.26-.17.76-.34 2.1-.76 2.39-.75 2.47-.78 2.73-.76l.22.02.05.32c.07.38.19.58.38.65.2.08.28-.02.25-.31-.06-.42.02-.42.45 0 .4.41.73.62.96.62.18 0 .22-.12.11-.35-.2-.42-1.2-1.92-1.38-2.05-.17-.13-.23-.14-.66-.14-.52 0-.29-.06-3.7 1.02l-1.28.4c-.13.04-.1-.04.2-.5.18-.26.3-.38.49-.49.38-.2.7-.44.7-.53 0-.04.05-.14.13-.23l.12-.15.88-.03c1.74-.07 2.81-.38 3.7-1.08.76-.6 1.08-1.38 1.08-2.66 0-.42.02-.65.07-.7.03-.05.31-.24.61-.42a6.06 6.06 0 0 0 2.61-2.64c.4-.78.53-1.75.36-2.54-.2-.91-.65-1.53-1.8-2.4-.7-.56-.86-.73-.89-1.03-.03-.28.04-.33.59-.5.29-.07.56-.1 1.23-.1 1.08-.02 1.22-.1.53-.3-.17-.05-.3-.11-.28-.13s.18-.05.35-.06c.24 0 .32-.03.32-.1 0-.05-.24-.15-.82-.34a4.2 4.2 0 0 1-1.23-.54C21.58.58 21.2.48 20.78.67"/></svg>