<svg xmlns="http://www.w3.org/2000/svg" width="88" height="88" fill="none" viewBox="0 0 88 88"><g clip-path="url(#a)"><path fill="#2c232e" d="M68.235 0h-48.47C8.849 0 0 8.849 0 19.765v48.47C0 79.151 8.849 88 19.765 88h48.47C79.151 88 88 79.151 88 68.235v-48.47C88 8.849 79.151 0 68.235 0"/><path fill="#beaaff" d="M38.063 55.56c0-3.397-2.957-5.916-6.354-5.916H19.876V69.59h2.74v-8.116h6.506l5.655 8.108h3.286l-5.844-8.129c3.177-.234 5.844-2.669 5.844-5.893m-6.354 3.4h-9.093v-6.797h9.093c1.863 0 3.617 1.315 3.617 3.397 0 2.083-1.754 3.4-3.617 3.4m18.295-6.797h7.668v14.899h-7.668v2.52h18.187v-2.52h-7.67V52.163h7.67v-2.52H50.004zM35.326 35.836h-.769l-9.53-17.418h-5.151v19.938h2.74V20.938h.768l9.53 17.418h5.149V18.418h-2.737zm30.125-17.418v11.613c0 3.834-2.52 6.683-6.353 6.683-3.834 0-6.354-2.849-6.354-6.683V18.418h-2.74v11.613c0 5.257 3.834 9.202 9.093 9.202s9.094-3.945 9.094-9.202V18.418z"/></g><defs><clipPath id="a"><path fill="#fff" d="M0 0h88v88H0z"/></clipPath></defs></svg>