<svg xmlns="http://www.w3.org/2000/svg" xml:space="preserve" width="1477.08" height="361" fill="none" class="d-block w-100 h-auto mb-260 mb-lg-200 mb-x2l-280" viewBox="0 0 1477.08 361"><path fill="#000" d="M408.08 4.89h79.492c16.421 0 29.286 4.168 38.58 12.505s13.941 19.688 13.941 34.04c0 6.79-1.131 12.818-3.366 18.06-2.248 5.254-5.505 9.695-9.757 13.32-4.266 3.625-9.417 6.518-15.454 8.69 4.797 2.159 8.722 5.445 11.733 9.844 3.026 4.4 5.697 10.619 8.013 18.643l13.942 47.945h-33.702l-11.625-39.838c-1.703-6.178-3.53-10.89-5.464-14.135-1.935-3.246-4.607-5.635-8.013-7.183-3.407-1.548-7.986-2.322-13.71-2.322h-33.24v63.465h-31.37V4.875ZM483.156 79c8.054 0 14.337-1.97 18.834-5.907s6.746-9.994 6.746-18.181-2.249-13.932-6.746-17.72-10.766-5.676-18.834-5.676h-43.691V79h43.705zm132.026 92.63q-18.602 0-33.238-7.984c-9.758-5.322-17.321-12.695-22.663-22.119-5.342-9.409-8.013-20.231-8.013-32.425s2.711-23.042 8.135-32.533c5.424-9.492 12.974-16.946 22.664-22.35 9.675-5.404 20.809-8.107 33.361-8.107s23.167 2.703 32.775 8.107 17.089 12.858 22.431 22.35q8.013 14.236 8.013 32.302c0 12.044-2.671 23.043-8.013 32.534s-12.865 16.905-22.54 22.241c-9.69 5.323-20.647 7.984-32.884 7.984zm0-25.703c6.351 0 11.966-1.507 16.858-4.522 4.879-3.014 8.681-7.291 11.393-12.859 2.712-5.553 4.061-12.125 4.061-19.688s-1.363-13.89-4.061-19.458c-2.712-5.553-6.514-9.885-11.393-12.967s-10.493-4.63-16.858-4.63c-6.364 0-12.238 1.548-17.198 4.63-4.961 3.096-8.79 7.414-11.502 12.967s-4.061 12.044-4.061 19.458 1.349 14.121 4.061 19.688c2.712 5.554 6.541 9.845 11.502 12.859 4.96 3.015 10.698 4.522 17.198 4.522m137.615 25.703q-18.601 0-33.238-7.984c-9.757-5.322-17.321-12.695-22.663-22.119-5.342-9.409-8.013-20.231-8.013-32.425s2.712-23.042 8.136-32.533c5.423-9.492 12.973-16.946 22.663-22.35 9.676-5.404 20.81-8.107 33.361-8.107s23.167 2.703 32.775 8.107 17.089 12.858 22.431 22.35q8.013 14.236 8.014 32.302c0 12.044-2.672 23.043-8.014 32.534s-12.864 16.905-22.54 22.241c-9.69 5.323-20.646 7.984-32.884 7.984zm0-25.703c6.351 0 11.966-1.507 16.858-4.522 4.879-3.014 8.681-7.291 11.393-12.859 2.712-5.553 4.061-12.125 4.061-19.688s-1.363-13.89-4.061-19.458c-2.712-5.553-6.514-9.885-11.393-12.967s-10.493-4.63-16.858-4.63c-6.364 0-12.237 1.548-17.198 4.63-4.96 3.096-8.79 7.414-11.502 12.967s-4.061 12.044-4.061 19.458 1.349 14.121 4.061 19.688c2.712 5.554 6.542 9.845 11.502 12.859 4.961 3.015 10.698 4.522 17.198 4.522m124.122 25.011c-13.179 0-22.582-3.014-28.237-9.03-5.656-6.015-8.491-14.664-8.491-25.934V74.369h-18.125V49.82h18.125V18.78h30.677v31.04h23.944v24.55h-23.944v59.989c0 3.856 1.158 6.64 3.489 8.337s5.655 2.553 9.989 2.553c2.48 0 5.887-.312 10.221-.923v24.088c-6.051 1.697-11.938 2.552-17.662 2.552zm78.102.692c-14.881 0-26.887-3.353-36.032-10.075s-14.881-16.09-17.198-28.134l28.591-5.323c1.24 6.64 4.061 11.732 8.49 15.29 4.416 3.557 9.962 5.322 16.626 5.322 6.201 0 11.121-1.303 14.759-3.937 3.639-2.621 5.465-5.866 5.465-9.723 0-3.543-1.431-6.096-4.306-7.644s-8.095-3.245-15.686-5.092c-1.39-.312-2.712-.584-3.952-.815s-2.562-.502-3.952-.814c-9.758-2.322-17.594-4.821-23.481-7.523s-10.466-6.368-13.71-10.998c-3.243-4.63-4.878-10.66-4.878-18.06s1.976-14.202 5.928-19.919q5.928-8.574 16.966-13.32c7.36-3.164 15.85-4.753 25.457-4.753 13.478 0 24.326 3.015 32.544 9.03s13.628 14.515 16.271 25.473l-27.432 5.784c-1.554-5.404-4.062-9.654-7.55-12.736-3.489-3.082-8.095-4.63-13.833-4.63-5.11 0-9.457 1.154-13.014 3.476-3.571 2.322-5.342 5.322-5.342 9.03 0 3.706 1.662 6.055 5.001 7.522 3.325 1.466 9.417 3.123 18.248 4.983.463.15.886.271 1.281.353.381.081.818.19 1.281.353 10.698 2.322 19.174 4.793 25.457 7.414 6.282 2.62 11.079 6.287 14.418 10.998 3.325 4.712 5.001 10.931 5.001 18.643s-2.085 15.059-6.268 21.074c-4.184 6.015-10.112 10.659-17.785 13.89-7.672 3.246-16.776 4.861-27.31 4.861zm111.338-.692c-13.178 0-22.581-3.014-28.237-9.03-5.656-6.015-8.49-14.664-8.49-25.934V74.369h-18.125V49.82h18.125V18.78h30.676v31.04h23.944v24.55h-23.944v59.989c0 3.856 1.159 6.64 3.489 8.337s5.655 2.553 9.989 2.553c2.48 0 5.887-.312 10.221-.923v24.088c-6.051 1.697-11.938 2.552-17.662 2.552zm89.253.692q-18.602 0-33.238-7.984c-9.758-5.322-17.321-12.695-22.664-22.119-5.342-9.409-8.013-20.231-8.013-32.425s2.712-23.042 8.136-32.533c5.424-9.492 12.974-16.946 22.663-22.35 9.676-5.404 20.81-8.107 33.361-8.107 12.552 0 23.168 2.703 32.775 8.107 9.608 5.404 17.09 12.858 22.432 22.35q8.013 14.236 8.013 32.302c0 12.044-2.671 23.043-8.013 32.534s-12.865 16.905-22.541 22.241c-9.689 5.323-20.646 7.984-32.884 7.984zm0-25.703c6.351 0 11.965-1.507 16.858-4.522 4.879-3.014 8.681-7.291 11.393-12.859 2.712-5.553 4.061-12.125 4.061-19.688s-1.363-13.89-4.061-19.458c-2.712-5.553-6.514-9.885-11.393-12.967s-10.494-4.63-16.858-4.63-12.238 1.548-17.198 4.63c-4.961 3.096-8.79 7.414-11.502 12.967s-4.061 12.044-4.061 19.458 1.349 14.121 4.061 19.688c2.712 5.554 6.541 9.845 11.502 12.859 4.96 3.015 10.698 4.522 17.198 4.522m137.38 25.472q-18.603 0-33.239-7.984c-9.757-5.322-17.28-12.695-22.54-22.119-5.274-9.409-7.904-20.15-7.904-32.194s2.671-22.621 8.013-32.194 12.824-17.095 22.431-22.58q14.411-8.23 33.239-8.23c9.921 0 18.833 1.78 26.724 5.323 7.904 3.558 14.336 8.61 19.297 15.167 4.961 6.559 8.218 14.244 9.758 23.043l-28.823 3.938c-1.854-6.49-5.043-11.65-9.526-15.52-4.498-3.857-10.303-5.785-17.43-5.785-6.514 0-12.279 1.616-17.321 4.861s-8.831 7.645-11.393 13.198-3.83 11.664-3.83 18.29c0 6.627 1.309 12.968 3.952 18.535 2.63 5.553 6.392 9.953 11.271 13.198 4.878 3.245 10.657 4.861 17.321 4.861 7.127 0 12.973-1.887 17.552-5.676 4.566-3.788 7.714-8.839 9.417-15.167l29.287 4.169q-2.556 12.505-9.649 21.997c-4.729 6.327-11.039 11.392-18.943 15.167-7.904 3.788-17.13 5.675-27.664 5.675zM1364.813.014h29.982V91.72l43.245-41.916h38.11l-49.74 49.1 50.67 69.018h-36.03l-35.339-48.638-10.93 10.415v38.209H1364.8V0ZM408.08 194.258h31.385v135.485h78.786v27.564H408.08zm157.743 165.588c-7.754 0-14.527-1.358-20.333-4.047s-10.343-6.599-13.601-11.691c-3.257-5.092-4.878-10.957-4.878-17.597 0-10.347 3.761-18.602 11.27-24.781s18.329-10.265 32.421-12.274l25.334-4.169c3.72-.774 6.31-1.847 7.781-3.245 1.472-1.385 2.208-3.164 2.208-5.323h3.489v44.469c-2.644 12.356-7.863 21.888-15.686 28.61s-17.171 10.075-28.005 10.075zm18.125-124.364c10.534 0 19.76 1.819 27.665 5.445 7.904 3.625 13.9 8.69 18.016 15.167 4.102 6.49 6.159 13.972 6.159 22.458v78.741h-29.749v-80.601c0-4.63-1.935-8.459-5.806-11.46-3.87-3.014-9.226-4.522-16.04-4.522s-12.006 1.616-16.04 4.861c-4.034 3.246-6.582 7.726-7.672 13.429l-30.445-3.476c1.853-8.486 5.151-15.669 9.88-21.535s10.848-10.428 18.357-13.66c7.509-3.245 16.081-4.861 25.689-4.861zm-7.904 100.52c6.037 0 11.352-1.534 15.917-4.63q6.848-4.623 10.466-12.384 3.598-7.76 3.598-16.09v-2.783c-1.24.774-2.794 1.385-4.647 1.846a55 55 0 0 1-6.282 1.154l-15.345 2.553c-6.038 1.086-11.08 2.824-15.114 5.214s-6.037 6.138-6.037 11.229c0 4.318 1.581 7.727 4.77 10.184q4.763 3.707 12.674 3.707M726.666 361c-8.367 0-15.917-1.779-22.663-5.322s-12.674-8.419-17.784-14.597v16.212h-29.982V189.384h29.982v66.466c5.11-6.64 11.038-11.691 17.784-15.167q10.118-5.214 22.895-5.214 16.272 0 28.945 8.106c8.45 5.404 15.032 12.859 19.761 22.35s7.086 20.34 7.086 32.534-2.357 23.015-7.086 32.425c-4.729 9.423-11.311 16.796-19.761 22.119-8.449 5.322-18.166 7.984-29.177 7.984zm-7.672-26.41c6.514 0 12.197-1.466 17.089-4.399 4.879-2.933 8.681-7.142 11.393-12.628s4.061-11.854 4.061-19.104q0-16.437-8.831-26.397c-5.887-6.639-13.791-9.953-23.712-9.953-9.922 0-17.867 3.327-23.822 9.953q-8.953 9.96-8.953 26.397c0 7.264 1.349 13.632 4.061 19.104 2.712 5.486 6.541 9.695 11.502 12.628 4.96 2.933 10.697 4.399 17.198 4.399zM844.517 361c-14.881 0-26.887-3.354-36.032-10.075-9.144-6.722-14.881-16.091-17.198-28.135l28.591-5.322c1.24 6.64 4.061 11.731 8.49 15.289 4.416 3.557 9.963 5.323 16.627 5.323 6.2 0 11.12-1.304 14.759-3.938 3.638-2.621 5.464-5.866 5.464-9.722 0-3.544-1.431-6.097-4.306-7.645s-8.095-3.245-15.686-5.092c-1.39-.312-2.712-.583-3.952-.814s-2.562-.503-3.952-.815c-9.757-2.322-17.593-4.82-23.481-7.522-5.887-2.702-10.466-6.369-13.709-10.999s-4.879-10.659-4.879-18.059 1.976-14.203 5.928-19.919q5.928-8.575 16.967-13.321c7.359-3.163 15.849-4.752 25.457-4.752 13.478 0 24.325 3.014 32.543 9.03 8.218 6.015 13.628 14.515 16.272 25.472l-27.433 5.785c-1.554-5.404-4.061-9.654-7.55-12.737-3.489-3.082-8.095-4.63-13.832-4.63-5.111 0-9.458 1.154-13.015 3.476-3.571 2.322-5.342 5.323-5.342 9.03s1.662 6.056 5.001 7.522c3.325 1.467 9.417 3.123 18.248 4.983.463.15.886.272 1.281.353.382.082.818.191 1.281.353 10.698 2.322 19.174 4.794 25.457 7.414 6.282 2.621 11.079 6.287 14.418 10.999 3.325 4.711 5.002 10.93 5.002 18.643 0 7.712-2.086 15.058-6.269 21.073-4.184 6.015-10.112 10.659-17.785 13.891-7.672 3.245-16.776 4.861-27.31 4.861z" style="fill:#fff;fill-opacity:1"/><path d="M159.11 6.848c-26.718 0-48.34 21.476-48.34 47.986 0 26.511 21.625 47.985 48.34 47.985 26.718 0 48.342-21.475 48.342-47.985S185.826 6.848 159.11 6.848M49.606 69.972c-17.163-.41-34.024 8.344-43.18 24.128-13.32 22.959-5.243 52.308 17.894 65.527 15.775 9.044 34.685 8.248 49.236-.456 18.229-10.958 37.296-.023 36.769 21.189v1.066c0 18.263 10.213 34.027 25.462 42.2 18.404 10.262 18.404 32.025 0 42.112-.702.364-1.436.897-2.137 1.244-18.229 10.783-37.294-.228-36.769-21.277.174-8.523-1.942-17.195-6.499-25.196-13.32-22.959-42.926-30.757-66.06-17.54-23.136 13.566-31.039 42.924-17.717 65.883 13.321 22.96 42.926 30.846 66.06 17.628.351-.183.54-.364.89-.533 18.23-10.958 37.296-.035 36.77 21.189v1.244c0 26.437 21.789 47.986 48.432 47.986 26.642 0 48.341-21.55 48.341-47.986v-1.066c-.526-21.218 18.809-32.147 37.038-21.189.351.183.628.274.979.624 23.136 13.217 52.831 5.42 66.151-17.54 13.321-23.48 5.42-52.84-17.717-66.06-23.138-13.218-52.737-5.419-66.06 17.54a47.73 47.73 0 0 0-6.5 25.018c.527 21.22-18.807 32.235-37.036 21.278-.701-.364-1.35-.898-2.226-1.245-18.404-10.26-18.404-32.024 0-42.111 15.074-8.175 25.373-23.938 25.373-42.2v-1.067c-.526-21.22 18.808-32.147 37.037-21.189 14.548 8.87 33.46 9.491 49.236.456 23.138-13.218 31.037-42.566 17.717-65.527s-43.01-30.757-66.151-17.54c-15.775 9.045-24.479 25.687-24.128 42.558.526 21.218-18.805 32.149-36.858 21.19-7.36-4.523-15.906-7.123-25.195-7.123s-17.923 2.685-25.285 7.033c-18.229 10.784-37.296-.227-36.769-21.277.352-17.045-8.441-33.512-24.216-42.558-7.23-4.13-15.08-6.232-22.88-6.41z" style="fill:#fff;stroke-width:12.0607"/></svg>