<svg version="1.1" viewBox="0 0 1052.2 1050.3" xmlns="http://www.w3.org/2000/svg">
 <defs>
  <style>.cls-1{fill:#006e3c;}.cls-2{fill:#fff;}.cls-3{fill:#ff9931;}.cls-4{fill:#06b23c;}</style>
 </defs>
 <path class="cls-3" d="m508.19 932.85c-54.74 0-107.85-10.72-157.85-31.87-48.29-20.43-91.66-49.66-128.9-86.91s-66.48-80.61-86.91-128.9c-21.15-50-31.87-103.11-31.87-157.85s10.72-107.85 31.87-157.85c20.43-48.29 49.66-91.66 86.91-128.9s80.61-66.48 128.9-86.91c50-21.15 103.11-31.87 157.85-31.87s107.85 10.72 157.85 31.87c48.29 20.43 91.66 49.66 128.9 86.91s66.48 80.61 86.91 128.9c21.15 50 31.87 103.11 31.87 157.85s-10.72 107.85-31.87 157.85c-20.43 48.29-49.66 91.66-86.91 128.9s-80.61 66.48-128.9 86.91c-50 21.15-103.11 31.87-157.85 31.87z"/>
 <path class="cls-1" d="m984.35 274.24c-21.04-9.04-51.76-19.22-85.17-20.42-27.45-1.01-52.21 4.3-73.54 15.76-4.34 2.35-8.48 4.91-12.36 7.64-34.17 23.94-51.63 61.74-60.37 90.65l-3.75 12.38 11.37-6.06 60.06-32.16c3.76-2.06 7.96-3.04 12.23-2.89 8.45 0.31 15.97 4.88 20.15 12.24 0.06 0.09 0.13 0.15 0.16 0.24l0.33 0.6c0.39 0.73 0.73 1.5 1.03 2.26l138.47-76.7c-1.26-0.58-7.27-2.95-8.61-3.54z"/>
 <path class="cls-4" d="m962.42 367.05c-68.6 113.38-190.82 56.91-190.82 56.91l44.09-23.66c3.68-2.19 27.72-14.86 27.72-14.86 21.14-13.4 9.09-34.3 10.05-32.27l139.5-75.39s-2.72 43.28-30.55 89.26z"/>
 <path class="cls-2" d="m1030.6 242.2c-6.05-3.54-61.86-35.27-129.55-37.72-36.02-1.31-69.11 5.98-98.13 21.64-9.72 5.24-18.55 11.15-26.6 17.62-61.12 48.89-76.94 128.1-81.02 162.91l-0.33 2.77-2.45 1.37-17.94 9.56c-17.13-17.58-42.71-30.46-62.31-35.84-1.16-0.32-2.31-0.63-3.46-0.95l17.92-71.34-42.56-11.01-17.78 70.8c-11.08-2.99-21.79-5.86-32.07-8.59l17.71-70.52-42.56-11.01-17.66 70.3c-51.65-13.52-84.73-21.75-84.73-21.75s-7.13 35.76-10.21 44.35c0 0 8.77 2.12 18.22 4.89 6.2 1.81 36.63 5.07 26.47 42.79-5.7 21.17-38.91 163.12-41.5 172.82-3.01 11.28-6.1 17.63-20.1 14.51-21.79-4.86-33.97-7.57-33.97-7.57l-21.31 50.81c7.75 2.66 34.48 8.85 85.2 21.69l-17.61 70.11 42.56 11.01 17.63-70.2c10.04 2.61 20.77 5.41 32.11 8.41l-17.6 70.1 42.56 11.01 17.89-71.24c49.5 9.21 78.03 6.29 84.8 5.03 41.32-7.66 58.89-39.44 66.52-69.79 21.47-85.49-48.92-93.02-40.01-94.82 39.4-7.96 58.24-45.62 56.1-79.07l20.12-10.75 2.49-1.36 2.42 1.34c26.35 13.71 67.61 30.4 114.46 32.12 29.79 1.06 57.72-4.28 83.2-15.87 3.6-1.63 7.14-3.4 10.61-5.27 100.39-53.97 113.38-185.43 114.51-200.22l0.98-15.27-13.02-7.79zm-436.2 379.24c-11.7 46.6-90.72 23.1-90.72 23.1l-37.52-9.7 23.4-93.2 44.82 11.59s73.17 15.85 60.02 68.21zm14.07-138.9c-10.74 42.75-76.52 22.92-76.52 22.92l-31.27-8.09 21.47-85.49 37.35 9.66s61.03 12.97 48.97 61zm383.04-201.09-0.06 0.52c-6.93 38.73-27.34 108.44-86.11 140.02-0.5 0.27-1.03 0.54-1.57 0.8-20.17 10.5-43.02 15.37-67.97 14.43-16.67-0.57-34.09-3.76-51.94-9.38l-12.22-3.89 11.3-6.08 60.52-32.44c5.65-3.04 9.88-8.21 11.81-14.49 0.61-2.14 0.93-4.22 0.98-6.39 0.13-3.43-0.43-6.87-1.72-10.08-0.3-0.76-0.64-1.52-1.03-2.26l-0.33-0.6c-0.02-0.09-0.09-0.14-0.16-0.24-4.18-7.36-11.7-11.93-20.15-12.24-4.27-0.14-8.47 0.84-12.23 2.89l-60.06 32.16-11.37 6.06 3.75-12.38c8.74-28.91 26.19-66.72 60.37-90.65 3.89-2.73 8.02-5.28 12.36-7.64 21.32-11.46 46.09-16.78 73.54-15.76 33.41 1.2 64.12 11.37 85.17 20.42 1.34 0.59 2.66 1.14 3.92 1.72l3.74 1.82-0.54 3.66z"/>
</svg>
