<?xml version="1.0" encoding="UTF-8" standalone="no"?>
<svg
   class="d-block w-100 h-auto mb-260 mb-lg-200 mb-x2l-280"
   width="1477.08"
   height="361"
   viewBox="0 0 1477.08 361"
   fill="none"
   version="1.1"
   id="svg13"
   sodipodi:docname="rootstocklabs.svg"
   inkscape:version="1.4.1-rc (d9e8dc1fe0, 2025-03-10)"
   xml:space="preserve"
   xmlns:inkscape="http://www.inkscape.org/namespaces/inkscape"
   xmlns:sodipodi="http://sodipodi.sourceforge.net/DTD/sodipodi-0.dtd"
   xmlns="http://www.w3.org/2000/svg"
   xmlns:svg="http://www.w3.org/2000/svg"><defs
     id="defs13" /><sodipodi:namedview
     id="namedview13"
     pagecolor="#ffffff"
     bordercolor="#000000"
     borderopacity="0.25"
     inkscape:showpageshadow="2"
     inkscape:pageopacity="0.0"
     inkscape:pagecheckerboard="0"
     inkscape:deskcolor="#d1d1d1"
     inkscape:zoom="0.8575772"
     inkscape:cx="912.4543"
     inkscape:cy="463.51512"
     inkscape:window-width="3774"
     inkscape:window-height="2083"
     inkscape:window-x="0"
     inkscape:window-y="0"
     inkscape:window-maximized="1"
     inkscape:current-layer="svg13" /><path
     d="m 408.08004,4.88908 h 79.4915 c 16.4216,0 29.2865,4.16853 38.5805,12.50562 9.294,8.3371 13.941,19.6885 13.941,34.0408 0,6.7892 -1.131,12.8179 -3.366,18.0592 -2.248,5.2548 -5.505,9.6949 -9.757,13.3203 -4.266,3.6254 -9.417,6.5176 -15.454,8.6901 4.797,2.1589 8.722,5.4449 11.733,9.8439 3.026,4.4 5.697,10.619 8.013,18.643 l 13.942,47.945 h -33.702 l -11.6246,-39.838 c -1.7034,-6.178 -3.5296,-10.89 -5.4647,-14.135 -1.9352,-3.246 -4.6063,-5.635 -8.0132,-7.183 -3.407,-1.548 -7.986,-2.322 -13.7097,-2.322 h -33.2384 v 63.465 h -31.3714 V 4.87549 Z m 75.076,74.11042 c 8.0541,0 14.3366,-1.9689 18.8338,-5.9066 4.4972,-3.9377 6.7462,-9.9936 6.7462,-18.1813 0,-8.1878 -2.249,-13.9314 -6.7462,-17.7198 -4.4972,-3.7883 -10.7661,-5.6757 -18.8338,-5.6757 h -43.691 v 47.4834 h 43.7047 z"
     fill="#000"
     id="path1"
     style="fill:#ffffff;fill-opacity:1" /><path
     d="m 615.18204,171.63 c -12.401,0 -23.481,-2.661 -33.238,-7.984 -9.758,-5.322 -17.321,-12.695 -22.663,-22.119 -5.342,-9.409 -8.013,-20.231 -8.013,-32.425 0,-12.193 2.711,-23.0421 8.135,-32.5333 5.424,-9.4913 12.974,-16.9457 22.664,-22.3499 9.675,-5.4042 20.809,-8.1063 33.361,-8.1063 12.551,0 23.167,2.7021 32.775,8.1063 9.607,5.4042 17.089,12.8586 22.431,22.3499 5.342,9.4912 8.013,20.2588 8.013,32.3023 0,12.044 -2.671,23.043 -8.013,32.534 -5.342,9.491 -12.865,16.905 -22.54,22.241 -9.69,5.323 -20.647,7.984 -32.884,7.984 z m 0,-25.703 c 6.351,0 11.966,-1.507 16.858,-4.522 4.879,-3.014 8.681,-7.291 11.393,-12.859 2.712,-5.553 4.061,-12.125 4.061,-19.688 0,-7.563 -1.363,-13.8907 -4.061,-19.4578 -2.712,-5.5535 -6.514,-9.885 -11.393,-12.9673 -4.879,-3.0822 -10.493,-4.6302 -16.858,-4.6302 -6.364,0 -12.238,1.548 -17.198,4.6302 -4.961,3.0959 -8.79,7.4138 -11.502,12.9673 -2.712,5.5535 -4.061,12.0438 -4.061,19.4578 0,7.414 1.349,14.121 4.061,19.688 2.712,5.554 6.541,9.845 11.502,12.859 4.96,3.015 10.698,4.522 17.198,4.522 z"
     fill="#000"
     id="path2"
     style="fill:#ffffff;fill-opacity:1" /><path
     d="m 752.79704,171.63 c -12.401,0 -23.48,-2.661 -33.238,-7.984 -9.757,-5.322 -17.321,-12.695 -22.663,-22.119 -5.342,-9.409 -8.013,-20.231 -8.013,-32.425 0,-12.193 2.712,-23.0421 8.136,-32.5333 5.423,-9.4913 12.973,-16.9457 22.663,-22.3499 9.676,-5.4042 20.81,-8.1063 33.361,-8.1063 12.551,0 23.167,2.7021 32.775,8.1063 9.608,5.4042 17.089,12.8586 22.431,22.3499 5.342,9.4912 8.014,20.2588 8.014,32.3023 0,12.044 -2.672,23.043 -8.014,32.534 -5.342,9.491 -12.864,16.905 -22.54,22.241 -9.69,5.323 -20.646,7.984 -32.884,7.984 z m 0,-25.703 c 6.351,0 11.966,-1.507 16.858,-4.522 4.879,-3.014 8.681,-7.291 11.393,-12.859 2.712,-5.553 4.061,-12.125 4.061,-19.688 0,-7.563 -1.363,-13.8907 -4.061,-19.4578 -2.712,-5.5535 -6.514,-9.885 -11.393,-12.9673 -4.879,-3.0822 -10.493,-4.6302 -16.858,-4.6302 -6.364,0 -12.237,1.548 -17.198,4.6302 -4.96,3.0959 -8.79,7.4138 -11.502,12.9673 -2.712,5.5535 -4.061,12.0438 -4.061,19.4578 0,7.414 1.349,14.121 4.061,19.688 2.712,5.554 6.542,9.845 11.502,12.859 4.961,3.015 10.698,4.522 17.198,4.522 z"
     fill="#000"
     id="path3"
     style="fill:#ffffff;fill-opacity:1" /><path
     d="m 876.91904,170.938 c -13.179,0 -22.582,-3.014 -28.237,-9.03 -5.656,-6.015 -8.491,-14.664 -8.491,-25.934 V 74.3691 h -18.125 V 49.8196 h 18.125 V 18.7795 h 30.677 v 31.0401 h 23.944 v 24.5495 h -23.944 v 59.9889 c 0,3.856 1.158,6.64 3.489,8.337 2.33,1.697 5.655,2.553 9.989,2.553 2.48,0 5.887,-0.312 10.221,-0.923 v 24.088 c -6.051,1.697 -11.938,2.552 -17.662,2.552 z"
     fill="#000"
     id="path4"
     style="fill:#ffffff;fill-opacity:1" /><path
     d="m 955.02104,171.63 c -14.881,0 -26.887,-3.353 -36.032,-10.075 -9.144,-6.721 -14.881,-16.09 -17.198,-28.134 l 28.591,-5.323 c 1.24,6.64 4.061,11.732 8.49,15.29 4.416,3.557 9.962,5.322 16.626,5.322 6.201,0 11.121,-1.303 14.759,-3.937 3.639,-2.621 5.465,-5.866 5.465,-9.723 0,-3.543 -1.431,-6.096 -4.306,-7.644 -2.876,-1.548 -8.095,-3.245 -15.686,-5.092 -1.39,-0.312 -2.712,-0.584 -3.952,-0.815 -1.24,-0.23 -2.562,-0.502 -3.952,-0.814 -9.758,-2.322 -17.594,-4.821 -23.481,-7.523 -5.887,-2.702 -10.466,-6.368 -13.71,-10.998 -3.243,-4.6304 -4.878,-10.6591 -4.878,-18.0593 0,-7.4002 1.976,-14.203 5.928,-19.9194 3.952,-5.7165 9.607,-10.1566 16.966,-13.3203 7.36,-3.1638 15.85,-4.7525 25.457,-4.7525 13.478,0 24.326,3.0144 32.544,9.0296 8.217,6.0152 13.62796,14.5152 16.27096,25.4729 l -27.43196,5.7844 c -1.554,-5.4042 -4.062,-9.6542 -7.55,-12.7364 -3.489,-3.0823 -8.095,-4.6303 -13.833,-4.6303 -5.11,0 -9.457,1.1542 -13.014,3.4761 -3.571,2.3219 -5.342,5.3227 -5.342,9.0296 0,3.7068 1.662,6.0559 5.001,7.5223 3.325,1.4665 9.417,3.1231 18.248,4.9833 0.463,0.1494 0.886,0.2715 1.281,0.353 0.381,0.0815 0.818,0.1901 1.281,0.3531 10.698,2.3219 19.174,4.7931 25.457,7.4139 6.282,2.62 11.079,6.287 14.41796,10.998 3.325,4.712 5.001,10.931 5.001,18.643 0,7.713 -2.085,15.059 -6.268,21.074 -4.18396,6.015 -10.11196,10.659 -17.78496,13.89 -7.672,3.246 -16.776,4.861 -27.31,4.861 z"
     fill="#000"
     id="path5"
     style="fill:#ffffff;fill-opacity:1" /><path
     d="m 1066.359,170.938 c -13.178,0 -22.581,-3.014 -28.237,-9.03 -5.656,-6.015 -8.49,-14.664 -8.49,-25.934 V 74.3691 h -18.125 V 49.8196 h 18.125 V 18.7795 h 30.676 v 31.0401 h 23.944 v 24.5495 h -23.944 v 59.9889 c 0,3.856 1.159,6.64 3.489,8.337 2.33,1.697 5.655,2.553 9.989,2.553 2.48,0 5.887,-0.312 10.221,-0.923 v 24.088 c -6.051,1.697 -11.938,2.552 -17.662,2.552 z"
     fill="#000"
     id="path6"
     style="fill:#ffffff;fill-opacity:1" /><path
     d="m 1155.612,171.63 c -12.401,0 -23.481,-2.661 -33.238,-7.984 -9.758,-5.322 -17.321,-12.695 -22.664,-22.119 -5.342,-9.409 -8.013,-20.231 -8.013,-32.425 0,-12.193 2.712,-23.0421 8.136,-32.5333 5.424,-9.4913 12.974,-16.9457 22.663,-22.3499 9.676,-5.4042 20.81,-8.1063 33.361,-8.1063 12.552,0 23.168,2.7021 32.775,8.1063 9.608,5.4042 17.09,12.8586 22.432,22.3499 5.342,9.4912 8.013,20.2588 8.013,32.3023 0,12.044 -2.671,23.043 -8.013,32.534 -5.342,9.491 -12.865,16.905 -22.541,22.241 -9.689,5.323 -20.646,7.984 -32.884,7.984 z m 0,-25.703 c 6.351,0 11.965,-1.507 16.858,-4.522 4.879,-3.014 8.681,-7.291 11.393,-12.859 2.712,-5.553 4.061,-12.125 4.061,-19.688 0,-7.563 -1.363,-13.8907 -4.061,-19.4578 -2.712,-5.5535 -6.514,-9.885 -11.393,-12.9673 -4.879,-3.0822 -10.494,-4.6302 -16.858,-4.6302 -6.364,0 -12.238,1.548 -17.198,4.6302 -4.961,3.0959 -8.79,7.4138 -11.502,12.9673 -2.712,5.5535 -4.061,12.0438 -4.061,19.4578 0,7.414 1.349,14.121 4.061,19.688 2.712,5.554 6.541,9.845 11.502,12.859 4.96,3.015 10.698,4.522 17.198,4.522 z"
     fill="#000"
     id="path7"
     style="fill:#ffffff;fill-opacity:1" /><path
     d="m 1292.992,171.399 c -12.402,0 -23.481,-2.661 -33.239,-7.984 -9.757,-5.322 -17.28,-12.695 -22.54,-22.119 -5.274,-9.409 -7.904,-20.15 -7.904,-32.194 0,-12.0437 2.671,-22.6213 8.013,-32.194 5.342,-9.5727 12.824,-17.095 22.431,-22.5807 9.608,-5.4856 20.687,-8.2284 33.239,-8.2284 9.921,0 18.833,1.7787 26.724,5.3226 7.904,3.5576 14.336,8.6087 19.297,15.167 4.961,6.5584 8.218,14.2437 9.758,23.0424 l -28.823,3.9377 c -1.854,-6.4904 -5.043,-11.6502 -9.526,-15.52 -4.498,-3.8562 -10.303,-5.7843 -17.43,-5.7843 -6.514,0 -12.279,1.6158 -17.321,4.861 -5.043,3.2452 -8.831,7.6446 -11.393,13.1981 -2.562,5.5535 -3.83,11.6636 -3.83,18.2896 0,6.627 1.309,12.968 3.952,18.535 2.63,5.553 6.392,9.953 11.271,13.198 4.878,3.245 10.657,4.861 17.321,4.861 7.127,0 12.973,-1.887 17.552,-5.676 4.566,-3.788 7.714,-8.839 9.417,-15.167 l 29.287,4.169 c -1.704,8.337 -4.92,15.669 -9.649,21.997 -4.729,6.327 -11.039,11.392 -18.943,15.167 -7.904,3.788 -17.13,5.675 -27.664,5.675 z"
     fill="#000"
     id="path8"
     style="fill:#ffffff;fill-opacity:1" /><path
     d="m 1364.813,0.0136 h 29.982 v 91.7078 l 43.245,-41.9162 h 38.11 l -49.74,49.0992 50.67,69.0186 h -36.03 l -35.339,-48.638 -10.93,10.415 v 38.209 H 1364.8 V 0 Z"
     fill="#000"
     id="path9"
     style="fill:#ffffff;fill-opacity:1" /><path
     d="m 408.08004,194.258 h 31.385 v 135.485 h 78.786 v 27.564 h -110.171 z"
     fill="#000"
     id="path10"
     style="fill:#ffffff;fill-opacity:1" /><path
     d="m 565.82304,359.846 c -7.754,0 -14.527,-1.358 -20.333,-4.047 -5.805,-2.688 -10.343,-6.599 -13.601,-11.691 -3.257,-5.092 -4.878,-10.957 -4.878,-17.597 0,-10.347 3.761,-18.602 11.27,-24.781 7.509,-6.178 18.329,-10.265 32.421,-12.274 l 25.334,-4.169 c 3.72,-0.774 6.31,-1.847 7.781,-3.245 1.472,-1.385 2.208,-3.164 2.208,-5.323 h 3.489 v 44.469 c -2.644,12.356 -7.863,21.888 -15.686,28.61 -7.822,6.721 -17.171,10.075 -28.005,10.075 z m 18.125,-124.364 c 10.534,0 19.76,1.819 27.665,5.445 7.904,3.625 13.9,8.69 18.016,15.167 4.102,6.49 6.159,13.972 6.159,22.458 v 78.741 h -29.749 v -80.601 c 0,-4.63 -1.935,-8.459 -5.806,-11.46 -3.87,-3.014 -9.226,-4.522 -16.04,-4.522 -6.814,0 -12.006,1.616 -16.04,4.861 -4.034,3.246 -6.582,7.726 -7.672,13.429 l -30.445,-3.476 c 1.853,-8.486 5.151,-15.669 9.88,-21.535 4.729,-5.866 10.848,-10.428 18.357,-13.66 7.509,-3.245 16.081,-4.861 25.689,-4.861 z m -7.904,100.52 c 6.037,0 11.352,-1.534 15.917,-4.63 4.566,-3.082 8.054,-7.21 10.466,-12.384 2.399,-5.173 3.598,-10.536 3.598,-16.09 v -2.783 c -1.24,0.774 -2.794,1.385 -4.647,1.846 -1.853,0.462 -3.952,0.856 -6.282,1.154 l -15.345,2.553 c -6.038,1.086 -11.08,2.824 -15.114,5.214 -4.034,2.39 -6.037,6.138 -6.037,11.229 0,4.318 1.581,7.727 4.77,10.184 3.175,2.471 7.4,3.707 12.674,3.707 z"
     fill="#000"
     id="path11"
     style="fill:#ffffff;fill-opacity:1" /><path
     d="m 726.66604,361 c -8.367,0 -15.917,-1.779 -22.663,-5.322 -6.746,-3.544 -12.674,-8.419 -17.784,-14.597 v 16.212 h -29.982 V 189.384 h 29.982 v 66.466 c 5.11,-6.64 11.038,-11.691 17.784,-15.167 6.746,-3.476 14.377,-5.214 22.895,-5.214 10.848,0 20.496,2.702 28.945,8.106 8.45,5.404 15.032,12.859 19.761,22.35 4.729,9.491 7.086,20.34 7.086,32.534 0,12.193 -2.357,23.015 -7.086,32.425 -4.729,9.423 -11.311,16.796 -19.761,22.119 -8.449,5.322 -18.166,7.984 -29.177,7.984 z m -7.672,-26.41 c 6.514,0 12.197,-1.466 17.089,-4.399 4.879,-2.933 8.681,-7.142 11.393,-12.628 2.712,-5.485 4.061,-11.854 4.061,-19.104 0,-10.958 -2.944,-19.757 -8.831,-26.397 -5.887,-6.639 -13.791,-9.953 -23.712,-9.953 -9.922,0 -17.867,3.327 -23.822,9.953 -5.969,6.64 -8.953,15.439 -8.953,26.397 0,7.264 1.349,13.632 4.061,19.104 2.712,5.486 6.541,9.695 11.502,12.628 4.96,2.933 10.697,4.399 17.198,4.399 z"
     fill="#000"
     id="path12"
     style="fill:#ffffff;fill-opacity:1" /><path
     d="m 844.51704,361 c -14.881,0 -26.887,-3.354 -36.032,-10.075 -9.144,-6.722 -14.881,-16.091 -17.198,-28.135 l 28.591,-5.322 c 1.24,6.64 4.061,11.731 8.49,15.289 4.416,3.557 9.963,5.323 16.627,5.323 6.2,0 11.12,-1.304 14.759,-3.938 3.638,-2.621 5.464,-5.866 5.464,-9.722 0,-3.544 -1.431,-6.097 -4.306,-7.645 -2.876,-1.548 -8.095,-3.245 -15.686,-5.092 -1.39,-0.312 -2.712,-0.583 -3.952,-0.814 -1.24,-0.231 -2.562,-0.503 -3.952,-0.815 -9.757,-2.322 -17.593,-4.82 -23.481,-7.522 -5.887,-2.702 -10.466,-6.369 -13.709,-10.999 -3.244,-4.63 -4.879,-10.659 -4.879,-18.059 0,-7.4 1.976,-14.203 5.928,-19.919 3.952,-5.717 9.607,-10.157 16.967,-13.321 7.359,-3.163 15.849,-4.752 25.457,-4.752 13.478,0 24.325,3.014 32.543,9.03 8.218,6.015 13.628,14.515 16.272,25.472 l -27.433,5.785 c -1.554,-5.404 -4.061,-9.654 -7.55,-12.737 -3.489,-3.082 -8.095,-4.63 -13.832,-4.63 -5.111,0 -9.458,1.154 -13.015,3.476 -3.571,2.322 -5.342,5.323 -5.342,9.03 0,3.707 1.662,6.056 5.001,7.522 3.325,1.467 9.417,3.123 18.248,4.983 0.463,0.15 0.886,0.272 1.281,0.353 0.382,0.082 0.818,0.191 1.281,0.353 10.698,2.322 19.174,4.794 25.457,7.414 6.282,2.621 11.079,6.287 14.418,10.999 3.325,4.711 5.002,10.93 5.002,18.643 0,7.712 -2.086,15.058 -6.269,21.073 -4.184,6.015 -10.112,10.659 -17.785,13.891 -7.672,3.245 -16.776,4.861 -27.31,4.861 z"
     fill="#000"
     id="path13"
     style="fill:#ffffff;fill-opacity:1" /><path
     d="m 159.1108,6.8481873 c -26.71844,0 -48.34101,21.4755067 -48.34101,47.9855967 0,26.511582 21.62569,47.985586 48.34101,47.985586 26.71692,0 48.341,-21.475618 48.341,-47.985586 0,-26.51009 -21.62569,-47.9855967 -48.341,-47.9855967 z M 49.604935,69.972456 c -17.16258,-0.410223 -34.02348,8.343247 -43.1808297,24.127708 -13.31957,22.958606 -5.24166,52.307606 17.8949597,65.526636 15.77456,9.04429 34.68533,8.24845 49.23578,-0.4562 18.22903,-10.9575 37.296075,-0.023 36.769115,21.18905 v 1.06635 c 0,18.26268 10.21302,34.02657 25.46199,42.2003 18.4037,10.26153 18.4037,32.0242 0,42.11151 -0.70208,0.36425 -1.43636,0.89743 -2.13648,1.24457 -18.22901,10.78308 -37.294555,-0.22868 -36.769085,-21.27788 0.17349,-8.52235 -1.94218,-17.19482 -6.4993,-25.19553 -13.32094,-22.95862 -42.92653,-30.75708 -66.05984,-17.53955 -23.1363997,13.56568 -31.0389697,42.92356 -17.7172997,65.88218 13.3214097,22.96012 42.9265197,30.8459 66.0598197,17.62837 0.35158,-0.18265 0.54005,-0.36425 0.89053,-0.53318 18.22901,-10.95749 37.296165,-0.0344 36.769085,21.18906 v 1.24456 c 0,26.43644 21.78965,47.9856 48.43292,47.9856 26.6419,0 48.34111,-21.55067 48.34111,-47.9856 v -1.06636 c -0.52625,-21.21821 18.80816,-32.14665 37.03717,-21.18902 0.35162,0.18264 0.62853,0.27349 0.979,0.62393 23.13629,13.21697 52.83162,5.4193 66.15176,-17.53954 13.32095,-23.47964 5.41954,-52.84094 -17.71732,-66.05995 -23.13787,-13.21832 -52.73657,-5.41952 -66.05983,17.53958 -4.55646,7.82638 -6.67386,16.49471 -6.49931,25.01776 0.52627,21.21971 -18.80813,32.23562 -37.03714,21.27798 -0.70094,-0.36424 -1.34881,-0.89742 -2.2259,-1.24455 -18.40367,-10.26096 -18.40367,-32.02407 0,-42.11152 15.07457,-8.17452 25.37321,-23.93762 25.37321,-42.20031 v -1.06634 c -0.5263,-21.21973 18.80812,-32.14668 37.03714,-21.18903 14.5477,8.87054 33.45973,9.49139 49.23579,0.45616 23.13788,-13.21843 31.03747,-42.56653 17.71732,-65.526744 -13.32094,-22.960116 -43.01087,-30.756977 -66.15176,-17.539562 -15.77458,9.04441 -24.4785,25.685846 -24.1277,42.557316 0.5263,21.21825 -18.80503,32.1483 -36.85788,21.18905 -7.36079,-4.52185 -15.90627,-7.12246 -25.19542,-7.12246 -9.29044,0 -17.92267,2.68495 -25.28436,7.03362 -18.229,10.78345 -37.296165,-0.22748 -36.769105,-21.27785 0.35162,-17.04476 -8.44112,-33.511764 -24.21651,-42.557322 -7.23048,-4.130029 -15.07962,-6.23262 -22.88048,-6.41003 z"
     style="fill:#ffffff;stroke-width:12.0607"
     id="path1-3" /></svg>
