<svg xmlns="http://www.w3.org/2000/svg" width="32" height="34" viewBox="0 0 24 24"><path d="M12.018.548c-1.744 0-3.155 1.402-3.155 3.132s1.411 3.132 3.155 3.132 3.155-1.401 3.155-3.132c0-1.73-1.411-3.132-3.155-3.132m-7.147 4.12a3.17 3.17 0 0 0-2.819 1.575c-.87 1.499-.342 3.414 1.168 4.277 1.03.59 2.264.539 3.214-.03 1.19-.715 2.434-.001 2.4 1.383v.07c0 1.192.666 2.221 1.662 2.755 1.2.67 1.2 2.09 0 2.748-.046.024-.094.059-.14.081-1.19.704-2.434-.015-2.4-1.388a3.2 3.2 0 0 0-.424-1.645c-.87-1.498-2.802-2.007-4.312-1.145-1.51.886-2.026 2.802-1.156 4.3a3.17 3.17 0 0 0 4.312 1.15c.023-.011.035-.023.058-.034 1.19-.715 2.434-.002 2.4 1.383v.081c0 1.726 1.422 3.132 3.16 3.132 1.74 0 3.156-1.406 3.156-3.132v-.07c-.034-1.384 1.228-2.097 2.417-1.382.023.012.041.018.064.04 1.51.863 3.449.354 4.318-1.144.87-1.533.354-3.45-1.156-4.312s-3.442-.354-4.312 1.145a3.1 3.1 0 0 0-.424 1.633c.034 1.385-1.228 2.104-2.418 1.388-.045-.023-.088-.058-.145-.08-1.201-.67-1.201-2.09 0-2.75a3.13 3.13 0 0 0 1.656-2.754v-.07c-.034-1.384 1.228-2.098 2.418-1.382a3.16 3.16 0 0 0 3.213.03 3.12 3.12 0 0 0 1.157-4.278c-.87-1.498-2.808-2.007-4.318-1.144a3.13 3.13 0 0 0-1.575 2.777c.034 1.385-1.227 2.099-2.406 1.383a3.1 3.1 0 0 0-1.644-.464 3.24 3.24 0 0 0-1.65.459c-1.19.703-2.435-.015-2.4-1.39a3.12 3.12 0 0 0-1.58-2.777A3.15 3.15 0 0 0 4.87 4.67z" style="fill:#ff9100;stroke-width:.78719"/></svg>