<svg width="32" height="34" version="1.1" viewBox="0 0 24 24" xmlns="http://www.w3.org/2000/svg">
 <path d="m12.018 0.54843c-1.7439 0-3.1552 1.4017-3.1552 3.132 0 1.7304 1.4115 3.132 3.1552 3.132 1.7438 0 3.1552-1.4017 3.1552-3.132 0-1.7303-1.4115-3.132-3.1552-3.132zm-7.1474 4.1201c-1.1202-0.026777-2.2207 0.54456-2.8184 1.5748-0.86936 1.4985-0.34212 3.4141 1.168 4.2769 1.0296 0.59032 2.2639 0.53837 3.2136-0.02975 1.1898-0.71519 2.4343-0.0019 2.3999 1.383v0.06962c0 1.192 0.6666 2.2209 1.6619 2.7544 1.2012 0.66976 1.2012 2.0902 0 2.7486-0.04582 0.0238-0.09375 0.05861-0.13945 0.08123-1.1898 0.70381-2.4342-0.014885-2.3999-1.3888 0.011306-0.55625-0.12677-1.1223-0.42421-1.6445-0.86945-1.4985-2.8018-2.0075-4.3117-1.1448-1.5101 0.88543-2.0259 2.8016-1.1564 4.3001 0.86948 1.4986 2.8018 2.0133 4.3117 1.1506 0.02291-0.0119 0.035227-0.0238 0.058107-0.03481 1.1898-0.71519 2.4343-2e-3 2.3999 1.383v0.08123c0 1.7255 1.4222 3.132 3.1612 3.132 1.7389 0 3.1552-1.4066 3.1552-3.132v-0.06962c-0.03434-1.3849 1.2276-2.0982 2.4174-1.383 0.02291 0.0119 0.041 0.01785 0.06391 0.04076 1.5101 0.86267 3.4483 0.35372 4.3177-1.1448 0.86945-1.5325 0.35373-3.4489-1.1564-4.3117-1.5102-0.86276-3.4421-0.35373-4.3117 1.1448-0.2974 0.51082-0.4356 1.0766-0.42421 1.6329 0.03434 1.385-1.2276 2.104-2.4174 1.3888-0.04573-0.0238-0.08803-0.05861-0.14528-0.08123-1.2012-0.66973-1.2012-2.0902 0-2.7486 0.98391-0.53355 1.6561-1.5624 1.6561-2.7544v-0.06962c-0.03434-1.385 1.2276-2.0982 2.4174-1.383 0.94952 0.57898 2.1839 0.6195 3.2136 0.02975 1.5102-0.86276 2.0258-2.7783 1.1564-4.2769-0.86945-1.4986-2.8073-2.0075-4.3177-1.1448-1.0296 0.59032-1.5977 1.6765-1.5748 2.7777 0.03434 1.3849-1.2274 2.0983-2.4057 1.383-0.48044-0.29514-1.0382-0.46488-1.6445-0.46488-0.60638 0-1.1698 0.17524-1.6503 0.45908-1.1898 0.70383-2.4343-0.014873-2.3999-1.3888 0.022909-1.1125-0.55095-2.1873-1.5806-2.7777-0.47193-0.26956-0.98424-0.4068-1.4934-0.41838z" style="fill:#ff9100;stroke-width:.78719"/>
</svg>
