<svg xmlns="http://www.w3.org/2000/svg" width="662.08" height="538.316" viewBox="0 0 496.56 403.737"><defs><clipPath id="a"><path d="M461 290h35.559v46H461Zm0 0"/></clipPath><clipPath id="b"><path d="M172 351h53v52.738h-53Zm0 0"/></clipPath><clipPath id="c"><path d="M438 351h53v52.738h-53Zm0 0"/></clipPath></defs><path d="M360.621 52.598c1.95 4.601 2.734 8.238 2.625 10.242-7.558-4.555-18.93-8.43-25.133-9.54-4.039-.722 9.18-3.929 22.508-.702m10.984 169.336c2.336-.493 4.688-.965 7.04-1.43 2.46-.48 4.925-.945 7.398-1.383a492 492 0 0 0-5.98-3.707c-25.454-15.484-52.586-28.637-79.399-41.367-16.918-8.031-34.152-16.016-51.7-23.215 15.31-20.187 34.907-37.32 55.852-52 .02-.012.106-.07.235-.164 4.586 6.258 10.383 10.516 13.289 12.117 5.68 3.13 12.836 6.055 19.414 6.95 12.933 1.757 23.617 1.488 35.433-.551 1.067-.184 2.137-.313 3.208-.489 7.578-1.27 12.425-1.46 16.863-1.543 5.879-.109 8.793 1.133 9.484 1.317 2.102.543 3.887 1.441 4.875 2.644a40 40 0 0 0 3.703 4.121c3.957 3.938 7.887 6.118 13.582 6.743 7.336.804 12.528-2.063 16.2-6.829 1.734-2.246.898-5.78.71-6.472-.964-3.543-3.187-8.696-4.796-13.496-.418-1.239-2.438-5.051-4.871-7.637-.801-.856-1.61-1.711-2.418-2.563-3.778-3.996-7.582-7.96-11.356-11.953-15.058-15.918-31.387-30.574-48.215-44.586q-2.618-2.181-5.242-4.363c-1.27-1.055-2.543-2.101-3.812-3.156-.649-.531-1.293-1.067-1.946-1.598a700 700 0 0 0-4.117-3.363l-1.633-1.313c-.855-.691-2.812-2.34-4.457-3.656 5.457-5.445 9.863-8.832 17.684-13.953 1.12-.734 7.16-3.957 6.945-4.773-.129-.496-10.043-.383-21.406 1.082-3.992.511-26.367 3.816-41.73 7.164-16.356 3.562-33.626 8.543-49.532 13.55-45.94 14.466-89.812 34.068-129.988 60.708-23.086 15.308-44.7 32.203-65.559 50.406-9.722 8.48-19.383 17.097-28.816 25.953a558 558 0 0 0-4.41 4.187q3.012.564 6.02 1.18c16.613 3.414 33.042 7.973 49.019 12.54 19.539 5.581 39.304 11.605 58.418 18.991-10.895 10.364-21.52 20.977-31.633 32.211-19.047 21.153-36.805 43.496-53.371 66.637-21.59 30.148-40.024 62.66-56.086 96.168A755 755 0 0 0 0 400.574a793 793 0 0 1 8.973-7.074c26.011-20.168 53.433-38.82 80.816-56.84 38.527-25.355 79.875-46.3 122.781-63.156 51.73-20.32 104.555-40.031 159.035-51.57m-114.003 84.129c-.57 3.312-3.059 5.734-6.114 5.734h-7.644l2.039-11.465h7.008c3.375 0 5.285 2.418 4.71 5.73m10.192.641q1.148-6.311-2.867-11.082c-2.676-3.25-6.113-4.844-10.383-4.844h-17.195l-7.832 44.582h10.191l2.547-14.648h5.539l5.797 14.648h10.32l-6.5-16.046c5.414-2.102 9.3-6.688 10.383-12.61m12.227 28.657 7.832-44.583h-10.188l-7.836 44.582Zm42.418-22.61c-.7 3.887-2.356 6.941-5.032 9.3-2.676 2.356-5.926 3.5-9.683 3.5h-7.004l4.394-24.964h7.64c7.134 0 11.02 4.586 9.685 12.164m-7.961-21.973H296.64l-7.832 44.582h17.832c6.433 0 12.039-2.035 16.816-6.046 4.777-4.079 7.707-9.301 8.79-15.606 1.081-6.305-.13-11.656-3.696-16.18-3.504-4.52-8.215-6.75-14.074-6.75m34.134 26.813h15.925l1.719-9.55h-15.988l1.34-7.454h17.515l1.719-9.809h-27.707l-7.832 44.586h28.023l1.719-9.812h-17.832Zm52.163 17.77 6.114-34.774h11.465l1.718-9.809h-33.117l-1.719 9.809h11.461l-6.113 34.773Zm35.09-44.583h-10.191l-7.832 44.582h10.191l3.117-17.703h14.016l-3.121 17.703h10.187l7.836-44.582h-10.191l-2.992 17.07H432.87Zm0 0" style="stroke:none;fill-rule:nonzero;fill:#fff;fill-opacity:1"/><g clip-path="url(#a)"><path d="m494.84 300.586 1.719-9.809h-27.704l-7.835 44.582h28.023l1.723-9.808H472.93l1.402-7.961h15.922l1.719-9.55h-15.985l1.336-7.454Zm0 0" style="stroke:none;fill-rule:nonzero;fill:#fff;fill-opacity:1"/></g><path d="M133.352 352.988H121.98l-6.824 38.809-1.918 10.945h29.14l1.919-10.945h-17.77Zm15.632 49.754h11.371l8.747-49.754h-11.375Zm0 0" style="stroke:none;fill-rule:nonzero;fill:#fff;fill-opacity:1"/><g clip-path="url(#b)"><path d="M198.027 384.973h12.793c-2.629 5.117-7.465 7.675-14.57 7.675-4.406 0-7.746-1.351-9.95-4.05-2.202-2.7-2.843-6.254-2.062-10.73.782-4.481 2.7-8.036 5.758-10.735 3.129-2.7 6.824-4.051 11.16-4.051 5.473 0 9.309 2.133 11.586 6.328l10.446-5.476c-3.696-7.606-10.946-11.938-20.825-11.938-7.394 0-13.86 2.344-19.402 7.106-5.477 4.761-8.887 10.73-10.094 18.054-1.207 7.39.215 13.645 4.406 18.836 4.192 5.188 10.165 7.746 17.84 7.746 7.39 0 13.719-2.133 18.977-6.468 5.332-4.336 8.601-10.38 9.879-17.985l.71-4.262h-24.945Zm0 0" style="stroke:none;fill-rule:nonzero;fill:#fff;fill-opacity:1"/></g><path d="M260.285 372.035h-15.637l3.344-19.047h-11.375l-8.738 49.754h11.371l3.48-19.758h15.637l-3.48 19.758h11.37L275 352.988h-11.371Zm58.281-19.047h-36.96l-1.918 10.946h12.792l-6.82 38.808h11.371l6.82-38.808h12.797Zm29.422 27.934-14.285-27.934h-8.527l-8.746 49.754h11.37l4.977-27.933 14.215 27.933h8.531l8.743-49.754H352.89Zm17.696 21.82h11.37l8.747-49.754h-11.375Zm53.093-21.82-14.285-27.934h-8.531l-8.742 49.754h11.37l4.977-27.933 14.215 27.933h8.528l8.742-49.754H423.68Zm0 0" style="stroke:none;fill-rule:nonzero;fill:#fff;fill-opacity:1"/><g clip-path="url(#c)"><path d="M463.98 384.973h12.793c-2.628 5.117-7.464 7.675-14.57 7.675-4.406 0-7.746-1.351-9.953-4.05-2.203-2.7-2.84-6.254-2.059-10.73.782-4.481 2.7-8.036 5.758-10.735 3.125-2.7 6.824-4.051 11.156-4.051 5.473 0 9.313 2.133 11.586 6.328l10.45-5.476c-3.696-7.606-10.946-11.938-20.825-11.938-7.394 0-13.859 2.344-19.406 7.106-5.473 4.761-8.883 10.73-10.09 18.054-1.21 7.39.211 13.645 4.407 18.836 4.191 5.188 10.16 7.746 17.84 7.746 7.39 0 13.718-2.133 18.976-6.468 5.332-4.336 8.598-10.38 9.879-17.985l.71-4.262h-24.948Zm0 0" style="stroke:none;fill-rule:nonzero;fill:#fff;fill-opacity:1"/></g></svg>