<svg width="211" height="127" viewBox="0 0 211 127" fill="none" xmlns="http://www.w3.org/2000/svg">
<g id="Speed_Dark 150x90">
<g id="Group 56988">
<path id="Vector" fill-rule="evenodd" clip-rule="evenodd" d="M17.7359 32.2205H54.0781C56.2606 32.2205 58.3537 33.0883 59.897 34.6332C61.4403 36.1781 62.3073 38.2733 62.3073 40.4581V76.8352C62.3073 86.3142 54.6316 93.9958 45.1642 93.9958H8.82202C6.63982 93.9958 4.54696 93.1282 3.00373 91.5837C1.46051 90.0393 0.593285 87.9445 0.592773 85.7601V49.383C0.592773 39.904 8.26853 32.2205 17.7359 32.2205Z" fill="#2A67FF"/>
<path id="Vector_2" fill-rule="evenodd" clip-rule="evenodd" d="M31.5468 58.1899H53.9531L31.5488 80.6189H9.14258L31.5468 58.1899Z" fill="#F9DF00"/>
<path id="Vector_3" fill-rule="evenodd" clip-rule="evenodd" d="M31.4946 58.1631H53.9008L31.4502 67.337H9.04395L31.4946 58.1631Z" fill="#B3A000"/>
<path id="Vector_4" fill-rule="evenodd" clip-rule="evenodd" d="M31.4502 44.9099H53.8545L31.4502 67.3389H9.04395L31.4502 44.9099Z" fill="white"/>
<path id="Vector_5" d="M95.5946 47.0469C97.2242 47.0469 98.7902 47.2283 100.291 47.5932C101.791 47.9562 103.126 48.545 104.291 49.3597C105.455 50.1743 106.381 51.213 107.066 52.4794C107.577 53.4254 107.897 54.5258 108.026 55.7729H101.249C101.161 55.4242 101.03 55.0877 100.86 54.771C100.547 54.1839 100.088 53.6878 99.5269 53.3308C98.9433 52.97 98.2989 52.7188 97.6253 52.5895C96.8554 52.4387 96.0724 52.3656 95.2879 52.3713C94.7325 52.3713 94.179 52.4292 93.6255 52.5451C93.072 52.6609 92.5705 52.8655 92.1192 53.157C91.666 53.4466 91.2957 53.8115 91.0045 54.2478C90.7133 54.6841 90.5668 55.2362 90.5668 55.9061C90.5668 56.5162 90.6825 57.0104 90.9158 57.3888C91.1492 57.7672 91.6101 58.1166 92.2928 58.4371C92.9775 58.7556 93.9244 59.0761 95.1336 59.3965C96.3428 59.717 97.9243 60.1243 99.876 60.6186C100.458 60.7344 101.266 60.9468 102.302 61.2518C103.336 61.5568 104.362 62.0433 105.382 62.7132C106.402 63.3831 107.284 64.2769 108.026 65.3967C108.769 66.5164 109.141 67.9488 109.141 69.696C109.141 71.1207 108.863 72.4451 108.312 73.6671C107.748 74.9007 106.903 75.9841 105.843 76.8293C104.75 77.7174 103.394 78.4085 101.778 78.9027C100.159 79.3969 98.2868 79.644 96.1615 79.644C94.4412 79.644 92.775 79.4336 91.1569 79.0127C89.6175 78.6264 88.1649 77.9524 86.8755 77.0262C85.6362 76.1236 84.6256 74.9426 83.9247 73.5783C83.2767 72.3369 82.9295 70.889 82.8794 69.2346V69.2017L89.5407 69.2056C89.5889 69.8543 89.722 70.4354 89.9361 70.9431L90.0865 71.2655C90.4645 71.9933 90.9679 72.5821 91.5947 73.0339C92.2215 73.4837 92.9562 73.8196 93.8009 74.0377C94.6456 74.2559 95.5193 74.3659 96.4238 74.3659C97.0352 74.3659 97.6909 74.3138 98.391 74.2115C99.0725 74.1152 99.7357 73.9167 100.358 73.6227C100.968 73.3331 101.477 72.9316 101.886 72.4219C102.294 71.9142 102.499 71.2655 102.499 70.4817C102.499 69.6381 102.229 68.9527 101.689 68.4295C101.149 67.9064 100.443 67.4701 99.5694 67.1206C98.6031 66.7426 97.6104 66.4361 96.5993 66.2036C95.4709 65.9365 94.3482 65.6456 93.232 65.331C92.0758 65.0427 90.9379 64.6856 89.8242 64.2615C88.7596 63.8636 87.7585 63.3127 86.8523 62.6263C85.9738 61.9519 85.2509 61.0959 84.7328 60.1166C84.1928 59.1127 83.9228 57.8965 83.9228 56.4737C83.9228 54.8714 84.2661 53.4833 84.9507 52.3037C85.6353 51.1261 86.5322 50.1454 87.6392 49.3597C88.7787 48.5592 90.0515 47.9682 91.398 47.6145C92.765 47.2404 94.1755 47.0496 95.5926 47.0469H95.5946ZM123.077 74.9239H117.872V60.4525H123.034C124.026 60.4525 124.863 60.6649 125.549 61.0858C126.234 61.5105 126.795 62.0626 127.233 62.746C127.669 63.4333 127.983 64.2132 128.172 65.0858C128.363 65.9604 128.458 66.8503 128.458 67.7538C128.458 68.6573 128.369 69.5454 128.195 70.418C128.02 71.2945 127.721 72.0589 127.298 72.7153C126.876 73.3697 126.307 73.9158 125.636 74.31C124.951 74.7192 124.097 74.9239 123.077 74.9239ZM111.662 55.7729V86.9009H117.872V79.561L124.739 79.5572C126.402 79.5572 127.852 79.2348 129.09 78.5938C130.303 77.9745 131.363 77.0936 132.195 76.0146C133.028 74.9374 133.647 73.698 134.054 72.3003C134.463 70.9006 134.668 69.4431 134.668 67.9276C134.673 66.3695 134.467 64.8179 134.054 63.3155C133.682 61.9169 133.043 60.6033 132.174 59.4467C131.32 58.3326 130.23 57.422 128.982 56.7807C127.7 56.1108 126.166 55.7748 124.39 55.7748L111.662 55.7729ZM153.548 65.2538H143.481C143.51 64.8175 143.605 64.3233 143.765 63.7692C143.945 63.1578 144.252 62.5911 144.665 62.1056C145.078 61.6201 145.588 61.2267 146.162 60.9506C146.816 60.6166 147.635 60.4487 148.623 60.4487C150.135 60.4487 151.259 60.856 152 61.6726C152.742 62.4873 153.257 63.6804 153.548 65.2538ZM143.481 69.1863H159.735C159.857 67.4993 159.709 65.8038 159.299 64.163C158.921 62.621 158.247 61.167 157.317 59.8811C156.396 58.624 155.195 57.5993 153.809 56.8888C152.385 56.1455 150.715 55.7748 148.798 55.7748C147.084 55.7748 145.522 56.0799 144.112 56.6918C142.704 57.3038 141.491 58.1398 140.475 59.2035C139.443 60.291 138.642 61.577 138.122 62.9835C137.56 64.4924 137.279 66.0915 137.292 67.7017C137.292 69.4489 137.562 71.0493 138.1 72.5068C138.6 73.9015 139.378 75.1798 140.388 76.2637C141.4 77.3288 142.635 78.1568 144.004 78.6884C145.427 79.256 147.026 79.5398 148.798 79.5398C151.354 79.5398 153.533 78.9568 155.334 77.7926C157.135 76.6266 158.472 74.6903 159.344 71.9817H153.895C153.693 72.6806 153.141 73.3428 152.241 73.9702C151.34 74.5957 150.264 74.9084 149.016 74.9084C147.273 74.9084 145.936 74.4567 145.007 73.5551C144.077 72.6516 143.568 71.196 143.483 69.1863H143.481ZM178.655 65.2538H168.587C168.616 64.8175 168.711 64.3233 168.871 63.7692C169.052 63.1578 169.358 62.5911 169.771 62.1056C170.184 61.6201 170.694 61.2267 171.268 60.9506C171.922 60.6166 172.742 60.4487 173.729 60.4487C175.241 60.4487 176.365 60.856 177.108 61.6726C177.848 62.4873 178.363 63.6804 178.655 65.2538ZM168.587 69.1863H184.841C184.963 67.4993 184.816 65.8038 184.406 64.163C184.027 62.621 183.354 61.167 182.423 59.8811C181.502 58.624 180.301 57.5993 178.915 56.8888C177.492 56.1455 175.821 55.7748 173.904 55.7748C172.19 55.7748 170.628 56.0799 169.218 56.6918C167.81 57.3038 166.597 58.1398 165.581 59.2035C164.549 60.291 163.748 61.577 163.228 62.9835C162.666 64.4924 162.385 66.0915 162.399 67.7017C162.399 69.4489 162.669 71.0493 163.207 72.5068C163.706 73.9015 164.485 75.1798 165.494 76.2637C166.506 77.3288 167.741 78.1568 169.11 78.6884C170.535 79.256 172.132 79.5398 173.904 79.5398C176.46 79.5398 178.639 78.9568 180.442 77.7926C182.242 76.6266 183.578 74.6903 184.45 71.9817H179.002C178.799 72.6806 178.248 73.3428 177.347 73.9702C176.446 74.5957 175.372 74.9084 174.122 74.9084C172.379 74.9084 171.042 74.4567 170.113 73.5551C169.183 72.6516 168.674 71.196 168.589 69.1863H168.587ZM199.098 60.4101H204.303V74.8659H199.14C198.149 74.8659 197.312 74.6555 196.625 74.2327C195.945 73.8151 195.369 73.2472 194.941 72.5725C194.492 71.8562 194.173 71.0651 194.002 70.2365C193.812 69.3613 193.716 68.4681 193.717 67.5724C193.717 66.6708 193.805 65.7828 193.979 64.9082C194.155 64.0356 194.454 63.2711 194.876 62.6167C195.3 61.9603 195.854 61.4294 196.538 61.022C197.223 60.6147 198.077 60.4101 199.098 60.4101ZM210.513 79.5398V47.0469H204.303V55.7768L197.435 55.7806C195.773 55.7806 194.322 56.1011 193.082 56.742C191.87 57.3608 190.809 58.241 189.977 59.3193C189.13 60.4288 188.499 61.6883 188.118 63.0317C187.707 64.4507 187.501 65.9213 187.507 67.3986C187.507 69.001 187.711 70.5358 188.118 72.0068C188.527 73.476 189.154 74.7656 190 75.8718C190.845 76.978 191.91 77.866 193.192 78.5359C194.475 79.2058 196.008 79.5398 197.784 79.5398H210.513Z" fill="white"/>
</g>
</g>
</svg>
