<?xml version="1.0" encoding="UTF-8" standalone="no"?>
<svg
   width="211"
   height="64"
   viewBox="0 0 211 64"
   fill="none"
   version="1.1"
   id="svg1"
   sodipodi:docname="speed.svg"
   inkscape:version="1.4 (1:1.4+202410161351+e7c3feb100)"
   xmlns:inkscape="http://www.inkscape.org/namespaces/inkscape"
   xmlns:sodipodi="http://sodipodi.sourceforge.net/DTD/sodipodi-0.dtd"
   xmlns="http://www.w3.org/2000/svg"
   xmlns:svg="http://www.w3.org/2000/svg">
  <defs
     id="defs1" />
  <sodipodi:namedview
     id="namedview1"
     pagecolor="#ffffff"
     bordercolor="#000000"
     borderopacity="0.25"
     inkscape:showpageshadow="2"
     inkscape:pageopacity="0.0"
     inkscape:pagecheckerboard="0"
     inkscape:deskcolor="#d1d1d1"
     inkscape:zoom="3.1764127"
     inkscape:cx="88.149753"
     inkscape:cy="179.60512"
     inkscape:window-width="1920"
     inkscape:window-height="2123"
     inkscape:window-x="20"
     inkscape:window-y="20"
     inkscape:window-maximized="0"
     inkscape:current-layer="svg1" />
  <g
     id="Speed_Dark 150x90"
     transform="translate(0.31482055,-31.167234)">
    <g
       id="Group 56988">
      <path
         id="Vector"
         fill-rule="evenodd"
         clip-rule="evenodd"
         d="m 17.7359,32.2205 h 36.3422 c 2.1825,0 4.2756,0.8678 5.8189,2.4127 1.5433,1.5449 2.4103,3.6401 2.4103,5.8249 v 36.3771 c 0,9.479 -7.6757,17.1606 -17.1431,17.1606 H 8.82202 c -2.1822,0 -4.27506,-0.8676 -5.81829,-2.4121 C 1.46051,90.0393 0.593285,87.9445 0.592773,85.7601 V 49.383 c 0,-9.479 7.675757,-17.1625 17.143127,-17.1625 z"
         fill="#2a67ff" />
      <path
         id="Vector_2"
         fill-rule="evenodd"
         clip-rule="evenodd"
         d="M 31.5468,58.1899 H 53.9531 L 31.5488,80.6189 H 9.14258 Z"
         fill="#f9df00" />
      <path
         id="Vector_3"
         fill-rule="evenodd"
         clip-rule="evenodd"
         d="M 31.4946,58.1631 H 53.9008 L 31.4502,67.337 H 9.04395 Z"
         fill="#b3a000" />
      <path
         id="Vector_4"
         fill-rule="evenodd"
         clip-rule="evenodd"
         d="M 31.4502,44.9099 H 53.8545 L 31.4502,67.3389 H 9.04395 Z"
         fill="#ffffff" />
      <path
         id="Vector_5"
         d="m 95.5946,47.0469 c 1.6296,0 3.1956,0.1814 4.6964,0.5463 1.5,0.363 2.835,0.9518 4,1.7665 1.164,0.8146 2.09,1.8533 2.775,3.1197 0.511,0.946 0.831,2.0464 0.96,3.2935 h -6.777 c -0.088,-0.3487 -0.219,-0.6852 -0.389,-1.0019 -0.313,-0.5871 -0.772,-1.0832 -1.3331,-1.4402 -0.5836,-0.3608 -1.228,-0.612 -1.9016,-0.7413 -0.7699,-0.1508 -1.5529,-0.2239 -2.3374,-0.2182 -0.5554,0 -1.1089,0.0579 -1.6624,0.1738 -0.5535,0.1158 -1.055,0.3204 -1.5063,0.6119 -0.4532,0.2896 -0.8235,0.6545 -1.1147,1.0908 -0.2912,0.4363 -0.4377,0.9884 -0.4377,1.6583 0,0.6101 0.1157,1.1043 0.349,1.4827 0.2334,0.3784 0.6943,0.7278 1.377,1.0483 0.6847,0.3185 1.6316,0.639 2.8408,0.9594 1.2092,0.3205 2.7907,0.7278 4.7424,1.2221 0.582,0.1158 1.39,0.3282 2.426,0.6332 1.034,0.305 2.06,0.7915 3.08,1.4614 1.02,0.6699 1.902,1.5637 2.644,2.6835 0.743,1.1197 1.115,2.5521 1.115,4.2993 0,1.4247 -0.278,2.7491 -0.829,3.9711 -0.564,1.2336 -1.409,2.317 -2.469,3.1622 -1.093,0.8881 -2.449,1.5792 -4.065,2.0734 -1.619,0.4942 -3.4912,0.7413 -5.6165,0.7413 -1.7203,0 -3.3865,-0.2104 -5.0046,-0.6313 -1.5394,-0.3863 -2.992,-1.0603 -4.2814,-1.9865 -1.2393,-0.9026 -2.2499,-2.0836 -2.9508,-3.4479 -0.648,-1.2414 -0.9952,-2.6893 -1.0453,-4.3437 v -0.0329 l 6.6613,0.0039 c 0.0482,0.6487 0.1813,1.2298 0.3954,1.7375 l 0.1504,0.3224 c 0.378,0.7278 0.8814,1.3166 1.5082,1.7684 0.6268,0.4498 1.3615,0.7857 2.2062,1.0038 0.8447,0.2182 1.7184,0.3282 2.6229,0.3282 0.6114,0 1.2671,-0.0521 1.9672,-0.1544 0.6815,-0.0963 1.3447,-0.2948 1.967,-0.5888 0.61,-0.2896 1.119,-0.6911 1.528,-1.2008 0.408,-0.5077 0.613,-1.1564 0.613,-1.9402 0,-0.8436 -0.27,-1.529 -0.81,-2.0522 -0.54,-0.5231 -1.246,-0.9594 -2.1196,-1.3089 -0.9663,-0.378 -1.959,-0.6845 -2.9701,-0.917 -1.1284,-0.2671 -2.2511,-0.558 -3.3673,-0.8726 -1.1562,-0.2883 -2.2941,-0.6454 -3.4078,-1.0695 -1.0646,-0.3979 -2.0657,-0.9488 -2.9719,-1.6352 -0.8785,-0.6744 -1.6014,-1.5304 -2.1195,-2.5097 -0.54,-1.0039 -0.81,-2.2201 -0.81,-3.6429 0,-1.6023 0.3433,-2.9904 1.0279,-4.17 0.6846,-1.1776 1.5815,-2.1583 2.6885,-2.944 1.1395,-0.8005 2.4123,-1.3915 3.7588,-1.7452 1.367,-0.3741 2.7775,-0.5649 4.1946,-0.5676 z m 27.4824,27.877 h -5.205 V 60.4525 h 5.162 c 0.992,0 1.829,0.2124 2.515,0.6333 0.685,0.4247 1.246,0.9768 1.684,1.6602 0.436,0.6873 0.75,1.4672 0.939,2.3398 0.191,0.8746 0.286,1.7645 0.286,2.668 0,0.9035 -0.089,1.7916 -0.263,2.6642 -0.175,0.8765 -0.474,1.6409 -0.897,2.2973 -0.422,0.6544 -0.991,1.2005 -1.662,1.5947 -0.685,0.4092 -1.539,0.6139 -2.559,0.6139 z m -11.415,-19.151 v 31.128 h 6.21 V 79.561 l 6.867,-0.0038 c 1.663,0 3.113,-0.3224 4.351,-0.9634 1.213,-0.6193 2.273,-1.5002 3.105,-2.5792 0.833,-1.0772 1.452,-2.3166 1.859,-3.7143 0.409,-1.3997 0.614,-2.8572 0.614,-4.3727 0.005,-1.5581 -0.201,-3.1097 -0.614,-4.6121 -0.372,-1.3986 -1.011,-2.7122 -1.88,-3.8688 -0.854,-1.1141 -1.944,-2.0247 -3.192,-2.666 -1.282,-0.6699 -2.816,-1.0059 -4.592,-1.0059 z m 41.886,9.4809 h -10.067 c 0.029,-0.4363 0.124,-0.9305 0.284,-1.4846 0.18,-0.6114 0.487,-1.1781 0.9,-1.6636 0.413,-0.4855 0.923,-0.8789 1.497,-1.155 0.654,-0.334 1.473,-0.5019 2.461,-0.5019 1.512,0 2.636,0.4073 3.377,1.2239 0.742,0.8147 1.257,2.0078 1.548,3.5812 z m -10.067,3.9325 h 16.254 c 0.122,-1.687 -0.026,-3.3825 -0.436,-5.0233 -0.378,-1.542 -1.052,-2.996 -1.982,-4.2819 -0.921,-1.2571 -2.122,-2.2818 -3.508,-2.9923 -1.424,-0.7433 -3.094,-1.114 -5.011,-1.114 -1.714,0 -3.276,0.3051 -4.686,0.917 -1.408,0.612 -2.621,1.448 -3.637,2.5117 -1.032,1.0875 -1.833,2.3735 -2.353,3.78 -0.562,1.5089 -0.843,3.108 -0.83,4.7182 0,1.7472 0.27,3.3476 0.808,4.8051 0.5,1.3947 1.278,2.673 2.288,3.7569 1.012,1.0651 2.247,1.8931 3.616,2.4247 1.423,0.5676 3.022,0.8514 4.794,0.8514 2.556,0 4.735,-0.583 6.536,-1.7472 1.801,-1.166 3.138,-3.1023 4.01,-5.8109 h -5.449 c -0.202,0.6989 -0.754,1.3611 -1.654,1.9885 -0.901,0.6255 -1.977,0.9382 -3.225,0.9382 -1.743,0 -3.08,-0.4517 -4.009,-1.3533 -0.93,-0.9035 -1.439,-2.3591 -1.524,-4.3688 z m 35.174,-3.9325 h -10.068 c 0.029,-0.4363 0.124,-0.9305 0.284,-1.4846 0.181,-0.6114 0.487,-1.1781 0.9,-1.6636 0.413,-0.4855 0.923,-0.8789 1.497,-1.155 0.654,-0.334 1.474,-0.5019 2.461,-0.5019 1.512,0 2.636,0.4073 3.379,1.2239 0.74,0.8147 1.255,2.0078 1.547,3.5812 z m -10.068,3.9325 h 16.254 c 0.122,-1.687 -0.025,-3.3825 -0.435,-5.0233 -0.379,-1.542 -1.052,-2.996 -1.983,-4.2819 -0.921,-1.2571 -2.122,-2.2818 -3.508,-2.9923 -1.423,-0.7433 -3.094,-1.114 -5.011,-1.114 -1.714,0 -3.276,0.3051 -4.686,0.917 -1.408,0.612 -2.621,1.448 -3.637,2.5117 -1.032,1.0875 -1.833,2.3735 -2.353,3.78 -0.562,1.5089 -0.843,3.108 -0.829,4.7182 0,1.7472 0.27,3.3476 0.808,4.8051 0.499,1.3947 1.278,2.673 2.287,3.7569 1.012,1.0651 2.247,1.8931 3.616,2.4247 1.425,0.5676 3.022,0.8514 4.794,0.8514 2.556,0 4.735,-0.583 6.538,-1.7472 1.8,-1.166 3.136,-3.1023 4.008,-5.8109 h -5.448 c -0.203,0.6989 -0.754,1.3611 -1.655,1.9885 -0.901,0.6255 -1.975,0.9382 -3.225,0.9382 -1.743,0 -3.08,-0.4517 -4.009,-1.3533 -0.93,-0.9035 -1.439,-2.3591 -1.524,-4.3688 z m 30.511,-8.7762 h 5.205 v 14.4558 h -5.163 c -0.991,0 -1.828,-0.2104 -2.515,-0.6332 -0.68,-0.4176 -1.256,-0.9855 -1.684,-1.6602 -0.449,-0.7163 -0.768,-1.5074 -0.939,-2.336 -0.19,-0.8752 -0.286,-1.7684 -0.285,-2.6641 0,-0.9016 0.088,-1.7896 0.262,-2.6642 0.176,-0.8726 0.475,-1.6371 0.897,-2.2915 0.424,-0.6564 0.978,-1.1873 1.662,-1.5947 0.685,-0.4073 1.539,-0.6119 2.56,-0.6119 z m 11.415,19.1297 V 47.0469 h -6.21 v 8.7299 l -6.868,0.0038 c -1.662,0 -3.113,0.3205 -4.353,0.9614 -1.212,0.6188 -2.273,1.499 -3.105,2.5773 -0.847,1.1095 -1.478,2.369 -1.859,3.7124 -0.411,1.419 -0.617,2.8896 -0.611,4.3669 0,1.6024 0.204,3.1372 0.611,4.6082 0.409,1.4692 1.036,2.7588 1.882,3.865 0.845,1.1062 1.91,1.9942 3.192,2.6641 1.283,0.6699 2.816,1.0039 4.592,1.0039 z"
         fill="#ffffff" />
    </g>
  </g>
</svg>
