<svg xmlns="http://www.w3.org/2000/svg" width="211" height="64" fill="none" viewBox="0 0 211 64"><path fill="#2a67ff" fill-rule="evenodd" d="M18.05 1.053h36.343c2.182 0 4.276.868 5.819 2.413a8.24 8.24 0 0 1 2.41 5.825v36.377c0 9.479-7.676 17.16-17.143 17.16H9.137a8.23 8.23 0 0 1-5.818-2.412 8.24 8.24 0 0 1-2.411-5.823V18.216c0-9.48 7.675-17.163 17.143-17.163" clip-rule="evenodd"/><path fill="#f9df00" fill-rule="evenodd" d="M31.862 27.023h22.406L31.864 49.452H9.457Z" clip-rule="evenodd"/><path fill="#b3a000" fill-rule="evenodd" d="M31.81 26.996h22.406L31.765 36.17H9.359Z" clip-rule="evenodd"/><path fill="#fff" fill-rule="evenodd" d="M31.765 13.743h22.404L31.765 36.172H9.359Z" clip-rule="evenodd"/><path fill="#fff" d="M95.91 15.88q2.444 0 4.696.546 2.251.545 4 1.766a8.95 8.95 0 0 1 2.775 3.12c.51.946.83 2.047.96 3.294h-6.777a4.4 4.4 0 0 0-.39-1.002 3.86 3.86 0 0 0-1.332-1.44 5.6 5.6 0 0 0-1.902-.742c-.77-.15-1.553-.224-2.337-.218q-.834 0-1.663.174a4.4 4.4 0 0 0-1.506.612q-.678.436-1.115 1.09t-.437 1.659q-.001.915.349 1.483.351.567 1.377 1.048 1.026.478 2.84.96 1.815.48 4.743 1.221.872.175 2.426.634 1.55.457 3.08 1.461t2.644 2.683 1.115 4.3q-.001 2.137-.83 3.97a8.6 8.6 0 0 1-2.468 3.163q-1.641 1.333-4.065 2.073-2.429.742-5.617.742-2.578 0-5.004-.632a12.6 12.6 0 0 1-4.282-1.986 9.8 9.8 0 0 1-2.95-3.448q-.971-1.862-1.046-4.344v-.033l6.662.004q.072.975.395 1.738l.15.322a4.96 4.96 0 0 0 1.509 1.769q.939.675 2.206 1.003 1.266.329 2.623.329.917 0 1.967-.155a6.9 6.9 0 0 0 1.967-.589 4.3 4.3 0 0 0 1.528-1.2q.612-.764.613-1.94 0-1.267-.81-2.053-.81-.785-2.12-1.309a21 21 0 0 0-2.97-.917 82 82 0 0 1-3.367-.872 30 30 0 0 1-3.408-1.07 11.7 11.7 0 0 1-2.972-1.635 7.7 7.7 0 0 1-2.12-2.51q-.81-1.507-.81-3.643 0-2.402 1.029-4.17a9.3 9.3 0 0 1 2.688-2.944c1.14-.8 2.412-1.391 3.759-1.745a16 16 0 0 1 4.194-.567zm27.482 27.877h-5.205V29.285h5.162q1.487.001 2.515.634a5.3 5.3 0 0 1 1.684 1.66q.655 1.03.939 2.34.286 1.312.286 2.668-.002 1.354-.263 2.664-.263 1.313-.897 2.297a5 5 0 0 1-1.662 1.595q-1.029.614-2.56.614m-11.415-19.151v31.128h6.21v-7.34l6.867-.004q2.495 0 4.35-.963a9.2 9.2 0 0 0 3.106-2.58q1.249-1.616 1.859-3.714.614-2.1.614-4.373a17.2 17.2 0 0 0-.614-4.612 11.3 11.3 0 0 0-1.88-3.869 9.5 9.5 0 0 0-3.192-2.666c-1.282-.67-2.816-1.005-4.592-1.005zm41.886 9.48h-10.067q.044-.654.284-1.484a4.55 4.55 0 0 1 2.397-2.819q.98-.501 2.46-.502 2.268 0 3.378 1.224 1.112 1.222 1.548 3.582m-10.067 3.933h16.254a16 16 0 0 0-.436-5.023 12.3 12.3 0 0 0-1.982-4.282 10 10 0 0 0-3.508-2.992q-2.136-1.115-5.011-1.114-2.571 0-4.686.917a11.1 11.1 0 0 0-3.637 2.511 11.1 11.1 0 0 0-2.353 3.78 13.2 13.2 0 0 0-.83 4.718q0 2.62.808 4.806a10.9 10.9 0 0 0 2.288 3.756 10 10 0 0 0 3.616 2.425q2.135.852 4.794.852 3.834 0 6.536-1.748t4.01-5.81h-5.45q-.302 1.046-1.653 1.988-1.352.938-3.225.938-2.615 0-4.01-1.353-1.395-1.356-1.523-4.369zm35.174-3.932h-10.068q.044-.654.284-1.485a4.57 4.57 0 0 1 2.397-2.819q.981-.501 2.46-.502c1.513 0 2.637.408 3.38 1.224q1.11 1.222 1.547 3.582m-10.068 3.932h16.254a16 16 0 0 0-.435-5.023 12.3 12.3 0 0 0-1.983-4.282 10 10 0 0 0-3.508-2.992q-2.135-1.115-5.011-1.114-2.571 0-4.686.917a11.1 11.1 0 0 0-3.637 2.511 11.1 11.1 0 0 0-2.353 3.78 13.2 13.2 0 0 0-.83 4.718q0 2.62.809 4.806a10.9 10.9 0 0 0 2.287 3.756 10 10 0 0 0 3.616 2.425q2.137.852 4.794.852 3.834 0 6.538-1.748 2.7-1.748 4.008-5.81h-5.448q-.304 1.046-1.655 1.988-1.35.938-3.225.938-2.615 0-4.01-1.353-1.395-1.356-1.523-4.369zm30.51-8.776h5.206V43.7h-5.163q-1.486.001-2.515-.634a5.25 5.25 0 0 1-1.684-1.66 7.1 7.1 0 0 1-.94-2.336 12.5 12.5 0 0 1-.284-2.664q0-1.352.262-2.664.264-1.31.897-2.292a5 5 0 0 1 1.662-1.594q1.028-.612 2.56-.612m11.416 19.13V15.88h-6.21v8.73l-6.868.003q-2.493 0-4.353.962a9.2 9.2 0 0 0-3.105 2.577 11.1 11.1 0 0 0-1.86 3.712 15.5 15.5 0 0 0-.61 4.367q0 2.404.61 4.609.614 2.204 1.883 3.865a9.5 9.5 0 0 0 3.192 2.664q1.926 1.004 4.592 1.004z"/></svg>