<svg xmlns="http://www.w3.org/2000/svg" width="59" height="59" fill="none" viewBox="0.08 0.17 58.48 58.78"><path fill="#1c1c1c" d="M57.09 29.37c0 15.52-12.518 28.1-27.96 28.1-15.44 0-27.958-12.58-27.958-28.1 0-15.518 12.517-28.099 27.959-28.099 15.44 0 27.958 12.58 27.958 28.1"/><path fill="#fff" fill-rule="evenodd" d="M29.32 57.412c15.306 0 27.715-12.47 27.715-27.854S44.626 1.704 29.319 1.704 1.603 14.174 1.603 29.558s12.409 27.854 27.716 27.854m0 1.534c16.149 0 29.24-13.157 29.24-29.388C58.56 13.328 45.47.17 29.32.17S.077 13.328.077 29.558 13.17 58.946 29.32 58.946" clip-rule="evenodd"/><path fill="#fff" d="M23.327 27.112h-4.36v4.38h4.36z"/><path fill="#fff" d="M18.968 22.731h-4.359v4.381h4.359zm-4.359 4.381H10.25v4.38h4.359zm4.359 4.38h-4.36l.001 4.381h4.359zm24.581-7.802c-.302-3.21-3.023-4.289-6.458-4.596v-2.057h-2.66v1.94c-.7 0-1.414.013-2.125.027v-1.969h-2.659v2.056c-.576.011-4.114.008-4.114.008l-.008 2.39 2.22.013v15.662h-2.22l-.019 2.356c.645 0 3.513.013 4.135.017v2.03H32.3v-1.982q1.092.023 2.125.022v1.96h2.66v-2.02c4.475-.26 7.608-1.407 7.997-5.687.315-3.446-1.275-4.983-3.815-5.609 1.543-.803 2.508-2.21 2.283-4.561zm-3.728 9.632c0 3.368-5.657 2.983-7.462 2.983v-5.969c1.804 0 7.459-.524 7.46 2.986zM38.586 24.9c0 3.064-4.72 2.704-6.223 2.704V22.19c1.505 0 6.225-.485 6.223 2.71"/></svg>
