<svg xmlns="http://www.w3.org/2000/svg" width="271" height="271" fill="none" viewBox="0 0 271 271"><path fill="#121212" stroke="gray" stroke-width="7" d="M135.07 266.64c72.664 0 131.57-58.906 131.57-131.57S207.734 3.5 135.07 3.5 3.5 62.406 3.5 135.07s58.906 131.57 131.57 131.57Z"/><path fill="#fff" d="M78.5 124.5h-19v19h19zm38 0h-19v19h19zm-19 19h-19v19h19zm0-37h-19v18h19zm58.58-13.314c3.78 0 6.467-.169 8.315-.169V75.5h10.499v18.023c3.612.337 6.719.842 9.575 1.6 2.772.673 5.375 1.853 7.727 3.284 2.352 1.432 4.283 3.285 5.627 5.559 1.428 2.274 2.184 4.969 2.436 8.169.756 8.674-2.184 14.822-8.903 18.444 5.375 1.347 9.323 3.789 11.927 7.411s3.695 8.674 3.023 15.327c-.336 3.453-1.008 6.317-2.183 8.928-1.176 2.526-2.604 4.632-4.368 6.316s-3.947 3.032-6.635 4.211c-2.604 1.179-5.46 1.937-8.315 2.442-2.856.505-6.215.842-9.911 1.011v18.191h-10.499v-17.939h-8.315V194.5h-10.499v-18.191H124.5l2.1-13.138h7.643c2.268 0 3.611-1.263 3.947-3.706v-49.267c-.588-3.285-2.603-4.801-6.047-4.801H124.5v-11.79h21.081V75.584h10.499V93.27h.084zm3.36 45.73h-3.276v24.171h5.796c.755 0 2.099 0 3.611-.085 1.596 0 2.856-.168 4.032-.252 1.175-.084 2.435-.337 3.863-.59 1.512-.252 2.688-.589 3.78-.926q1.511-.505 3.275-1.516c1.176-.59 2.016-1.348 2.688-2.105.672-.758 1.26-1.769 1.68-2.864.42-1.01.588-2.274.588-3.705q0-2.653-1.008-4.548-1.008-2.022-2.52-3.285c-.924-.842-2.268-1.6-3.947-2.189-1.596-.59-3.192-1.011-4.452-1.348-1.428-.253-3.023-.505-5.123-.589-2.016-.169-3.612-.253-4.704-.253h-4.367l.168.168zm-.504-32.845h-2.688v21.981h5.544c.755 0 1.931 0 3.443-.168a16 16 0 0 0 3.78-.422 57 57 0 0 0 3.527-.757c1.344-.337 2.436-.758 3.36-1.348.84-.505 1.764-1.263 2.52-1.937.755-.674 1.427-1.684 1.847-2.695s.588-2.274.588-3.706c0-1.6-.252-3.031-.84-4.21-.504-1.264-1.259-2.19-2.099-3.032-.756-.758-1.932-1.516-3.276-2.022-1.428-.505-2.604-1.01-3.78-1.179-1.175-.252-2.519-.421-4.199-.505-1.68-.168-3.024-.168-3.948-.168h-3.695v.168z"/></svg>