<svg xmlns="http://www.w3.org/2000/svg" width="149" height="40" fill="none" viewBox="0 0 149 40"><path fill="#fff" d="M49.322 30.648c-.18-.439-.095-.953.131-1.444 0 0 .219-.526.744-1.076.08-.085.096-.098.097-.1.098-.077.091-.145-.03-.185a18.5 18.5 0 0 0-2.635-.645l-.116-.02q-.19-.03-.29-.044c-1.634-.241-3.28-.264-3.28-.264l-.75-.004s-2.675-.015-2.695.152v.023c.014.04.074.064.107.082a1 1 0 0 1 .14.091 1.7 1.7 0 0 1 .494.608c.188.395.125.704-.261 2.405-.205.903-.478 2.095-.34 3.09.036.261.124.646.426.937.128.124.294.22.512.288.898.274 1.848.295 2.78.283.906-.01 1.823.012 2.728-.051.924-.064 1.347-.108 1.81-.251.732-.227 1.366-.424 1.63-1.008.274-.604.004-1.38-.314-1.83-.438-.618-.694-.565-.888-1.037m-29.88-3.446c-.93-.81-1.897-1.574-2.793-2.426a18.5 18.5 0 0 1-2.343-2.684 14 14 0 0 1-.973-1.538c-.103-.191-.22-.707-.43-.794-.345-.144-.736.375-.95.578-.423.402-.853.812-1.343 1.13-.896.582-1.909 1.024-2.755 1.675-.204.157-.64.485-.99.93-.567.716-.631 1.424-.965 2.606-.484 1.71-.736 2.567-.692 3.148.111 1.451.9 3.31 2.327 3.754a2.4 2.4 0 0 0 1.12.067c.827-.16 1.445-.797 2.003-1.51.504-.646.922-1.357 1.392-2.03.578-.825 1.24-1.299 2.37-.962 1.3.388 2.577.496 3.83.242a8.5 8.5 0 0 0 1.221-.354c.353-.129.765-.248 1.033-.527a.2.2 0 0 0 .051-.126c0-.034-.012-.07-.099-.178a1.4 1.4 0 0 0-.118-.133c-.306-.282-.582-.595-.896-.868"/><path fill="#fff" d="M80.432 5.72c-.733-.016-1.058.004-1.426.085-.284.063-.585.261-.654.298-.109.058-.147.083-.624.378l-.713.442c-.29.181-.502.318-.537.34a86 86 0 0 1-2.843 1.7c-2.116 1.2-3.175 1.895-5.09 2.96a82 82 0 0 1-6.892 3.402 73 73 0 0 1-9.23 2.904c-2.355.572-4.362.94-5.834 1.175-.052.01-5.231.957-10.105.957 0 0-11.585.52-15.895-2.93a4.3 4.3 0 0 1-.8-.868c-1.245-1.603-1.784-3.715-1.408-5.92.122-.714.122-1.145-.09-1.394-.5-.589-1.857-.271-2.503-.148-.936.179-1.84.498-2.742.8-1.488.497-2.975.826-4.537.948a27 27 0 0 1-3.995.037c-1.154-.083-2.277-.397-3.43-.498-.175-.015-.358-.025-.52.042-.538.225-.549 1.182-.563 1.672-.017.598.145 1.148.379 1.688.48 1.11 1.456 1.86 1.862 2.168.868.657 1.654.958 2.25 1.181 1.035.387 1.846.508 2.853.658.88.129 1.767.223 2.656.222.847 0 1.699-.163 2.544-.063.66.078.883.723 1.178 1.231.344.591.683 1.19 1.05 1.767 0 0 .676 1.063 1.766 2.253 1.104 1.204 2.362 2.265 3.6 3.329.308.264.642.508.931.793q.067.067.13.137c1.245 1.36 1.785 2.975 2.19 4.755.276 1.213.937 1.963 2.124 2.324 1.887.575 3.793.73 5.732.361.704-.133 1.616-.416 1.89-1.17.355-.973-.61-2.193-1.223-2.874-.176-.197-.27-.387-.296-.58-.043-.33.103-.622.25-.845 1.72-2.651 4.72-3.059 7.593-3.39.76-.09 3.182-.352 6.496-.065 3.103.268 5.234.768 7.36 3.08.694.755 1.512 1 3.059 1.467.274.082.661.108 1.224.288.069.021.845.273 1.499.651 1.25.726 1.12 1.379 2.237 2.218.987.742 2.014.916 2.507.996.933.152 2.487.406 3.385-.507 1.011-1.029.554-2.89.336-3.778a6.7 6.7 0 0 0-1.343-2.65c-.64-.772-1.416-1.416-2.21-2.02-.401-.304-.81-.598-1.217-.894-.295-.216-.857-.49-.89-.91-.048-.596.834-1.16 1.601-1.63 3.018-1.844 6.083-3.599 9.266-5.144 2.73-1.326 5.537-2.68 8.424-3.623a7.3 7.3 0 0 0 1.745-.81 7.3 7.3 0 0 0 1.187-.963c.686-.676 1.103-1.123 1.454-1.804.142-.276 1.207-2.367.392-3.383-.22-.273-.604-.363-.929-.434-1.06-.233-2.135-.276-3.213-.347-.294-.02-.77-.05-1.398-.065"/><path fill="#fff" d="M76.252 5.668c-.131-.425-.935-.604-1.31-.692a8.6 8.6 0 0 0-1.735-.226 8.3 8.3 0 0 0-1.858.206c-1.467.328-2.793.855-3.74 1.392-1.574.893-3.099 1.878-4.78 2.557q-.74.3-1.508.514c-1.788.492-4.397.265-9.61-.27-3.533-.363-3.896-.534-8.167-.965-1.781-.18-3.272-.33-5.333-.465-1.839-.119-4.184-.154-8.876-.225-.23-.004-2.23-.028-4.848.225-2.655.258-3.555.708-4.177 1.429-.751.869-.857 1.926-.912 2.473-.166 1.652.478 2.963.84 3.57.077.13.167.264.167.264s.466.705 1.04 1.234c.151.14.688.612 2.134 1.17.598.231 1.39.49 2.697.757.573.117 1.68.323 3.425.479 1.642.146 2.857.158 4.413.171 1.058.009 2.424.018 4.196-.065a72 72 0 0 0 5.52-.495 79 79 0 0 0 8.572-1.56c1.663-.402 4.309-1.049 7.547-2.269.62-.232 1.31-.504 2.1-.851a36 36 0 0 0 1.953-.93c.992-.507 3.002-1.504 3.985-1.997 1.144-.575 3.168-1.828 7.217-4.332.284-.174 1.164-.722 1.048-1.099M96.633 8.5v-7h-2.671V0h6.941v1.5h-2.67v7zm5.262 0V0h1.418v4.368h.2V8.5zm4.331 0V5.49q0-.219-.024-.558a2.5 2.5 0 0 0-.147-.682 1.3 1.3 0 0 0-.402-.573q-.278-.23-.789-.23a1.7 1.7 0 0 0-.44.065 1.1 1.1 0 0 0-.44.251q-.205.186-.337.546t-.132.956l-.916-.437a3.3 3.3 0 0 1 .305-1.416c.2-.436.518-.807.919-1.069q.612-.407 1.546-.407.746 0 1.214.254c.293.15.544.372.731.643.169.248.295.522.373.812q.104.379.135.77.023.349.023.508V8.5zm6.16.25q-.975 0-1.718-.423a3.03 3.03 0 0 1-1.163-1.166q-.42-.744-.42-1.702 0-1.048.411-1.825a3 3 0 0 1 1.133-1.205Q111.352 2 112.294 2q.998 0 1.697.474t1.034 1.331q.334.859.235 2.019h-1.58v-.592q0-.977-.309-1.406-.308-.43-1.007-.43-.816.002-1.201.501-.385.501-.387 1.479 0 .894.385 1.381.384.488 1.131.488c.282.009.561-.063.804-.207.227-.142.405-.35.511-.598l1.598.462a2.83 2.83 0 0 1-1.131 1.362 3.1 3.1 0 0 1-1.688.486m-2.105-2.924V4.63h4.205v1.196zM94.705 22.75v-8.5h3.323q.889 0 1.437.363c.347.22.626.536.804.912.164.346.251.725.253 1.11q0 .714-.314 1.186a1.5 1.5 0 0 1-.862.632v-.295q.778.165 1.168.737c.257.375.393.822.389 1.28q0 .76-.274 1.34c-.18.382-.471.698-.833.905q-.56.328-1.408.328zm1.593-5.183h1.707a1.1 1.1 0 0 0 .473-.094.74.74 0 0 0 .33-.292.97.97 0 0 0 .12-.51.95.95 0 0 0-.236-.656q-.237-.266-.687-.266h-1.707zm0 3.672h1.927c.196.003.391-.044.565-.139a1 1 0 0 0 .39-.39c.097-.18.146-.386.14-.593a1.16 1.16 0 0 0-.12-.537.9.9 0 0 0-.367-.375 1.2 1.2 0 0 0-.608-.138h-1.927zm6.093-5.81V14h1.487v1.429zm0 7.321v-6.429h1.487v6.429zm2.479-4.992V16.52h4.707v1.238zm4.707 5.132a6.7 6.7 0 0 1-1.345.109 3.3 3.3 0 0 1-1.174-.224 1.56 1.56 0 0 1-.787-.676 1.9 1.9 0 0 1-.255-.887 35 35 0 0 1-.013-1.024V14.75h1.666v5.344q0 .37.01.67a.9.9 0 0 0 .125.474q.22.336.705.366.538.025 1.072-.05zm3.857.11q-.975 0-1.67-.444a2.9 2.9 0 0 1-1.069-1.208q-.372-.765-.371-1.723 0-.971.387-1.735a2.95 2.95 0 0 1 1.087-1.202q.7-.438 1.658-.438 1.107 0 1.858.571.75.572.96 1.56l-1.577.427q-.14-.497-.483-.776a1.2 1.2 0 0 0-.78-.278q-.499 0-.818.247c-.217.17-.381.403-.469.669a2.8 2.8 0 0 0-.151.956q0 .835.362 1.353.363.518 1.076.518.531 0 .811-.247.28-.246.418-.71l1.612.345q-.268 1.019-1.009 1.57-.741.55-1.832.545m6.801 0q-.96 0-1.685-.432a3 3 0 0 1-1.128-1.193q-.404-.761-.404-1.75 0-1 .413-1.762a3 3 0 0 1 1.136-1.187q.724-.426 1.669-.426.96 0 1.687.432c.481.284.873.697 1.133 1.193q.408.763.408 1.75t-.409 1.756a3 3 0 0 1-1.137 1.19q-.729.429-1.683.429m0-1.504q.771 0 1.151-.524t.38-1.347q0-.852-.386-1.362t-1.145-.51q-.524 0-.86.238a1.4 1.4 0 0 0-.498.657 2.7 2.7 0 0 0-.162.977q0 .858.386 1.365.386.506 1.134.506m4.469-6.067V14h1.735v1.429zm0 7.321v-6.429h1.735v6.429zm3.471 0v-6.313h1.417v2.095h.2v4.218zm4.329 0v-2.981q0-.216-.023-.552a2.5 2.5 0 0 0-.147-.676 1.3 1.3 0 0 0-.402-.567q-.279-.228-.789-.228a1.7 1.7 0 0 0-.44.065 1.1 1.1 0 0 0-.44.248q-.205.184-.337.54t-.132.948l-.915-.433a3.3 3.3 0 0 1 .305-1.403 2.5 2.5 0 0 1 .918-1.058q.613-.403 1.546-.403.744 0 1.214.251a2 2 0 0 1 .732.637c.168.246.294.517.372.804q.104.375.135.763.024.345.024.503v3.542zm-34.199 14.5q-1.268 0-2.186-.548a3.66 3.66 0 0 1-1.414-1.535q-.495-.985-.495-2.292t.495-2.293a3.66 3.66 0 0 1 1.414-1.534q.917-.548 2.186-.548 1.455 0 2.444.718.99.717 1.394 1.944l-1.611.441q-.234-.765-.792-1.187-.556-.423-1.437-.423-.804 0-1.34.356a2.17 2.17 0 0 0-.808 1.003q-.267.648-.267 1.523t.27 1.523c.16.407.441.757.806 1.003q.539.356 1.34.356.881 0 1.438-.426.558-.426.792-1.184l1.608.443q-.404 1.225-1.394 1.944-.988.72-2.443.716m8.047 0q-.96 0-1.685-.432a3 3 0 0 1-1.129-1.193q-.403-.761-.403-1.75 0-1 .412-1.761a3 3 0 0 1 1.137-1.188q.725-.426 1.669-.426.96 0 1.688.432c.481.284.874.697 1.134 1.193q.406.763.406 1.75t-.41 1.756a3 3 0 0 1-1.137 1.19q-.727.429-1.682.429m0-1.504q.773 0 1.152-.524.38-.524.38-1.347 0-.852-.386-1.362-.385-.51-1.146-.51-.524 0-.86.238a1.4 1.4 0 0 0-.497.657 2.7 2.7 0 0 0-.162.977q0 .858.386 1.365.387.506 1.133.506m4.468 1.504v-6.588h1.437v2.186h.203v4.402zm3.902 0v-3.892q0-.653-.302-1.016-.302-.365-.835-.362-.508 0-.817.355-.308.357-.308.925l-.682-.488a2.16 2.16 0 0 1 .317-1.16c.211-.341.504-.621.853-.813a2.4 2.4 0 0 1 1.2-.299q.76 0 1.247.33c.32.213.571.519.721.878.159.382.238.793.233 1.208v4.331zm3.89 0v-3.892q0-.653-.302-1.016-.302-.365-.835-.362a1.07 1.07 0 0 0-.592.161 1.1 1.1 0 0 0-.392.452 1.5 1.5 0 0 0-.141.667l-.682-.463a2.24 2.24 0 0 1 .3-1.17 2.2 2.2 0 0 1 .859-.834 2.4 2.4 0 0 1 1.176-.29q1.107 0 1.673.668.565.669.565 1.748v4.331zm3.117 2.75v-9.32h1.386v4.42h.197V40zm3.073-2.689q-.93 0-1.554-.448a2.74 2.74 0 0 1-.939-1.219q-.315-.77-.315-1.738t.312-1.739c.189-.488.507-.91.919-1.219q.606-.448 1.496-.448t1.56.442c.445.297.802.716 1.031 1.21q.367.768.367 1.754 0 .967-.361 1.738a3 3 0 0 1-1.008 1.22q-.647.447-1.508.447m-.254-1.444q.508 0 .832-.262c.222-.184.389-.43.481-.708.107-.318.16-.653.156-.99a2.9 2.9 0 0 0-.162-.982 1.55 1.55 0 0 0-.501-.712q-.338-.266-.864-.266-.49 0-.794.245a1.4 1.4 0 0 0-.442.687 3.9 3.9 0 0 0 0 2.055c.077.273.236.513.453.687q.313.244.843.244zm6.246 1.383q-.684 0-1.158-.264a1.8 1.8 0 0 1-.72-.704 2 2 0 0 1-.245-.974 2.3 2.3 0 0 1 .139-.811 1.65 1.65 0 0 1 .439-.649q.303-.28.817-.47a6 6 0 0 1 .843-.231q.492-.099 1.109-.193l1.362-.204-.578.32q0-.569-.271-.835-.272-.267-.908-.267a1.8 1.8 0 0 0-.738.172q-.383.172-.536.61l-1.451-.462a2.47 2.47 0 0 1 .908-1.29q.666-.498 1.819-.498.843 0 1.497.26c.43.168.783.488.991.9.121.22.197.462.224.711q.036.355.036.793v3.908h-1.404v-1.314l.201.272q-.466.645-1.006.933-.54.287-1.37.287m.344-1.267a1.6 1.6 0 0 0 1.23-.515q.145-.153.246-.338c.087-.19.136-.397.144-.607q.021-.345.021-.577l.472.119q-.714.117-1.156.197a12 12 0 0 0-.714.145 4 4 0 0 0-.477.142 1.7 1.7 0 0 0-.381.204.7.7 0 0 0-.212.24.6.6 0 0 0-.068.29.65.65 0 0 0 .109.376.7.7 0 0 0 .31.24q.229.088.475.084zm4.722 1.267v-6.556h1.418v2.175h.2v4.381zm4.331 0v-3.096q0-.224-.024-.573a2.6 2.6 0 0 0-.147-.702 1.34 1.34 0 0 0-.401-.588q-.279-.237-.79-.237a1.6 1.6 0 0 0-.44.067 1.1 1.1 0 0 0-.44.258q-.205.19-.337.561-.132.37-.132.984l-.916-.45c-.003-.503.101-1 .305-1.456.2-.45.518-.83.919-1.1q.613-.417 1.546-.418.745 0 1.215.261c.292.155.543.382.73.662.169.254.295.537.373.834q.103.39.135.793.023.357.023.522v3.678zm3.846 2.75 1.199-3.392.023.997-2.705-6.855h1.623l1.819 4.85h-.369l1.807-4.85H149L145.49 40z"/></svg>