<?xml version="1.0" encoding="UTF-8" standalone="no" ?>
<!DOCTYPE svg PUBLIC "-//W3C//DTD SVG 1.1//EN" "http://www.w3.org/Graphics/SVG/1.1/DTD/svg11.dtd">
<svg xmlns="http://www.w3.org/2000/svg" xmlns:xlink="http://www.w3.org/1999/xlink" version="1.1" width="150" height="35" viewBox="0 0 150 35" xml:space="preserve">
<desc>Created with Fabric.js 5.2.4</desc>
<defs>
</defs>
<g transform="matrix(1 0 0 1 75 17.5)" id="5f640dd6-5942-40fe-ad80-645718fce0db"  >
<rect style="stroke: none; stroke-width: 1; stroke-dasharray: none; stroke-linecap: butt; stroke-dashoffset: 0; stroke-linejoin: miter; stroke-miterlimit: 4; fill: rgb(255,255,255); fill-rule: nonzero; opacity: 1; visibility: hidden;" vector-effect="non-scaling-stroke"  x="-75" y="-17.5" rx="0" ry="0" width="150" height="35" />
</g>
<g transform="matrix(Infinity NaN NaN Infinity 0 0)" id="b397b558-2f4c-4362-a7db-e6f73040f224"  >
</g>
<g transform="matrix(1 0 0 1 75 17.5)"  >
<g style="" vector-effect="non-scaling-stroke"   >
		<g transform="matrix(1 0 0 1 -26.3 -1.3)"  >
<path style="stroke: none; stroke-width: 1; stroke-dasharray: none; stroke-linecap: butt; stroke-dashoffset: 0; stroke-linejoin: miter; stroke-miterlimit: 4; fill: rgb(255,255,255); fill-rule: nonzero; opacity: 1;" vector-effect="non-scaling-stroke"  transform=" translate(-47.07, -13.83)" d="M 48.78 23.3 C 47.85 23.3 47.095 23.12 46.515 22.76 C 45.945 22.4 45.525 21.94 45.255 21.38 C 44.995 20.82 44.865 20.23 44.865 19.61 L 44.865 10.685 L 42.51 10.685 L 42.795 8.18 L 44.865 8.18 L 44.865 4.685 L 48 4.355 L 48 8.18 L 51.63 8.18 L 51.63 10.685 L 48 10.685 L 48 18.02 C 48 18.88 48.05 19.505 48.15 19.895 C 48.25 20.275 48.495 20.515 48.885 20.615 C 49.275 20.715 49.895 20.765 50.745 20.765 L 51.585 20.765 L 51.315 23.3 L 48.78 23.3 Z" stroke-linecap="round" />
</g>
		<g transform="matrix(1 0 0 1 -16.38 0.31)"  >
<path style="stroke: none; stroke-width: 1; stroke-dasharray: none; stroke-linecap: butt; stroke-dashoffset: 0; stroke-linejoin: miter; stroke-miterlimit: 4; fill: rgb(255,255,255); fill-rule: nonzero; opacity: 1;" vector-effect="non-scaling-stroke"  transform=" translate(-56.99, -15.44)" d="M 53.0803 23 L 53.0803 8.18 L 55.8403 8.18 L 56.0653 10.25 C 56.6653 9.53 57.3053 8.955 57.9853 8.525 C 58.6753 8.095 59.4203 7.88 60.2203 7.88 C 60.4603 7.88 60.6853 7.905 60.8953 7.955 L 60.6253 11.21 C 60.4553 11.17 60.2803 11.14 60.1003 11.12 C 59.9303 11.1 59.7503 11.09 59.5603 11.09 C 58.8403 11.09 58.1803 11.255 57.5803 11.585 C 56.9903 11.905 56.5703 12.27 56.3203 12.68 L 56.3203 23 L 53.0803 23 Z" stroke-linecap="round" />
</g>
		<g transform="matrix(1 0 0 1 -5.25 0.46)"  >
<path style="stroke: none; stroke-width: 1; stroke-dasharray: none; stroke-linecap: butt; stroke-dashoffset: 0; stroke-linejoin: miter; stroke-miterlimit: 4; fill: rgb(255,255,255); fill-rule: nonzero; opacity: 1;" vector-effect="non-scaling-stroke"  transform=" translate(-68.12, -15.59)" d="M 68.111 23.3 C 66.541 23.3 65.196 22.955 64.076 22.265 C 62.966 21.565 62.116 20.635 61.526 19.475 C 60.946 18.305 60.656 17.015 60.656 15.605 C 60.656 14.185 60.946 12.89 61.526 11.72 C 62.116 10.55 62.966 9.62 64.076 8.93 C 65.196 8.23 66.541 7.88 68.111 7.88 C 69.691 7.88 71.036 8.23 72.146 8.93 C 73.266 9.62 74.116 10.55 74.696 11.72 C 75.286 12.89 75.581 14.185 75.581 15.605 C 75.581 17.015 75.286 18.305 74.696 19.475 C 74.116 20.635 73.266 21.565 72.146 22.265 C 71.036 22.955 69.691 23.3 68.111 23.3 Z M 68.111 20.615 C 69.491 20.615 70.546 20.165 71.276 19.265 C 72.016 18.365 72.386 17.145 72.386 15.605 C 72.386 14.055 72.016 12.825 71.276 11.915 C 70.546 11.005 69.491 10.55 68.111 10.55 C 66.751 10.55 65.701 11.005 64.961 11.915 C 64.221 12.825 63.851 14.055 63.851 15.605 C 63.851 17.145 64.221 18.365 64.961 19.265 C 65.701 20.165 66.751 20.615 68.111 20.615 Z" stroke-linecap="round" />
</g>
		<g transform="matrix(1 0 0 1 11.11 3.95)"  >
<path style="stroke: none; stroke-width: 1; stroke-dasharray: none; stroke-linecap: butt; stroke-dashoffset: 0; stroke-linejoin: miter; stroke-miterlimit: 4; fill: rgb(255,255,255); fill-rule: nonzero; opacity: 1;" vector-effect="non-scaling-stroke"  transform=" translate(-84.48, -19.08)" d="M 77.3838 30.26 L 77.3838 8.18 L 79.8738 8.18 L 80.4588 11.165 L 79.5588 10.685 C 80.1988 9.835 80.9538 9.16 81.8238 8.66 C 82.6938 8.15 83.7588 7.895 85.0188 7.895 C 86.4088 7.895 87.5938 8.245 88.5738 8.945 C 89.5538 9.635 90.2988 10.565 90.8088 11.735 C 91.3188 12.895 91.5738 14.185 91.5738 15.605 C 91.5738 17.015 91.3238 18.305 90.8238 19.475 C 90.3338 20.635 89.6038 21.565 88.6338 22.265 C 87.6638 22.955 86.4588 23.3 85.0188 23.3 C 83.8488 23.3 82.8338 23.095 81.9738 22.685 C 81.1238 22.265 80.4188 21.625 79.8588 20.765 L 80.5188 20.15 L 80.5188 30.26 L 77.3838 30.26 Z M 84.4788 20.615 C 85.6988 20.615 86.6488 20.165 87.3288 19.265 C 88.0188 18.365 88.3638 17.145 88.3638 15.605 C 88.3638 14.055 88.0188 12.83 87.3288 11.93 C 86.6488 11.03 85.6988 10.58 84.4788 10.58 C 83.6488 10.58 82.9238 10.775 82.3038 11.165 C 81.6938 11.555 81.2138 12.125 80.8638 12.875 C 80.5238 13.615 80.3538 14.525 80.3538 15.605 C 80.3538 16.705 80.5238 17.625 80.8638 18.365 C 81.2138 19.105 81.6938 19.665 82.3038 20.045 C 82.9238 20.425 83.6488 20.615 84.4788 20.615 Z" stroke-linecap="round" />
</g>
		<g transform="matrix(1 0 0 1 25.68 4.09)"  >
<path style="stroke: none; stroke-width: 1; stroke-dasharray: none; stroke-linecap: butt; stroke-dashoffset: 0; stroke-linejoin: miter; stroke-miterlimit: 4; fill: rgb(255,255,255); fill-rule: nonzero; opacity: 1;" vector-effect="non-scaling-stroke"  transform=" translate(-99.05, -19.22)" d="M 94.2209 30.26 L 97.5809 22.205 L 91.4159 8.18 L 94.8959 8.18 L 99.1709 18.56 L 103.206 8.18 L 106.686 8.18 L 97.5209 30.26 L 94.2209 30.26 Z" stroke-linecap="round" />
</g>
		<g transform="matrix(1 0 0 1 40.35 -3.38)"  >
<path style="stroke: none; stroke-width: 1; stroke-dasharray: none; stroke-linecap: butt; stroke-dashoffset: 0; stroke-linejoin: miter; stroke-miterlimit: 4; fill: rgb(255,255,255); fill-rule: nonzero; opacity: 1;" vector-effect="non-scaling-stroke"  transform=" translate(-113.72, -11.75)" d="M 107.693 23 L 107.693 0.5 L 110.828 0.5 L 110.828 14.6 L 115.913 8.18 L 119.603 8.18 L 113.918 15.17 L 119.738 23 L 116.048 23 L 110.828 15.875 L 110.828 23 L 107.693 23 Z" stroke-linecap="round" />
</g>
		<g transform="matrix(1 0 0 1 53.54 0.61)"  >
<path style="stroke: none; stroke-width: 1; stroke-dasharray: none; stroke-linecap: butt; stroke-dashoffset: 0; stroke-linejoin: miter; stroke-miterlimit: 4; fill: rgb(255,255,255); fill-rule: nonzero; opacity: 1;" vector-effect="non-scaling-stroke"  transform=" translate(-126.91, -15.74)" d="M 126.424 23.3 C 125.094 23.3 123.999 23.035 123.139 22.505 C 122.279 21.975 121.639 21.205 121.219 20.195 C 120.799 19.185 120.589 17.96 120.589 16.52 L 120.589 8.18 L 123.724 8.18 L 123.724 16.085 C 123.724 17.575 123.974 18.7 124.474 19.46 C 124.984 20.22 125.814 20.6 126.964 20.6 C 127.794 20.6 128.529 20.4 129.169 20 C 129.819 19.6 130.299 18.99 130.609 18.17 L 130.099 19.82 L 130.099 8.18 L 133.234 8.18 L 133.234 23 L 130.384 23 L 129.994 20.24 L 130.744 20.96 C 130.314 21.68 129.729 22.25 128.989 22.67 C 128.259 23.09 127.404 23.3 126.424 23.3 Z" stroke-linecap="round" />
</g>
		<g transform="matrix(1 0 0 1 67.11 0.46)"  >
<path style="stroke: none; stroke-width: 1; stroke-dasharray: none; stroke-linecap: butt; stroke-dashoffset: 0; stroke-linejoin: miter; stroke-miterlimit: 4; fill: rgb(255,255,255); fill-rule: nonzero; opacity: 1;" vector-effect="non-scaling-stroke"  transform=" translate(-140.48, -15.59)" d="M 140.138 23.3 C 138.968 23.3 137.968 23.17 137.138 22.91 C 136.308 22.65 135.623 22.375 135.083 22.085 L 135.413 19.235 C 135.923 19.585 136.568 19.925 137.348 20.255 C 138.138 20.575 139.028 20.735 140.018 20.735 C 140.878 20.735 141.533 20.595 141.983 20.315 C 142.443 20.025 142.673 19.6 142.673 19.04 C 142.673 18.58 142.538 18.21 142.268 17.93 C 141.998 17.64 141.643 17.4 141.203 17.21 C 140.763 17.02 140.298 16.845 139.808 16.685 C 139.038 16.435 138.308 16.145 137.618 15.815 C 136.938 15.485 136.383 15.045 135.953 14.495 C 135.533 13.935 135.323 13.195 135.323 12.275 C 135.323 11.475 135.523 10.74 135.923 10.07 C 136.323 9.4 136.928 8.87 137.738 8.48 C 138.558 8.08 139.598 7.88 140.858 7.88 C 141.818 7.88 142.633 7.985 143.303 8.195 C 143.983 8.395 144.588 8.635 145.118 8.915 L 144.788 11.69 C 144.258 11.28 143.683 10.94 143.063 10.67 C 142.453 10.39 141.738 10.25 140.918 10.25 C 140.158 10.25 139.553 10.4 139.103 10.7 C 138.653 10.99 138.428 11.435 138.428 12.035 C 138.428 12.675 138.693 13.14 139.223 13.43 C 139.753 13.72 140.578 14.055 141.698 14.435 C 142.208 14.605 142.708 14.81 143.198 15.05 C 143.688 15.28 144.133 15.56 144.533 15.89 C 144.943 16.22 145.268 16.63 145.508 17.12 C 145.748 17.61 145.868 18.195 145.868 18.875 C 145.868 19.655 145.678 20.38 145.298 21.05 C 144.928 21.72 144.323 22.265 143.483 22.685 C 142.653 23.095 141.538 23.3 140.138 23.3 Z" stroke-linecap="round" />
</g>
		<g transform="matrix(1 0 0 1 -55.1 1.32)"  >
<path style="stroke: none; stroke-width: 1; stroke-dasharray: none; stroke-linecap: butt; stroke-dashoffset: 0; stroke-linejoin: miter; stroke-miterlimit: 4; fill: rgb(255,255,255); fill-rule: nonzero; opacity: 1;" vector-effect="non-scaling-stroke"  transform=" translate(-18.27, -16.45)" d="M 17.4064 23.354 L 17.4064 19.5015 C 17.4064 16.3471 17.4705 13.4939 17.4705 13.4939 L 17.4705 10.0694 L 18.2699 9.53809 L 19.1334 10.0694 L 19.1334 13.4939 L 19.1334 19.5015 L 19.1334 23.354 L 17.4064 23.354 Z" stroke-linecap="round" />
</g>
		<g transform="matrix(1 0 0 1 -55.1 1.27)"  >
<path style="stroke: none; stroke-width: 1; stroke-dasharray: none; stroke-linecap: butt; stroke-dashoffset: 0; stroke-linejoin: miter; stroke-miterlimit: 4; fill: rgb(255,255,255); fill-rule: evenodd; opacity: 1;" vector-effect="non-scaling-stroke"  transform=" translate(-18.27, -16.4)" d="M 18.2595 8.94458 L 19.6334 9.78992 L 19.6334 23.8539 L 16.9064 23.8539 L 16.9064 19.5015 C 16.9064 17.9211 16.9225 16.4166 16.9385 15.3075 C 16.9465 14.7529 16.9546 14.2969 16.9606 13.9795 C 16.9636 13.8207 16.9661 13.6967 16.9679 13.6122 L 16.9705 13.4883 L 16.9705 9.8013 L 18.2595 8.94458 Z M 17.9704 13.5051 L 17.9677 13.633 C 17.9659 13.7169 17.9634 13.8404 17.9604 13.9984 C 17.9544 14.3146 17.9464 14.769 17.9384 15.322 C 17.9224 16.428 17.9064 17.9274 17.9064 19.5015 L 17.9064 22.8539 L 18.6334 22.8539 L 18.6334 10.3488 L 18.2803 10.1315 L 17.9705 10.3374 L 17.9704 13.5051 Z" stroke-linecap="round" />
</g>
		<g transform="matrix(1 0 0 1 -51.79 -2.14)"  >
<path style="stroke: none; stroke-width: 1; stroke-dasharray: none; stroke-linecap: butt; stroke-dashoffset: 0; stroke-linejoin: miter; stroke-miterlimit: 4; fill: rgb(255,255,255); fill-rule: nonzero; opacity: 1;" vector-effect="non-scaling-stroke"  transform=" translate(-21.57, -12.99)" d="M 25.1779 10.8337 C 26.9049 12.9925 27.2503 15.4103 25.1779 18.1734 C 24.8649 17.3238 24.3933 16.4477 23.944 15.6747 C 23.944 15.3336 24.2539 14.8443 24.3144 14.7195 C 23.8827 14.7195 23.6294 14.8443 23.4509 14.8443 L 23.446 14.8361 C 23.1111 14.2788 22.839 13.8259 22.7315 13.5504 C 22.7315 13.323 23.4509 12.129 23.4509 12.129 C 23.4509 12.129 22.2295 12.9069 22.1304 12.7894 C 21.8176 12.4188 21.5011 12.081 21.1849 11.774 L 20.4287 11.0947 C 18.889 9.81933 17.4348 9.24396 16.543 9.10676 C 16.9747 8.24327 18.4996 7.81152 19.1334 7.81152 C 22.1556 7.81152 24.3144 9.53851 25.1779 10.8337 Z" stroke-linecap="round" />
</g>
		<g transform="matrix(1 0 0 1 -63.88 -9.85)"  >
<path style="stroke: none; stroke-width: 1; stroke-dasharray: none; stroke-linecap: butt; stroke-dashoffset: 0; stroke-linejoin: miter; stroke-miterlimit: 4; fill: rgb(255,255,255); fill-rule: nonzero; opacity: 1;" vector-effect="non-scaling-stroke"  transform=" translate(-9.48, -5.28)" d="M 5.74921 2.19848 C 4.45397 2.77414 1.69079 4.70261 1 7.81118 C 2.54915 7.54409 3.98745 7.36305 5.31746 7.2521 L 5.74921 6.0842 L 6.30725 7.18103 C 6.78557 7.07118 7.3888 7.02482 8.06787 7.02816 L 8.77143 5.22071 L 9.31296 7.08118 C 9.81063 7.11847 10.3292 7.17411 10.8542 7.24407 L 11.7937 6.0842 L 11.7714 7.37944 C 14.4998 7.81995 17.1812 8.58087 17.8381 9.10642 C 17.982 8.38684 18.2698 6.51594 16.9746 5.2207 C 12.139 0.385147 7.90794 1.23905 5.74921 2.19848 Z" stroke-linecap="round" />
</g>
		<g transform="matrix(1 0 0 1 -63.9 -9.81)"  >
<path style="stroke: none; stroke-width: 1; stroke-dasharray: none; stroke-linecap: butt; stroke-dashoffset: 0; stroke-linejoin: miter; stroke-miterlimit: 4; fill: rgb(255,255,255); fill-rule: evenodd; opacity: 1;" vector-effect="non-scaling-stroke"  transform=" translate(-9.47, -5.32)" d="M 10.3442 1.63541 C 8.43558 1.36766 6.85727 1.81534 5.78981 2.28977 C 5.15333 2.57265 4.14901 3.19167 3.21878 4.12547 C 2.31863 5.02907 1.49219 6.22297 1.13173 7.68711 C 2.60261 7.43758 3.9732 7.26569 5.24571 7.1577 L 5.73467 5.83502 L 6.3613 7.06666 C 6.81999 6.97011 7.37931 6.92792 7.99954 6.9279 L 8.7851 4.9098 L 9.38962 6.98666 C 9.85055 7.02262 10.3283 7.07395 10.8118 7.13749 L 11.8986 5.79562 L 11.8728 7.29454 C 13.2114 7.51401 14.5342 7.80912 15.6089 8.11476 C 16.1576 8.27082 16.643 8.42998 17.0333 8.58367 C 17.3373 8.70333 17.5891 8.82173 17.7688 8.93543 C 17.913 8.13564 18.0784 6.46581 16.9039 5.29132 C 14.4992 2.8866 12.2517 1.90301 10.3442 1.63541 Z M 10.372 1.43735 C 12.3286 1.71183 14.6145 2.71907 17.0453 5.1499 C 18.3811 6.48567 18.0798 8.40743 17.9361 9.12594 L 17.9039 9.28705 L 17.7756 9.18441 C 17.6239 9.06304 17.3452 8.9214 16.9601 8.76977 C 16.5777 8.61921 16.0989 8.46207 15.5542 8.30714 C 14.4647 7.99731 13.1161 7.69776 11.7554 7.47807 L 11.6699 7.46426 L 11.6887 6.3726 L 10.8966 7.35051 L 10.841 7.3431 C 10.3176 7.27336 9.80097 7.21793 9.30549 7.18081 L 9.23633 7.17563 L 8.75774 5.53143 L 8.13611 7.12841 L 8.06737 7.12807 C 7.39207 7.12475 6.79739 7.17097 6.32963 7.2784 L 6.25353 7.29588 L 5.76373 6.3332 L 5.38919 7.34638 L 5.32577 7.35167 C 3.99878 7.46236 2.56338 7.64301 1.01699 7.90963 L 0.870026 7.93497 L 0.902376 7.78939 C 1.253 6.2116 2.12881 4.93623 3.07709 3.98432 C 4.02495 3.03283 5.04983 2.39979 5.70859 2.10701 C 6.79986 1.622 8.41648 1.16302 10.372 1.43735 Z" stroke-linecap="round" />
</g>
		<g transform="matrix(1 0 0 1 -61 -2.14)"  >
<path style="stroke: none; stroke-width: 1; stroke-dasharray: none; stroke-linecap: butt; stroke-dashoffset: 0; stroke-linejoin: miter; stroke-miterlimit: 4; fill: rgb(255,255,255); fill-rule: nonzero; opacity: 1;" vector-effect="non-scaling-stroke"  transform=" translate(-12.37, -12.99)" d="M 13.8134 7.81152 C 14.8208 7.81152 17.181 8.15692 18.5626 9.53851 C 17.0627 9.81122 15.2892 10.8106 13.5502 12.0798 L 12.5182 11.6972 L 12.7338 12.6966 C 12.4299 12.9338 12.1285 13.1772 11.8314 13.4242 L 9.92772 12.5607 L 10.8256 14.2877 C 10.5089 14.5679 10.1999 14.8491 9.90097 15.1277 L 9.06422 14.7195 L 9.23505 15.7597 C 8.30086 16.6626 7.49615 17.5089 6.90547 18.1734 C 6.47372 17.166 5.78293 14.7195 6.47372 12.9925 C 8.20071 8.84771 12.0864 7.81152 13.8134 7.81152 Z" stroke-linecap="round" />
</g>
		<g transform="matrix(1 0 0 1 -46.73 -5.64)"  >
<path style="stroke: none; stroke-width: 1; stroke-dasharray: none; stroke-linecap: butt; stroke-dashoffset: 0; stroke-linejoin: miter; stroke-miterlimit: 4; fill: rgb(255,255,255); fill-rule: nonzero; opacity: 1;" vector-effect="non-scaling-stroke"  transform=" translate(-26.63, -9.49)" d="M 23.8822 4.68607 C 20.4283 5.37686 18.7013 8.14003 18.2695 9.43527 C 21.2345 8.77639 22.4398 8.36889 24.5709 8.59639 L 25.6092 7.27656 L 25.6092 8.74427 C 26.0035 8.81254 26.4316 8.89844 26.9045 9.00352 C 27.1409 9.05606 27.3751 9.12017 27.6067 9.19458 L 28.6314 8.14005 L 28.6314 9.59575 C 29.1225 9.82203 29.7663 10.3312 30.2184 10.6252 L 31.2809 10.094 L 30.9683 11.0388 C 32.4965 12.2266 33.6771 13.6441 34.2441 14.6162 C 35.1076 13.6088 35.5394 10.2988 33.8124 8.14004 C 30.9453 4.55622 28.1997 3.82258 23.8822 4.68607 Z" stroke-linecap="round" />
</g>
		<g transform="matrix(1 0 0 1 -50.69 -10.36)"  >
<path style="stroke: none; stroke-width: 1; stroke-dasharray: none; stroke-linecap: butt; stroke-dashoffset: 0; stroke-linejoin: miter; stroke-miterlimit: 4; fill: rgb(255,255,255); fill-rule: nonzero; opacity: 1;" vector-effect="non-scaling-stroke"  transform=" translate(-22.68, -4.77)" d="M 18.7016 9.10641 C 18.4487 9.35931 18.2946 9.46407 18.2392 9.50746 L 18.2699 9.53815 C 18.2103 9.53815 18.2 9.53815 18.2392 9.50746 L 17.8381 9.10641 C 17.4063 7.52334 17.2336 3.75276 19.9968 1.33498 C 22.76 -1.0828 26.3291 0.327573 27.7683 1.33498 C 27.0756 1.46485 26.1356 1.75099 25.1126 2.22865 L 23.8825 1.76672 L 24.0635 2.77408 C 23.7914 2.93065 23.5174 3.10063 23.2443 3.2846 L 21.7238 2.63021 L 22.1555 4.10351 C 20.7205 5.30722 19.4226 6.94344 18.7016 9.10641 Z" stroke-linecap="round" />
</g>
</g>
</g>
</svg>