<svg xmlns="http://www.w3.org/2000/svg" xml:space="preserve" width="150" height="35" viewBox="0 0 150 35"><path d="M48.78 23.3q-1.395 0-2.265-.54-.855-.54-1.26-1.38-.39-.84-.39-1.77v-8.925H42.51l.285-2.505h2.07V4.685L48 4.355V8.18h3.63v2.505H48v7.335q0 1.29.15 1.875.15.57.735.72t1.86.15h.84l-.27 2.535zm4.3-.3V8.18h2.76l.225 2.07q.9-1.08 1.92-1.725a4.15 4.15 0 0 1 2.235-.645q.36 0 .675.075l-.27 3.255q-.255-.06-.525-.09-.255-.03-.54-.03-1.08 0-1.98.495-.885.48-1.26 1.095V23zm15.031.3q-2.355 0-4.035-1.035a7 7 0 0 1-2.55-2.79q-.87-1.755-.87-3.87 0-2.13.87-3.885.885-1.755 2.55-2.79 1.68-1.05 4.035-1.05 2.37 0 4.035 1.05 1.68 1.035 2.55 2.79.885 1.755.885 3.885 0 2.115-.885 3.87a6.85 6.85 0 0 1-2.55 2.79Q70.481 23.3 68.111 23.3m0-2.685q2.07 0 3.165-1.35 1.11-1.35 1.11-3.66 0-2.325-1.11-3.69-1.095-1.365-3.165-1.365-2.04 0-3.15 1.365t-1.11 3.69q0 2.31 1.11 3.66t3.15 1.35m9.273 9.645V8.18h2.49l.585 2.985-.9-.48a7.5 7.5 0 0 1 2.265-2.025q1.305-.765 3.195-.765 2.085 0 3.555 1.05 1.47 1.035 2.235 2.79.765 1.74.765 3.87 0 2.115-.75 3.87-.735 1.74-2.19 2.79-1.455 1.035-3.615 1.035-1.755 0-3.045-.615-1.275-.63-2.115-1.92l.66-.615v10.11zm7.095-9.645q1.83 0 2.85-1.35 1.035-1.35 1.035-3.66 0-2.325-1.035-3.675-1.02-1.35-2.85-1.35-1.245 0-2.175.585-.915.585-1.44 1.71-.51 1.11-.51 2.73 0 1.65.51 2.76.525 1.11 1.44 1.68.93.57 2.175.57m9.741 9.645 3.36-8.055L91.417 8.18h3.48l4.275 10.38 4.035-10.38h3.48l-9.165 22.08zM107.693 23V.5h3.135v14.1l5.085-6.42h3.69l-5.685 6.99 5.82 7.83h-3.69l-5.22-7.125V23zm18.731.3q-1.995 0-3.285-.795t-1.92-2.31-.63-3.675V8.18h3.135v7.905q0 2.235.75 3.375.765 1.14 2.49 1.14 1.245 0 2.205-.6.975-.6 1.44-1.83l-.51 1.65V8.18h3.135V23h-2.85l-.39-2.76.75.72a4.7 4.7 0 0 1-1.755 1.71q-1.095.63-2.565.63m13.714 0q-1.755 0-3-.39t-2.055-.825l.33-2.85q.765.525 1.935 1.02 1.185.48 2.67.48 1.29 0 1.965-.42.69-.435.69-1.275 0-.69-.405-1.11-.405-.435-1.065-.72t-1.395-.525q-1.155-.375-2.19-.87a4.65 4.65 0 0 1-1.665-1.32q-.63-.84-.63-2.22 0-1.2.6-2.205t1.815-1.59q1.23-.6 3.12-.6 1.44 0 2.445.315 1.02.3 1.815.72l-.33 2.775a8 8 0 0 0-1.725-1.02q-.915-.42-2.145-.42-1.14 0-1.815.45-.675.435-.675 1.335 0 .96.795 1.395t2.475 1.005q.765.255 1.5.615.735.345 1.335.84.615.495.975 1.23t.36 1.755q0 1.17-.57 2.175-.555 1.005-1.815 1.635-1.245.615-3.345.615m-122.732.054v-3.852c0-3.155.065-6.008.065-6.008v-3.425l.799-.53.863.53v13.285z" style="stroke:none;stroke-width:1;stroke-dasharray:none;stroke-linecap:butt;stroke-dashoffset:0;stroke-linejoin:miter;stroke-miterlimit:4;fill:#fff;fill-rule:nonzero;opacity:1" transform="translate(1.63 2.37)" vector-effect="non-scaling-stroke"/><path d="m18.26 8.945 1.373.845v14.064h-2.727v-4.352a297 297 0 0 1 .062-5.89l.003-.124V9.801zm-.29 4.56-.002.128-.008.365a296 296 0 0 0-.054 5.504v3.352h.727V10.349l-.353-.217-.31.205z" style="stroke:none;stroke-width:1;stroke-dasharray:none;stroke-linecap:butt;stroke-dashoffset:0;stroke-linejoin:miter;stroke-miterlimit:4;fill:#fff;fill-rule:evenodd;opacity:1" transform="translate(1.63 2.37)" vector-effect="non-scaling-stroke"/><path d="M25.178 10.834c1.727 2.159 2.072 4.576 0 7.34-.313-.85-.785-1.726-1.234-2.5 0-.34.31-.83.37-.954-.431 0-.685.124-.863.124l-.005-.008c-.335-.557-.607-1.01-.715-1.286 0-.227.72-1.421.72-1.421s-1.221.778-1.32.66q-.47-.555-.946-1.015l-.756-.68c-1.54-1.275-2.994-1.85-3.886-1.987.432-.864 1.957-1.295 2.59-1.295 3.023 0 5.181 1.727 6.045 3.022" style="stroke:none;stroke-width:1;stroke-dasharray:none;stroke-linecap:butt;stroke-dashoffset:0;stroke-linejoin:miter;stroke-miterlimit:4;fill:#fff;fill-rule:nonzero;opacity:1" transform="translate(1.64 2.37)" vector-effect="non-scaling-stroke"/><path d="M5.75 2.198C4.453 2.774 1.69 4.703 1 7.811a50 50 0 0 1 4.317-.559l.432-1.168.558 1.097c.479-.11 1.082-.156 1.76-.153l.704-1.807.542 1.86c.498.037 1.016.093 1.541.163l.94-1.16-.023 1.295c2.729.441 5.41 1.202 6.067 1.727.144-.72.432-2.59-.863-3.885C12.139.385 7.908 1.239 5.749 2.198" style="stroke:none;stroke-width:1;stroke-dasharray:none;stroke-linecap:butt;stroke-dashoffset:0;stroke-linejoin:miter;stroke-miterlimit:4;fill:#fff;fill-rule:nonzero;opacity:1" transform="translate(1.64 2.37)" vector-effect="non-scaling-stroke"/><path d="M10.344 1.635a8.3 8.3 0 0 0-4.554.655c-.637.283-1.641.902-2.571 1.835-.9.904-1.727 2.098-2.087 3.562 1.47-.25 2.841-.421 4.114-.53l.489-1.322.626 1.232C6.82 6.97 7.38 6.927 8 6.927l.785-2.017.605 2.077c.46.036.938.087 1.422.15l1.087-1.341-.026 1.499a35 35 0 0 1 3.736.82 16 16 0 0 1 1.424.469c.304.12.556.238.736.351.144-.8.31-2.47-.865-3.644-2.405-2.404-4.652-3.388-6.56-3.656m.028-.198c1.957.275 4.243 1.282 6.673 3.713 1.336 1.336 1.035 3.257.891 3.976l-.032.161-.128-.103c-.152-.121-.43-.263-.816-.414-.382-.15-.861-.308-1.406-.463a34 34 0 0 0-3.799-.829l-.085-.014.019-1.091-.792.978-.056-.008c-.523-.07-1.04-.125-1.536-.162l-.069-.005-.478-1.645-.622 1.597h-.069c-.675-.003-1.27.043-1.737.15l-.076.018-.49-.963-.375 1.013-.063.006c-1.327.11-2.763.291-4.309.558l-.147.025.032-.146c.351-1.577 1.227-2.853 2.175-3.805C4.025 3.033 5.05 2.4 5.71 2.107a8.5 8.5 0 0 1 4.663-.67" style="stroke:none;stroke-width:1;stroke-dasharray:none;stroke-linecap:butt;stroke-dashoffset:0;stroke-linejoin:miter;stroke-miterlimit:4;fill:#fff;fill-rule:evenodd;opacity:1" transform="translate(1.63 2.37)" vector-effect="non-scaling-stroke"/><path d="M13.813 7.812c1.008 0 3.368.345 4.75 1.727-1.5.272-3.274 1.272-5.013 2.54l-1.032-.382.216 1q-.456.356-.903.727l-1.903-.863.898 1.727q-.476.42-.925.84l-.837-.409.171 1.04a46 46 0 0 0-2.33 2.414c-.431-1.007-1.122-3.453-.431-5.18 1.727-4.145 5.612-5.181 7.34-5.181" style="stroke:none;stroke-width:1;stroke-dasharray:none;stroke-linecap:butt;stroke-dashoffset:0;stroke-linejoin:miter;stroke-miterlimit:4;fill:#fff;fill-rule:nonzero;opacity:1" transform="translate(1.63 2.37)" vector-effect="non-scaling-stroke"/><path d="M23.882 4.686c-3.454.69-5.18 3.454-5.613 4.75 2.966-.66 4.17-1.067 6.302-.84l1.038-1.32v1.468q.589.102 1.295.26.355.078.703.19L28.63 8.14v1.456c.491.226 1.135.735 1.587 1.03l1.063-.532-.313.945c1.528 1.188 2.71 2.605 3.276 3.577.864-1.007 1.295-4.317-.432-6.476-2.867-3.584-5.612-4.317-9.93-3.454" style="stroke:none;stroke-width:1;stroke-dasharray:none;stroke-linecap:butt;stroke-dashoffset:0;stroke-linejoin:miter;stroke-miterlimit:4;fill:#fff;fill-rule:nonzero;opacity:1" transform="translate(1.64 2.37)" vector-effect="non-scaling-stroke"/><path d="M18.702 9.106c-.253.253-.407.358-.463.401l.03.031c-.059 0-.069 0-.03-.03l-.4-.402c-.433-1.583-.605-5.353 2.158-7.771s6.332-1.007 7.771 0c-.692.13-1.632.416-2.655.894l-1.23-.462.18 1.007q-.409.236-.819.51l-1.52-.654.431 1.474c-1.434 1.203-2.732 2.84-3.453 5.002" style="stroke:none;stroke-width:1;stroke-dasharray:none;stroke-linecap:butt;stroke-dashoffset:0;stroke-linejoin:miter;stroke-miterlimit:4;fill:#fff;fill-rule:nonzero;opacity:1" transform="translate(1.63 2.37)" vector-effect="non-scaling-stroke"/></svg>