<svg width="48" height="39" viewBox="0 0 48 39" xmlns="http://www.w3.org/2000/svg">
<path d="M48 4.6C46.2 5.4 44.4 6 42.4 6.2C44.4 5 46 3 46.8 0.8C44.8 2 42.8 2.8 40.6 3.2C38.8 1.2 36.2 0 33.4 0C28 0 23.6 4.4 23.6 9.8C23.6 10.6 23.6 11.4 23.8 12C15.4 11.6 8.2 7.6 3.4 1.6C2.4 3.2 2 4.8 2 6.6C2 10 3.8 13 6.4 14.8C4.8 14.8 3.2 14.4 2 13.6C2 13.6 2 13.6 2 13.8C2 18.6 5.4 22.6 9.8 23.4C9 23.6 8.2 23.8 7.2 23.8C6.6 23.8 6 23.8 5.4 23.6C6.6 27.6 10.2 30.4 14.6 30.4C11.2 33 7 34.6 2.4 34.6C1.6 34.6 0.8 34.6 0 34.4C4.4 37.2 9.6 38.8 15 38.8C33.2 38.8 43 23.8 43 10.8C43 10.4 43 10 43 9.6C45 8.2 46.6 6.4 48 4.6Z" fill="#22374F"/>
</svg>
