<svg xmlns="http://www.w3.org/2000/svg" width="133" height="133" fill="none" viewBox="61 43 133 133"><mask id="a" width="133" height="133" x="61" y="43" maskUnits="userSpaceOnUse" style="mask-type:luminance"><path fill="#fff" d="M193.626 43.687H61.687v131.939h131.939z"/></mask><g mask="url(#a)"><path fill="#0b53bf" d="M127.656 175.626c36.434 0 65.97-29.536 65.97-65.97s-29.536-65.969-65.97-65.969-65.969 29.536-65.969 65.969c0 36.434 29.536 65.97 65.969 65.97"/><path fill="#fff" d="M139.531 61.622v8.494c16.946 5.112 29.356 20.863 29.356 39.54 0 18.678-12.41 34.428-29.356 39.54v8.494c21.605-5.278 37.602-24.78 37.602-48.034S161.136 66.9 139.531 61.622m-53.105 48.034c0-18.677 12.41-34.428 29.356-39.54v-8.494c-21.605 5.278-37.603 24.78-37.603 48.034s15.998 42.756 37.603 48.034v-8.494c-16.946-5.071-29.356-20.862-29.356-39.54"/><path fill="#fff" d="M145.386 118.851c0-16.863-26.429-9.937-26.429-19.255 0-3.34 2.68-5.484 7.793-5.484 6.102 0 8.204 2.97 8.864 6.968h8.411c-.75-7.505-5.058-12.244-12.245-13.656v-6.63h-8.246v6.393c-7.874 1.003-12.823 5.588-12.823 12.41 0 16.945 26.47 10.595 26.47 19.749 0 3.463-3.34 5.772-8.988 5.772-7.381 0-9.813-3.257-10.72-7.751h-8.205c.531 8.221 5.6 13.366 14.266 14.65v6.501h8.246v-6.415c8.457-1.092 13.606-6.012 13.606-13.252"/></g></svg>