<svg xmlns="http://www.w3.org/2000/svg" width="40" height="40" fill="none" style="border-radius:100%" viewBox="0 0 40 40"><path fill="#26a17b" d="M0 20C0 8.954 8.954 0 20 0s20 8.954 20 20-8.954 20-20 20S0 31.046 0 20"/><path fill="#fff" d="M22.204 21.916v-.004c-.138.01-.854.052-2.448.052a52 52 0 0 1-2.484-.052v.004c-4.9-.217-8.555-1.068-8.555-2.09 0-1.02 3.658-1.875 8.555-2.091v3.332c.32.023 1.239.078 2.507.078 1.522 0 2.284-.065 2.425-.078v-3.329c4.89.22 8.536 1.071 8.536 2.09 0 1.02-3.648 1.871-8.536 2.09zm0-4.523v-2.98h6.823V9.866H10.453v4.545h6.822v2.981c-5.545.255-9.712 1.352-9.712 2.668s4.17 2.413 9.712 2.67v9.555h4.933v-9.554c5.535-.255 9.696-1.352 9.696-2.668 0-1.313-4.16-2.413-9.696-2.668"/></svg>