<svg xmlns="http://www.w3.org/2000/svg" width="1114" height="320" fill="none" viewBox="0 0 1114 320"><path fill="#f0f0f0" d="M1048.17 76.933c-39.109 0-66.088 31.156-66.088 86.967s26.478 86.716 66.088 86.716c39.601 0 65.838-30.887 65.838-86.716s-26.488-86.967-65.838-86.967m.019 150.05c-23.906 0-39.397-23.113-39.397-63.083 0-39.972 15.51-63.335 39.397-63.335 23.877 0 39.146 22.844 39.146 63.335s-15.25 63.084-39.146 63.084M757.17 80.127h-57.31v167.275h57.31c52.403 0 84.869-31.003 84.869-83.387s-32.466-83.888-84.87-83.888m0 144.893h-29.772V102.51h29.772c35.66 0 56.829 22.632 56.829 61.506s-21.15 61.005-56.83 61.005m-253.053-41.319c0 27.79-15.011 44.763-40.587 44.763s-40.587-16.724-40.587-44.763V80.127h-27.558v103.575c0 41.568 26.076 66.914 68.145 66.914s68.145-25.346 68.145-66.914V80.127h-27.558zm335.46-80.462h55.829v144.162h27.558V103.241h55.6V80.127H839.575zM579.24 121.446c0-13.28 11.066-21.9 30.253-21.9s32.716 9.102 37.393 29.77h29.27c-5.907-36.66-32.966-52.402-65.931-52.402-38.125 0-59.293 21.65-59.293 46.745 0 67.164 101.362 31.984 101.362 79.211 0 15.01-12.048 25.095-34.93 25.095s-36.41-10.334-41.087-29.271h-28.79c6.89 34.93 32.466 51.903 69.627 51.903s63.469-18.456 63.469-51.422c0-68.396-101.362-33.697-101.362-77.73z"/><path fill="#00805e" d="M160.288 320c88.366 0 160-71.634 160-160 0-88.365-71.634-160-160-160-88.365 0-160 71.635-160 160 0 88.366 71.635 160 160 160"/><path fill="#f0f0f0" d="M242.098 116.585V80.212H78.48v36.373h63.623v36.353h36.372v-36.353zm-99.976 109.078v36.373h36.353v-36.373h36.353v-72.725h-36.353v72.725z"/><path fill="#f0f0f0" d="M142.121 152.938H105.75v72.725h36.371z"/></svg>