<svg xmlns="http://www.w3.org/2000/svg" xml:space="preserve" style="fill-rule:evenodd;clip-rule:evenodd;stroke-linejoin:round;stroke-miterlimit:2" viewBox="0 0 421 180"><path d="m3.698 3.869 50.045 21.505-30.279-4.439 81.392 151.67 81.391-151.67-30.278 4.439 50.045-21.505-101.158 173.992z" style="fill:#fff"/><path d="M232.531 93.436h3.209l4.938-36.194h-3.703l-2.839 23.124-2.84-23.124h-3.703zm32.145.198c1.975 0 5.728-.198 5.728-7.407V57.242h-3.753v29.133c0 3.086-.296 3.753-1.876 3.753s-2.025-.667-2.025-3.753V57.242h-3.753v28.985c0 7.209 3.753 7.407 5.679 7.407m26.368-.198h9.826V89.93h-6.074V57.242h-3.752zm27.454 0h3.753V79.61h1.102c6.111 0 7.242-2.317 7.242-11.357 0-9.579-1.131-11.011-7.242-11.011h-4.806zm3.753-17.381V60.699h1.102c3.083 0 3.49 1.283 3.49 7.357 0 6.574-.407 7.999-3.49 7.999zm27.256 17.381h9.826v-3.209h-6.073V76.45h4.444v-3.259h-4.444V60.452h5.53v-3.21h-9.283zm28.195 0h3.506V70.624l2.222 17.381h2.419l2.222-17.381v22.812h3.506V57.242h-3.506l-3.407 22.171-3.456-22.171h-3.506zm-172.576 50.865h3.21l4.937-36.194h-3.703l-2.839 23.125-2.839-23.125h-3.704zm26.664 0h9.826v-3.209h-6.073v-13.777h4.444v-3.259h-4.444v-12.739h5.53v-3.21h-9.283zm28.195.099h3.703v-22.444l4.642 22.444h3.703v-36.293h-3.703v21.728l-4.494-21.728h-3.851zm33.528-.099h3.752v-32.836h3.852v-3.358h-11.456v3.358h3.852zm30.713.198c1.975 0 5.727-.198 5.727-7.407v-28.985h-3.752v29.133c0 3.086-.296 3.753-1.877 3.753s-2.024-.667-2.024-3.753v-29.133h-3.753v28.985c0 7.209 3.753 7.407 5.679 7.407m26.367-.198h3.506v-13.875h2.222l2.519 13.925h3.505l-2.715-14.814c2.37-1.382 2.419-4.542 2.419-11.258 0-9.283-1.481-10.172-6.863-10.172h-4.543zm3.506-17.381v-15.356h1.087c3.341 0 3.357.406 3.357 6.846 0 7.549-.014 8.499-3.357 8.499zm28.096 17.381h9.827v-3.209h-6.074v-13.777h4.444v-3.259h-4.444v-12.739h5.53v-3.21h-9.283zm32.54.198c3.852 0 5.63-2.518 5.63-7.901 0-11.357-7.457-14.615-7.457-22.121 0-2.568.346-3.506 1.729-3.506 1.382 0 1.728.889 1.728 3.506v3.506h3.654v-3.555c0-4.197-2.025-6.518-5.284-6.518-3.703 0-5.332 2.321-5.332 6.123 0 9.727 7.258 12.196 7.258 22.565 0 4-.444 4.691-2.024 4.691-1.729 0-1.877-.888-1.877-3.95v-5.481h-3.654l-.049 5.382c0 4.741.938 7.259 5.678 7.259" style="fill:#fff;fill-rule:nonzero"/></svg>