<?xml version="1.0" encoding="UTF-8" standalone="no"?><!DOCTYPE svg PUBLIC "-//W3C//DTD SVG 1.1//EN" "http://www.w3.org/Graphics/SVG/1.1/DTD/svg11.dtd"><svg width="100%" height="100%" viewBox="0 0 421 180" version="1.1" xmlns="http://www.w3.org/2000/svg" xmlns:xlink="http://www.w3.org/1999/xlink" xml:space="preserve" xmlns:serif="http://www.serif.com/" style="fill-rule:evenodd;clip-rule:evenodd;stroke-linejoin:round;stroke-miterlimit:2;"><g id="logo_horizontal-100-width" serif:id="logo_horizontal 100 width"><g><path d="M3.698,3.869l50.045,21.505l-30.279,-4.439l81.392,151.67l81.391,-151.67l-30.278,4.439l50.045,-21.505l-101.158,173.992l-101.158,-173.992Z" style="fill:#fff;"/></g><g><path d="M232.531,93.436l3.209,0l4.938,-36.194l-3.703,0l-2.839,23.124l-2.84,-23.124l-3.703,0l4.938,36.194Z" style="fill:#fff;fill-rule:nonzero;"/><path d="M264.676,93.634c1.975,0 5.728,-0.198 5.728,-7.407l0,-28.985l-3.753,0l0,29.133c0,3.086 -0.296,3.753 -1.876,3.753c-1.58,0 -2.025,-0.667 -2.025,-3.753l0,-29.133l-3.753,0l0,28.985c0,7.209 3.753,7.407 5.679,7.407Z" style="fill:#fff;fill-rule:nonzero;"/><path d="M291.044,93.436l9.826,0l0,-3.506l-6.074,0l0,-32.688l-3.752,0l0,36.194Z" style="fill:#fff;fill-rule:nonzero;"/><path d="M318.498,93.436l3.753,0l0,-13.826l1.102,0c6.111,0 7.242,-2.317 7.242,-11.357c0,-9.579 -1.131,-11.011 -7.242,-11.011l-4.806,0l-0.049,36.194Zm3.753,-17.381l0,-15.356l1.102,0c3.083,0 3.49,1.283 3.49,7.357c0,6.574 -0.407,7.999 -3.49,7.999l-1.102,0Z" style="fill:#fff;fill-rule:nonzero;"/><path d="M349.507,93.436l9.826,0l0,-3.209l-6.073,0l0,-13.777l4.444,0l0,-3.259l-4.444,0l0,-12.739l5.53,0l0,-3.21l-9.283,0l0,36.194Z" style="fill:#fff;fill-rule:nonzero;"/><path d="M377.702,93.436l3.506,0l0,-22.812l2.222,17.381l2.419,0l2.222,-17.381l0,22.812l3.506,0l0,-36.194l-3.506,0l-3.407,22.171l-3.456,-22.171l-3.506,0l0,36.194Z" style="fill:#fff;fill-rule:nonzero;"/><path d="M205.126,144.301l3.21,0l4.937,-36.194l-3.703,0l-2.839,23.125l-2.839,-23.125l-3.704,0l4.938,36.194Z" style="fill:#fff;fill-rule:nonzero;"/><path d="M231.79,144.301l9.826,0l0,-3.209l-6.073,0l0,-13.777l4.444,0l0,-3.259l-4.444,0l0,-12.739l5.53,0l0,-3.21l-9.283,0l0,36.194Z" style="fill:#fff;fill-rule:nonzero;"/><path d="M259.985,144.4l3.703,0l0,-22.444l4.642,22.444l3.703,0l0,-36.293l-3.703,0l0,21.728l-4.494,-21.728l-3.851,0l0,36.293Z" style="fill:#fff;fill-rule:nonzero;"/><path d="M293.513,144.301l3.752,0l0,-32.836l3.852,0l0,-3.358l-11.456,0l0,3.358l3.852,0l0,32.836Z" style="fill:#fff;fill-rule:nonzero;"/><path d="M324.226,144.499c1.975,0 5.727,-0.198 5.727,-7.407l0,-28.985l-3.752,0l0,29.133c0,3.086 -0.296,3.753 -1.877,3.753c-1.58,0 -2.024,-0.667 -2.024,-3.753l0,-29.133l-3.753,0l0,28.985c0,7.209 3.753,7.407 5.679,7.407Z" style="fill:#fff;fill-rule:nonzero;"/><path d="M350.593,144.301l3.506,0l0,-13.875l2.222,0l2.519,13.925l3.505,0l-2.715,-14.814c2.37,-1.382 2.419,-4.542 2.419,-11.258c0,-9.283 -1.481,-10.172 -6.863,-10.172l-4.543,0l-0.05,36.194Zm3.506,-17.381l0,-15.356l1.087,0c3.341,0 3.357,0.406 3.357,6.846c0,7.549 -0.014,8.499 -3.357,8.499l-1.087,0.011Z" style="fill:#fff;fill-rule:nonzero;"/><path d="M382.195,144.301l9.827,0l0,-3.209l-6.074,0l0,-13.777l4.444,0l0,-3.259l-4.444,0l0,-12.739l5.53,0l0,-3.21l-9.283,0l0,36.194Z" style="fill:#fff;fill-rule:nonzero;"/><path d="M414.735,144.499c3.852,0 5.63,-2.518 5.63,-7.901c0,-11.357 -7.457,-14.615 -7.457,-22.121c0,-2.568 0.346,-3.506 1.729,-3.506c1.382,0 1.728,0.889 1.728,3.506l0,3.506l3.654,0l0,-3.555c0,-4.197 -2.025,-6.518 -5.284,-6.518c-3.703,0 -5.332,2.321 -5.332,6.123c0,9.727 7.258,12.196 7.258,22.565c0,4 -0.444,4.691 -2.024,4.691c-1.729,0 -1.877,-0.888 -1.877,-3.95l0,-5.481l-3.654,0l-0.049,5.382c0,4.741 0.938,7.259 5.678,7.259Z" style="fill:#fff;fill-rule:nonzero;"/></g></g></svg>