<svg xmlns="http://www.w3.org/2000/svg" width="49" height="49" fill="none" viewBox="0 0 49 49"><ellipse cx="24.5" cy="24.5" fill="#fff" rx="24" ry="23.5" style="fill:#fff;fill-opacity:1"/><path fill="#f7931a" fill-rule="evenodd" d="M28.571 21.036c0 2.701-4.214 2.373-5.55 2.373v-4.76c1.339 0 5.55-.423 5.55 2.386m1.1 7.388c0 2.952-5.047 2.615-6.655 2.615V25.81c1.608 0 6.656-.468 6.656 2.625m3.324-8.454c-.269-2.833-2.694-3.77-5.764-4.064v-3.884h-2.357v3.806c-.625 0-1.262 0-1.897.024v-3.83H20.61v3.907h-4.806v2.543s1.75-.03 1.725 0a1.224 1.224 0 0 1 1.346 1.044v10.701a.84.84 0 0 1-.89.787c.031.028-1.725 0-1.725 0l-.468 2.84h4.788v3.98h2.371v-3.922h1.894v3.896h2.372v-3.926c4.006-.234 6.79-1.234 7.15-4.992.283-3.027-1.136-4.375-3.404-4.916 1.379-.702 2.245-1.94 2.039-4.001" clip-rule="evenodd" style="fill:#f7931a;fill:color(display-p3 .9686 .5765 .102);fill-opacity:1"/><path fill="#000" fill-opacity=".6" d="M11.547 10.137a19.08 19.08 0 0 1 18.045-4.195l.272.077q.204.06.403.127.29.091.57.194l.188.068q.384.14.761.3l.03.014a21.6 21.6 0 0 1 5.505 3.427l1.044-1.128c-.14-.14-.286-.27-.429-.403A20.7 20.7 0 0 0 24.952 3.57h-.819c-1.551.022-3.095.21-4.605.562l-.31.075-.257.068c-1.505.404-2.96.976-4.336 1.707A16.5 16.5 0 0 0 10.56 9.06zm-1.324 1.313-1.147-1.004c-7.782 8.157-6.649 21.43 0 27.755l1.17-.916a19.11 19.11 0 0 1-.02-25.834zm30.022-.496q-.269-.282-.553-.548l-1.005 1.1c5.9 6.704 7.146 17.344.186 25.536l.978 1.182a20.78 20.78 0 0 0 .403-27.27zm-2.85 27.654q-1.018.76-2.03 1.405a19.05 19.05 0 0 1-8.262 3.296 17 17 0 0 1-4.603.108 19.07 19.07 0 0 1-10.472-4.42l-.468-.34-1.08.967c3.777 3.73 8.953 5.523 14.048 5.52h.391a20.7 20.7 0 0 0 12.897-4.946c.164-.155.33-.307.487-.468z" style="fill:#000;fill-opacity:.6"/><path fill="#000" d="M24.407 1.639A22.777 22.777 0 1 1 1.639 24.407 22.803 22.803 0 0 1 24.407 1.639m0-1.639a24.416 24.416 0 1 0 .019 48.833A24.416 24.416 0 0 0 24.406 0" style="fill:#000;fill-opacity:1"/></svg>