<svg xmlns="http://www.w3.org/2000/svg" width="441" height="160" fill="none" viewBox="0 0 441 160"><path fill="#ff4e00" d="M432.129 0H8.871C3.972 0 0 3.998 0 8.928v129.967c0 4.93 3.972 8.928 8.87 8.928h116.693a1.887 1.887 0 0 0 1.881-1.893v-3.278a1.887 1.887 0 0 0-1.881-1.893H8.871a1.857 1.857 0 0 1-1.853-1.864V8.928c0-1.031.828-1.865 1.853-1.865h423.258c1.025 0 1.853.834 1.853 1.865v129.967a1.857 1.857 0 0 1-1.853 1.864H312.63a1.887 1.887 0 0 0-1.881 1.893v3.278c0 1.045.842 1.893 1.881 1.893h119.499c4.899 0 8.871-3.998 8.871-8.928V8.928C441 3.998 437.028 0 432.129 0"/><path fill="#f2f1ef" fill-rule="evenodd" d="M192.752 124.231h8.688v6.682h6.091v9.634h-6.091v3.815c0 4.379.842 4.803 4.772 4.803h1.319v10.086h-5.109c-8.66 0-11.299-2.896-11.299-12.403v-6.272h-3.158v-8.844c.913-.028 1.741-.254 2.471-.664.926-.565 1.586-1.582 1.908-2.952.211-.961.351-2.176.408-3.716zm-43.076 0h-8.688v.127c-.056 1.54-.182 2.755-.407 3.715-.323 1.371-.982 2.388-1.909 2.953-.716.41-1.544.636-2.47.664v8.843h3.158v6.273c0 9.507 2.639 12.403 11.299 12.403h5.109v-10.087h-1.32c-3.93 0-4.772-.409-4.772-4.803v-3.814h6.092v-9.634h-6.092v-6.682zm152.511 23.013 2.513 4.351a.56.56 0 0 1-.098.692l-6.92 6.795a.573.573 0 0 1-.814 0l-6.906-6.795a.56.56 0 0 1-.084-.707l2.681-4.351a.59.59 0 0 1 .491-.268h8.632c.211 0 .393.113.491.283m-9.909-16.825h-1.024c-5.39 0-7.636 1.539-8.309 5.678l-.211 1.314-1.881-6.498h-8.618v28.338h11.397v-11.965c0-3.899 1.235-5.142 5.067-5.142h3.537l.042-11.711zm-41.152 11.259-.07.353h7.831l-.056-.339c-.323-2.261-1.53-3.32-3.775-3.32s-3.495 1.045-3.93 3.306m-10.808 3.178c0-8.9 5.615-14.437 14.639-14.437 9.236 0 14.541 5.142 14.541 14.098v3.164h-18.428l.056.339c.379 2.529 1.642 3.716 3.972 3.716 1.403 0 2.344-.551 2.849-1.681H269.4c-1.698 6.682-6.484 9.931-14.611 9.931-9.474 0-14.499-4.874-14.499-14.099v-1.045zm-71.834-2.825.07-.353c.421-2.261 1.67-3.306 3.93-3.306s3.453 1.059 3.776 3.32l.056.339zm3.902-11.612c-9.025 0-14.639 5.537-14.639 14.437v1.045c0 9.225 5.01 14.099 14.498 14.099 8.127 0 12.913-3.249 14.612-9.931h-11.468c-.505 1.13-1.445 1.681-2.849 1.681-2.344 0-3.607-1.187-3.972-3.715l-.056-.339h18.429v-3.165c0-8.956-5.306-14.098-14.541-14.098zm57.139 0c-3.467 0-6.021 1.469-7.397 4.238l-.561 1.13v-14.014h-11.004v37.464h11.004v-14.776c0-2.374.21-4.705 2.652-4.705s2.555 2.077 2.555 4.408v15.073h10.906V140.59c0-6.951-2.597-10.186-8.155-10.186z" clip-rule="evenodd"/><path fill="#ff4e00" d="M378.78 72.739a.995.995 0 0 0-1.305 0l-24.703 21.374a1.01 1.01 0 0 0 0 1.525l21.643 19.326a.97.97 0 0 0 .66.254l49.924.283c.927 0 1.362-1.159.66-1.766l-46.851-40.982zM206.549 50.193c.224-.198.35-.48.35-.777V17.8c0-.551-.449-1.003-.996-1.003h-12.534a1 1 0 0 0-.646.24L79.54 113.707c-.716.607-.28 1.779.646 1.779h49.068a1 1 0 0 0 .646-.24l76.663-65.053zm-63.863 0c.225-.198.351-.48.351-.777V17.8c0-.551-.449-1.003-.996-1.003h-12.534a1 1 0 0 0-.646.24l-113.197 96.67c-.716.607-.28 1.779.645 1.779h49.069a1 1 0 0 0 .646-.24zm282.299-33.396h-49.924a.97.97 0 0 0-.66.254L310.89 70.874v44.556l114.741-96.867c.702-.608.281-1.78-.66-1.78z"/><path fill="#ff4e00" d="M266.902 17.051a1.04 1.04 0 0 0-.66-.254h-50.795c-.547 0-.996.452-.996 1.003v31.6c0 .551.449 1.003.996 1.003h40.746c.252 0 .491.1.673.269l9.404 8.66c.211.197.323.466.323.748v11.104c0 .31-.14.593-.379.791l-11.509 9.267a1.02 1.02 0 0 1-.632.226h-71.469a1 1 0 0 0-.646.24l-37.166 31.743c-.716.608-.281 1.78.645 1.78h120.791a.97.97 0 0 0 .66-.254l36.507-32.336V49.373l-36.507-32.336zM16.66 102.956l62.164-52.763c.225-.198.351-.48.351-.777V17.8c0-.551-.45-1.003-.996-1.003H65.645a1 1 0 0 0-.646.24l-49.644 42.38c-.225.198-.35.48-.35.763v41.985c0 .862.996 1.328 1.655.777z"/></svg>