<svg xmlns="http://www.w3.org/2000/svg" width="32" height="32" fill="none" style="border-radius:8px;object-fit:cover" viewBox="0 0 40 40"><path fill="#2d374b" d="M0 0h40v40H0z"/><path fill="#fff" d="M18.708 7.317 9.19 12.815A2.38 2.38 0 0 0 8 14.876l.006 11.007a2.38 2.38 0 0 0 1.188 2.059l9.53 5.508a2.38 2.38 0 0 0 2.379 0l9.518-5.496a2.38 2.38 0 0 0 1.19-2.061l-.006-11.007a2.38 2.38 0 0 0-1.189-2.058l-9.529-5.51a2.38 2.38 0 0 0-2.38 0Z"/><path fill="#2d374b" d="M15.567 29.73a.45.45 0 0 1 .094-.196l8.542-14.492q.06-.104.11-.197c-.025-.043-.053-.034-.077-.034-1.217.004-2.434.012-3.652.01a.255.255 0 0 0-.241.162l-8.606 14.201q-.028.044-.051.086c-.034.067-.074.077-.144.037-.302-.179-.608-.352-.93-.537l8.677-13.916c-.018-.057-.057-.042-.086-.043-.465-.014-.93-.034-1.395-.039a5.2 5.2 0 0 0-1.917.31 2.7 2.7 0 0 0-1.35 1.096 1811 1811 0 0 1-4.775 7.407l-.077.116c-.092 0-.078-.076-.087-.129a1.5 1.5 0 0 1-.005-.239c0-2.726.009-5.453-.009-8.18a1.18 1.18 0 0 1 .673-1.135c2.097-1.195 4.18-2.415 6.27-3.622.933-.54 1.868-1.073 2.794-1.623a1.06 1.06 0 0 1 1.178 0c1.703 1 3.42 1.975 5.132 2.96q1.935 1.114 3.874 2.226c.093.053.183.11.275.161a.9.9 0 0 1 .475.841q.003 4.449 0 8.898a.6.6 0 0 1-.024.216c-.102.1-.14-.012-.177-.065-.154-.216-.292-.444-.435-.668a1504 1504 0 0 0-3.446-5.37c-.387-.603-.78-1.205-1.162-1.812-.09-.141-.106-.143-.195.009q-.869 1.467-1.734 2.936a.3.3 0 0 0 .035.348q.715 1.152 1.426 2.307l2.432 3.934.986 1.594a.4.4 0 0 1 .098.255c-.066.13-.203.167-.318.227a2.4 2.4 0 0 1-.611.32c-.118-.03-.16-.136-.216-.223-.753-1.175-1.496-2.355-2.244-3.533-.77-1.21-1.535-2.425-2.308-3.634-.1-.155-.115-.156-.208 0-.672 1.131-1.335 2.267-2.01 3.397a.3.3 0 0 0 .018.351c.907 1.4 1.794 2.81 2.692 4.217.25.392.503.782.749 1.177.048.076.113.153.07.257q-.354.275-.76.471-1.257.732-2.517 1.462a.83.83 0 0 1-.902 0 778 778 0 0 0-3.718-2.136.5.5 0 0 1-.213-.166"/><path fill="#fff" d="M30.198 24.104c.003.584.016 1.17.003 1.753a.74.74 0 0 1-.388.67c-.588.334-1.166.686-1.76 1.01-.236-.431-.508-.841-.766-1.26q-2.01-3.258-4.025-6.512c-.08-.13-.154-.266-.244-.388a.196.196 0 0 1 0-.251q.479-.806.953-1.614l.881-1.494a.17.17 0 0 1 .078-.083l.462.713 4.663 7.265a.6.6 0 0 0 .143.191m-3.07 3.968c-.382.251-.788.465-1.182.698-.715.42-1.434.832-2.152 1.248l-.122.067a.34.34 0 0 0-.082-.178l-1.916-3.012a845 845 0 0 0-1.58-2.47.254.254 0 0 1-.014-.307q1.06-1.782 2.109-3.571c.017-.028.03-.06.071-.069.058.013.072.07.099.114l3.815 6.01q.404.64.812 1.28a.6.6 0 0 0 .142.19"/></svg>