<svg width="32" height="32" viewBox="0 0 40 40" fill="none" xmlns="http://www.w3.org/2000/svg" alt="arbitrum" style="border-radius: 8px; object-fit: cover;"><path fill="#2D374B" d="M0 0h40v40H0z"></path><path d="M18.708 7.317 9.19 12.815A2.38 2.38 0 0 0 8 14.876l.006 11.007a2.38 2.38 0 0 0 1.188 2.059l9.53 5.508a2.38 2.38 0 0 0 2.379 0l9.518-5.496a2.38 2.38 0 0 0 1.19-2.061l-.006-11.007a2.38 2.38 0 0 0-1.189-2.058l-9.529-5.51a2.38 2.38 0 0 0-2.38 0Z" fill="#fff"></path><path d="M15.567 29.73a.445.445 0 0 1 .094-.196l8.542-14.492c.04-.068.077-.136.11-.197-.025-.043-.053-.034-.077-.034-1.217.004-2.434.012-3.652.01a.255.255 0 0 0-.241.162 95201.244 95201.244 0 0 1-8.606 14.201c-.018.03-.036.057-.051.086-.034.067-.074.077-.144.037-.302-.179-.608-.352-.93-.537l8.677-13.916c-.018-.057-.057-.042-.086-.043-.465-.014-.93-.034-1.395-.039a5.157 5.157 0 0 0-1.917.31 2.707 2.707 0 0 0-1.35 1.096 1811.166 1811.166 0 0 1-4.775 7.407l-.077.116c-.092 0-.078-.076-.087-.129-.008-.079-.01-.159-.005-.239 0-2.726.009-5.453-.009-8.18a1.176 1.176 0 0 1 .673-1.135c2.097-1.195 4.18-2.415 6.27-3.622.933-.54 1.868-1.073 2.794-1.623a1.057 1.057 0 0 1 1.178 0c1.703 1 3.42 1.975 5.132 2.96 1.29.743 2.582 1.485 3.874 2.226.093.053.183.11.275.161a.896.896 0 0 1 .475.841c.002 2.966.002 5.932 0 8.898a.577.577 0 0 1-.024.216c-.102.1-.14-.012-.177-.065-.154-.216-.292-.444-.435-.668a1504.44 1504.44 0 0 0-3.446-5.37c-.387-.603-.78-1.205-1.162-1.812-.09-.141-.106-.143-.195.009-.579.978-1.157 1.957-1.734 2.936a.298.298 0 0 0 .035.348c.476.768.952 1.537 1.426 2.307l2.432 3.934.986 1.594a.403.403 0 0 1 .098.255c-.066.13-.203.167-.318.227a2.399 2.399 0 0 1-.611.32c-.118-.03-.16-.136-.216-.223-.753-1.175-1.496-2.355-2.244-3.533-.77-1.21-1.535-2.425-2.308-3.634-.1-.155-.115-.156-.208 0-.672 1.131-1.335 2.267-2.01 3.397a.301.301 0 0 0 .018.351c.907 1.4 1.794 2.81 2.692 4.217.25.392.503.782.749 1.177.048.076.113.153.07.257-.236.183-.49.341-.76.471-.838.488-1.677.976-2.517 1.462a.832.832 0 0 1-.902 0 777.817 777.817 0 0 0-3.718-2.136.484.484 0 0 1-.213-.166Z" fill="#2D374B"></path><path d="M30.198 24.104c.003.584.016 1.17.003 1.753a.74.74 0 0 1-.388.67c-.588.334-1.166.686-1.76 1.01-.236-.431-.508-.841-.766-1.26-1.34-2.172-2.682-4.343-4.025-6.512-.08-.13-.154-.266-.244-.388a.196.196 0 0 1 0-.251c.32-.537.636-1.076.953-1.614l.881-1.494a.168.168 0 0 1 .078-.083l.462.713a18576.288 18576.288 0 0 1 4.663 7.265.6.6 0 0 0 .143.191ZM27.128 28.072c-.382.251-.788.465-1.182.698-.715.42-1.434.832-2.152 1.248l-.122.067a.339.339 0 0 0-.082-.178l-1.916-3.012a845.212 845.212 0 0 0-1.58-2.47.254.254 0 0 1-.014-.307c.706-1.188 1.41-2.379 2.109-3.571.017-.028.03-.06.071-.069.058.013.072.07.099.114l3.815 6.01c.27.427.54.854.812 1.28a.632.632 0 0 0 .142.19Z" fill="#fff"></path></svg>
