<svg width="32" height="32" viewBox="0 0 64 64" fill="none" xmlns="http://www.w3.org/2000/svg" alt="bera" style="border-radius: 8px; object-fit: cover;"><circle cx="32" cy="32" r="32" fill="#814625"></circle><path d="M30.807 30.38a2.249 2.249 0 0 1-.08-.326 2.805 2.805 0 0 0-.03-.152 7.368 7.368 0 0 0-.083-.327c.5-.728 2.885-4.523.17-6.958-3.013-2.704-6.533.84-6.533.84l.011.015c-1.582-.463-3.298-.517-4.967-.016-.02-.02-3.53-3.535-6.533-.84-3.005 2.697.24 7.06.257 7.082a2.114 2.114 0 0 0-.081.314c-.325 1.866-2.538 2.443-2.538 5.694 0 3.252 2.315 5.926 7.04 5.926h1.94c.008.012.807 1.102 2.446 1.1 1.522 0 2.527-1.09 2.535-1.1h1.85c4.726 0 7.041-2.612 7.041-5.926 0-3.028-1.919-3.736-2.445-5.326ZM53.389 26.664s.351-3.134-2.32-3.807V21.6h-2.07v1.226c-2.817.6-2.454 3.838-2.454 3.838v.538s-.363 3.239 2.456 3.838v2.69c-2.97.522-2.595 3.867-2.595 3.867v.537s-.364 3.238 2.454 3.838v1.226h2.07v-1.257c2.67-.673 2.32-3.807 2.32-3.807a.208.208 0 0 0 .21-.204v-.13a.208.208 0 0 0-.21-.203s.348-3.107-2.286-3.799V31.04h-.031c2.819-.6 2.456-3.838 2.456-3.838a.208.208 0 0 0 .21-.204v-.13a.208.208 0 0 0-.21-.204Zm-1.686 10.933h-.19a.208.208 0 0 0-.211.203v.13c0 .113.095.204.211.204h.19c0 1.944-.67 2.271-.896 2.326-.037.01-.073-.017-.073-.054v-.62c0-.342-.227-.53-.453-.632a1.11 1.11 0 0 0-.907 0c-.227.102-.453.29-.453.632v.62a.058.058 0 0 1-.072.054c-.224-.054-.897-.378-.897-2.326v-.537c0-1.944.67-2.272.896-2.327.037-.009.073.018.073.055v.62c0 .342.227.53.453.632.286.129.62.129.907 0 .226-.102.453-.29.453-.633v-.62c0-.035.035-.063.072-.054.224.054.897.379.897 2.327Zm-.05-10.395h.19c0 1.947-.674 2.272-.898 2.326a.058.058 0 0 1-.072-.054v-.62c0-.343-.226-.53-.453-.632a1.11 1.11 0 0 0-.907 0c-.226.102-.453.29-.453.632v.62c0 .036-.036.063-.073.054-.225-.055-.895-.382-.895-2.326v-.538c0-1.947.672-2.272.897-2.326a.058.058 0 0 1 .071.054v.62c0 .343.227.53.453.632.287.13.62.13.907 0 .227-.102.453-.29.453-.632v-.62c0-.036.036-.063.073-.054.226.055.896.382.896 2.326h-.19a.208.208 0 0 0-.21.204v.13c0 .112.094.204.21.204ZM43.036 32.199s.365-3.257-2.48-3.844v-2.926c2.77-.625 2.41-3.829 2.41-3.829H41.42c0 1.948-.673 2.273-.897 2.327a.058.058 0 0 1-.072-.055v-.62c0-.342-.227-.53-.453-.632a1.11 1.11 0 0 0-.907 0c-.226.102-.453.29-.453.632v.62c0 .037-.036.063-.073.054-.226-.055-.896-.382-.896-2.326h-1.546s-.373 3.325 2.568 3.861v2.89c-2.866.576-2.499 3.848-2.499 3.848v.537s-.367 3.271 2.499 3.847v2.756c-2.941.537-2.568 3.86-2.568 3.86h1.546c0-1.947.673-2.272.897-2.326a.058.058 0 0 1 .072.055v.62c0 .342.227.53.453.632.287.129.62.129.907 0 .226-.102.453-.29.453-.632v-.62c0-.037.036-.063.073-.054.226.055.896.382.896 2.326h1.546s.36-3.204-2.41-3.829V36.58c2.845-.586 2.48-3.843 2.48-3.843a.208.208 0 0 0 .212-.204v-.13a.208.208 0 0 0-.212-.204Zm-1.736.537h.19c0 1.948-.673 2.272-.898 2.326a.058.058 0 0 1-.071-.054v-.62c0-.342-.227-.53-.453-.632a1.11 1.11 0 0 0-.907 0c-.227.102-.453.29-.453.632v.62c0 .037-.036.063-.073.054-.226-.055-.896-.382-.896-2.326v-.537c0-1.948.673-2.273.897-2.327a.058.058 0 0 1 .072.055v.62c0 .342.226.53.453.632.286.129.62.129.907 0 .226-.102.453-.29.453-.633v-.62c0-.036.036-.063.073-.053.225.055.895.382.895 2.326H41.3a.208.208 0 0 0-.211.203v.13c0 .113.095.204.211.204Z" fill="#fff"></path></svg>
