<svg width="32" height="32" viewBox="5 5 30 30" fill="none" xmlns="http://www.w3.org/2000/svg" alt="mp1" style="border-radius: 8px; object-fit: cover;"><path fill="#F6931A" d="M0 0h40v40H0z"></path><path d="M20 34c7.733 0 14.001-6.268 14.001-14s-6.268-14-14-14C12.268 6 6 12.268 6 20s6.268 14 14 14Z" fill="#F6931A"></path><path d="M14.977 21.436c1.198-1.435.68-3.383.272-4.177 1.312.197 2.203 1.173 2.68 2.566.476 1.394.262 3.28.216 3.902.236-.351.84-.834 1.708-1.42.868-.587 2.099-.857 2.334-.886.236-.029.846.029 1.197.408.272.295.198.787.122 1.015.002.01 0 .016-.007.02l.007-.02c-.012-.04-.134-.126-.561-.273-.527-.182-.825.151-.908.34-.144.325-.459 1.108-.568 1.635-.109.526-.544 1.233-.749 1.52l-1.021.659h-.704c-.06.015-.381-.005-1.18-.205.34.659 1.066.613 1.634.75-.127.871-.674 1.225-.93 1.293-.402.091-1.395.137-2.157-.408-.763-.545-.5-1.362-.273-1.703l-.772-1.18c-.613-.681-1.539-2.402-.34-3.836Z" fill="#FFF"></path><path d="m18.822 22.231.108-.75.69.214-.798.536ZM23.22 21.005c-.476-.258-.93-.21-1.096-.155.105-.382-.163-.636-.31-.715.136.04.467.14.715.226.31.107.667.381.691.644ZM21.254 20.969l-.905.322c-.33-.12-1.094-.391-1.513-.525.076-.533-.207-1.31-.357-1.631l.464-.048c.576.111 1.825.424 2.216.786.39.362.226.881.095 1.096ZM18.371 18.27l.042.013a.38.38 0 0 1-.042-.013l-.511-.156c-.087-.179-.39-.592-.919-.82.018-.446.214-.954.91-.919a9 9 0 0 1 1.079.339c-.155-.05-.509-.046-.687.374-.214.506-.198 1.06.128 1.182ZM18.717 17.508c-.114.584.208.903.384.99.526.219 1.667.664 2.024.686.445.026.686.017.936-.553.2-.457-.095-.838-.268-.972l-2.024-.695c-.303-.063-.938-.041-1.052.544ZM22.848 19.736l-.946-.312c.158.012.525-.101.732-.65.206-.55-.063-.842-.223-.919l1.105.383c.16.16.435.592.25 1.035-.186.442-.69.493-.918.463ZM23.331 17.526l-.91-.286c.146.018.497-.078.732-.606s-.05-.85-.223-.945l1.052.357c.19.13.517.522.303 1.043-.214.52-.725.508-.954.437ZM19.587 15.457c-.157.542.238.903.454 1.016.446.17 1.404.516 1.668.544.33.036.642-.089.873-.615.186-.42-.142-.793-.33-.927l-1.693-.57c-.259-.042-.815.01-.972.552Z" fill="#FFF"></path><path d="m18.356 15.894 1.025.347c-.17-.058-.462-.322-.259-.918.204-.595.62-.676.803-.642l-1.097-.339c-.25-.044-.777.02-.891.633-.114.614.232.868.419.919ZM22.653 14.962a.232.232 0 0 1-.012-.004l.012.004c.17.051.53-.005.703-.62.177-.632-.072-.898-.219-.952l.913.29c.273.115.752.489.481 1.061-.271.573-.755.584-.962.518l-.916-.297ZM19.485 13.902l1 .352c-.147-.085-.395-.393-.223-.95.173-.558.574-.648.753-.623l-.981-.327c-.273-.033-.848.05-.956.648-.109.597.226.849.407.9Z" fill="#FFF"></path><path d="M21.615 12.89c-.528-.098-.828.363-.913.605-.138.425.173.79.346.92.232.1.741.304.919.314.222.012.697.025.92-.568.177-.473-.14-.834-.322-.956-.096-.063-.422-.216-.95-.314ZM21.741 12.391c-.444-.227-.428-.72-.364-.937.242-.607.738-.648.956-.593l.926.334c.19.154.512.576.265 1.03-.247.454-.658.505-.833.475-.132-.009-.506-.082-.95-.309Z" fill="#FFF"></path></svg>
