<svg xmlns="http://www.w3.org/2000/svg" width="32" height="32" fill="none" style="border-radius:8px;object-fit:cover" viewBox="0 0 40 40"><path fill="#e51f57" d="M0 0h40v40H0z"/><path fill="#fff" d="m26.126 17.842-11.13-.008c-3.033 0-5.557 2.399-5.636 5.483a.15.15 0 0 0 .148.15l11.13.008v.001c3.033 0 5.557-2.399 5.636-5.483a.15.15 0 0 0-.148-.15Zm5.641-8.447L15 9.387c-3.034 0-5.558 2.399-5.637 5.483a.15.15 0 0 0 .148.15l16.769.007v.002c3.034 0 5.557-2.399 5.636-5.483a.15.15 0 0 0-.148-.15ZM12.18 31.887a2.82 2.82 0 1 0 0-5.64 2.82 2.82 0 0 0 0 5.64"/></svg>