<svg xmlns="http://www.w3.org/2000/svg" width="32" height="32" fill="none" style="border-radius:8px;object-fit:cover" viewBox="0 0 40 40"><rect width="40" height="40" fill="#7132f5" rx="6"/><path fill="#fff" fill-rule="evenodd" d="M33 20c0-7.18-5.82-13-13-13S7 12.82 7 20s5.82 13 13 13 13-5.82 13-13m-11.145 9.73c0 .881-.723 1.598-1.75 1.619h-.124c-6.26-.01-11.33-5.087-11.33-11.349C8.65 13.732 13.732 8.65 20 8.65l.101.001c1.16.02 1.755.738 1.755 1.62 0 .897-.794 1.558-1.635 1.558-.84 0-.881 0-1.686.064s-1.637.725-1.637 1.62c0 .9.732 1.625 1.637 1.625h7.136c.902 0 1.634.725 1.634 1.62s-.732 1.62-1.634 1.62H14.68a1.63 1.63 0 0 0-1.637 1.625c0 .895.732 1.62 1.637 1.62h5.541c.903 0 1.634.724 1.634 1.622 0 .895-.73 1.62-1.634 1.62h-1.686c-.905 0-1.637.725-1.637 1.62 0 .897.75 1.552 1.637 1.62l.193.014c.312.024.483.037.653.044.206.008.412.008.867.008.902 0 1.607.663 1.607 1.558Z" clip-rule="evenodd"/></svg>