<svg xmlns="http://www.w3.org/2000/svg" data-name="Layer 1" viewBox="0 0 2000 2000"><path d="M1000.3 36.6h497.9v329.9h-497.9z" style="fill:none;stroke-width:0"/><circle cx="1000" cy="1000" r="1000" style="stroke-width:0;fill:#0d1437"/><path d="M930.3 828.5c47.5-284.6 351.6-246.9 387.8-241.3 37.7 11.4 74.5-26 53.2-62.1-83.8-143.2-250.7-236.6-377.5-243.2 31.5-24.9 137.2-38.6 249.3-34 39.5 1.4 56.1-50.5 22.6-71.7-2.8-1.8-5.7-3.8-9.8-5.2-153.2-47.1-317.6-51.4-474.1-10.3-116 30.1-228.1 84.8-327.5 165.4-41.5 34-79.7 70.8-113.1 109.8-249.3 289.8-280 715.9-67.4 1039.5 4.3 6.6 8.5 12.8 12.8 19.4 3.8 4.8 5.2 7.1 6.6 8.9 9.8 14.6 20.8 28.8 32 42.9 12.3 15.1 25.4 29.7 38.6 43.8 3.2 3.8 6.6 7.1 10.3 10.8 12.3 12.8 24.9 25.4 38.1 37.2.9.9 2.3 1.8 3.2 3.2 14.2 12.8 28.8 24.9 43.4 36.8 3.2 2.8 7.1 5.7 10.8 8.5 13.7 10.3 27.4 20.3 41.1 30.1 1.8.9 3.2 2.3 5.2 3.8 15.5 10.3 31.5 20.8 48 30.1 3.2 1.8 6.6 3.8 9.4 5.7 15.1 8.5 30.1 16.5 45.2 24 1.8.9 3.2 1.8 5.2 2.3 17.4 8.5 34.9 16 52.8 23.1 2.3.9 4.8 1.8 7.1 2.8 16.9 6.6 34 12.8 50.9 17.8 1.4 0 2.8.9 3.8 1.4 18.9 6.2 37.7 11.4 57.1 16 .9 0 1.8 0 2.3.5 18.9 4.8 37.7 8.5 57.1 11.8h2.3c40 6.6 80.1 10.3 120.6 11.8h.9c199.4 5.2 401-57.5 568.4-192.7 102.3-82.9 180.9-183.8 234.7-295 2.8-6.2 6.2-12.8 8.9-18.9 15.5-34.5 29.2-70.1 40-106-523.2 197-959.5-71.2-900.2-426.5l-.5-.9.2.5Z" style="stroke-width:0;fill:#14909c"/><path d="M623.9 915.7c101.8-137.2 148.9-113.1 158.7-155.5 13.2-58-198.4-108.4-363.3 18.3 229-286.6 585.8-352.6 889.7-195 40.5 21.2 85.8-19.4 62.6-58.5-83.8-143.2-250.7-236.6-377.5-243.2 31.5-24.9 137.2-38.6 249.3-34 39.5 1.4 56.1-50.5 22.6-71.7-2.8-1.8-5.7-3.8-9.8-5.2-153.2-47.1-317.6-51.4-474.1-10.3-116 30.1-228.1 84.8-327.5 165.4-41.5 34-79.7 70.8-113.1 109.8-249.3 289.8-280 715.9-67.4 1039.5 4.3 6.6 8.5 12.8 12.8 19.4 3.8 4.8 5.2 7.1 6.6 8.9 9.8 14.6 20.8 28.8 32 42.9 222 274.3 576.4 377.5 896.3 293.2-818.2-121.1-693.3-795.6-598.1-923.7v-.5.2Z" style="stroke-width:0;fill:#22e1c9"/></svg>