<svg viewBox="0 0 40 40" fill="none" xmlns="http://www.w3.org/2000/svg" width="32" height="32" alt="mantle" style="border-radius: 8px; object-fit: cover;"><g clip-path="url(#mantle_svg__a)"><path fill="#000" d="M0 0h40v40H0z"></path><g clip-path="url(#mantle_svg__b)" fill="#fff"><path d="m19.947 32.827.001-4.354a8.35 8.35 0 0 1-1.314-.105l-.675 4.302c.655.104 1.324.157 1.988.157Zm1.987-.155a12.7 12.7 0 0 0 1.941-.466l-1.332-4.143a8.31 8.31 0 0 1-1.281.307l.672 4.302Zm-5.917-.469 1.336-4.142a8.306 8.306 0 0 1-1.215-.506l-1.967 3.879c.592.304 1.213.563 1.846.77Zm9.703-.764a12.668 12.668 0 0 0 1.704-1.05l-2.547-3.522c-.354.26-.731.492-1.12.691l1.963 3.88ZM12.47 30.382l2.55-3.52a8.538 8.538 0 0 1-1.001-.861l-3.063 3.077.002.003c.47.473.979.91 1.512 1.3Zm16.448-1.275.026-.027c.469-.472.903-.982 1.292-1.518l-3.497-2.565a8.626 8.626 0 0 1-.855 1.005l-.043.044 1.471 1.398 1.606 1.663ZM9.66 27.554l3.499-2.563a8.39 8.39 0 0 1-.688-1.128L8.615 25.84c.301.595.652 1.172 1.045 1.713Zm21.622-1.705c.302-.595.559-1.22.765-1.858l-4.117-1.344c-.135.419-.305.83-.503 1.222l3.855 1.98Zm-23.43-1.867 4.118-1.341a8.537 8.537 0 0 1-.307-1.289l-4.275.678c.103.661.26 1.318.464 1.953Zm24.66-1.942c.104-.66.156-1.332.157-2l-4.328-.003c0 .442-.035.887-.104 1.323l4.275.68Zm-20.951-2.01c0-.441.034-.887.102-1.322l-4.275-.678c-.104.659-.156 1.332-.157 2h4.329Zm16.678-1.315 4.276-.676a12.906 12.906 0 0 0-.463-1.953l-4.119 1.34c.136.419.238.852.306 1.288ZM11.97 17.42c.136-.419.305-.83.503-1.223L8.616 14.22c-.302.595-.559 1.22-.764 1.857l4.117 1.343Zm15.463-1.217 3.858-1.974a12.77 12.77 0 0 0-1.044-1.713l-3.5 2.561c.257.356.487.735.686 1.127ZM13.16 15.07c.258-.355.546-.695.858-1.008l.009-.009-3.06-3.079-.009.009c-.47.473-.906.986-1.296 1.523l3.498 2.564Zm12.738-.993.925-.948 2.127-2.14-.006-.007c-.468-.47-.975-.907-1.506-1.297l-2.551 3.518c.351.258.686.546.996.859l.015.015Zm-10.87-.883c.354-.26.731-.491 1.12-.69l-1.96-3.882c-.593.303-1.166.656-1.704 1.05l2.544 3.522Zm8.74-.684 1.97-3.877a12.608 12.608 0 0 0-1.846-.77l-1.338 4.141a8.31 8.31 0 0 1 1.214.507ZM17.363 12a8.436 8.436 0 0 1 1.28-.307l-.669-4.303c-.656.103-1.31.26-1.941.465L17.364 12Zm3.909-.305.677-4.302a12.699 12.699 0 0 0-1.987-.158l-.005 4.355c.44 0 .881.036 1.315.105Z"></path><path d="M19.949 28.665v-4.377c-.366 0-.73-.047-1.084-.141l-1.129 4.228a8.59 8.59 0 0 0 2.213.29Zm2.212-.29a8.521 8.521 0 0 0 2.067-.855l-2.19-3.79a4.13 4.13 0 0 1-1.005.416l1.128 4.23Zm-6.493-.855 2.192-3.79a4.237 4.237 0 0 1-.866-.665l-.04-.04-1.383 1.456-1.697 1.653.025.024c.53.53 1.126.988 1.77 1.362Zm10.33-1.36H26a8.635 8.635 0 0 0 1.36-1.77L23.57 22.2a4.205 4.205 0 0 1-.666.865L26 26.16Zm-13.465-1.779 3.792-2.186a4.118 4.118 0 0 1-.414-1.006l-4.23 1.125c.192.723.479 1.42.852 2.067Zm15.682-2.056c.193-.72.29-1.465.291-2.212l-4.377-.002c0 .366-.048.731-.142 1.084l4.228 1.13Zm-12.445-2.22c0-.366.048-.73.143-1.083l-4.228-1.133a8.552 8.552 0 0 0-.291 2.213l4.377.004h-.001Zm8.218-1.078 4.229-1.127a8.55 8.55 0 0 0-.854-2.066l-3.79 2.188c.181.315.321.653.415 1.005Zm-7.659-1.01c.18-.31.401-.597.657-.855l.011-.01-1.565-1.566-1.506-1.553-.027.027a8.56 8.56 0 0 0-1.357 1.764l3.787 2.193Zm6.578-.86 1.55-1.55 1.582-1.507-.04-.04a8.599 8.599 0 0 0-1.766-1.36L22.04 16.49c.31.179.598.4.856.656l.011.011Zm-5.045-.67a4.14 4.14 0 0 1 1.005-.416l-1.126-4.23c-.724.194-1.42.48-2.067.855l2.188 3.79Zm3.173-.414 1.132-4.229a8.588 8.588 0 0 0-2.212-.291l-.003 4.376c.366 0 .731.048 1.084.143Z"></path></g></g><defs><clipPath id="mantle_svg__a"><rect width="40" height="40" rx="6" fill="#fff"></rect></clipPath><clipPath id="mantle_svg__b"><path fill="#fff" transform="translate(7 7)" d="M0 0h26v26H0z"></path></clipPath></defs></svg>
