<svg width="32" height="32" viewBox="0 0 40 40" xmlns="http://www.w3.org/2000/svg" alt="megaeth" style="border-radius: 8px; object-fit: cover;"><path fill="#dfd9d9" d="M0 0h40v40H0z"></path><g fill="#19191a"><path d="M22.734 27.769c.86 0 1.555-.694 1.555-1.55a1.551 1.551 0 0 0-3.102 0c0 .856.694 1.55 1.547 1.55zM17.164 27.815c.86 0 1.548-.694 1.548-1.55 0-.856-.688-1.55-1.548-1.55a1.55 1.55 0 0 0 0 3.1z"></path><path d="M13.77 11.621h3.693c.695 1.88 2.508 7.206 2.64 7.503.034-.148 1.86-5.953 2.376-7.47h3.839v13.242c-.477-.264-.953-.528-1.47-.825-.357-.181-.688-.38-1.052-.528a456.201 456.201 0 0 0-.145-7.8c-.516 1.534-2.297 6.943-2.442 7.091h-2.376s-2.31-6.563-2.422-6.86a380.503 380.503 0 0 1-.152 7.652c-1.417.726-2.257 1.138-2.522 1.237V11.62z"></path><path d="M20.003 8.226c6.48 0 11.774 5.277 11.774 11.774 0 6.497-5.275 11.774-11.774 11.774S8.23 26.497 8.23 20c0-6.497 5.275-11.774 11.773-11.774zm0-2.226C12.267 6 6 12.266 6 20s6.267 14 14.003 14C27.733 34 34 27.734 34 20S27.733 6 20.003 6z"></path></g></svg>
