<svg xmlns="http://www.w3.org/2000/svg" width="32" height="32" fill="none" style="border-radius:8px;object-fit:cover" viewBox="0 0 640 640"><path fill="#1be500" d="M0 0h640v640H0z"/><path fill="#0e0e11" d="M296.571 212.271c2.675.862 5.502.915 8.257 1.617 19.866 5.097 32.992 22.629 34.285 42.709.392 6.145-1.169 16.918.374 22.247 2.167 7.46 13.215 9.725 18.547 4.058 18.653-17.913 35.381-40.311 54.088-57.851 7.285-6.829 16.079-11.106 25.878-12.918 4.52-.128 8.692-.27 12.455.129 19.545 0 39.447 18.859 39.447 39.663L490 409.049c-2.14 24.707-38.992 24.157-41.329 1.163-1.712-16.874 1.32-36.474.018-53.597-1.025-13.437-14.275-20.568-24.601-10.719-22.862 21.812-43.219 48.535-66.152 70.56-23.282 20.426-60.143 11.643-71.227-17.265-5.216-13.615-.561-25.409-2.978-38.117-1.587-8.358-11.609-12.15-18.306-6.83l-59.26 62.532c-46.188 35.843-102.497-21.679-62.586-66.999 37.869-43.002 80.277-82.363 118.253-125.33 7.008-6.376 18.065-11.314 27.552-12.193h7.187z"/></svg>