<svg xmlns="http://www.w3.org/2000/svg" width="32" height="32" fill="none" style="border-radius:8px;object-fit:cover" viewBox="0 0 40 40"><path fill="#fd3a50" d="M0 0h40v40H0z"/><path fill="#fff" d="M14.17 25.316q-1.785 0-2.927-.84-1.126-.857-1.126-2.433 0-.33.075-.81.195-1.081.556-2.597 1.02-4.128 5.269-4.128 1.155 0 2.071.39.915.375 1.441 1.14.526.752.526 1.802 0 .316-.076.796-.225 1.335-.54 2.597-.526 2.055-1.816 3.077-1.29 1.006-3.453 1.006m.21-2.162q.84 0 1.426-.495.6-.495.856-1.516.345-1.412.525-2.462.06-.315.06-.646 0-1.365-1.426-1.366-.84 0-1.44.496-.585.495-.841 1.516a33 33 0 0 0-.54 2.462q-.06.3-.06.63 0 1.38 1.44 1.381m6.366 2.012a.32.32 0 0 1-.255-.105.36.36 0 0 1-.045-.27l2.072-9.758a.43.43 0 0 1 .165-.27.46.46 0 0 1 .285-.105h3.993q1.665 0 2.672.69 1.02.691 1.02 1.997 0 .375-.09.78-.375 1.727-1.516 2.553-1.125.825-3.092.825H23.93l-.69 3.288a.43.43 0 0 1-.166.27.46.46 0 0 1-.285.105h-2.042Zm5.314-5.734q.63 0 1.096-.346.48-.345.63-.99.045-.255.045-.45 0-.435-.255-.661-.255-.24-.87-.24h-1.802l-.57 2.687z"/></svg>