<svg width="32" height="32" viewBox="0 0 40 40" fill="none" xmlns="http://www.w3.org/2000/svg" alt="optimism" style="border-radius: 8px; object-fit: cover;"><path fill="#FD3A50" d="M0 0h40v40H0z"></path><path d="M14.17 25.316c-1.19 0-2.166-.28-2.927-.84-.75-.571-1.126-1.382-1.126-2.433 0-.22.025-.49.075-.81.13-.72.316-1.587.556-2.597.68-2.752 2.437-4.128 5.269-4.128.77 0 1.46.13 2.071.39.61.25 1.09.63 1.441 1.14.35.501.526 1.102.526 1.802 0 .21-.026.476-.076.796-.15.89-.33 1.756-.54 2.597-.35 1.37-.956 2.396-1.816 3.077-.86.67-2.012 1.006-3.453 1.006Zm.21-2.162c.56 0 1.036-.165 1.426-.495.4-.33.686-.836.856-1.516.23-.941.405-1.762.525-2.462.04-.21.06-.425.06-.646 0-.91-.475-1.366-1.426-1.366-.56 0-1.04.165-1.44.496-.39.33-.671.835-.841 1.516-.18.67-.36 1.491-.54 2.462-.04.2-.06.41-.06.63 0 .92.48 1.381 1.44 1.381ZM20.746 25.166a.318.318 0 0 1-.255-.105.358.358 0 0 1-.045-.27l2.072-9.758a.43.43 0 0 1 .165-.27.458.458 0 0 1 .285-.105h3.993c1.11 0 2.001.23 2.672.69.68.461 1.02 1.126 1.02 1.997 0 .25-.03.51-.09.78-.25 1.152-.755 2.002-1.516 2.553-.75.55-1.78.825-3.092.825H23.93l-.69 3.288a.43.43 0 0 1-.166.27.457.457 0 0 1-.285.105h-2.042Zm5.314-5.734c.42 0 .786-.115 1.096-.346.32-.23.53-.56.63-.99.03-.17.045-.32.045-.45 0-.29-.084-.511-.255-.661-.17-.16-.46-.24-.87-.24h-1.802l-.57 2.687h1.726Z" fill="#fff"></path></svg>
