<svg xmlns="http://www.w3.org/2000/svg" width="32" height="32" style="border-radius:8px;object-fit:cover" viewBox="0 0 166 166"><path fill="#162f29" d="M0 0h166v166H0z"/><path fill="#fff" d="M133 83.268q0 .76-.022 1.52h-24.319v-1.107H85.252c0-.232.007-.464.007-.688 0-.225 0-.464-.007-.688h23.407v-1.101h24.298q.043 1.032.043 2.064m-48.16-4.99 22.908-2.817.137 1.1 24.189-2.976a51 51 0 0 0-.818-3.512l-23.813 2.933.138 1.1-23.016 2.832c.101.45.196.898.275 1.355zm-1.195-4.432 21.893-5.468.268 1.072 23.233-5.801a53 53 0 0 0-1.543-3.31l-22.552 5.635.268 1.072-22.074 5.518q.27.639.507 1.29zm-1.94-4.15 20.465-7.727.391 1.035 21.654-8.176a47 47 0 0 0-2.223-2.998l-20.698 7.814.391 1.036-20.713 7.82q.383.587.731 1.195zm-2.688-3.838 18.076-9.422.507.985 19.99-10.422a51 51 0 0 0-2.862-2.557l-18.786 9.792.507.984L78.07 64.8c.318.347.636.695.94 1.057h.008zm-4.36-4.143 16.368-10.407.593.934 18.062-11.485a49 49 0 0 0-3.49-2.028L89.7 49.216l.593.934-16.838 10.704c.413.275.811.565 1.21.862h-.007zm-3.867-2.419L84.507 48.05l.703.855 15.447-12.674c-1.31-.5-2.658-.949-4.02-1.34l-13.7 11.239.702.855-14.216 11.66q.696.304 1.369.651zm-5.12-1.991L76.504 46.52l.775.782 13.767-13.68a52 52 0 0 0-4.541-.543l-11.74 11.682.775.782L64.097 56.93c.529.109 1.05.232 1.572.377zm-5.99-.906 8.64-10.472.855.703L80.422 33a51 51 0 0 0-5.055.492L66.41 44.348l.854.703-9.357 11.341a29 29 0 0 1 1.775 0v.007zm-5.177.312 6.655-10.298.927.601 8.046-12.456a50 50 0 0 0-5.388 1.73L59.08 45.06l.927.601-7.373 11.414a27 27 0 0 1 1.869-.37v.008zm-5.75 1.6 4.786-8.973.97.522 6.338-11.87a50 50 0 0 0-5.86 3.36l-3.642 6.822.978.522-5.635 10.559a25 25 0 0 1 2.057-.935zm-4.129 2.108 2.035-5.78 1.043.37 3.954-11.225a51 51 0 0 0-5.634 5.207l-1.702 4.83 1.043.37-2.665 7.56q.933-.705 1.919-1.325zm-5.077 4.135.898-4.2 1.08.231 1.81-8.458a50.5 50.5 0 0 0-5.033 7.763l.804.174-1.652 6.952a26 26 0 0 1 2.093-2.462m-3.73 4.91v-5.562c-1.346 3.556-2.302 7.981-2.817 12.32a26.5 26.5 0 0 1 2.818-6.757zm-2.78 20.445a50 50 0 0 0 2.744 10.668v-4.106a26.5 26.5 0 0 1-2.744-6.562m4.591 9.307 1.441 6.72-.803.174a50 50 0 0 0 5.033 7.763l-1.81-8.458-1.08.231-.912-4.25a26 26 0 0 1-1.869-2.188zm5.02 4.996 2.679 7.605-1.043.37 1.702 4.83a51 51 0 0 0 5.634 5.207l-3.954-11.226-1.043.37-2.042-5.809a29 29 0 0 1-1.927-1.332zm3.997 2.513 5.649 10.588-.978.522 3.643 6.822a50 50 0 0 0 5.859 3.36l-6.337-11.87-.978.522-4.802-8.995a27 27 0 0 1-2.064-.94zm5.946 2.188 7.38 11.428-.928.601 5.664 8.77a50 50 0 0 0 5.388 1.731l-8.046-12.457-.927.601-6.663-10.312a27 27 0 0 1-1.876-.37zm5.272.695 9.357 11.341-.855.703 8.959 10.856a51 51 0 0 0 5.055.492l-11.247-13.637-.855.702-8.64-10.472c-.311.015-.63.015-.948.015-.276 0-.558 0-.833-.015zm6.206-.536 11.435 11.377-.775.782 11.74 11.682a52 52 0 0 0 4.541-.543l-13.76-13.688-.782.79-10.827-10.777c-.514.138-1.043.268-1.571.377zm5.33-1.702 14.203 11.653-.703.854 13.702 11.24a50 50 0 0 0 4.02-1.34l-15.456-12.674-.702.855-13.702-11.24q-.674.349-1.369.652zm4.027-2.216 16.816 10.697-.594.934 16.491 10.486a50 50 0 0 0 3.49-2.027l-18.062-11.486-.594.934L74.627 104.3c-.398.297-.796.587-1.209.862l.007-.007zm4.635-3.94 18.36 9.567-.508.985 18.786 9.791a50 50 0 0 0 2.861-2.556L97.571 108.58l-.507.985-18.055-9.407c-.304.362-.615.717-.941 1.057h-.008zm2.904-3.707 20.684 7.813-.39 1.036 20.697 7.814c.775-.97 1.513-1.97 2.223-2.998l-21.654-8.176-.39 1.035-20.439-7.72c-.231.406-.478.804-.731 1.196m2.166-4.056 22.038 5.504-.268 1.071 22.552 5.635a49 49 0 0 0 1.55-3.31l-23.233-5.8-.268 1.071-21.864-5.46c-.16.434-.333.862-.507 1.289m1.434-4.374 22.98 2.824-.138 1.1 23.812 2.934q.47-1.74.819-3.512l-24.19-2.977-.137 1.1-22.87-2.816q-.122.682-.275 1.354z"/></svg>