<svg width="32" height="32" viewBox="0 0 40 40" fill="none" xmlns="http://www.w3.org/2000/svg" alt="polygon" style="border-radius: 8px; object-fit: cover;"><path fill="#8247E5" d="M0 0h40v40H0z"></path><path d="M26.612 15.61c-.45-.256-1.027-.256-1.54 0l-3.594 2.118-2.44 1.348-3.529 2.118c-.45.257-1.027.257-1.54 0l-2.76-1.669c-.45-.256-.77-.77-.77-1.348V14.97c0-.514.256-1.027.77-1.348l2.76-1.605c.449-.256 1.027-.256 1.54 0l2.76 1.669c.449.257.77.77.77 1.348v2.118l2.439-1.412v-2.182c0-.514-.257-1.027-.77-1.348l-5.135-3.017c-.45-.256-1.027-.256-1.54 0L8.77 12.273c-.513.257-.77.77-.77 1.284v6.032c0 .514.257 1.027.77 1.348l5.199 3.017c.449.256 1.027.256 1.54 0l3.53-2.054 2.439-1.412 3.53-2.054c.449-.257 1.026-.257 1.54 0l2.76 1.605c.449.256.77.77.77 1.347v3.21c0 .513-.257 1.026-.77 1.347l-2.696 1.605c-.45.256-1.027.256-1.54 0l-2.76-1.605c-.45-.257-.77-.77-.77-1.348v-2.053l-2.439 1.412v2.117c0 .514.257 1.027.77 1.348l5.199 3.017c.449.256 1.027.256 1.54 0l5.198-3.017c.45-.256.77-.77.77-1.348v-6.097c0-.513-.256-1.026-.77-1.347l-5.198-3.017Z" fill="#fff"></path></svg>
