<svg xmlns="http://www.w3.org/2000/svg" width="32" height="32" style="border-radius:8px;object-fit:cover" viewBox="0 0 10.583 10.583"><path d="M0 0h10.583v10.583H0z"/><g fill="#ff931e"><path d="M5.294 3.575a1.048 1.048 0 1 0 0-2.095 1.048 1.048 0 0 0 0 2.095"/><path d="M8.207 5.766a1.048 1.048 0 0 0-1.571.932c.01.462-.405.702-.8.463l-.048-.027c-.399-.223-.399-.698 0-.92.328-.178.55-.524.55-.922v-.024c-.01-.462.406-.702.8-.462a1.047 1.047 0 1 0-.502-.872c.01.462-.405.702-.8.464a1.04 1.04 0 0 0-1.092 0c-.393.237-.807-.003-.796-.463a1.047 1.047 0 1 0-.504.871c.394-.24.81 0 .799.462v.024c0 .398.222.744.549.921.4.223.4.699 0 .921l-.048.028c-.394.236-.807-.003-.796-.464a1.048 1.048 0 1 0-.522.882l.018-.011c.394-.239.81.001.799.463V8.03v.026a1.048 1.048 0 0 0 2.095-.002v-.023c-.01-.462.406-.703.801-.463l.021.013a1.048 1.048 0 1 0 1.047-1.816"/></g></svg>