<svg xmlns="http://www.w3.org/2000/svg" width="32" height="32" fill="none" style="border-radius:8px;object-fit:cover" viewBox="0 0 40 40"><rect width="40" height="40" fill="#001019" rx="6"/><path fill="url(#a)" d="M19.992 32.939c3.843 0 7.296-1.671 9.67-4.327a3.076 3.076 0 0 0-3.945-.07l-.225.182a5.19 5.19 0 0 1-7.134-.584 2.77 2.77 0 0 0-3.871-.258l-2.59 2.22a12.9 12.9 0 0 0 8.095 2.837m4.205-6.28a5.5 5.5 0 0 1 6.907.003 12.9 12.9 0 0 0 1.858-6.692c0-2.721-.838-5.246-2.27-7.331a3.07 3.07 0 0 0-2.682.706l-.216.191a5.19 5.19 0 0 1-7.153-.254 2.77 2.77 0 0 0-3.88-.08l-3.014 2.837-1.659-1.763 3.015-2.836a5.19 5.19 0 0 1 7.267.15 2.77 2.77 0 0 0 3.819.135l.216-.192a5.5 5.5 0 0 1 2.26-1.206A12.92 12.92 0 0 0 19.992 7C13.408 7 7.97 11.906 7.134 18.261c2-.96 4.466-.59 6.097 1.08a2.89 2.89 0 0 0 3.848.258l1.685-1.317a5.61 5.61 0 0 1 7.14.19l3.282 2.86-1.59 1.825-3.282-2.86a3.19 3.19 0 0 0-4.06-.108l-1.685 1.317a5.31 5.31 0 0 1-7.07-.475 2.89 2.89 0 0 0-4.046-.088l-.365.342a12.9 12.9 0 0 0 3.06 7.128l2.763-2.37a5.19 5.19 0 0 1 7.253.485 2.77 2.77 0 0 0 3.808.312l.225-.182z"/><defs><linearGradient id="a" x1="20.004" x2="20.004" y1="32.83" y2="7"><stop offset="0" stop-color="#b52a2a"/><stop offset="1" stop-color="#780000"/></linearGradient></defs></svg>