<svg width="32" height="32" fill="none" viewBox="0 0 40 40" xmlns="http://www.w3.org/2000/svg" alt="sei" style="border-radius: 8px; object-fit: cover;"><rect width="40" height="40" rx="6" fill="#001019"></rect><path d="M19.992 32.939c3.843 0 7.296-1.671 9.67-4.327a3.076 3.076 0 0 0-3.945-.07l-.225.182a5.192 5.192 0 0 1-7.134-.584 2.771 2.771 0 0 0-3.871-.258l-2.59 2.22a12.915 12.915 0 0 0 8.095 2.837zm4.205-6.28a5.497 5.497 0 0 1 6.907.003 12.909 12.909 0 0 0 1.858-6.692c0-2.721-.838-5.246-2.27-7.331a3.071 3.071 0 0 0-2.682.706l-.216.191a5.192 5.192 0 0 1-7.153-.254 2.772 2.772 0 0 0-3.88-.08l-3.014 2.837-1.659-1.763 3.015-2.836a5.192 5.192 0 0 1 7.267.15 2.772 2.772 0 0 0 3.819.135l.216-.192a5.473 5.473 0 0 1 2.26-1.206A12.922 12.922 0 0 0 19.992 7C13.408 7 7.97 11.906 7.134 18.261c2-.96 4.466-.59 6.097 1.08a2.89 2.89 0 0 0 3.848.258l1.685-1.317a5.61 5.61 0 0 1 7.14.19l3.282 2.86-1.59 1.825-3.282-2.86a3.19 3.19 0 0 0-4.06-.108l-1.685 1.317a5.311 5.311 0 0 1-7.07-.475 2.89 2.89 0 0 0-4.046-.088l-.365.342a12.914 12.914 0 0 0 3.06 7.128l2.763-2.37a5.192 5.192 0 0 1 7.253.485 2.772 2.772 0 0 0 3.808.312l.225-.182z" fill="url(#sei_svg__a)"></path><defs><linearGradient id="sei_svg__a" x1="20.004" x2="20.004" y1="32.83" y2="7"><stop stop-color="#B52A2A" offset="0"></stop><stop stop-color="#780000" offset="1"></stop></linearGradient></defs></svg>
