<svg xmlns="http://www.w3.org/2000/svg" width="32" height="32" fill="none" style="border-radius:8px;object-fit:cover" viewBox="0 0 40 40"><rect width="40" height="40" fill="#000" rx="6"/><path fill="url(#a)" d="m31.876 26.031-3.962 4.14a.92.92 0 0 1-.673.284H8.46a.47.47 0 0 1-.252-.073.437.437 0 0 1-.084-.68l3.965-4.14a.92.92 0 0 1 .67-.285h18.78a.47.47 0 0 1 .253.074.438.438 0 0 1 .084.68m-3.962-8.335a.92.92 0 0 0-.673-.285H8.46a.47.47 0 0 0-.422.269.435.435 0 0 0 .086.485l3.965 4.139a.92.92 0 0 0 .67.285h18.78a.47.47 0 0 0 .253-.074.44.44 0 0 0 .084-.68l-3.962-4.14zM8.46 14.721h18.78a.94.94 0 0 0 .673-.285l3.962-4.139a.44.44 0 0 0 .086-.484.45.45 0 0 0-.17-.196.47.47 0 0 0-.252-.074h-18.78a.94.94 0 0 0-.671.285l-3.964 4.14a.44.44 0 0 0-.086.483.47.47 0 0 0 .421.27z"/><defs><linearGradient id="a" x1="10.026" x2="29.147" y1="30.954" y2="8.828" gradientUnits="userSpaceOnUse"><stop offset=".08" stop-color="#9945ff"/><stop offset=".3" stop-color="#8752f3"/><stop offset=".5" stop-color="#5497d5"/><stop offset=".6" stop-color="#43b4ca"/><stop offset=".72" stop-color="#28e0b9"/><stop offset=".97" stop-color="#19fb9b"/></linearGradient></defs></svg>