<svg fill="none" viewBox="0 0 40 40" xmlns="http://www.w3.org/2000/svg" width="32" height="32" alt="solana" style="border-radius: 8px; object-fit: cover;"><rect width="40" height="40" rx="6" fill="#000"></rect><path d="m31.876 26.031-3.962 4.14a.92.92 0 0 1-.673.284H8.46a.469.469 0 0 1-.252-.073.437.437 0 0 1-.084-.68l3.965-4.14a.918.918 0 0 1 .67-.285h18.78c.09 0 .178.026.253.074a.438.438 0 0 1 .084.68zm-3.962-8.335a.92.92 0 0 0-.673-.285H8.46c-.09 0-.177.025-.252.073s-.134.116-.17.196a.435.435 0 0 0 .086.485l3.965 4.139a.92.92 0 0 0 .67.285h18.78c.09 0 .178-.026.253-.074a.439.439 0 0 0 .084-.68l-3.962-4.14zM8.46 14.721H27.24a.942.942 0 0 0 .673-.285l3.962-4.139a.444.444 0 0 0 .086-.484.453.453 0 0 0-.17-.196.47.47 0 0 0-.252-.074h-18.78a.94.94 0 0 0-.671.285l-3.964 4.14a.443.443 0 0 0-.086.483.47.47 0 0 0 .421.27z" fill="url(#solana_svg__a)"></path><defs><linearGradient id="solana_svg__a" x1="10.026" x2="29.147" y1="30.954" y2="8.828" gradientUnits="userSpaceOnUse"><stop stop-color="#9945FF" offset="0.08"></stop><stop stop-color="#8752F3" offset="0.3"></stop><stop stop-color="#5497D5" offset="0.5"></stop><stop stop-color="#43B4CA" offset="0.6"></stop><stop stop-color="#28E0B9" offset="0.72"></stop><stop stop-color="#19FB9B" offset="0.97"></stop></linearGradient></defs></svg>
