<svg width="32" height="32" viewBox="0 0 40 40" xmlns="http://www.w3.org/2000/svg" alt="stable" style="border-radius: 8px; object-fit: cover;"><path fill="#001e1e" d="M0 0h40v40H0z"></path><path d="M19.983 21.285c1.155-.7 2.804-1.67 4.1-1.67 2.073 0 3.807 1.468 3.807 4.258 0 4.45-5.29 8.552-12.765 6.765a.04.04 0 0 0-.049.038v2.406c0 .016.01.03.025.036 1.031.385 2.12.653 3.249.785 8.757 1.03 16.325-6.276 15.603-15.065a13.735 13.735 0 0 0-2.434-6.798c-.01-.015-.03-.024-.055-.01L19.99 18.661c-1.304.744-2.804 1.675-4.097 1.675-2.074 0-3.808-1.469-3.808-4.258 0-4.45 5.29-8.552 12.765-6.765a.039.039 0 0 0 .048-.038V6.908a.039.039 0 0 0-.025-.037A13.98 13.98 0 0 0 20 6C12.268 6 6 12.267 6 20c0 2.933.903 5.655 2.445 7.904a.04.04 0 0 0 .052.012z" fill="#e8fbf7"></path></svg>
