<svg xmlns="http://www.w3.org/2000/svg" width="32" height="32" style="border-radius:8px;object-fit:cover" viewBox="0 0 1080 1080"><path d="M0 0h1080v1080H0z"/><path fill="#fff" d="M773.5 325.2c-.2.7-7 22.7-15 48.8s-14.9 48.5-15.5 49.7l-1 2.3H607.4l-54.9 170.7c-30.2 94-55.2 171.6-55.7 172.5-.8 1.7-4.7 1.8-60.8 1.8-33 0-60-.3-60-.6 0-.4 24.7-77 54.9-170.3 30.1-93.3 55.1-170.6 55.5-171.9l.7-2.2h-71c-49.3 0-71.1-.3-71.1-1.1s28.7-94.7 30.5-99.7c.3-.9 41.1-1.2 199.4-1.2 158.8 0 199 .3 198.6 1.2"/></svg>