<svg width="32" height="32" viewBox="0 0 56 56" fill="none" xmlns="http://www.w3.org/2000/svg" alt="ton" style="border-radius: 8px; object-fit: cover;"><rect width="100%" height="100%" fill="#0098EA"></rect><path d="M28 56c15.464 0 28-12.536 28-28S43.464 0 28 0 0 12.536 0 28s12.536 28 28 28Z" fill="#0098EA"></path><path d="M37.56 15.628H18.44c-3.516 0-5.745 3.792-3.976 6.858l11.801 20.455c.77 1.335 2.7 1.335 3.47 0l11.804-20.455c1.767-3.06-.462-6.858-3.975-6.858h-.003ZM26.255 36.807l-2.57-4.974-6.202-11.092c-.409-.71.096-1.62.953-1.62h7.816V36.81l.003-.002ZM38.51 20.739l-6.2 11.096-2.57 4.972V19.119h7.817c.857 0 1.362.91.953 1.62Z" fill="#fff"></path></svg>
