<svg xmlns="http://www.w3.org/2000/svg" width="32" height="32" style="border-radius:8px;object-fit:cover" viewBox="0 0 2500 2500"><path fill="#eb0029" d="M411.6 0h1676.8C2315.7 0 2500 186.5 2500 416.7v1666.7c0 230.1-184.3 416.7-411.6 416.7H411.6C184.3 2500 0 2313.5 0 2083.3V416.7C0 186.5 184.3 0 411.6 0"/><path fill="#fff" d="M1699.6 669.4 485.2 445.9l639.1 1608.3 890.6-1085zm-19.5 98.4 185.8 176.6-508.1 92zM1247.4 1018 711.8 573.8l875.3 161.1zm-38.2 78.6-87.3 722-470.8-1185zm80.9 38.3 562.7-101.9-645.4 786.3z"/></svg>