<svg xmlns="http://www.w3.org/2000/svg" width="32" height="32" style="border-radius:8px;object-fit:cover" viewBox="0 0 1000 1000"><path d="M0 0h1000v1000H0z"/><g fill="#fff"><path fill-opacity=".5" d="M732.82 576.84h-132.9c-5.647 0-10.224 4.577-10.224 10.223v132.91c0 5.646 4.577 10.223 10.224 10.223h132.9c5.646 0 10.223-4.577 10.223-10.223v-132.91c0-5.646-4.577-10.223-10.223-10.223m0-307.03h-132.9c-5.647 0-10.224 4.577-10.224 10.223v132.91c0 5.647 4.577 10.224 10.224 10.224h132.9c5.646 0 10.223-4.577 10.223-10.224v-132.91c0-5.646-4.577-10.223-10.223-10.223"/><path fill-opacity=".3" d="M785.03 269.81h-132.9c-5.647 0-10.224 4.577-10.224 10.223v132.91c0 5.647 4.577 10.224 10.224 10.224h132.9c5.646 0 10.223-4.577 10.223-10.224v-132.91c0-5.646-4.577-10.223-10.223-10.223m.09 307.03h-132.9c-5.646 0-10.223 4.577-10.223 10.223v132.91c0 5.646 4.577 10.223 10.223 10.223h132.9c5.646 0 10.223-4.577 10.223-10.223v-132.91c0-5.646-4.577-10.223-10.223-10.223"/><path d="M500.84 423.53H368.57c-5.619 0-10.175 4.523-10.175 10.103v131.33c0 5.579 4.556 10.102 10.175 10.102h132.27c5.62 0 10.175-4.523 10.175-10.102v-131.33c0-5.58-4.555-10.103-10.175-10.103M347.75 269.81h-132.9c-5.646 0-10.223 4.577-10.223 10.223v132.91c0 5.647 4.577 10.224 10.223 10.224h132.9c5.646 0 10.223-4.577 10.223-10.224v-132.91c0-5.646-4.577-10.223-10.223-10.223m306.64 0h-132.9c-5.646 0-10.223 4.577-10.223 10.223v132.91c0 5.647 4.577 10.224 10.223 10.224h132.9c5.646 0 10.223-4.577 10.223-10.224v-132.91c0-5.646-4.577-10.223-10.223-10.223m-306.64 306.7h-132.9c-5.646 0-10.223 4.577-10.223 10.223v132.91c0 5.646 4.577 10.223 10.223 10.223h132.9c5.646 0 10.223-4.577 10.223-10.223v-132.91c0-5.646-4.577-10.223-10.223-10.223m306.64 0h-132.9c-5.646 0-10.223 4.577-10.223 10.223v132.91c0 5.646 4.577 10.223 10.223 10.223h132.9c5.646 0 10.223-4.577 10.223-10.223v-132.91c0-5.646-4.577-10.223-10.223-10.223"/></g></svg>